<?xml version="1.0" encoding="UTF-8" standalone="no"?><svg xmlns="http://www.w3.org/2000/svg" xmlns:xlink="http://www.w3.org/1999/xlink" contentScriptType="application/ecmascript" contentStyleType="text/css" height="343px" preserveAspectRatio="none" style="width:577px;height:343px;" version="1.1" viewBox="0 0 577 343" width="577px" zoomAndPan="magnify"><defs><filter height="300%" id="f3xfup9wy0bfl" width="300%" x="-1" y="-1"><feGaussianBlur result="blurOut" stdDeviation="2.0"/><feColorMatrix in="blurOut" result="blurOut2" type="matrix" values="0 0 0 0 0 0 0 0 0 0 0 0 0 0 0 0 0 0 .4 0"/><feOffset dx="4.0" dy="4.0" in="blurOut2" result="blurOut3"/><feBlend in="SourceGraphic" in2="blurOut3" mode="normal"/></filter></defs><g><!--class Product1--><rect fill="#FEFECE" filter="url(#f3xfup9wy0bfl)" height="48" id="Product1" style="stroke: #A80036; stroke-width: 1.5;" width="81" x="187.5" y="161"/><ellipse cx="202.5" cy="177" fill="#B4A7E5" rx="11" ry="11" style="stroke: #A80036; stroke-width: 1.0;"/><path d="M199.0938,171.2813 L199.0938,170.875 L205.4063,170.875 L205.4063,171.2813 L202.875,171.2813 Q202.875,171.2813 203.0234,171.4141 Q203.1719,171.5469 203.1719,171.8125 L203.1719,181.2969 Q203.1719,181.5625 203.3906,181.6953 Q203.6094,181.8281 203.6094,181.8281 L205.4063,181.8281 L205.4063,182.2344 L199.0938,182.2344 L199.0938,181.8281 L200.625,181.8281 Q200.9531,181.8281 201.0859,181.6953 Q201.2188,181.5625 201.2188,181.2969 L201.2188,171.8125 Q201.2188,171.5469 201.0859,171.4141 Q200.9531,171.2813 200.625,171.2813 L199.0938,171.2813 Z "/><text fill="#000000" font-family="sans-serif" font-size="12" font-style="italic" lengthAdjust="spacingAndGlyphs" textLength="49" x="216.5" y="182.5576">Product1</text><line style="stroke: #A80036; stroke-width: 1.5;" x1="188.5" x2="267.5" y1="193" y2="193"/><line style="stroke: #A80036; stroke-width: 1.5;" x1="188.5" x2="267.5" y1="201" y2="201"/><!--class Product2--><rect fill="#FEFECE" filter="url(#f3xfup9wy0bfl)" height="48" id="Product2" style="stroke: #A80036; stroke-width: 1.5;" width="81" x="303.5" y="161"/><ellipse cx="318.5" cy="177" fill="#B4A7E5" rx="11" ry="11" style="stroke: #A80036; stroke-width: 1.0;"/><path d="M315.0938,171.2813 L315.0938,170.875 L321.4063,170.875 L321.4063,171.2813 L318.875,171.2813 Q318.875,171.2813 319.0234,171.4141 Q319.1719,171.5469 319.1719,171.8125 L319.1719,181.2969 Q319.1719,181.5625 319.3906,181.6953 Q319.6094,181.8281 319.6094,181.8281 L321.4063,181.8281 L321.4063,182.2344 L315.0938,182.2344 L315.0938,181.8281 L316.625,181.8281 Q316.9531,181.8281 317.0859,181.6953 Q317.2188,181.5625 317.2188,181.2969 L317.2188,171.8125 Q317.2188,171.5469 317.0859,171.4141 Q316.9531,171.2813 316.625,171.2813 L315.0938,171.2813 Z "/><text fill="#000000" font-family="sans-serif" font-size="12" font-style="italic" lengthAdjust="spacingAndGlyphs" textLength="49" x="332.5" y="182.5576">Product2</text><line style="stroke: #A80036; stroke-width: 1.5;" x1="304.5" x2="383.5" y1="193" y2="193"/><line style="stroke: #A80036; stroke-width: 1.5;" x1="304.5" x2="383.5" y1="201" y2="201"/><!--class Product11--><rect fill="#FEFECE" filter="url(#f3xfup9wy0bfl)" height="48" id="Product11" style="stroke: #A80036; stroke-width: 1.5;" width="88" x="57" y="284"/><ellipse cx="72" cy="300" fill="#ADD1B2" rx="11" ry="11" style="stroke: #A80036; stroke-width: 1.0;"/><path d="M70.5781,305.3594 Q68.7188,305.3594 67.625,303.9688 Q66.5313,302.5781 66.5313,299.5938 Q66.5313,297.0625 67.6953,295.4063 Q68.8594,293.75 70.8438,293.75 Q72.3125,293.75 72.7813,293.875 Q73.25,294.0781 73.25,294.0781 Q73.25,294.0781 73.25,294.0078 Q73.25,293.9375 73.8594,293.0156 L74.9063,296.6719 L73.5781,297.0781 Q73.1094,295.5313 72.4453,294.8672 Q71.7813,294.2031 70.7188,294.2031 Q70.3281,294.2031 69.5625,295.7344 Q68.7969,297.2656 68.7969,299.5156 Q68.7969,301.9844 69.4609,303.375 Q70.125,304.7656 70.6563,304.7656 Q71.7188,304.7656 72.4766,304 Q73.2344,303.2344 73.5781,301.5781 L74.9063,302.1719 Q74.5781,303.5781 73.6797,304.4688 Q72.7813,305.3594 70.5781,305.3594 Z "/><text fill="#000000" font-family="sans-serif" font-size="12" lengthAdjust="spacingAndGlyphs" textLength="56" x="86" y="305.5576">Product11</text><line style="stroke: #A80036; stroke-width: 1.5;" x1="58" x2="144" y1="316" y2="316"/><line style="stroke: #A80036; stroke-width: 1.5;" x1="58" x2="144" y1="324" y2="324"/><!--class Product12--><rect fill="#FEFECE" filter="url(#f3xfup9wy0bfl)" height="48" id="Product12" style="stroke: #A80036; stroke-width: 1.5;" width="88" x="320" y="284"/><ellipse cx="335" cy="300" fill="#ADD1B2" rx="11" ry="11" style="stroke: #A80036; stroke-width: 1.0;"/><path d="M333.5781,305.3594 Q331.7188,305.3594 330.625,303.9688 Q329.5313,302.5781 329.5313,299.5938 Q329.5313,297.0625 330.6953,295.4063 Q331.8594,293.75 333.8438,293.75 Q335.3125,293.75 335.7813,293.875 Q336.25,294.0781 336.25,294.0781 Q336.25,294.0781 336.25,294.0078 Q336.25,293.9375 336.8594,293.0156 L337.9063,296.6719 L336.5781,297.0781 Q336.1094,295.5313 335.4453,294.8672 Q334.7813,294.2031 333.7188,294.2031 Q333.3281,294.2031 332.5625,295.7344 Q331.7969,297.2656 331.7969,299.5156 Q331.7969,301.9844 332.4609,303.375 Q333.125,304.7656 333.6563,304.7656 Q334.7188,304.7656 335.4766,304 Q336.2344,303.2344 336.5781,301.5781 L337.9063,302.1719 Q337.5781,303.5781 336.6797,304.4688 Q335.7813,305.3594 333.5781,305.3594 Z "/><text fill="#000000" font-family="sans-serif" font-size="12" lengthAdjust="spacingAndGlyphs" textLength="56" x="349" y="305.5576">Product12</text><line style="stroke: #A80036; stroke-width: 1.5;" x1="321" x2="407" y1="316" y2="316"/><line style="stroke: #A80036; stroke-width: 1.5;" x1="321" x2="407" y1="324" y2="324"/><!--class Product21--><rect fill="#FEFECE" filter="url(#f3xfup9wy0bfl)" height="48" id="Product21" style="stroke: #A80036; stroke-width: 1.5;" width="88" x="191" y="284"/><ellipse cx="206" cy="300" fill="#ADD1B2" rx="11" ry="11" style="stroke: #A80036; stroke-width: 1.0;"/><path d="M204.5781,305.3594 Q202.7188,305.3594 201.625,303.9688 Q200.5313,302.5781 200.5313,299.5938 Q200.5313,297.0625 201.6953,295.4063 Q202.8594,293.75 204.8438,293.75 Q206.3125,293.75 206.7813,293.875 Q207.25,294.0781 207.25,294.0781 Q207.25,294.0781 207.25,294.0078 Q207.25,293.9375 207.8594,293.0156 L208.9063,296.6719 L207.5781,297.0781 Q207.1094,295.5313 206.4453,294.8672 Q205.7813,294.2031 204.7188,294.2031 Q204.3281,294.2031 203.5625,295.7344 Q202.7969,297.2656 202.7969,299.5156 Q202.7969,301.9844 203.4609,303.375 Q204.125,304.7656 204.6563,304.7656 Q205.7188,304.7656 206.4766,304 Q207.2344,303.2344 207.5781,301.5781 L208.9063,302.1719 Q208.5781,303.5781 207.6797,304.4688 Q206.7813,305.3594 204.5781,305.3594 Z "/><text fill="#000000" font-family="sans-serif" font-size="12" lengthAdjust="spacingAndGlyphs" textLength="56" x="220" y="305.5576">Product21</text><line style="stroke: #A80036; stroke-width: 1.5;" x1="192" x2="278" y1="316" y2="316"/><line style="stroke: #A80036; stroke-width: 1.5;" x1="192" x2="278" y1="324" y2="324"/><!--class Product22--><rect fill="#FEFECE" filter="url(#f3xfup9wy0bfl)" height="48" id="Product22" style="stroke: #A80036; stroke-width: 1.5;" width="88" x="446" y="284"/><ellipse cx="461" cy="300" fill="#ADD1B2" rx="11" ry="11" style="stroke: #A80036; stroke-width: 1.0;"/><path d="M459.5781,305.3594 Q457.7188,305.3594 456.625,303.9688 Q455.5313,302.5781 455.5313,299.5938 Q455.5313,297.0625 456.6953,295.4063 Q457.8594,293.75 459.8438,293.75 Q461.3125,293.75 461.7813,293.875 Q462.25,294.0781 462.25,294.0781 Q462.25,294.0781 462.25,294.0078 Q462.25,293.9375 462.8594,293.0156 L463.9063,296.6719 L462.5781,297.0781 Q462.1094,295.5313 461.4453,294.8672 Q460.7813,294.2031 459.7188,294.2031 Q459.3281,294.2031 458.5625,295.7344 Q457.7969,297.2656 457.7969,299.5156 Q457.7969,301.9844 458.4609,303.375 Q459.125,304.7656 459.6563,304.7656 Q460.7188,304.7656 461.4766,304 Q462.2344,303.2344 462.5781,301.5781 L463.9063,302.1719 Q463.5781,303.5781 462.6797,304.4688 Q461.7813,305.3594 459.5781,305.3594 Z "/><text fill="#000000" font-family="sans-serif" font-size="12" lengthAdjust="spacingAndGlyphs" textLength="56" x="475" y="305.5576">Product22</text><line style="stroke: #A80036; stroke-width: 1.5;" x1="447" x2="533" y1="316" y2="316"/><line style="stroke: #A80036; stroke-width: 1.5;" x1="447" x2="533" y1="324" y2="324"/><!--class Factory--><rect fill="#FEFECE" filter="url(#f3xfup9wy0bfl)" height="78.0459" id="Factory" style="stroke: #A80036; stroke-width: 1.5;" width="140" x="216" y="8"/><ellipse cx="261.75" cy="24" fill="#B4A7E5" rx="11" ry="11" style="stroke: #A80036; stroke-width: 1.0;"/><path d="M258.3438,18.2813 L258.3438,17.875 L264.6563,17.875 L264.6563,18.2813 L262.125,18.2813 Q262.125,18.2813 262.2734,18.4141 Q262.4219,18.5469 262.4219,18.8125 L262.4219,28.2969 Q262.4219,28.5625 262.6406,28.6953 Q262.8594,28.8281 262.8594,28.8281 L264.6563,28.8281 L264.6563,29.2344 L258.3438,29.2344 L258.3438,28.8281 L259.875,28.8281 Q260.2031,28.8281 260.3359,28.6953 Q260.4688,28.5625 260.4688,28.2969 L260.4688,18.8125 Q260.4688,18.5469 260.3359,18.4141 Q260.2031,18.2813 259.875,18.2813 L258.3438,18.2813 Z "/><text fill="#000000" font-family="sans-serif" font-size="12" font-style="italic" lengthAdjust="spacingAndGlyphs" textLength="40" x="282.25" y="29.5576">Factory</text><line style="stroke: #A80036; stroke-width: 1.5;" x1="217" x2="355" y1="40" y2="40"/><line style="stroke: #A80036; stroke-width: 1.5;" x1="217" x2="355" y1="48" y2="48"/><text fill="#000000" font-family="sans-serif" font-size="11" lengthAdjust="spacingAndGlyphs" textLength="128" x="222" y="64.606">Product1 createProduct1()</text><text fill="#000000" font-family="sans-serif" font-size="11" lengthAdjust="spacingAndGlyphs" textLength="128" x="222" y="79.6289">Product2 createProduct2()</text><!--class Factory1--><rect fill="#FEFECE" filter="url(#f3xfup9wy0bfl)" height="78.0459" id="Factory1" style="stroke: #A80036; stroke-width: 1.5;" width="146" x="6" y="146"/><ellipse cx="51.75" cy="162" fill="#ADD1B2" rx="11" ry="11" style="stroke: #A80036; stroke-width: 1.0;"/><path d="M50.3281,167.3594 Q48.4688,167.3594 47.375,165.9688 Q46.2813,164.5781 46.2813,161.5938 Q46.2813,159.0625 47.4453,157.4063 Q48.6094,155.75 50.5938,155.75 Q52.0625,155.75 52.5313,155.875 Q53,156.0781 53,156.0781 Q53,156.0781 53,156.0078 Q53,155.9375 53.6094,155.0156 L54.6563,158.6719 L53.3281,159.0781 Q52.8594,157.5313 52.1953,156.8672 Q51.5313,156.2031 50.4688,156.2031 Q50.0781,156.2031 49.3125,157.7344 Q48.5469,159.2656 48.5469,161.5156 Q48.5469,163.9844 49.2109,165.375 Q49.875,166.7656 50.4063,166.7656 Q51.4688,166.7656 52.2266,166 Q52.9844,165.2344 53.3281,163.5781 L54.6563,164.1719 Q54.3281,165.5781 53.4297,166.4688 Q52.5313,167.3594 50.3281,167.3594 Z "/><text fill="#000000" font-family="sans-serif" font-size="12" lengthAdjust="spacingAndGlyphs" textLength="46" x="72.25" y="167.5576">Factory1</text><line style="stroke: #A80036; stroke-width: 1.5;" x1="7" x2="151" y1="178" y2="178"/><line style="stroke: #A80036; stroke-width: 1.5;" x1="7" x2="151" y1="186" y2="186"/><text fill="#000000" font-family="sans-serif" font-size="11" lengthAdjust="spacingAndGlyphs" textLength="134" x="12" y="202.606">Product11 createProduct1()</text><text fill="#000000" font-family="sans-serif" font-size="11" lengthAdjust="spacingAndGlyphs" textLength="134" x="12" y="217.6289">Product21 createProduct2()</text><!--class Factory2--><rect fill="#FEFECE" filter="url(#f3xfup9wy0bfl)" height="78.0459" id="Factory2" style="stroke: #A80036; stroke-width: 1.5;" width="146" x="420" y="146"/><ellipse cx="465.75" cy="162" fill="#ADD1B2" rx="11" ry="11" style="stroke: #A80036; stroke-width: 1.0;"/><path d="M464.3281,167.3594 Q462.4688,167.3594 461.375,165.9688 Q460.2813,164.5781 460.2813,161.5938 Q460.2813,159.0625 461.4453,157.4063 Q462.6094,155.75 464.5938,155.75 Q466.0625,155.75 466.5313,155.875 Q467,156.0781 467,156.0781 Q467,156.0781 467,156.0078 Q467,155.9375 467.6094,155.0156 L468.6563,158.6719 L467.3281,159.0781 Q466.8594,157.5313 466.1953,156.8672 Q465.5313,156.2031 464.4688,156.2031 Q464.0781,156.2031 463.3125,157.7344 Q462.5469,159.2656 462.5469,161.5156 Q462.5469,163.9844 463.2109,165.375 Q463.875,166.7656 464.4063,166.7656 Q465.4688,166.7656 466.2266,166 Q466.9844,165.2344 467.3281,163.5781 L468.6563,164.1719 Q468.3281,165.5781 467.4297,166.4688 Q466.5313,167.3594 464.3281,167.3594 Z "/><text fill="#000000" font-family="sans-serif" font-size="12" lengthAdjust="spacingAndGlyphs" textLength="46" x="486.25" y="167.5576">Factory2</text><line style="stroke: #A80036; stroke-width: 1.5;" x1="421" x2="565" y1="178" y2="178"/><line style="stroke: #A80036; stroke-width: 1.5;" x1="421" x2="565" y1="186" y2="186"/><text fill="#000000" font-family="sans-serif" font-size="11" lengthAdjust="spacingAndGlyphs" textLength="134" x="426" y="202.606">Product12 createProduct1()</text><text fill="#000000" font-family="sans-serif" font-size="11" lengthAdjust="spacingAndGlyphs" textLength="134" x="426" y="217.6289">Product22 createProduct2()</text><!--reverse link Product1 to Product11--><path d="M189.276,222.894 C168.529,242.6611 143.597,266.415 125.529,283.6297 " fill="none" id="Product1&lt;-Product11" style="stroke: #A80036; stroke-width: 1.0; stroke-dasharray: 7.0,7.0;"/><polygon fill="none" points="184.505,217.772,203.813,209.044,194.162,227.908,184.505,217.772" style="stroke: #A80036; stroke-width: 1.0;"/><!--reverse link Product1 to Product12--><path d="M269.143,222.605 C291.425,242.4292 318.289,266.331 337.733,283.6297 " fill="none" id="Product1&lt;-Product12" style="stroke: #A80036; stroke-width: 1.0; stroke-dasharray: 7.0,7.0;"/><polygon fill="none" points="264.19,227.568,253.901,209.044,273.496,217.108,264.19,227.568" style="stroke: #A80036; stroke-width: 1.0;"/><!--reverse link Product2 to Product21--><path d="M309.718,224.056 C292.125,243.5856 271.257,266.7509 256.053,283.6297 " fill="none" id="Product2&lt;-Product21" style="stroke: #A80036; stroke-width: 1.0; stroke-dasharray: 7.0,7.0;"/><polygon fill="none" points="304.654,219.219,323.241,209.044,315.056,228.589,304.654,219.219" style="stroke: #A80036; stroke-width: 1.0;"/><!--reverse link Product2 to Product22--><path d="M387.473,222.029 C411.527,241.9644 440.726,266.1631 461.801,283.6297 " fill="none" id="Product2&lt;-Product22" style="stroke: #A80036; stroke-width: 1.0; stroke-dasharray: 7.0,7.0;"/><polygon fill="none" points="382.737,227.196,371.805,209.044,391.671,216.417,382.737,227.196" style="stroke: #A80036; stroke-width: 1.0;"/><!--reverse link Factory to Factory1--><path d="M211.167,97.166 C186.712,113.233 159.938,130.823 136.922,145.945 " fill="none" id="Factory&lt;-Factory1" style="stroke: #A80036; stroke-width: 1.0; stroke-dasharray: 7.0,7.0;"/><polygon fill="none" points="207.505,91.196,228.064,86.064,215.192,102.897,207.505,91.196" style="stroke: #A80036; stroke-width: 1.0;"/><!--reverse link Factory to Factory2--><path d="M360.833,97.166 C385.288,113.233 412.062,130.823 435.078,145.945 " fill="none" id="Factory&lt;-Factory2" style="stroke: #A80036; stroke-width: 1.0; stroke-dasharray: 7.0,7.0;"/><polygon fill="none" points="356.808,102.897,343.936,86.064,364.495,91.196,356.808,102.897" style="stroke: #A80036; stroke-width: 1.0;"/><!--link Factory1 to Product11--><path d="M85.9609,224.285 C89.1504,241.8269 92.8659,262.2622 95.8058,278.4319 " fill="none" id="Factory1-&gt;Product11" style="stroke: #A80036; stroke-width: 1.0; stroke-dasharray: 7.0,7.0;"/><polygon fill="#A80036" points="96.7712,283.7416,99.0967,274.1712,95.8768,278.8222,91.2258,275.6023,96.7712,283.7416" style="stroke: #A80036; stroke-width: 1.0;"/><!--link Factory1 to Product21--><path d="M128.359,224.285 C151.959,242.5896 179.62,264.0446 200.856,280.5162 " fill="none" id="Factory1-&gt;Product21" style="stroke: #A80036; stroke-width: 1.0; stroke-dasharray: 7.0,7.0;"/><polygon fill="#A80036" points="205.014,283.7416,200.3538,275.065,201.0631,280.6773,195.4509,281.3865,205.014,283.7416" style="stroke: #A80036; stroke-width: 1.0;"/><!--link Factory2 to Product12--><path d="M452.184,224.285 C432.832,242.4371 410.176,263.6873 392.675,280.1033 " fill="none" id="Factory2-&gt;Product12" style="stroke: #A80036; stroke-width: 1.0; stroke-dasharray: 7.0,7.0;"/><polygon fill="#A80036" points="388.796,283.7416,398.0971,280.5028,392.4432,280.3213,392.6247,274.6674,388.796,283.7416" style="stroke: #A80036; stroke-width: 1.0;"/><!--link Factory2 to Product22--><path d="M492.051,224.285 C491.616,241.8269 491.109,262.2622 490.708,278.4319 " fill="none" id="Factory2-&gt;Product22" style="stroke: #A80036; stroke-width: 1.0; stroke-dasharray: 7.0,7.0;"/><polygon fill="#A80036" points="490.577,283.7416,494.799,274.8436,490.701,278.7431,486.8014,274.6452,490.577,283.7416" style="stroke: #A80036; stroke-width: 1.0;"/><!--
@startuml
interface Product1
interface Product2
class Product11 implements Product1
class Product12 implements Product1
class Product21 implements Product2
class Product22 implements Product2
interface Factory {
    Product1 createProduct1()
    Product2 createProduct2()
}
class Factory1 implements Factory {
    Product11 createProduct1()
    Product21 createProduct2()
}
class Factory2 implements Factory {
    Product12 createProduct1()
    Product22 createProduct2()
}
Factory1 ..> Product11
Factory1 ..> Product21
Factory2 ..> Product12
Factory2 ..> Product22
@enduml

PlantUML version 1.2019.09(Tue Aug 27 00:19:51 CST 2019)
(GPL source distribution)
Java Runtime: Java(TM) SE Runtime Environment
JVM: Java HotSpot(TM) 64-Bit Server VM
Java Version: 1.8.0_231-b11
Operating System: Windows 10
OS Version: 10.0
Default Encoding: GBK
Language: zh
Country: CN
--></g></svg>