<?xml version="1.0" encoding="UTF-8" standalone="no"?><svg xmlns="http://www.w3.org/2000/svg" xmlns:xlink="http://www.w3.org/1999/xlink" contentScriptType="application/ecmascript" contentStyleType="text/css" height="283px" preserveAspectRatio="none" style="width:248px;height:283px;" version="1.1" viewBox="0 0 248 283" width="248px" zoomAndPan="magnify"><defs><filter height="300%" id="fd26dhms96gle" width="300%" x="-1" y="-1"><feGaussianBlur result="blurOut" stdDeviation="2.0"/><feColorMatrix in="blurOut" result="blurOut2" type="matrix" values="0 0 0 0 0 0 0 0 0 0 0 0 0 0 0 0 0 0 .4 0"/><feOffset dx="4.0" dy="4.0" in="blurOut2" result="blurOut3"/><feBlend in="SourceGraphic" in2="blurOut3" mode="normal"/></filter></defs><g><!--class Subject--><rect fill="#FEFECE" filter="url(#fd26dhms96gle)" height="48" id="Subject" style="stroke: #A80036; stroke-width: 1.5;" width="74" x="6" y="116"/><ellipse cx="21" cy="132" fill="#B4A7E5" rx="11" ry="11" style="stroke: #A80036; stroke-width: 1.0;"/><path d="M17.5938,126.2813 L17.5938,125.875 L23.9063,125.875 L23.9063,126.2813 L21.375,126.2813 Q21.375,126.2813 21.5234,126.4141 Q21.6719,126.5469 21.6719,126.8125 L21.6719,136.2969 Q21.6719,136.5625 21.8906,136.6953 Q22.1094,136.8281 22.1094,136.8281 L23.9063,136.8281 L23.9063,137.2344 L17.5938,137.2344 L17.5938,136.8281 L19.125,136.8281 Q19.4531,136.8281 19.5859,136.6953 Q19.7188,136.5625 19.7188,136.2969 L19.7188,126.8125 Q19.7188,126.5469 19.5859,126.4141 Q19.4531,126.2813 19.125,126.2813 L17.5938,126.2813 Z "/><text fill="#000000" font-family="sans-serif" font-size="12" font-style="italic" lengthAdjust="spacingAndGlyphs" textLength="42" x="35" y="137.5576">Subject</text><line style="stroke: #A80036; stroke-width: 1.5;" x1="7" x2="79" y1="148" y2="148"/><line style="stroke: #A80036; stroke-width: 1.5;" x1="7" x2="79" y1="156" y2="156"/><!--class NewSubject--><rect fill="#FEFECE" filter="url(#fd26dhms96gle)" height="48" id="NewSubject" style="stroke: #A80036; stroke-width: 1.5;" width="98" x="127" y="8"/><ellipse cx="142" cy="24" fill="#B4A7E5" rx="11" ry="11" style="stroke: #A80036; stroke-width: 1.0;"/><path d="M138.5938,18.2813 L138.5938,17.875 L144.9063,17.875 L144.9063,18.2813 L142.375,18.2813 Q142.375,18.2813 142.5234,18.4141 Q142.6719,18.5469 142.6719,18.8125 L142.6719,28.2969 Q142.6719,28.5625 142.8906,28.6953 Q143.1094,28.8281 143.1094,28.8281 L144.9063,28.8281 L144.9063,29.2344 L138.5938,29.2344 L138.5938,28.8281 L140.125,28.8281 Q140.4531,28.8281 140.5859,28.6953 Q140.7188,28.5625 140.7188,28.2969 L140.7188,18.8125 Q140.7188,18.5469 140.5859,18.4141 Q140.4531,18.2813 140.125,18.2813 L138.5938,18.2813 Z "/><text fill="#000000" font-family="sans-serif" font-size="12" font-style="italic" lengthAdjust="spacingAndGlyphs" textLength="66" x="156" y="29.5576">NewSubject</text><line style="stroke: #A80036; stroke-width: 1.5;" x1="128" x2="224" y1="40" y2="40"/><line style="stroke: #A80036; stroke-width: 1.5;" x1="128" x2="224" y1="48" y2="48"/><!--class NewSubjectImpl--><rect fill="#FEFECE" filter="url(#fd26dhms96gle)" height="48" id="NewSubjectImpl" style="stroke: #A80036; stroke-width: 1.5;" width="122" x="115" y="116"/><ellipse cx="130" cy="132" fill="#ADD1B2" rx="11" ry="11" style="stroke: #A80036; stroke-width: 1.0;"/><path d="M128.5781,137.3594 Q126.7188,137.3594 125.625,135.9688 Q124.5313,134.5781 124.5313,131.5938 Q124.5313,129.0625 125.6953,127.4063 Q126.8594,125.75 128.8438,125.75 Q130.3125,125.75 130.7813,125.875 Q131.25,126.0781 131.25,126.0781 Q131.25,126.0781 131.25,126.0078 Q131.25,125.9375 131.8594,125.0156 L132.9063,128.6719 L131.5781,129.0781 Q131.1094,127.5313 130.4453,126.8672 Q129.7813,126.2031 128.7188,126.2031 Q128.3281,126.2031 127.5625,127.7344 Q126.7969,129.2656 126.7969,131.5156 Q126.7969,133.9844 127.4609,135.375 Q128.125,136.7656 128.6563,136.7656 Q129.7188,136.7656 130.4766,136 Q131.2344,135.2344 131.5781,133.5781 L132.9063,134.1719 Q132.5781,135.5781 131.6797,136.4688 Q130.7813,137.3594 128.5781,137.3594 Z "/><text fill="#000000" font-family="sans-serif" font-size="12" lengthAdjust="spacingAndGlyphs" textLength="90" x="144" y="137.5576">NewSubjectImpl</text><line style="stroke: #A80036; stroke-width: 1.5;" x1="116" x2="236" y1="148" y2="148"/><line style="stroke: #A80036; stroke-width: 1.5;" x1="116" x2="236" y1="156" y2="156"/><!--class Adapter--><rect fill="#FEFECE" filter="url(#fd26dhms96gle)" height="48" id="Adapter" style="stroke: #A80036; stroke-width: 1.5;" width="74" x="72" y="224"/><ellipse cx="87" cy="240" fill="#ADD1B2" rx="11" ry="11" style="stroke: #A80036; stroke-width: 1.0;"/><path d="M85.5781,245.3594 Q83.7188,245.3594 82.625,243.9688 Q81.5313,242.5781 81.5313,239.5938 Q81.5313,237.0625 82.6953,235.4063 Q83.8594,233.75 85.8438,233.75 Q87.3125,233.75 87.7813,233.875 Q88.25,234.0781 88.25,234.0781 Q88.25,234.0781 88.25,234.0078 Q88.25,233.9375 88.8594,233.0156 L89.9063,236.6719 L88.5781,237.0781 Q88.1094,235.5313 87.4453,234.8672 Q86.7813,234.2031 85.7188,234.2031 Q85.3281,234.2031 84.5625,235.7344 Q83.7969,237.2656 83.7969,239.5156 Q83.7969,241.9844 84.4609,243.375 Q85.125,244.7656 85.6563,244.7656 Q86.7188,244.7656 87.4766,244 Q88.2344,243.2344 88.5781,241.5781 L89.9063,242.1719 Q89.5781,243.5781 88.6797,244.4688 Q87.7813,245.3594 85.5781,245.3594 Z "/><text fill="#000000" font-family="sans-serif" font-size="12" lengthAdjust="spacingAndGlyphs" textLength="42" x="101" y="245.5576">Adapter</text><line style="stroke: #A80036; stroke-width: 1.5;" x1="73" x2="145" y1="256" y2="256"/><line style="stroke: #A80036; stroke-width: 1.5;" x1="73" x2="145" y1="264" y2="264"/><!--reverse link NewSubject to NewSubjectImpl--><path d="M176,76.024 C176,89.579 176,104.038 176,115.678 " fill="none" id="NewSubject&lt;-NewSubjectImpl" style="stroke: #A80036; stroke-width: 1.0; stroke-dasharray: 7.0,7.0;"/><polygon fill="none" points="169,76,176,56,183,76,169,76" style="stroke: #A80036; stroke-width: 1.0;"/><!--reverse link NewSubjectImpl to Adapter--><path d="M150.632,181.134 C141.552,195.4992 131.624,211.2066 123.741,223.6784 " fill="none" id="NewSubjectImpl&lt;-Adapter" style="stroke: #A80036; stroke-width: 1.0;"/><polygon fill="none" points="144.859,177.1664,161.462,164,156.693,184.6465,144.859,177.1664" style="stroke: #A80036; stroke-width: 1.0;"/><!--reverse link Subject to Adapter--><path d="M67.9891,181.134 C76.9335,195.4992 86.7136,211.2066 94.479,223.6784 " fill="none" id="Subject&lt;-Adapter" style="stroke: #A80036; stroke-width: 1.0; stroke-dasharray: 7.0,7.0;"/><polygon fill="none" points="61.9499,184.6783,57.321,164,73.8345,177.2784,61.9499,184.6783" style="stroke: #A80036; stroke-width: 1.0;"/><!--
@startuml
interface Subject
interface NewSubject
class NewSubjectImpl implements NewSubject
class Adapter extends NewSubjectImpl implements Subject
@enduml

PlantUML version 1.2019.09(Tue Aug 27 00:19:51 CST 2019)
(GPL source distribution)
Java Runtime: Java(TM) SE Runtime Environment
JVM: Java HotSpot(TM) 64-Bit Server VM
Java Version: 1.8.0_231-b11
Operating System: Windows 10
OS Version: 10.0
Default Encoding: GBK
Language: zh
Country: CN
--></g></svg>