<?xml version="1.0" encoding="UTF-8" standalone="no"?><svg xmlns="http://www.w3.org/2000/svg" xmlns:xlink="http://www.w3.org/1999/xlink" contentScriptType="application/ecmascript" contentStyleType="text/css" height="190px" preserveAspectRatio="none" style="width:320px;height:190px;" version="1.1" viewBox="0 0 320 190" width="320px" zoomAndPan="magnify"><defs><filter height="300%" id="f126b6r1kvej6h" width="300%" x="-1" y="-1"><feGaussianBlur result="blurOut" stdDeviation="2.0"/><feColorMatrix in="blurOut" result="blurOut2" type="matrix" values="0 0 0 0 0 0 0 0 0 0 0 0 0 0 0 0 0 0 .4 0"/><feOffset dx="4.0" dy="4.0" in="blurOut2" result="blurOut3"/><feBlend in="SourceGraphic" in2="blurOut3" mode="normal"/></filter></defs><g><!--class Subject--><rect fill="#FEFECE" filter="url(#f126b6r1kvej6h)" height="48" id="Subject" style="stroke: #A80036; stroke-width: 1.5;" width="74" x="42" y="8"/><ellipse cx="57" cy="24" fill="#B4A7E5" rx="11" ry="11" style="stroke: #A80036; stroke-width: 1.0;"/><path d="M53.5938,18.2813 L53.5938,17.875 L59.9063,17.875 L59.9063,18.2813 L57.375,18.2813 Q57.375,18.2813 57.5234,18.4141 Q57.6719,18.5469 57.6719,18.8125 L57.6719,28.2969 Q57.6719,28.5625 57.8906,28.6953 Q58.1094,28.8281 58.1094,28.8281 L59.9063,28.8281 L59.9063,29.2344 L53.5938,29.2344 L53.5938,28.8281 L55.125,28.8281 Q55.4531,28.8281 55.5859,28.6953 Q55.7188,28.5625 55.7188,28.2969 L55.7188,18.8125 Q55.7188,18.5469 55.5859,18.4141 Q55.4531,18.2813 55.125,18.2813 L53.5938,18.2813 Z "/><text fill="#000000" font-family="sans-serif" font-size="12" font-style="italic" lengthAdjust="spacingAndGlyphs" textLength="42" x="71" y="29.5576">Subject</text><line style="stroke: #A80036; stroke-width: 1.5;" x1="43" x2="115" y1="40" y2="40"/><line style="stroke: #A80036; stroke-width: 1.5;" x1="43" x2="115" y1="48" y2="48"/><!--class NewSubject--><rect fill="#FEFECE" filter="url(#f126b6r1kvej6h)" height="48" id="NewSubject" style="stroke: #A80036; stroke-width: 1.5;" width="98" x="175" y="8"/><ellipse cx="190" cy="24" fill="#B4A7E5" rx="11" ry="11" style="stroke: #A80036; stroke-width: 1.0;"/><path d="M186.5938,18.2813 L186.5938,17.875 L192.9063,17.875 L192.9063,18.2813 L190.375,18.2813 Q190.375,18.2813 190.5234,18.4141 Q190.6719,18.5469 190.6719,18.8125 L190.6719,28.2969 Q190.6719,28.5625 190.8906,28.6953 Q191.1094,28.8281 191.1094,28.8281 L192.9063,28.8281 L192.9063,29.2344 L186.5938,29.2344 L186.5938,28.8281 L188.125,28.8281 Q188.4531,28.8281 188.5859,28.6953 Q188.7188,28.5625 188.7188,28.2969 L188.7188,18.8125 Q188.7188,18.5469 188.5859,18.4141 Q188.4531,18.2813 188.125,18.2813 L186.5938,18.2813 Z "/><text fill="#000000" font-family="sans-serif" font-size="12" font-style="italic" lengthAdjust="spacingAndGlyphs" textLength="66" x="204" y="29.5576">NewSubject</text><line style="stroke: #A80036; stroke-width: 1.5;" x1="176" x2="272" y1="40" y2="40"/><line style="stroke: #A80036; stroke-width: 1.5;" x1="176" x2="272" y1="48" y2="48"/><!--class NewSubjectImpl--><rect fill="#FEFECE" filter="url(#f126b6r1kvej6h)" height="48" id="NewSubjectImpl" style="stroke: #A80036; stroke-width: 1.5;" width="122" x="187" y="123.5"/><ellipse cx="202" cy="139.5" fill="#ADD1B2" rx="11" ry="11" style="stroke: #A80036; stroke-width: 1.0;"/><path d="M200.5781,144.8594 Q198.7188,144.8594 197.625,143.4688 Q196.5313,142.0781 196.5313,139.0938 Q196.5313,136.5625 197.6953,134.9063 Q198.8594,133.25 200.8438,133.25 Q202.3125,133.25 202.7813,133.375 Q203.25,133.5781 203.25,133.5781 Q203.25,133.5781 203.25,133.5078 Q203.25,133.4375 203.8594,132.5156 L204.9063,136.1719 L203.5781,136.5781 Q203.1094,135.0313 202.4453,134.3672 Q201.7813,133.7031 200.7188,133.7031 Q200.3281,133.7031 199.5625,135.2344 Q198.7969,136.7656 198.7969,139.0156 Q198.7969,141.4844 199.4609,142.875 Q200.125,144.2656 200.6563,144.2656 Q201.7188,144.2656 202.4766,143.5 Q203.2344,142.7344 203.5781,141.0781 L204.9063,141.6719 Q204.5781,143.0781 203.6797,143.9688 Q202.7813,144.8594 200.5781,144.8594 Z "/><text fill="#000000" font-family="sans-serif" font-size="12" lengthAdjust="spacingAndGlyphs" textLength="90" x="216" y="145.0576">NewSubjectImpl</text><line style="stroke: #A80036; stroke-width: 1.5;" x1="188" x2="308" y1="155.5" y2="155.5"/><line style="stroke: #A80036; stroke-width: 1.5;" x1="188" x2="308" y1="163.5" y2="163.5"/><!--class Adapter--><rect fill="#FEFECE" filter="url(#f126b6r1kvej6h)" height="63.0229" id="Adapter" style="stroke: #A80036; stroke-width: 1.5;" width="146" x="6" y="116"/><ellipse cx="53.75" cy="132" fill="#ADD1B2" rx="11" ry="11" style="stroke: #A80036; stroke-width: 1.0;"/><path d="M52.3281,137.3594 Q50.4688,137.3594 49.375,135.9688 Q48.2813,134.5781 48.2813,131.5938 Q48.2813,129.0625 49.4453,127.4063 Q50.6094,125.75 52.5938,125.75 Q54.0625,125.75 54.5313,125.875 Q55,126.0781 55,126.0781 Q55,126.0781 55,126.0078 Q55,125.9375 55.6094,125.0156 L56.6563,128.6719 L55.3281,129.0781 Q54.8594,127.5313 54.1953,126.8672 Q53.5313,126.2031 52.4688,126.2031 Q52.0781,126.2031 51.3125,127.7344 Q50.5469,129.2656 50.5469,131.5156 Q50.5469,133.9844 51.2109,135.375 Q51.875,136.7656 52.4063,136.7656 Q53.4688,136.7656 54.2266,136 Q54.9844,135.2344 55.3281,133.5781 L56.6563,134.1719 Q56.3281,135.5781 55.4297,136.4688 Q54.5313,137.3594 52.3281,137.3594 Z "/><text fill="#000000" font-family="sans-serif" font-size="12" lengthAdjust="spacingAndGlyphs" textLength="42" x="74.25" y="137.5576">Adapter</text><line style="stroke: #A80036; stroke-width: 1.5;" x1="7" x2="151" y1="148" y2="148"/><rect fill="none" height="6" style="stroke: #C82930; stroke-width: 1.0;" width="6" x="14" y="156"/><text fill="#000000" font-family="sans-serif" font-size="11" lengthAdjust="spacingAndGlyphs" textLength="120" x="26" y="164.606">NewSubject newSubject</text><line style="stroke: #A80036; stroke-width: 1.5;" x1="7" x2="151" y1="171.0229" y2="171.0229"/><!--reverse link NewSubject to NewSubjectImpl--><path d="M233.09,75.986 C236.486,92.0486 240.213,109.6763 243.092,123.2888 " fill="none" id="NewSubject&lt;-NewSubjectImpl" style="stroke: #A80036; stroke-width: 1.0; stroke-dasharray: 7.0,7.0;"/><polygon fill="none" points="226.204,77.258,228.915,56.242,239.901,74.361,226.204,77.258" style="stroke: #A80036; stroke-width: 1.0;"/><!--reverse link Subject to Adapter--><path d="M79,76.331 C79,89.5427 79,103.784 79,115.9616 " fill="none" id="Subject&lt;-Adapter" style="stroke: #A80036; stroke-width: 1.0; stroke-dasharray: 7.0,7.0;"/><polygon fill="none" points="72.0001,76.242,79,56.242,86.0001,76.242,72.0001,76.242" style="stroke: #A80036; stroke-width: 1.0;"/><!--link NewSubject to Adapter--><path d="M194.307,56.242 C175.367,71.068 150.354,90.6467 128.467,107.7792 " fill="none" id="NewSubject-&gt;Adapter" style="stroke: #A80036; stroke-width: 1.0; stroke-dasharray: 7.0,7.0;"/><polygon fill="#FFFFFF" points="118.014,115.9616,125.2042,115.4132,127.4634,108.5651,120.2732,109.1135,118.014,115.9616" style="stroke: #A80036; stroke-width: 1.0;"/><!--
@startuml
interface Subject
interface NewSubject
class NewSubjectImpl implements NewSubject
class Adapter implements Subject {
    -NewSubject newSubject
}
NewSubject ..o Adapter
@enduml

PlantUML version 1.2019.09(Tue Aug 27 00:19:51 CST 2019)
(GPL source distribution)
Java Runtime: Java(TM) SE Runtime Environment
JVM: Java HotSpot(TM) 64-Bit Server VM
Java Version: 1.8.0_231-b11
Operating System: Windows 10
OS Version: 10.0
Default Encoding: GBK
Language: zh
Country: CN
--></g></svg>