<?xml version="1.0" encoding="UTF-8" standalone="no"?><svg xmlns="http://www.w3.org/2000/svg" xmlns:xlink="http://www.w3.org/1999/xlink" contentScriptType="application/ecmascript" contentStyleType="text/css" height="423px" preserveAspectRatio="none" style="width:730px;height:423px;" version="1.1" viewBox="0 0 730 423" width="730px" zoomAndPan="magnify"><defs><filter height="300%" id="ffd1vp2c5kxc7" width="300%" x="-1" y="-1"><feGaussianBlur result="blurOut" stdDeviation="2.0"/><feColorMatrix in="blurOut" result="blurOut2" type="matrix" values="0 0 0 0 0 0 0 0 0 0 0 0 0 0 0 0 0 0 .4 0"/><feOffset dx="4.0" dy="4.0" in="blurOut2" result="blurOut3"/><feBlend in="SourceGraphic" in2="blurOut3" mode="normal"/></filter></defs><g><!--MD5=[ea70e79ab3003c2ec03e78c7b3d0e1b7]
class Advice--><rect codeLine="1" fill="#FEFECE" filter="url(#ffd1vp2c5kxc7)" height="48" id="Advice" style="stroke: #A80036; stroke-width: 1.5;" width="69" x="357" y="7"/><ellipse cx="372" cy="23" fill="#B4A7E5" rx="11" ry="11" style="stroke: #A80036; stroke-width: 1.0;"/><path d="M368.5938,17.7813 L368.5938,16.6875 L374.5938,16.6875 L374.5938,17.7813 L372.7188,17.7813 Q372.5781,17.7813 372.5156,17.8281 Q372.4688,17.8594 372.4688,17.9688 L372.4688,27.4531 Q372.4688,27.5625 372.5156,27.6094 Q372.5781,27.6406 372.7188,27.6406 L374.5938,27.6406 L374.5938,28.7344 L368.5938,28.7344 L368.5938,27.6406 L370.4688,27.6406 Q370.6563,27.6406 370.6875,27.6094 Q370.7188,27.5781 370.7188,27.4531 L370.7188,17.9688 Q370.7188,17.8438 370.6875,17.8125 Q370.6563,17.7813 370.4688,17.7813 L368.5938,17.7813 Z "/><text fill="#000000" font-family="sans-serif" font-size="12" font-style="italic" lengthAdjust="spacingAndGlyphs" textLength="37" x="386" y="28.5576">Advice</text><line style="stroke: #A80036; stroke-width: 1.5;" x1="358" x2="425" y1="39" y2="39"/><line style="stroke: #A80036; stroke-width: 1.5;" x1="358" x2="425" y1="47" y2="47"/><!--MD5=[83230c66e1d34dd086fcbb0839ae9f14]
class Interceptor--><rect codeLine="2" fill="#FEFECE" filter="url(#ffd1vp2c5kxc7)" height="48" id="Interceptor" style="stroke: #A80036; stroke-width: 1.5;" width="91" x="605" y="122.5"/><ellipse cx="620" cy="138.5" fill="#B4A7E5" rx="11" ry="11" style="stroke: #A80036; stroke-width: 1.0;"/><path d="M616.5938,133.2813 L616.5938,132.1875 L622.5938,132.1875 L622.5938,133.2813 L620.7188,133.2813 Q620.5781,133.2813 620.5156,133.3281 Q620.4688,133.3594 620.4688,133.4688 L620.4688,142.9531 Q620.4688,143.0625 620.5156,143.1094 Q620.5781,143.1406 620.7188,143.1406 L622.5938,143.1406 L622.5938,144.2344 L616.5938,144.2344 L616.5938,143.1406 L618.4688,143.1406 Q618.6563,143.1406 618.6875,143.1094 Q618.7188,143.0781 618.7188,142.9531 L618.7188,133.4688 Q618.7188,133.3438 618.6875,133.3125 Q618.6563,133.2813 618.4688,133.2813 L616.5938,133.2813 Z "/><text fill="#000000" font-family="sans-serif" font-size="12" font-style="italic" lengthAdjust="spacingAndGlyphs" textLength="59" x="634" y="144.0576">Interceptor</text><line style="stroke: #A80036; stroke-width: 1.5;" x1="606" x2="695" y1="154.5" y2="154.5"/><line style="stroke: #A80036; stroke-width: 1.5;" x1="606" x2="695" y1="162.5" y2="162.5"/><!--MD5=[d49e3246f79ce1122dfd0c4c9352a445]
class MethodInterceptor--><rect codeLine="3" fill="#FEFECE" filter="url(#ffd1vp2c5kxc7)" height="63.0229" id="MethodInterceptor" style="stroke: #A80036; stroke-width: 1.5;" width="131" x="585" y="238"/><ellipse cx="600" cy="254" fill="#B4A7E5" rx="11" ry="11" style="stroke: #A80036; stroke-width: 1.0;"/><path d="M596.5938,248.7813 L596.5938,247.6875 L602.5938,247.6875 L602.5938,248.7813 L600.7188,248.7813 Q600.5781,248.7813 600.5156,248.8281 Q600.4688,248.8594 600.4688,248.9688 L600.4688,258.4531 Q600.4688,258.5625 600.5156,258.6094 Q600.5781,258.6406 600.7188,258.6406 L602.5938,258.6406 L602.5938,259.7344 L596.5938,259.7344 L596.5938,258.6406 L598.4688,258.6406 Q598.6563,258.6406 598.6875,258.6094 Q598.7188,258.5781 598.7188,258.4531 L598.7188,248.9688 Q598.7188,248.8438 598.6875,248.8125 Q598.6563,248.7813 598.4688,248.7813 L596.5938,248.7813 Z "/><text fill="#000000" font-family="sans-serif" font-size="12" font-style="italic" lengthAdjust="spacingAndGlyphs" textLength="99" x="614" y="259.5576">MethodInterceptor</text><line style="stroke: #A80036; stroke-width: 1.5;" x1="586" x2="715" y1="270" y2="270"/><line style="stroke: #A80036; stroke-width: 1.5;" x1="586" x2="715" y1="278" y2="278"/><text fill="#000000" font-family="sans-serif" font-size="11" lengthAdjust="spacingAndGlyphs" textLength="39" x="591" y="294.606">invoke()</text><!--MD5=[b734d31eaeb8b9ad83626e847ac3d788]
class MethodBeforeAdvice--><rect codeLine="6" fill="#FEFECE" filter="url(#ffd1vp2c5kxc7)" height="63.0229" id="MethodBeforeAdvice" style="stroke: #A80036; stroke-width: 1.5;" width="145" x="7" y="238"/><ellipse cx="22" cy="254" fill="#B4A7E5" rx="11" ry="11" style="stroke: #A80036; stroke-width: 1.0;"/><path d="M18.5938,248.7813 L18.5938,247.6875 L24.5938,247.6875 L24.5938,248.7813 L22.7188,248.7813 Q22.5781,248.7813 22.5156,248.8281 Q22.4688,248.8594 22.4688,248.9688 L22.4688,258.4531 Q22.4688,258.5625 22.5156,258.6094 Q22.5781,258.6406 22.7188,258.6406 L24.5938,258.6406 L24.5938,259.7344 L18.5938,259.7344 L18.5938,258.6406 L20.4688,258.6406 Q20.6563,258.6406 20.6875,258.6094 Q20.7188,258.5781 20.7188,258.4531 L20.7188,248.9688 Q20.7188,248.8438 20.6875,248.8125 Q20.6563,248.7813 20.4688,248.7813 L18.5938,248.7813 Z "/><text fill="#000000" font-family="sans-serif" font-size="12" font-style="italic" lengthAdjust="spacingAndGlyphs" textLength="113" x="36" y="259.5576">MethodBeforeAdvice</text><line style="stroke: #A80036; stroke-width: 1.5;" x1="8" x2="151" y1="270" y2="270"/><line style="stroke: #A80036; stroke-width: 1.5;" x1="8" x2="151" y1="278" y2="278"/><text fill="#000000" font-family="sans-serif" font-size="11" lengthAdjust="spacingAndGlyphs" textLength="40" x="13" y="294.606">before()</text><!--MD5=[9c86414f81349e66f69a215967437311]
class BeforeAdvice--><rect codeLine="9" fill="#FEFECE" filter="url(#ffd1vp2c5kxc7)" height="48" id="BeforeAdvice" style="stroke: #A80036; stroke-width: 1.5;" width="105" x="117" y="122.5"/><ellipse cx="132" cy="138.5" fill="#B4A7E5" rx="11" ry="11" style="stroke: #A80036; stroke-width: 1.0;"/><path d="M128.5938,133.2813 L128.5938,132.1875 L134.5938,132.1875 L134.5938,133.2813 L132.7188,133.2813 Q132.5781,133.2813 132.5156,133.3281 Q132.4688,133.3594 132.4688,133.4688 L132.4688,142.9531 Q132.4688,143.0625 132.5156,143.1094 Q132.5781,143.1406 132.7188,143.1406 L134.5938,143.1406 L134.5938,144.2344 L128.5938,144.2344 L128.5938,143.1406 L130.4688,143.1406 Q130.6563,143.1406 130.6875,143.1094 Q130.7188,143.0781 130.7188,142.9531 L130.7188,133.4688 Q130.7188,133.3438 130.6875,133.3125 Q130.6563,133.2813 130.4688,133.2813 L128.5938,133.2813 Z "/><text fill="#000000" font-family="sans-serif" font-size="12" font-style="italic" lengthAdjust="spacingAndGlyphs" textLength="73" x="146" y="144.0576">BeforeAdvice</text><line style="stroke: #A80036; stroke-width: 1.5;" x1="118" x2="221" y1="154.5" y2="154.5"/><line style="stroke: #A80036; stroke-width: 1.5;" x1="118" x2="221" y1="162.5" y2="162.5"/><!--MD5=[57464ee1b9c379ddd9ac074a6b6c73d9]
class AfterReturningAdvice--><rect codeLine="10" fill="#FEFECE" filter="url(#ffd1vp2c5kxc7)" height="63.0229" id="AfterReturningAdvice" style="stroke: #A80036; stroke-width: 1.5;" width="148" x="187.5" y="238"/><ellipse cx="202.5" cy="254" fill="#B4A7E5" rx="11" ry="11" style="stroke: #A80036; stroke-width: 1.0;"/><path d="M199.0938,248.7813 L199.0938,247.6875 L205.0938,247.6875 L205.0938,248.7813 L203.2188,248.7813 Q203.0781,248.7813 203.0156,248.8281 Q202.9688,248.8594 202.9688,248.9688 L202.9688,258.4531 Q202.9688,258.5625 203.0156,258.6094 Q203.0781,258.6406 203.2188,258.6406 L205.0938,258.6406 L205.0938,259.7344 L199.0938,259.7344 L199.0938,258.6406 L200.9688,258.6406 Q201.1563,258.6406 201.1875,258.6094 Q201.2188,258.5781 201.2188,258.4531 L201.2188,248.9688 Q201.2188,248.8438 201.1875,248.8125 Q201.1563,248.7813 200.9688,248.7813 L199.0938,248.7813 Z "/><text fill="#000000" font-family="sans-serif" font-size="12" font-style="italic" lengthAdjust="spacingAndGlyphs" textLength="116" x="216.5" y="259.5576">AfterReturningAdvice</text><line style="stroke: #A80036; stroke-width: 1.5;" x1="188.5" x2="334.5" y1="270" y2="270"/><line style="stroke: #A80036; stroke-width: 1.5;" x1="188.5" x2="334.5" y1="278" y2="278"/><text fill="#000000" font-family="sans-serif" font-size="11" lengthAdjust="spacingAndGlyphs" textLength="77" x="193.5" y="294.606">afterReturning()</text><!--MD5=[4b9e0d58e8843f0a58155db1ec7fb245]
class AfterAdvice--><rect codeLine="13" fill="#FEFECE" filter="url(#ffd1vp2c5kxc7)" height="48" id="AfterAdvice" style="stroke: #A80036; stroke-width: 1.5;" width="94" x="257.5" y="122.5"/><ellipse cx="272.5" cy="138.5" fill="#B4A7E5" rx="11" ry="11" style="stroke: #A80036; stroke-width: 1.0;"/><path d="M269.0938,133.2813 L269.0938,132.1875 L275.0938,132.1875 L275.0938,133.2813 L273.2188,133.2813 Q273.0781,133.2813 273.0156,133.3281 Q272.9688,133.3594 272.9688,133.4688 L272.9688,142.9531 Q272.9688,143.0625 273.0156,143.1094 Q273.0781,143.1406 273.2188,143.1406 L275.0938,143.1406 L275.0938,144.2344 L269.0938,144.2344 L269.0938,143.1406 L270.9688,143.1406 Q271.1563,143.1406 271.1875,143.1094 Q271.2188,143.0781 271.2188,142.9531 L271.2188,133.4688 Q271.2188,133.3438 271.1875,133.3125 Q271.1563,133.2813 270.9688,133.2813 L269.0938,133.2813 Z "/><text fill="#000000" font-family="sans-serif" font-size="12" font-style="italic" lengthAdjust="spacingAndGlyphs" textLength="62" x="286.5" y="144.0576">AfterAdvice</text><line style="stroke: #A80036; stroke-width: 1.5;" x1="258.5" x2="350.5" y1="154.5" y2="154.5"/><line style="stroke: #A80036; stroke-width: 1.5;" x1="258.5" x2="350.5" y1="162.5" y2="162.5"/><!--MD5=[9bd35c7818d6841e17698fb4e4a20491]
class ThrowsAdvice--><rect codeLine="14" fill="#FEFECE" filter="url(#ffd1vp2c5kxc7)" height="48" id="ThrowsAdvice" style="stroke: #A80036; stroke-width: 1.5;" width="108" x="370.5" y="245.5"/><ellipse cx="385.5" cy="261.5" fill="#B4A7E5" rx="11" ry="11" style="stroke: #A80036; stroke-width: 1.0;"/><path d="M382.0938,256.2813 L382.0938,255.1875 L388.0938,255.1875 L388.0938,256.2813 L386.2188,256.2813 Q386.0781,256.2813 386.0156,256.3281 Q385.9688,256.3594 385.9688,256.4688 L385.9688,265.9531 Q385.9688,266.0625 386.0156,266.1094 Q386.0781,266.1406 386.2188,266.1406 L388.0938,266.1406 L388.0938,267.2344 L382.0938,267.2344 L382.0938,266.1406 L383.9688,266.1406 Q384.1563,266.1406 384.1875,266.1094 Q384.2188,266.0781 384.2188,265.9531 L384.2188,256.4688 Q384.2188,256.3438 384.1875,256.3125 Q384.1563,256.2813 383.9688,256.2813 L382.0938,256.2813 Z "/><text fill="#000000" font-family="sans-serif" font-size="12" font-style="italic" lengthAdjust="spacingAndGlyphs" textLength="76" x="399.5" y="267.0576">ThrowsAdvice</text><line style="stroke: #A80036; stroke-width: 1.5;" x1="371.5" x2="477.5" y1="277.5" y2="277.5"/><line style="stroke: #A80036; stroke-width: 1.5;" x1="371.5" x2="477.5" y1="285.5" y2="285.5"/><!--MD5=[9cfa2e3e813a1bc793de03b4952a2427]
class IntroductionInterceptor--><rect codeLine="15" fill="#FEFECE" filter="url(#ffd1vp2c5kxc7)" height="48" id="IntroductionInterceptor" style="stroke: #A80036; stroke-width: 1.5;" width="156" x="512.5" y="361"/><ellipse cx="527.5" cy="377" fill="#B4A7E5" rx="11" ry="11" style="stroke: #A80036; stroke-width: 1.0;"/><path d="M524.0938,371.7813 L524.0938,370.6875 L530.0938,370.6875 L530.0938,371.7813 L528.2188,371.7813 Q528.0781,371.7813 528.0156,371.8281 Q527.9688,371.8594 527.9688,371.9688 L527.9688,381.4531 Q527.9688,381.5625 528.0156,381.6094 Q528.0781,381.6406 528.2188,381.6406 L530.0938,381.6406 L530.0938,382.7344 L524.0938,382.7344 L524.0938,381.6406 L525.9688,381.6406 Q526.1563,381.6406 526.1875,381.6094 Q526.2188,381.5781 526.2188,381.4531 L526.2188,371.9688 Q526.2188,371.8438 526.1875,371.8125 Q526.1563,371.7813 525.9688,371.7813 L524.0938,371.7813 Z "/><text fill="#000000" font-family="sans-serif" font-size="12" font-style="italic" lengthAdjust="spacingAndGlyphs" textLength="124" x="541.5" y="382.5576">IntroductionInterceptor</text><line style="stroke: #A80036; stroke-width: 1.5;" x1="513.5" x2="667.5" y1="393" y2="393"/><line style="stroke: #A80036; stroke-width: 1.5;" x1="513.5" x2="667.5" y1="401" y2="401"/><!--MD5=[68f0a33bf79d33423af90b9342c36423]
class DynamicIntroductionAdvice--><rect codeLine="16" fill="#FEFECE" filter="url(#ffd1vp2c5kxc7)" height="63.0229" id="DynamicIntroductionAdvice" style="stroke: #A80036; stroke-width: 1.5;" width="183" x="387" y="115"/><ellipse cx="402" cy="131" fill="#B4A7E5" rx="11" ry="11" style="stroke: #A80036; stroke-width: 1.0;"/><path d="M398.5938,125.7813 L398.5938,124.6875 L404.5938,124.6875 L404.5938,125.7813 L402.7188,125.7813 Q402.5781,125.7813 402.5156,125.8281 Q402.4688,125.8594 402.4688,125.9688 L402.4688,135.4531 Q402.4688,135.5625 402.5156,135.6094 Q402.5781,135.6406 402.7188,135.6406 L404.5938,135.6406 L404.5938,136.7344 L398.5938,136.7344 L398.5938,135.6406 L400.4688,135.6406 Q400.6563,135.6406 400.6875,135.6094 Q400.7188,135.5781 400.7188,135.4531 L400.7188,125.9688 Q400.7188,125.8438 400.6875,125.8125 Q400.6563,125.7813 400.4688,125.7813 L398.5938,125.7813 Z "/><text fill="#000000" font-family="sans-serif" font-size="12" font-style="italic" lengthAdjust="spacingAndGlyphs" textLength="151" x="416" y="136.5576">DynamicIntroductionAdvice</text><line style="stroke: #A80036; stroke-width: 1.5;" x1="388" x2="569" y1="147" y2="147"/><line style="stroke: #A80036; stroke-width: 1.5;" x1="388" x2="569" y1="155" y2="155"/><text fill="#000000" font-family="sans-serif" font-size="11" lengthAdjust="spacingAndGlyphs" textLength="104" x="393" y="171.606">implementsInterface()</text><!--MD5=[194abb6e81145ad571d43c9cd3bcd4f4]
reverse link Advice to Interceptor--><path d="M444.692,53.677 C484.294,70.02 539.564,93.263 587.5,115 C593.144,117.559 599.04,120.31 604.863,123.073 " fill="none" id="Advice-backto-Interceptor" style="stroke: #A80036; stroke-width: 1.0;"/><polygon fill="none" points="441.909,60.101,426.072,46.024,447.231,47.152,441.909,60.101" style="stroke: #A80036; stroke-width: 1.0;"/><!--MD5=[cc8305d601ea7fe888227adfc7041431]
reverse link Interceptor to MethodInterceptor--><path d="M650.5,190.635 C650.5,206.211 650.5,223.465 650.5,237.765 " fill="none" id="Interceptor-backto-MethodInterceptor" style="stroke: #A80036; stroke-width: 1.0;"/><polygon fill="none" points="643.5,190.544,650.5,170.544,657.5,190.544,643.5,190.544" style="stroke: #A80036; stroke-width: 1.0;"/><!--MD5=[447fd4d4c2428e67a0072a9f229e28ba]
reverse link BeforeAdvice to MethodBeforeAdvice--><path d="M140.366,186.67 C128.047,203.232 113.908,222.24 102.3608,237.765 " fill="none" id="BeforeAdvice-backto-MethodBeforeAdvice" style="stroke: #A80036; stroke-width: 1.0;"/><polygon fill="none" points="134.807,182.414,152.36,170.544,146.04,190.769,134.807,182.414" style="stroke: #A80036; stroke-width: 1.0;"/><!--MD5=[f132275f187025a0e80a27bedbd24d87]
reverse link Advice to BeforeAdvice--><path d="M338.868,58.909 C301.076,78.23 250.667,104.002 214.693,122.395 " fill="none" id="Advice-backto-BeforeAdvice" style="stroke: #A80036; stroke-width: 1.0;"/><polygon fill="none" points="335.818,52.606,356.813,49.734,342.191,65.071,335.818,52.606" style="stroke: #A80036; stroke-width: 1.0;"/><!--MD5=[9945c46e469962e7f7f79a825f76564a]
reverse link AfterAdvice to AfterReturningAdvice--><path d="M289.55,189.57 C283.916,205.421 277.62,223.139 272.422,237.765 " fill="none" id="AfterAdvice-backto-AfterReturningAdvice" style="stroke: #A80036; stroke-width: 1.0;"/><polygon fill="none" points="283.018,187.045,296.311,170.544,296.21,191.733,283.018,187.045" style="stroke: #A80036; stroke-width: 1.0;"/><!--MD5=[1516735b4ae4bb6c4d9aa909e5d9b114]
reverse link Advice to AfterAdvice--><path d="M361.431,71.228 C348.383,88.251 333.547,107.606 322.292,122.289 " fill="none" id="Advice-backto-AfterAdvice" style="stroke: #A80036; stroke-width: 1.0;"/><polygon fill="none" points="355.961,66.857,373.684,55.242,367.073,75.374,355.961,66.857" style="stroke: #A80036; stroke-width: 1.0;"/><!--MD5=[8d74f7f71a2aa334323963b35bb8cd18]
reverse link AfterAdvice to ThrowsAdvice--><path d="M341.664,184.974 C361.152,204.624 384.417,228.083 401.323,245.13 " fill="none" id="AfterAdvice-backto-ThrowsAdvice" style="stroke: #A80036; stroke-width: 1.0;"/><polygon fill="none" points="336.467,189.674,327.354,170.544,346.407,179.816,336.467,189.674" style="stroke: #A80036; stroke-width: 1.0;"/><!--MD5=[c9bc45aa18290612ba6e9308d19e442b]
reverse link MethodInterceptor to IntroductionInterceptor--><path d="M624.9,318.9257 C617.22,333.4554 609.145,348.7291 602.751,360.8252 " fill="none" id="MethodInterceptor-backto-IntroductionInterceptor" style="stroke: #A80036; stroke-width: 1.0;"/><polygon fill="none" points="618.728,315.6247,634.263,301.215,631.105,322.1677,618.728,315.6247" style="stroke: #A80036; stroke-width: 1.0;"/><!--MD5=[22ca4906b1d6b66fe8172b30af53d4de]
reverse link DynamicIntroductionAdvice to IntroductionInterceptor--><path d="M501.768,196.632 C525.602,246.961 561.626,323.0292 579.557,360.8928 " fill="none" id="DynamicIntroductionAdvice-backto-IntroductionInterceptor" style="stroke: #A80036; stroke-width: 1.0;"/><polygon fill="none" points="495.376,199.49,493.142,178.418,508.029,193.498,495.376,199.49" style="stroke: #A80036; stroke-width: 1.0;"/><!--MD5=[61de5b28f8bd9f8dee659b186ca091b7]
reverse link Advice to DynamicIntroductionAdvice--><path d="M421.81,71.542 C432.722,85.778 444.858,101.61 455.092,114.962 " fill="none" id="Advice-backto-DynamicIntroductionAdvice" style="stroke: #A80036; stroke-width: 1.0;"/><polygon fill="none" points="415.927,75.374,409.316,55.242,427.039,66.857,415.927,75.374" style="stroke: #A80036; stroke-width: 1.0;"/><!--MD5=[8573dd8b6bb9da8f83c99f096cb2f9f9]
link BeforeAdvice to AfterAdvice--><!--MD5=[a13d19fc83dbfc04e0ee80d160bf8021]
link AfterAdvice to DynamicIntroductionAdvice--><!--MD5=[f48d544da62fae01b22a2e026907c50f]
@startuml
interface Advice
interface Interceptor extends Advice
interface MethodInterceptor extends Interceptor {
    invoke()
}
interface MethodBeforeAdvice extends BeforeAdvice {
    before()
}
interface BeforeAdvice extends Advice
interface AfterReturningAdvice extends AfterAdvice {
    afterReturning()
}
interface AfterAdvice extends Advice
interface ThrowsAdvice extends AfterAdvice
interface IntroductionInterceptor extends MethodInterceptor, DynamicIntroductionAdvice
interface DynamicIntroductionAdvice extends Advice {
    implementsInterface()
}
BeforeAdvice -[hidden]right-> AfterAdvice
AfterAdvice -[hidden]right-> DynamicIntroductionAdvice
@enduml

PlantUML version 1.2020.18(Thu Oct 01 03:40:44 CST 2020)
(GPL source distribution)
Java Runtime: Java(TM) SE Runtime Environment
JVM: Java HotSpot(TM) 64-Bit Server VM
Default Encoding: GBK
Language: zh
Country: CN
--></g></svg>