<?xml version="1.0" encoding="UTF-8" standalone="no"?><svg xmlns="http://www.w3.org/2000/svg" xmlns:xlink="http://www.w3.org/1999/xlink" contentScriptType="application/ecmascript" contentStyleType="text/css" height="315px" preserveAspectRatio="none" style="width:334px;height:315px;" version="1.1" viewBox="0 0 334 315" width="334px" zoomAndPan="magnify"><defs><filter height="300%" id="f1oaw6jf476qme" width="300%" x="-1" y="-1"><feGaussianBlur result="blurOut" stdDeviation="2.0"/><feColorMatrix in="blurOut" result="blurOut2" type="matrix" values="0 0 0 0 0 0 0 0 0 0 0 0 0 0 0 0 0 0 .4 0"/><feOffset dx="4.0" dy="4.0" in="blurOut2" result="blurOut3"/><feBlend in="SourceGraphic" in2="blurOut3" mode="normal"/></filter></defs><g><!--MD5=[544917d1b71264f45ca27fbbf077edcc]
class Advisor--><rect codeLine="1" fill="#FEFECE" filter="url(#f1oaw6jf476qme)" height="63.0229" id="Advisor" style="stroke: #A80036; stroke-width: 1.5;" width="73" x="132.5" y="7"/><ellipse cx="147.5" cy="23" fill="#B4A7E5" rx="11" ry="11" style="stroke: #A80036; stroke-width: 1.0;"/><path d="M144.0938,17.7813 L144.0938,16.6875 L150.0938,16.6875 L150.0938,17.7813 L148.2188,17.7813 Q148.0781,17.7813 148.0156,17.8281 Q147.9688,17.8594 147.9688,17.9688 L147.9688,27.4531 Q147.9688,27.5625 148.0156,27.6094 Q148.0781,27.6406 148.2188,27.6406 L150.0938,27.6406 L150.0938,28.7344 L144.0938,28.7344 L144.0938,27.6406 L145.9688,27.6406 Q146.1563,27.6406 146.1875,27.6094 Q146.2188,27.5781 146.2188,27.4531 L146.2188,17.9688 Q146.2188,17.8438 146.1875,17.8125 Q146.1563,17.7813 145.9688,17.7813 L144.0938,17.7813 Z "/><text fill="#000000" font-family="sans-serif" font-size="12" font-style="italic" lengthAdjust="spacingAndGlyphs" textLength="41" x="161.5" y="28.5576">Advisor</text><line style="stroke: #A80036; stroke-width: 1.5;" x1="133.5" x2="204.5" y1="39" y2="39"/><line style="stroke: #A80036; stroke-width: 1.5;" x1="133.5" x2="204.5" y1="47" y2="47"/><text fill="#000000" font-family="sans-serif" font-size="11" lengthAdjust="spacingAndGlyphs" textLength="57" x="138.5" y="63.606">getAdvice()</text><!--MD5=[f86400aa6d99ad49bc10979659adac4e]
class PointcutAdvisor--><rect codeLine="4" fill="#FEFECE" filter="url(#f1oaw6jf476qme)" height="63.0229" id="PointcutAdvisor" style="stroke: #A80036; stroke-width: 1.5;" width="117" x="29.5" y="130"/><ellipse cx="44.5" cy="146" fill="#B4A7E5" rx="11" ry="11" style="stroke: #A80036; stroke-width: 1.0;"/><path d="M41.0938,140.7813 L41.0938,139.6875 L47.0938,139.6875 L47.0938,140.7813 L45.2188,140.7813 Q45.0781,140.7813 45.0156,140.8281 Q44.9688,140.8594 44.9688,140.9688 L44.9688,150.4531 Q44.9688,150.5625 45.0156,150.6094 Q45.0781,150.6406 45.2188,150.6406 L47.0938,150.6406 L47.0938,151.7344 L41.0938,151.7344 L41.0938,150.6406 L42.9688,150.6406 Q43.1563,150.6406 43.1875,150.6094 Q43.2188,150.5781 43.2188,150.4531 L43.2188,140.9688 Q43.2188,140.8438 43.1875,140.8125 Q43.1563,140.7813 42.9688,140.7813 L41.0938,140.7813 Z "/><text fill="#000000" font-family="sans-serif" font-size="12" font-style="italic" lengthAdjust="spacingAndGlyphs" textLength="85" x="58.5" y="151.5576">PointcutAdvisor</text><line style="stroke: #A80036; stroke-width: 1.5;" x1="30.5" x2="145.5" y1="162" y2="162"/><line style="stroke: #A80036; stroke-width: 1.5;" x1="30.5" x2="145.5" y1="170" y2="170"/><text fill="#000000" font-family="sans-serif" font-size="11" lengthAdjust="spacingAndGlyphs" textLength="61" x="35.5" y="186.606">getPointcut()</text><!--MD5=[752489fadc520001471099ac8b68d0a9]
class AbstractPointcutAdvisor--><rect codeLine="7" fill="#FEFECE" filter="url(#f1oaw6jf476qme)" height="48" id="AbstractPointcutAdvisor" style="stroke: #A80036; stroke-width: 1.5;" width="162" x="7" y="253"/><ellipse cx="22" cy="269" fill="#A9DCDF" rx="11" ry="11" style="stroke: #A80036; stroke-width: 1.0;"/><path d="M22.4375,269.4844 L20,269.4844 L19.4844,271.7188 Q19.4219,272.0313 19.4219,272.1875 Q19.4219,272.3906 19.4688,272.5156 Q19.5156,272.6406 19.7344,272.6406 L20.2813,272.6406 L20.2813,273.7344 L17.1406,273.7344 L17.1406,272.6406 L17.6719,272.6406 Q17.8125,272.6406 17.9219,272.5625 Q18.0313,272.4688 18.0625,272.2031 L20.7188,261.8281 L22.25,261.3281 L24.8438,272.1719 Q24.9531,272.4531 25.0625,272.5469 Q25.1719,272.6406 25.3125,272.6406 L25.8594,272.6406 L25.8594,273.7344 L22.3125,273.7344 L22.3125,272.6406 L22.9219,272.6406 Q23.0938,272.6406 23.0938,272.625 Q23.1094,272.5938 23.1094,272.5313 Q23.1094,272.3125 23.0625,272.1563 L22.4375,269.4844 Z M17.8594,273.3281 L17.8594,273.3281 Z M18.5313,273.3281 L18.5313,273.3281 Z M23.25,273.3281 L23.25,273.3281 Z M24.375,273.3281 L24.375,273.3281 Z M21.2656,263.3125 L21.3281,263.3125 L20.3125,268.3906 L22.2188,268.3906 L21.2656,263.3125 Z "/><text fill="#000000" font-family="sans-serif" font-size="12" font-style="italic" lengthAdjust="spacingAndGlyphs" textLength="130" x="36" y="274.5576">AbstractPointcutAdvisor</text><line style="stroke: #A80036; stroke-width: 1.5;" x1="8" x2="168" y1="285" y2="285"/><line style="stroke: #A80036; stroke-width: 1.5;" x1="8" x2="168" y1="293" y2="293"/><!--MD5=[fe7e3ee680512808de2bc88256b383e2]
class IntroductionAdvisor--><rect codeLine="8" fill="#FEFECE" filter="url(#f1oaw6jf476qme)" height="63.0229" id="IntroductionAdvisor" style="stroke: #A80036; stroke-width: 1.5;" width="138" x="182" y="130"/><ellipse cx="197" cy="146" fill="#B4A7E5" rx="11" ry="11" style="stroke: #A80036; stroke-width: 1.0;"/><path d="M193.5938,140.7813 L193.5938,139.6875 L199.5938,139.6875 L199.5938,140.7813 L197.7188,140.7813 Q197.5781,140.7813 197.5156,140.8281 Q197.4688,140.8594 197.4688,140.9688 L197.4688,150.4531 Q197.4688,150.5625 197.5156,150.6094 Q197.5781,150.6406 197.7188,150.6406 L199.5938,150.6406 L199.5938,151.7344 L193.5938,151.7344 L193.5938,150.6406 L195.4688,150.6406 Q195.6563,150.6406 195.6875,150.6094 Q195.7188,150.5781 195.7188,150.4531 L195.7188,140.9688 Q195.7188,140.8438 195.6875,140.8125 Q195.6563,140.7813 195.4688,140.7813 L193.5938,140.7813 Z "/><text fill="#000000" font-family="sans-serif" font-size="12" font-style="italic" lengthAdjust="spacingAndGlyphs" textLength="106" x="211" y="151.5576">IntroductionAdvisor</text><line style="stroke: #A80036; stroke-width: 1.5;" x1="183" x2="319" y1="162" y2="162"/><line style="stroke: #A80036; stroke-width: 1.5;" x1="183" x2="319" y1="170" y2="170"/><text fill="#000000" font-family="sans-serif" font-size="11" lengthAdjust="spacingAndGlyphs" textLength="73" x="188" y="186.606">getClassFilter()</text><!--MD5=[f6f345c6c18747135f3d657717d2f829]
reverse link Advisor to PointcutAdvisor--><path d="M137.246,86.935 C127.555,101.412 117.162,116.937 108.433,129.976 " fill="none" id="Advisor-backto-PointcutAdvisor" style="stroke: #A80036; stroke-width: 1.0;"/><polygon fill="none" points="131.618,82.759,148.56,70.033,143.252,90.547,131.618,82.759" style="stroke: #A80036; stroke-width: 1.0;"/><!--MD5=[7600327a05732d45041b8a3a30863828]
reverse link PointcutAdvisor to AbstractPointcutAdvisor--><path d="M88,213.3536 C88,227.1427 88,241.4011 88,252.8252 " fill="none" id="PointcutAdvisor-backto-AbstractPointcutAdvisor" style="stroke: #A80036; stroke-width: 1.0; stroke-dasharray: 7.0,7.0;"/><polygon fill="none" points="81.0001,213.2148,88,193.215,95.0001,213.2147,81.0001,213.2148" style="stroke: #A80036; stroke-width: 1.0;"/><!--MD5=[405e045faa963b84a56a3ecab8c665a5]
reverse link Advisor to IntroductionAdvisor--><path d="M201.146,86.935 C210.957,101.412 221.478,116.937 230.315,129.976 " fill="none" id="Advisor-backto-IntroductionAdvisor" style="stroke: #A80036; stroke-width: 1.0;"/><polygon fill="none" points="195.117,90.517,189.692,70.033,206.707,82.663,195.117,90.517" style="stroke: #A80036; stroke-width: 1.0;"/><!--MD5=[4db618bb0020b28ef8d3ba836c226910]
@startuml
interface Advisor {
    getAdvice()
}
interface PointcutAdvisor extends Advisor {
    getPointcut()
}
abstract class AbstractPointcutAdvisor implements PointcutAdvisor
interface IntroductionAdvisor extends Advisor {
    getClassFilter()
}
@enduml

PlantUML version 1.2020.18(Thu Oct 01 03:40:44 CST 2020)
(GPL source distribution)
Java Runtime: Java(TM) SE Runtime Environment
JVM: Java HotSpot(TM) 64-Bit Server VM
Default Encoding: GBK
Language: zh
Country: CN
--></g></svg>