<?xml version="1.0" encoding="UTF-8" standalone="no"?><svg xmlns="http://www.w3.org/2000/svg" xmlns:xlink="http://www.w3.org/1999/xlink" contentScriptType="application/ecmascript" contentStyleType="text/css" height="1081px" preserveAspectRatio="none" style="width:1008px;height:1081px;" version="1.1" viewBox="0 0 1008 1081" width="1008px" zoomAndPan="magnify"><defs><filter height="300%" id="femax7ml7pct" width="300%" x="-1" y="-1"><feGaussianBlur result="blurOut" stdDeviation="2.0"/><feColorMatrix in="blurOut" result="blurOut2" type="matrix" values="0 0 0 0 0 0 0 0 0 0 0 0 0 0 0 0 0 0 .4 0"/><feOffset dx="4.0" dy="4.0" in="blurOut2" result="blurOut3"/><feBlend in="SourceGraphic" in2="blurOut3" mode="normal"/></filter></defs><g><!--class ApplicationContext--><rect fill="#FEFECE" filter="url(#femax7ml7pct)" height="63.0229" id="ApplicationContext" style="stroke: #A80036; stroke-width: 1.5;" width="135" x="265" y="131"/><ellipse cx="280" cy="147" fill="#B4A7E5" rx="11" ry="11" style="stroke: #A80036; stroke-width: 1.0;"/><path d="M276.5938,141.2813 L276.5938,140.875 L282.9063,140.875 L282.9063,141.2813 L280.375,141.2813 Q280.375,141.2813 280.5234,141.4141 Q280.6719,141.5469 280.6719,141.8125 L280.6719,151.2969 Q280.6719,151.5625 280.8906,151.6953 Q281.1094,151.8281 281.1094,151.8281 L282.9063,151.8281 L282.9063,152.2344 L276.5938,152.2344 L276.5938,151.8281 L278.125,151.8281 Q278.4531,151.8281 278.5859,151.6953 Q278.7188,151.5625 278.7188,151.2969 L278.7188,141.8125 Q278.7188,141.5469 278.5859,141.4141 Q278.4531,141.2813 278.125,141.2813 L276.5938,141.2813 Z "/><text fill="#000000" font-family="sans-serif" font-size="12" font-style="italic" lengthAdjust="spacingAndGlyphs" textLength="103" x="294" y="152.5576">ApplicationContext</text><line style="stroke: #A80036; stroke-width: 1.5;" x1="266" x2="399" y1="163" y2="163"/><line style="stroke: #A80036; stroke-width: 1.5;" x1="266" x2="399" y1="171" y2="171"/><text fill="#000000" font-family="sans-serif" font-size="11" lengthAdjust="spacingAndGlyphs" textLength="103" x="271" y="187.606">getApplicationName()</text><!--class ApplicationEventPublisher--><rect fill="#FEFECE" filter="url(#femax7ml7pct)" height="63.0229" id="ApplicationEventPublisher" style="stroke: #A80036; stroke-width: 1.5;" width="177" x="595" y="8"/><ellipse cx="610" cy="24" fill="#B4A7E5" rx="11" ry="11" style="stroke: #A80036; stroke-width: 1.0;"/><path d="M606.5938,18.2813 L606.5938,17.875 L612.9063,17.875 L612.9063,18.2813 L610.375,18.2813 Q610.375,18.2813 610.5234,18.4141 Q610.6719,18.5469 610.6719,18.8125 L610.6719,28.2969 Q610.6719,28.5625 610.8906,28.6953 Q611.1094,28.8281 611.1094,28.8281 L612.9063,28.8281 L612.9063,29.2344 L606.5938,29.2344 L606.5938,28.8281 L608.125,28.8281 Q608.4531,28.8281 608.5859,28.6953 Q608.7188,28.5625 608.7188,28.2969 L608.7188,18.8125 Q608.7188,18.5469 608.5859,18.4141 Q608.4531,18.2813 608.125,18.2813 L606.5938,18.2813 Z "/><text fill="#000000" font-family="sans-serif" font-size="12" font-style="italic" lengthAdjust="spacingAndGlyphs" textLength="145" x="624" y="29.5576">ApplicationEventPublisher</text><line style="stroke: #A80036; stroke-width: 1.5;" x1="596" x2="771" y1="40" y2="40"/><line style="stroke: #A80036; stroke-width: 1.5;" x1="596" x2="771" y1="48" y2="48"/><text fill="#000000" font-family="sans-serif" font-size="11" lengthAdjust="spacingAndGlyphs" textLength="69" x="601" y="64.606">publishEvent()</text><!--class MessageSource--><rect fill="#FEFECE" filter="url(#femax7ml7pct)" height="63.0229" id="MessageSource" style="stroke: #A80036; stroke-width: 1.5;" width="120" x="254.5" y="8"/><ellipse cx="269.5" cy="24" fill="#B4A7E5" rx="11" ry="11" style="stroke: #A80036; stroke-width: 1.0;"/><path d="M266.0938,18.2813 L266.0938,17.875 L272.4063,17.875 L272.4063,18.2813 L269.875,18.2813 Q269.875,18.2813 270.0234,18.4141 Q270.1719,18.5469 270.1719,18.8125 L270.1719,28.2969 Q270.1719,28.5625 270.3906,28.6953 Q270.6094,28.8281 270.6094,28.8281 L272.4063,28.8281 L272.4063,29.2344 L266.0938,29.2344 L266.0938,28.8281 L267.625,28.8281 Q267.9531,28.8281 268.0859,28.6953 Q268.2188,28.5625 268.2188,28.2969 L268.2188,18.8125 Q268.2188,18.5469 268.0859,18.4141 Q267.9531,18.2813 267.625,18.2813 L266.0938,18.2813 Z "/><text fill="#000000" font-family="sans-serif" font-size="12" font-style="italic" lengthAdjust="spacingAndGlyphs" textLength="88" x="283.5" y="29.5576">MessageSource</text><line style="stroke: #A80036; stroke-width: 1.5;" x1="255.5" x2="373.5" y1="40" y2="40"/><line style="stroke: #A80036; stroke-width: 1.5;" x1="255.5" x2="373.5" y1="48" y2="48"/><text fill="#000000" font-family="sans-serif" font-size="11" lengthAdjust="spacingAndGlyphs" textLength="67" x="260.5" y="64.606">getMessage()</text><!--class EnvironmentCapable--><rect fill="#FEFECE" filter="url(#femax7ml7pct)" height="63.0229" id="EnvironmentCapable" style="stroke: #A80036; stroke-width: 1.5;" width="150" x="409.5" y="8"/><ellipse cx="424.5" cy="24" fill="#B4A7E5" rx="11" ry="11" style="stroke: #A80036; stroke-width: 1.0;"/><path d="M421.0938,18.2813 L421.0938,17.875 L427.4063,17.875 L427.4063,18.2813 L424.875,18.2813 Q424.875,18.2813 425.0234,18.4141 Q425.1719,18.5469 425.1719,18.8125 L425.1719,28.2969 Q425.1719,28.5625 425.3906,28.6953 Q425.6094,28.8281 425.6094,28.8281 L427.4063,28.8281 L427.4063,29.2344 L421.0938,29.2344 L421.0938,28.8281 L422.625,28.8281 Q422.9531,28.8281 423.0859,28.6953 Q423.2188,28.5625 423.2188,28.2969 L423.2188,18.8125 Q423.2188,18.5469 423.0859,18.4141 Q422.9531,18.2813 422.625,18.2813 L421.0938,18.2813 Z "/><text fill="#000000" font-family="sans-serif" font-size="12" font-style="italic" lengthAdjust="spacingAndGlyphs" textLength="118" x="438.5" y="29.5576">EnvironmentCapable</text><line style="stroke: #A80036; stroke-width: 1.5;" x1="410.5" x2="558.5" y1="40" y2="40"/><line style="stroke: #A80036; stroke-width: 1.5;" x1="410.5" x2="558.5" y1="48" y2="48"/><text fill="#000000" font-family="sans-serif" font-size="11" lengthAdjust="spacingAndGlyphs" textLength="82" x="415.5" y="64.606">getEnvironment()</text><!--class ListableBeanFactory--><rect fill="#FEFECE" filter="url(#femax7ml7pct)" height="48" id="ListableBeanFactory" style="stroke: #A80036; stroke-width: 1.5;" width="145" x="74" y="15.5"/><ellipse cx="89" cy="31.5" fill="#B4A7E5" rx="11" ry="11" style="stroke: #A80036; stroke-width: 1.0;"/><path d="M85.5938,25.7813 L85.5938,25.375 L91.9063,25.375 L91.9063,25.7813 L89.375,25.7813 Q89.375,25.7813 89.5234,25.9141 Q89.6719,26.0469 89.6719,26.3125 L89.6719,35.7969 Q89.6719,36.0625 89.8906,36.1953 Q90.1094,36.3281 90.1094,36.3281 L91.9063,36.3281 L91.9063,36.7344 L85.5938,36.7344 L85.5938,36.3281 L87.125,36.3281 Q87.4531,36.3281 87.5859,36.1953 Q87.7188,36.0625 87.7188,35.7969 L87.7188,26.3125 Q87.7188,26.0469 87.5859,25.9141 Q87.4531,25.7813 87.125,25.7813 L85.5938,25.7813 Z "/><text fill="#000000" font-family="sans-serif" font-size="12" font-style="italic" lengthAdjust="spacingAndGlyphs" textLength="113" x="103" y="37.0576">ListableBeanFactory</text><line style="stroke: #A80036; stroke-width: 1.5;" x1="75" x2="218" y1="47.5" y2="47.5"/><line style="stroke: #A80036; stroke-width: 1.5;" x1="75" x2="218" y1="55.5" y2="55.5"/><!--class HierarchicalBeanFactory--><rect fill="#FEFECE" filter="url(#femax7ml7pct)" height="48" id="HierarchicalBeanFactory" style="stroke: #A80036; stroke-width: 1.5;" width="167" x="63" y="138.5"/><ellipse cx="78" cy="154.5" fill="#B4A7E5" rx="11" ry="11" style="stroke: #A80036; stroke-width: 1.0;"/><path d="M74.5938,148.7813 L74.5938,148.375 L80.9063,148.375 L80.9063,148.7813 L78.375,148.7813 Q78.375,148.7813 78.5234,148.9141 Q78.6719,149.0469 78.6719,149.3125 L78.6719,158.7969 Q78.6719,159.0625 78.8906,159.1953 Q79.1094,159.3281 79.1094,159.3281 L80.9063,159.3281 L80.9063,159.7344 L74.5938,159.7344 L74.5938,159.3281 L76.125,159.3281 Q76.4531,159.3281 76.5859,159.1953 Q76.7188,159.0625 76.7188,158.7969 L76.7188,149.3125 Q76.7188,149.0469 76.5859,148.9141 Q76.4531,148.7813 76.125,148.7813 L74.5938,148.7813 Z "/><text fill="#000000" font-family="sans-serif" font-size="12" font-style="italic" lengthAdjust="spacingAndGlyphs" textLength="135" x="92" y="160.0576">HierarchicalBeanFactory</text><line style="stroke: #A80036; stroke-width: 1.5;" x1="64" x2="229" y1="170.5" y2="170.5"/><line style="stroke: #A80036; stroke-width: 1.5;" x1="64" x2="229" y1="178.5" y2="178.5"/><!--class ResourcePatternResolver--><rect fill="#FEFECE" filter="url(#femax7ml7pct)" height="63.0229" id="ResourcePatternResolver" style="stroke: #A80036; stroke-width: 1.5;" width="173" x="441" y="131"/><ellipse cx="456" cy="147" fill="#B4A7E5" rx="11" ry="11" style="stroke: #A80036; stroke-width: 1.0;"/><path d="M452.5938,141.2813 L452.5938,140.875 L458.9063,140.875 L458.9063,141.2813 L456.375,141.2813 Q456.375,141.2813 456.5234,141.4141 Q456.6719,141.5469 456.6719,141.8125 L456.6719,151.2969 Q456.6719,151.5625 456.8906,151.6953 Q457.1094,151.8281 457.1094,151.8281 L458.9063,151.8281 L458.9063,152.2344 L452.5938,152.2344 L452.5938,151.8281 L454.125,151.8281 Q454.4531,151.8281 454.5859,151.6953 Q454.7188,151.5625 454.7188,151.2969 L454.7188,141.8125 Q454.7188,141.5469 454.5859,141.4141 Q454.4531,141.2813 454.125,141.2813 L452.5938,141.2813 Z "/><text fill="#000000" font-family="sans-serif" font-size="12" font-style="italic" lengthAdjust="spacingAndGlyphs" textLength="141" x="470" y="152.5576">ResourcePatternResolver</text><line style="stroke: #A80036; stroke-width: 1.5;" x1="442" x2="613" y1="163" y2="163"/><line style="stroke: #A80036; stroke-width: 1.5;" x1="442" x2="613" y1="171" y2="171"/><text fill="#000000" font-family="sans-serif" font-size="11" lengthAdjust="spacingAndGlyphs" textLength="76" x="447" y="187.606">getResources()</text><!--class ResourceLoader--><rect fill="#FEFECE" filter="url(#femax7ml7pct)" height="63.0229" id="ResourceLoader" style="stroke: #A80036; stroke-width: 1.5;" width="124" x="468.5" y="276.5"/><ellipse cx="483.5" cy="292.5" fill="#B4A7E5" rx="11" ry="11" style="stroke: #A80036; stroke-width: 1.0;"/><path d="M480.0938,286.7813 L480.0938,286.375 L486.4063,286.375 L486.4063,286.7813 L483.875,286.7813 Q483.875,286.7813 484.0234,286.9141 Q484.1719,287.0469 484.1719,287.3125 L484.1719,296.7969 Q484.1719,297.0625 484.3906,297.1953 Q484.6094,297.3281 484.6094,297.3281 L486.4063,297.3281 L486.4063,297.7344 L480.0938,297.7344 L480.0938,297.3281 L481.625,297.3281 Q481.9531,297.3281 482.0859,297.1953 Q482.2188,297.0625 482.2188,296.7969 L482.2188,287.3125 Q482.2188,287.0469 482.0859,286.9141 Q481.9531,286.7813 481.625,286.7813 L480.0938,286.7813 Z "/><text fill="#000000" font-family="sans-serif" font-size="12" font-style="italic" lengthAdjust="spacingAndGlyphs" textLength="92" x="497.5" y="298.0576">ResourceLoader</text><line style="stroke: #A80036; stroke-width: 1.5;" x1="469.5" x2="591.5" y1="308.5" y2="308.5"/><line style="stroke: #A80036; stroke-width: 1.5;" x1="469.5" x2="591.5" y1="316.5" y2="316.5"/><text fill="#000000" font-family="sans-serif" font-size="11" lengthAdjust="spacingAndGlyphs" textLength="70" x="474.5" y="333.106">getResource()</text><!--class ConfigurableApplicationContext--><rect fill="#FEFECE" filter="url(#femax7ml7pct)" height="108.0918" id="ConfigurableApplicationContext" style="stroke: #A80036; stroke-width: 1.5;" width="207" x="226" y="254"/><ellipse cx="241" cy="270" fill="#B4A7E5" rx="11" ry="11" style="stroke: #A80036; stroke-width: 1.0;"/><path d="M237.5938,264.2813 L237.5938,263.875 L243.9063,263.875 L243.9063,264.2813 L241.375,264.2813 Q241.375,264.2813 241.5234,264.4141 Q241.6719,264.5469 241.6719,264.8125 L241.6719,274.2969 Q241.6719,274.5625 241.8906,274.6953 Q242.1094,274.8281 242.1094,274.8281 L243.9063,274.8281 L243.9063,275.2344 L237.5938,275.2344 L237.5938,274.8281 L239.125,274.8281 Q239.4531,274.8281 239.5859,274.6953 Q239.7188,274.5625 239.7188,274.2969 L239.7188,264.8125 Q239.7188,264.5469 239.5859,264.4141 Q239.4531,264.2813 239.125,264.2813 L237.5938,264.2813 Z "/><text fill="#000000" font-family="sans-serif" font-size="12" font-style="italic" lengthAdjust="spacingAndGlyphs" textLength="175" x="255" y="275.5576">ConfigurableApplicationContext</text><line style="stroke: #A80036; stroke-width: 1.5;" x1="227" x2="432" y1="286" y2="286"/><line style="stroke: #A80036; stroke-width: 1.5;" x1="227" x2="432" y1="294" y2="294"/><text fill="#000000" font-family="sans-serif" font-size="11" lengthAdjust="spacingAndGlyphs" textLength="42" x="232" y="310.606">setXxx()</text><text fill="#000000" font-family="sans-serif" font-size="11" lengthAdjust="spacingAndGlyphs" textLength="45" x="232" y="325.6289">addXxx()</text><text fill="#000000" font-family="sans-serif" font-size="11" lengthAdjust="spacingAndGlyphs" textLength="44" x="232" y="340.6519">refresh()</text><text fill="#000000" font-family="sans-serif" font-size="11" lengthAdjust="spacingAndGlyphs" textLength="34" x="232" y="355.6748">close()</text><!--class Lifecycle--><rect fill="#FEFECE" filter="url(#femax7ml7pct)" height="78.0459" id="Lifecycle" style="stroke: #A80036; stroke-width: 1.5;" width="80" x="110.5" y="269"/><ellipse cx="125.5" cy="285" fill="#B4A7E5" rx="11" ry="11" style="stroke: #A80036; stroke-width: 1.0;"/><path d="M122.0938,279.2813 L122.0938,278.875 L128.4063,278.875 L128.4063,279.2813 L125.875,279.2813 Q125.875,279.2813 126.0234,279.4141 Q126.1719,279.5469 126.1719,279.8125 L126.1719,289.2969 Q126.1719,289.5625 126.3906,289.6953 Q126.6094,289.8281 126.6094,289.8281 L128.4063,289.8281 L128.4063,290.2344 L122.0938,290.2344 L122.0938,289.8281 L123.625,289.8281 Q123.9531,289.8281 124.0859,289.6953 Q124.2188,289.5625 124.2188,289.2969 L124.2188,279.8125 Q124.2188,279.5469 124.0859,279.4141 Q123.9531,279.2813 123.625,279.2813 L122.0938,279.2813 Z "/><text fill="#000000" font-family="sans-serif" font-size="12" font-style="italic" lengthAdjust="spacingAndGlyphs" textLength="48" x="139.5" y="290.5576">Lifecycle</text><line style="stroke: #A80036; stroke-width: 1.5;" x1="111.5" x2="189.5" y1="301" y2="301"/><line style="stroke: #A80036; stroke-width: 1.5;" x1="111.5" x2="189.5" y1="309" y2="309"/><text fill="#000000" font-family="sans-serif" font-size="11" lengthAdjust="spacingAndGlyphs" textLength="30" x="116.5" y="325.606">start()</text><text fill="#000000" font-family="sans-serif" font-size="11" lengthAdjust="spacingAndGlyphs" textLength="29" x="116.5" y="340.6289">stop()</text><!--class DefaultResourceLoader--><rect fill="#FEFECE" filter="url(#femax7ml7pct)" height="48" id="DefaultResourceLoader" style="stroke: #A80036; stroke-width: 1.5;" width="164" x="431.5" y="429.5"/><ellipse cx="446.5" cy="445.5" fill="#ADD1B2" rx="11" ry="11" style="stroke: #A80036; stroke-width: 1.0;"/><path d="M445.0781,450.8594 Q443.2188,450.8594 442.125,449.4688 Q441.0313,448.0781 441.0313,445.0938 Q441.0313,442.5625 442.1953,440.9063 Q443.3594,439.25 445.3438,439.25 Q446.8125,439.25 447.2813,439.375 Q447.75,439.5781 447.75,439.5781 Q447.75,439.5781 447.75,439.5078 Q447.75,439.4375 448.3594,438.5156 L449.4063,442.1719 L448.0781,442.5781 Q447.6094,441.0313 446.9453,440.3672 Q446.2813,439.7031 445.2188,439.7031 Q444.8281,439.7031 444.0625,441.2344 Q443.2969,442.7656 443.2969,445.0156 Q443.2969,447.4844 443.9609,448.875 Q444.625,450.2656 445.1563,450.2656 Q446.2188,450.2656 446.9766,449.5 Q447.7344,448.7344 448.0781,447.0781 L449.4063,447.6719 Q449.0781,449.0781 448.1797,449.9688 Q447.2813,450.8594 445.0781,450.8594 Z "/><text fill="#000000" font-family="sans-serif" font-size="12" lengthAdjust="spacingAndGlyphs" textLength="132" x="460.5" y="451.0576">DefaultResourceLoader</text><line style="stroke: #A80036; stroke-width: 1.5;" x1="432.5" x2="594.5" y1="461.5" y2="461.5"/><line style="stroke: #A80036; stroke-width: 1.5;" x1="432.5" x2="594.5" y1="469.5" y2="469.5"/><!--class AbstractApplicationContext--><rect fill="#FEFECE" filter="url(#femax7ml7pct)" height="48" id="AbstractApplicationContext" style="stroke: #A80036; stroke-width: 1.5;" width="180" x="384.5" y="552.5"/><ellipse cx="399.5" cy="568.5" fill="#A9DCDF" rx="11" ry="11" style="stroke: #A80036; stroke-width: 1.0;"/><path d="M399.875,568.4844 L397.8906,568.4844 L397.2969,571 Q397.2344,571.3438 397.2344,571.5313 Q397.2344,571.7969 397.3281,572.0625 Q397.4219,572.3281 397.4219,572.3281 L398.0938,572.3281 L398.0938,572.7344 L394.6406,572.7344 L394.6406,572.3281 L394.8281,572.3281 Q395.0938,572.3281 395.2969,572.1641 Q395.5,572 395.5625,571.6094 L398.1563,561.4375 L400.0313,560.8281 L402.6719,571.6094 Q402.8125,572 403.0078,572.1641 Q403.2031,572.3281 403.2031,572.3281 L403.6719,572.3281 L403.6719,572.7344 L399.8125,572.7344 L399.8125,572.3281 L400.0781,572.3281 Q400.4844,572.3281 400.5469,572.1641 Q400.6094,572 400.6094,571.875 Q400.6094,571.6094 400.5469,571.4063 L399.875,568.4844 Z M398.4844,562.5781 L398.4844,562.5781 L398.0313,568.0781 L399.8125,568.0781 L398.4844,562.5781 Z "/><text fill="#000000" font-family="sans-serif" font-size="12" font-style="italic" lengthAdjust="spacingAndGlyphs" textLength="148" x="413.5" y="574.0576">AbstractApplicationContext</text><line style="stroke: #A80036; stroke-width: 1.5;" x1="385.5" x2="563.5" y1="584.5" y2="584.5"/><line style="stroke: #A80036; stroke-width: 1.5;" x1="385.5" x2="563.5" y1="592.5" y2="592.5"/><!--class FileSystemXmlApplicationContext--><rect fill="#FEFECE" filter="url(#femax7ml7pct)" height="48" id="FileSystemXmlApplicationContext" style="stroke: #A80036; stroke-width: 1.5;" width="215" x="6" y="1022"/><ellipse cx="21" cy="1038" fill="#ADD1B2" rx="11" ry="11" style="stroke: #A80036; stroke-width: 1.0;"/><path d="M19.5781,1043.3594 Q17.7188,1043.3594 16.625,1041.9688 Q15.5313,1040.5781 15.5313,1037.5938 Q15.5313,1035.0625 16.6953,1033.4063 Q17.8594,1031.75 19.8438,1031.75 Q21.3125,1031.75 21.7813,1031.875 Q22.25,1032.0781 22.25,1032.0781 Q22.25,1032.0781 22.25,1032.0078 Q22.25,1031.9375 22.8594,1031.0156 L23.9063,1034.6719 L22.5781,1035.0781 Q22.1094,1033.5313 21.4453,1032.8672 Q20.7813,1032.2031 19.7188,1032.2031 Q19.3281,1032.2031 18.5625,1033.7344 Q17.7969,1035.2656 17.7969,1037.5156 Q17.7969,1039.9844 18.4609,1041.375 Q19.125,1042.7656 19.6563,1042.7656 Q20.7188,1042.7656 21.4766,1042 Q22.2344,1041.2344 22.5781,1039.5781 L23.9063,1040.1719 Q23.5781,1041.5781 22.6797,1042.4688 Q21.7813,1043.3594 19.5781,1043.3594 Z "/><text fill="#000000" font-family="sans-serif" font-size="12" lengthAdjust="spacingAndGlyphs" textLength="183" x="35" y="1043.5576">FileSystemXmlApplicationContext</text><line style="stroke: #A80036; stroke-width: 1.5;" x1="7" x2="220" y1="1054" y2="1054"/><line style="stroke: #A80036; stroke-width: 1.5;" x1="7" x2="220" y1="1062" y2="1062"/><!--class AbstractXmlApplicationContext--><rect fill="#FEFECE" filter="url(#femax7ml7pct)" height="48" id="AbstractXmlApplicationContext" style="stroke: #A80036; stroke-width: 1.5;" width="202" x="136.5" y="914"/><ellipse cx="151.5" cy="930" fill="#A9DCDF" rx="11" ry="11" style="stroke: #A80036; stroke-width: 1.0;"/><path d="M151.875,929.9844 L149.8906,929.9844 L149.2969,932.5 Q149.2344,932.8438 149.2344,933.0313 Q149.2344,933.2969 149.3281,933.5625 Q149.4219,933.8281 149.4219,933.8281 L150.0938,933.8281 L150.0938,934.2344 L146.6406,934.2344 L146.6406,933.8281 L146.8281,933.8281 Q147.0938,933.8281 147.2969,933.6641 Q147.5,933.5 147.5625,933.1094 L150.1563,922.9375 L152.0313,922.3281 L154.6719,933.1094 Q154.8125,933.5 155.0078,933.6641 Q155.2031,933.8281 155.2031,933.8281 L155.6719,933.8281 L155.6719,934.2344 L151.8125,934.2344 L151.8125,933.8281 L152.0781,933.8281 Q152.4844,933.8281 152.5469,933.6641 Q152.6094,933.5 152.6094,933.375 Q152.6094,933.1094 152.5469,932.9063 L151.875,929.9844 Z M150.4844,924.0781 L150.4844,924.0781 L150.0313,929.5781 L151.8125,929.5781 L150.4844,924.0781 Z "/><text fill="#000000" font-family="sans-serif" font-size="12" font-style="italic" lengthAdjust="spacingAndGlyphs" textLength="170" x="165.5" y="935.5576">AbstractXmlApplicationContext</text><line style="stroke: #A80036; stroke-width: 1.5;" x1="137.5" x2="337.5" y1="946" y2="946"/><line style="stroke: #A80036; stroke-width: 1.5;" x1="137.5" x2="337.5" y1="954" y2="954"/><!--class ClassPathXmlApplicationContext--><rect fill="#FEFECE" filter="url(#femax7ml7pct)" height="48" id="ClassPathXmlApplicationContext" style="stroke: #A80036; stroke-width: 1.5;" width="212" x="256.5" y="1022"/><ellipse cx="271.5" cy="1038" fill="#ADD1B2" rx="11" ry="11" style="stroke: #A80036; stroke-width: 1.0;"/><path d="M270.0781,1043.3594 Q268.2188,1043.3594 267.125,1041.9688 Q266.0313,1040.5781 266.0313,1037.5938 Q266.0313,1035.0625 267.1953,1033.4063 Q268.3594,1031.75 270.3438,1031.75 Q271.8125,1031.75 272.2813,1031.875 Q272.75,1032.0781 272.75,1032.0781 Q272.75,1032.0781 272.75,1032.0078 Q272.75,1031.9375 273.3594,1031.0156 L274.4063,1034.6719 L273.0781,1035.0781 Q272.6094,1033.5313 271.9453,1032.8672 Q271.2813,1032.2031 270.2188,1032.2031 Q269.8281,1032.2031 269.0625,1033.7344 Q268.2969,1035.2656 268.2969,1037.5156 Q268.2969,1039.9844 268.9609,1041.375 Q269.625,1042.7656 270.1563,1042.7656 Q271.2188,1042.7656 271.9766,1042 Q272.7344,1041.2344 273.0781,1039.5781 L274.4063,1040.1719 Q274.0781,1041.5781 273.1797,1042.4688 Q272.2813,1043.3594 270.0781,1043.3594 Z "/><text fill="#000000" font-family="sans-serif" font-size="12" lengthAdjust="spacingAndGlyphs" textLength="180" x="285.5" y="1043.5576">ClassPathXmlApplicationContext</text><line style="stroke: #A80036; stroke-width: 1.5;" x1="257.5" x2="467.5" y1="1054" y2="1054"/><line style="stroke: #A80036; stroke-width: 1.5;" x1="257.5" x2="467.5" y1="1062" y2="1062"/><!--class AbstractRefreshableConfigApplicationContext--><rect fill="#FEFECE" filter="url(#femax7ml7pct)" height="48" id="AbstractRefreshableConfigApplicationContext" style="stroke: #A80036; stroke-width: 1.5;" width="284" x="95.5" y="806"/><ellipse cx="110.5" cy="822" fill="#A9DCDF" rx="11" ry="11" style="stroke: #A80036; stroke-width: 1.0;"/><path d="M110.875,821.9844 L108.8906,821.9844 L108.2969,824.5 Q108.2344,824.8438 108.2344,825.0313 Q108.2344,825.2969 108.3281,825.5625 Q108.4219,825.8281 108.4219,825.8281 L109.0938,825.8281 L109.0938,826.2344 L105.6406,826.2344 L105.6406,825.8281 L105.8281,825.8281 Q106.0938,825.8281 106.2969,825.6641 Q106.5,825.5 106.5625,825.1094 L109.1563,814.9375 L111.0313,814.3281 L113.6719,825.1094 Q113.8125,825.5 114.0078,825.6641 Q114.2031,825.8281 114.2031,825.8281 L114.6719,825.8281 L114.6719,826.2344 L110.8125,826.2344 L110.8125,825.8281 L111.0781,825.8281 Q111.4844,825.8281 111.5469,825.6641 Q111.6094,825.5 111.6094,825.375 Q111.6094,825.1094 111.5469,824.9063 L110.875,821.9844 Z M109.4844,816.0781 L109.4844,816.0781 L109.0313,821.5781 L110.8125,821.5781 L109.4844,816.0781 Z "/><text fill="#000000" font-family="sans-serif" font-size="12" font-style="italic" lengthAdjust="spacingAndGlyphs" textLength="252" x="124.5" y="827.5576">AbstractRefreshableConfigApplicationContext</text><line style="stroke: #A80036; stroke-width: 1.5;" x1="96.5" x2="378.5" y1="838" y2="838"/><line style="stroke: #A80036; stroke-width: 1.5;" x1="96.5" x2="378.5" y1="846" y2="846"/><!--class AbstractRefreshableApplicationContext--><rect fill="#FEFECE" filter="url(#femax7ml7pct)" height="48" id="AbstractRefreshableApplicationContext" style="stroke: #A80036; stroke-width: 1.5;" width="248" x="331.5" y="683"/><ellipse cx="346.5" cy="699" fill="#A9DCDF" rx="11" ry="11" style="stroke: #A80036; stroke-width: 1.0;"/><path d="M346.875,698.9844 L344.8906,698.9844 L344.2969,701.5 Q344.2344,701.8438 344.2344,702.0313 Q344.2344,702.2969 344.3281,702.5625 Q344.4219,702.8281 344.4219,702.8281 L345.0938,702.8281 L345.0938,703.2344 L341.6406,703.2344 L341.6406,702.8281 L341.8281,702.8281 Q342.0938,702.8281 342.2969,702.6641 Q342.5,702.5 342.5625,702.1094 L345.1563,691.9375 L347.0313,691.3281 L349.6719,702.1094 Q349.8125,702.5 350.0078,702.6641 Q350.2031,702.8281 350.2031,702.8281 L350.6719,702.8281 L350.6719,703.2344 L346.8125,703.2344 L346.8125,702.8281 L347.0781,702.8281 Q347.4844,702.8281 347.5469,702.6641 Q347.6094,702.5 347.6094,702.375 Q347.6094,702.1094 347.5469,701.9063 L346.875,698.9844 Z M345.4844,693.0781 L345.4844,693.0781 L345.0313,698.5781 L346.8125,698.5781 L345.4844,693.0781 Z "/><text fill="#000000" font-family="sans-serif" font-size="12" font-style="italic" lengthAdjust="spacingAndGlyphs" textLength="216" x="360.5" y="704.5576">AbstractRefreshableApplicationContext</text><line style="stroke: #A80036; stroke-width: 1.5;" x1="332.5" x2="578.5" y1="715" y2="715"/><line style="stroke: #A80036; stroke-width: 1.5;" x1="332.5" x2="578.5" y1="723" y2="723"/><!--class BeanNameAware--><rect fill="#FEFECE" filter="url(#femax7ml7pct)" height="63.0229" id="BeanNameAware" style="stroke: #A80036; stroke-width: 1.5;" width="129" x="14" y="675.5"/><ellipse cx="29" cy="691.5" fill="#B4A7E5" rx="11" ry="11" style="stroke: #A80036; stroke-width: 1.0;"/><path d="M25.5938,685.7813 L25.5938,685.375 L31.9063,685.375 L31.9063,685.7813 L29.375,685.7813 Q29.375,685.7813 29.5234,685.9141 Q29.6719,686.0469 29.6719,686.3125 L29.6719,695.7969 Q29.6719,696.0625 29.8906,696.1953 Q30.1094,696.3281 30.1094,696.3281 L31.9063,696.3281 L31.9063,696.7344 L25.5938,696.7344 L25.5938,696.3281 L27.125,696.3281 Q27.4531,696.3281 27.5859,696.1953 Q27.7188,696.0625 27.7188,695.7969 L27.7188,686.3125 Q27.7188,686.0469 27.5859,685.9141 Q27.4531,685.7813 27.125,685.7813 L25.5938,685.7813 Z "/><text fill="#000000" font-family="sans-serif" font-size="12" font-style="italic" lengthAdjust="spacingAndGlyphs" textLength="97" x="43" y="697.0576">BeanNameAware</text><line style="stroke: #A80036; stroke-width: 1.5;" x1="15" x2="142" y1="707.5" y2="707.5"/><line style="stroke: #A80036; stroke-width: 1.5;" x1="15" x2="142" y1="715.5" y2="715.5"/><text fill="#000000" font-family="sans-serif" font-size="11" lengthAdjust="spacingAndGlyphs" textLength="75" x="20" y="732.106">setBeanName()</text><!--class InitializingBean--><rect fill="#FEFECE" filter="url(#femax7ml7pct)" height="63.0229" id="InitializingBean" style="stroke: #A80036; stroke-width: 1.5;" width="118" x="178.5" y="675.5"/><ellipse cx="193.5" cy="691.5" fill="#B4A7E5" rx="11" ry="11" style="stroke: #A80036; stroke-width: 1.0;"/><path d="M190.0938,685.7813 L190.0938,685.375 L196.4063,685.375 L196.4063,685.7813 L193.875,685.7813 Q193.875,685.7813 194.0234,685.9141 Q194.1719,686.0469 194.1719,686.3125 L194.1719,695.7969 Q194.1719,696.0625 194.3906,696.1953 Q194.6094,696.3281 194.6094,696.3281 L196.4063,696.3281 L196.4063,696.7344 L190.0938,696.7344 L190.0938,696.3281 L191.625,696.3281 Q191.9531,696.3281 192.0859,696.1953 Q192.2188,696.0625 192.2188,695.7969 L192.2188,686.3125 Q192.2188,686.0469 192.0859,685.9141 Q191.9531,685.7813 191.625,685.7813 L190.0938,685.7813 Z "/><text fill="#000000" font-family="sans-serif" font-size="12" font-style="italic" lengthAdjust="spacingAndGlyphs" textLength="86" x="207.5" y="697.0576">InitializingBean</text><line style="stroke: #A80036; stroke-width: 1.5;" x1="179.5" x2="295.5" y1="707.5" y2="707.5"/><line style="stroke: #A80036; stroke-width: 1.5;" x1="179.5" x2="295.5" y1="715.5" y2="715.5"/><text fill="#000000" font-family="sans-serif" font-size="11" lengthAdjust="spacingAndGlyphs" textLength="96" x="184.5" y="732.106">afterPropertiesSet()</text><!--class Aware--><rect fill="#FEFECE" filter="url(#femax7ml7pct)" height="48" id="Aware" style="stroke: #A80036; stroke-width: 1.5;" width="66" x="45.5" y="552.5"/><ellipse cx="60.5" cy="568.5" fill="#B4A7E5" rx="11" ry="11" style="stroke: #A80036; stroke-width: 1.0;"/><path d="M57.0938,562.7813 L57.0938,562.375 L63.4063,562.375 L63.4063,562.7813 L60.875,562.7813 Q60.875,562.7813 61.0234,562.9141 Q61.1719,563.0469 61.1719,563.3125 L61.1719,572.7969 Q61.1719,573.0625 61.3906,573.1953 Q61.6094,573.3281 61.6094,573.3281 L63.4063,573.3281 L63.4063,573.7344 L57.0938,573.7344 L57.0938,573.3281 L58.625,573.3281 Q58.9531,573.3281 59.0859,573.1953 Q59.2188,573.0625 59.2188,572.7969 L59.2188,563.3125 Q59.2188,563.0469 59.0859,562.9141 Q58.9531,562.7813 58.625,562.7813 L57.0938,562.7813 Z "/><text fill="#000000" font-family="sans-serif" font-size="12" font-style="italic" lengthAdjust="spacingAndGlyphs" textLength="34" x="74.5" y="574.0576">Aware</text><line style="stroke: #A80036; stroke-width: 1.5;" x1="46.5" x2="110.5" y1="584.5" y2="584.5"/><line style="stroke: #A80036; stroke-width: 1.5;" x1="46.5" x2="110.5" y1="592.5" y2="592.5"/><!--class AnnotationConfigApplicationContext--><rect fill="#FEFECE" filter="url(#femax7ml7pct)" height="48" id="AnnotationConfigApplicationContext" style="stroke: #A80036; stroke-width: 1.5;" width="227" x="693" y="806"/><ellipse cx="708" cy="822" fill="#ADD1B2" rx="11" ry="11" style="stroke: #A80036; stroke-width: 1.0;"/><path d="M706.5781,827.3594 Q704.7188,827.3594 703.625,825.9688 Q702.5313,824.5781 702.5313,821.5938 Q702.5313,819.0625 703.6953,817.4063 Q704.8594,815.75 706.8438,815.75 Q708.3125,815.75 708.7813,815.875 Q709.25,816.0781 709.25,816.0781 Q709.25,816.0781 709.25,816.0078 Q709.25,815.9375 709.8594,815.0156 L710.9063,818.6719 L709.5781,819.0781 Q709.1094,817.5313 708.4453,816.8672 Q707.7813,816.2031 706.7188,816.2031 Q706.3281,816.2031 705.5625,817.7344 Q704.7969,819.2656 704.7969,821.5156 Q704.7969,823.9844 705.4609,825.375 Q706.125,826.7656 706.6563,826.7656 Q707.7188,826.7656 708.4766,826 Q709.2344,825.2344 709.5781,823.5781 L710.9063,824.1719 Q710.5781,825.5781 709.6797,826.4688 Q708.7813,827.3594 706.5781,827.3594 Z "/><text fill="#000000" font-family="sans-serif" font-size="12" lengthAdjust="spacingAndGlyphs" textLength="195" x="722" y="827.5576">AnnotationConfigApplicationContext</text><line style="stroke: #A80036; stroke-width: 1.5;" x1="694" x2="919" y1="838" y2="838"/><line style="stroke: #A80036; stroke-width: 1.5;" x1="694" x2="919" y1="846" y2="846"/><!--class GenericApplicationContext--><rect fill="#FEFECE" filter="url(#femax7ml7pct)" height="48" id="GenericApplicationContext" style="stroke: #A80036; stroke-width: 1.5;" width="176" x="614.5" y="683"/><ellipse cx="629.5" cy="699" fill="#ADD1B2" rx="11" ry="11" style="stroke: #A80036; stroke-width: 1.0;"/><path d="M628.0781,704.3594 Q626.2188,704.3594 625.125,702.9688 Q624.0313,701.5781 624.0313,698.5938 Q624.0313,696.0625 625.1953,694.4063 Q626.3594,692.75 628.3438,692.75 Q629.8125,692.75 630.2813,692.875 Q630.75,693.0781 630.75,693.0781 Q630.75,693.0781 630.75,693.0078 Q630.75,692.9375 631.3594,692.0156 L632.4063,695.6719 L631.0781,696.0781 Q630.6094,694.5313 629.9453,693.8672 Q629.2813,693.2031 628.2188,693.2031 Q627.8281,693.2031 627.0625,694.7344 Q626.2969,696.2656 626.2969,698.5156 Q626.2969,700.9844 626.9609,702.375 Q627.625,703.7656 628.1563,703.7656 Q629.2188,703.7656 629.9766,703 Q630.7344,702.2344 631.0781,700.5781 L632.4063,701.1719 Q632.0781,702.5781 631.1797,703.4688 Q630.2813,704.3594 628.0781,704.3594 Z "/><text fill="#000000" font-family="sans-serif" font-size="12" lengthAdjust="spacingAndGlyphs" textLength="144" x="643.5" y="704.5576">GenericApplicationContext</text><line style="stroke: #A80036; stroke-width: 1.5;" x1="615.5" x2="789.5" y1="715" y2="715"/><line style="stroke: #A80036; stroke-width: 1.5;" x1="615.5" x2="789.5" y1="723" y2="723"/><!--class AnnotationConfigRegistry--><rect fill="#FEFECE" filter="url(#femax7ml7pct)" height="78.0459" id="AnnotationConfigRegistry" style="stroke: #A80036; stroke-width: 1.5;" width="172" x="825.5" y="668"/><ellipse cx="840.5" cy="684" fill="#B4A7E5" rx="11" ry="11" style="stroke: #A80036; stroke-width: 1.0;"/><path d="M837.0938,678.2813 L837.0938,677.875 L843.4063,677.875 L843.4063,678.2813 L840.875,678.2813 Q840.875,678.2813 841.0234,678.4141 Q841.1719,678.5469 841.1719,678.8125 L841.1719,688.2969 Q841.1719,688.5625 841.3906,688.6953 Q841.6094,688.8281 841.6094,688.8281 L843.4063,688.8281 L843.4063,689.2344 L837.0938,689.2344 L837.0938,688.8281 L838.625,688.8281 Q838.9531,688.8281 839.0859,688.6953 Q839.2188,688.5625 839.2188,688.2969 L839.2188,678.8125 Q839.2188,678.5469 839.0859,678.4141 Q838.9531,678.2813 838.625,678.2813 L837.0938,678.2813 Z "/><text fill="#000000" font-family="sans-serif" font-size="12" font-style="italic" lengthAdjust="spacingAndGlyphs" textLength="140" x="854.5" y="689.5576">AnnotationConfigRegistry</text><line style="stroke: #A80036; stroke-width: 1.5;" x1="826.5" x2="996.5" y1="700" y2="700"/><line style="stroke: #A80036; stroke-width: 1.5;" x1="826.5" x2="996.5" y1="708" y2="708"/><text fill="#000000" font-family="sans-serif" font-size="11" lengthAdjust="spacingAndGlyphs" textLength="45" x="831.5" y="724.606">register()</text><text fill="#000000" font-family="sans-serif" font-size="11" lengthAdjust="spacingAndGlyphs" textLength="32" x="831.5" y="739.6289">scan()</text><!--class BeanDefinitionRegistry--><rect fill="#FEFECE" filter="url(#femax7ml7pct)" height="63.0229" id="BeanDefinitionRegistry" style="stroke: #A80036; stroke-width: 1.5;" width="158" x="623.5" y="545"/><ellipse cx="638.5" cy="561" fill="#B4A7E5" rx="11" ry="11" style="stroke: #A80036; stroke-width: 1.0;"/><path d="M635.0938,555.2813 L635.0938,554.875 L641.4063,554.875 L641.4063,555.2813 L638.875,555.2813 Q638.875,555.2813 639.0234,555.4141 Q639.1719,555.5469 639.1719,555.8125 L639.1719,565.2969 Q639.1719,565.5625 639.3906,565.6953 Q639.6094,565.8281 639.6094,565.8281 L641.4063,565.8281 L641.4063,566.2344 L635.0938,566.2344 L635.0938,565.8281 L636.625,565.8281 Q636.9531,565.8281 637.0859,565.6953 Q637.2188,565.5625 637.2188,565.2969 L637.2188,555.8125 Q637.2188,555.5469 637.0859,555.4141 Q636.9531,555.2813 636.625,555.2813 L635.0938,555.2813 Z "/><text fill="#000000" font-family="sans-serif" font-size="12" font-style="italic" lengthAdjust="spacingAndGlyphs" textLength="126" x="652.5" y="566.5576">BeanDefinitionRegistry</text><line style="stroke: #A80036; stroke-width: 1.5;" x1="624.5" x2="780.5" y1="577" y2="577"/><line style="stroke: #A80036; stroke-width: 1.5;" x1="624.5" x2="780.5" y1="585" y2="585"/><text fill="#000000" font-family="sans-serif" font-size="11" lengthAdjust="spacingAndGlyphs" textLength="114" x="629.5" y="601.606">registerBeanDefinition()</text><!--class AliasRegistry--><rect fill="#FEFECE" filter="url(#femax7ml7pct)" height="63.0229" id="AliasRegistry" style="stroke: #A80036; stroke-width: 1.5;" width="104" x="650.5" y="422"/><ellipse cx="665.5" cy="438" fill="#B4A7E5" rx="11" ry="11" style="stroke: #A80036; stroke-width: 1.0;"/><path d="M662.0938,432.2813 L662.0938,431.875 L668.4063,431.875 L668.4063,432.2813 L665.875,432.2813 Q665.875,432.2813 666.0234,432.4141 Q666.1719,432.5469 666.1719,432.8125 L666.1719,442.2969 Q666.1719,442.5625 666.3906,442.6953 Q666.6094,442.8281 666.6094,442.8281 L668.4063,442.8281 L668.4063,443.2344 L662.0938,443.2344 L662.0938,442.8281 L663.625,442.8281 Q663.9531,442.8281 664.0859,442.6953 Q664.2188,442.5625 664.2188,442.2969 L664.2188,432.8125 Q664.2188,432.5469 664.0859,432.4141 Q663.9531,432.2813 663.625,432.2813 L662.0938,432.2813 Z "/><text fill="#000000" font-family="sans-serif" font-size="12" font-style="italic" lengthAdjust="spacingAndGlyphs" textLength="72" x="679.5" y="443.5576">AliasRegistry</text><line style="stroke: #A80036; stroke-width: 1.5;" x1="651.5" x2="753.5" y1="454" y2="454"/><line style="stroke: #A80036; stroke-width: 1.5;" x1="651.5" x2="753.5" y1="462" y2="462"/><text fill="#000000" font-family="sans-serif" font-size="11" lengthAdjust="spacingAndGlyphs" textLength="69" x="656.5" y="478.606">registerAlias()</text><!--reverse link ApplicationEventPublisher to ApplicationContext--><path d="M575.994,77.561 C518.743,97.297 450.072,120.969 400.274,138.136 " fill="none" id="ApplicationEventPublisher&lt;-ApplicationContext" style="stroke: #A80036; stroke-width: 1.0;"/><polygon fill="none" points="573.738,70.934,594.928,71.033,578.301,84.169,573.738,70.934" style="stroke: #A80036; stroke-width: 1.0;"/><!--reverse link MessageSource to ApplicationContext--><path d="M322.056,91.293 C324.063,104.786 326.169,118.94 327.959,130.976 " fill="none" id="MessageSource&lt;-ApplicationContext" style="stroke: #A80036; stroke-width: 1.0;"/><polygon fill="none" points="315.061,91.846,319.042,71.033,328.909,89.786,315.061,91.846" style="stroke: #A80036; stroke-width: 1.0;"/><!--reverse link EnvironmentCapable to ApplicationContext--><path d="M430.265,83.674 C410.615,99.317 388.844,116.647 370.844,130.976 " fill="none" id="EnvironmentCapable&lt;-ApplicationContext" style="stroke: #A80036; stroke-width: 1.0;"/><polygon fill="none" points="426.137,78.013,446.144,71.033,434.856,88.966,426.137,78.013" style="stroke: #A80036; stroke-width: 1.0;"/><!--reverse link ListableBeanFactory to ApplicationContext--><path d="M198.871,74.569 C226.131,92.303 259.187,113.807 285.601,130.99 " fill="none" id="ListableBeanFactory&lt;-ApplicationContext" style="stroke: #A80036; stroke-width: 1.0;"/><polygon fill="none" points="194.871,80.318,181.923,63.54,202.505,68.58,194.871,80.318" style="stroke: #A80036; stroke-width: 1.0;"/><!--reverse link HierarchicalBeanFactory to ApplicationContext--><path d="M250.182,162.5 C255.078,162.5 259.974,162.5 264.87,162.5 " fill="none" id="HierarchicalBeanFactory&lt;-ApplicationContext" style="stroke: #A80036; stroke-width: 1.0;"/><polygon fill="none" points="250.055,169.5,230.055,162.5,250.055,155.5,250.055,169.5" style="stroke: #A80036; stroke-width: 1.0;"/><!--link ListableBeanFactory to HierarchicalBeanFactory--><!--link ApplicationContext to ResourcePatternResolver--><path d="M400.293,162.5 C407.001,162.5 413.709,162.5 420.418,162.5 " fill="none" id="ApplicationContext-&gt;ResourcePatternResolver" style="stroke: #A80036; stroke-width: 1.0;"/><polygon fill="none" points="420.542,155.5,440.542,162.5,420.542,169.5,420.542,155.5" style="stroke: #A80036; stroke-width: 1.0;"/><!--reverse link ApplicationContext to ConfigurableApplicationContext--><path d="M331.432,214.565 C331.165,227.344 330.878,241.08 330.609,253.952 " fill="none" id="ApplicationContext&lt;-ConfigurableApplicationContext" style="stroke: #A80036; stroke-width: 1.0;"/><polygon fill="none" points="324.44,214.134,331.856,194.284,338.437,214.426,324.44,214.134" style="stroke: #A80036; stroke-width: 1.0;"/><!--reverse link Lifecycle to ConfigurableApplicationContext--><path d="M210.803,308 C215.851,308 220.898,308 225.946,308 " fill="none" id="Lifecycle&lt;-ConfigurableApplicationContext" style="stroke: #A80036; stroke-width: 1.0;"/><polygon fill="none" points="210.705,315,190.705,308,210.705,301,210.705,315" style="stroke: #A80036; stroke-width: 1.0;"/><!--reverse link ResourceLoader to DefaultResourceLoader--><path d="M524.474,359.868 C521.666,383.566 518.465,410.593 516.247,429.311 " fill="none" id="ResourceLoader&lt;-DefaultResourceLoader" style="stroke: #A80036; stroke-width: 1.0; stroke-dasharray: 7.0,7.0;"/><polygon fill="none" points="517.549,358.822,526.853,339.784,531.451,360.469,517.549,358.822" style="stroke: #A80036; stroke-width: 1.0;"/><!--reverse link DefaultResourceLoader to AbstractApplicationContext--><path d="M499.903,496.686 C493.909,515.282 487.094,536.427 482.033,552.13 " fill="none" id="DefaultResourceLoader&lt;-AbstractApplicationContext" style="stroke: #A80036; stroke-width: 1.0;"/><polygon fill="none" points="493.275,494.432,506.073,477.544,506.6,498.727,493.275,494.432" style="stroke: #A80036; stroke-width: 1.0;"/><!--reverse link ConfigurableApplicationContext to AbstractApplicationContext--><path d="M360.645,380.358 C375.562,412.851 394.331,451.458 413.5,485 C427.038,508.689 444.647,534.363 457.463,552.293 " fill="none" id="ConfigurableApplicationContext&lt;-AbstractApplicationContext" style="stroke: #A80036; stroke-width: 1.0; stroke-dasharray: 7.0,7.0;"/><polygon fill="none" points="354.213,383.124,352.333,362.018,366.964,377.345,354.213,383.124" style="stroke: #A80036; stroke-width: 1.0;"/><!--reverse link AbstractXmlApplicationContext to FileSystemXmlApplicationContext--><path d="M195.266,975.1036 C177.251,990.5034 156.749,1008.0288 140.782,1021.6784 " fill="none" id="AbstractXmlApplicationContext&lt;-FileSystemXmlApplicationContext" style="stroke: #A80036; stroke-width: 1.0;"/><polygon fill="none" points="190.843,969.675,210.594,962,199.94,980.3169,190.843,969.675" style="stroke: #A80036; stroke-width: 1.0;"/><!--reverse link AbstractXmlApplicationContext to ClassPathXmlApplicationContext--><path d="M280.075,975.1036 C298.235,990.5034 318.902,1008.0288 334.998,1021.6784 " fill="none" id="AbstractXmlApplicationContext&lt;-ClassPathXmlApplicationContext" style="stroke: #A80036; stroke-width: 1.0;"/><polygon fill="none" points="275.35,980.2746,264.623,962,284.404,969.597,275.35,980.2746" style="stroke: #A80036; stroke-width: 1.0;"/><!--reverse link AbstractRefreshableConfigApplicationContext to AbstractXmlApplicationContext--><path d="M237.5,874.024 C237.5,887.579 237.5,902.038 237.5,913.678 " fill="none" id="AbstractRefreshableConfigApplicationContext&lt;-AbstractXmlApplicationContext" style="stroke: #A80036; stroke-width: 1.0;"/><polygon fill="none" points="230.5,874,237.5,854,244.5,874,230.5,874" style="stroke: #A80036; stroke-width: 1.0;"/><!--reverse link AbstractRefreshableApplicationContext to AbstractRefreshableConfigApplicationContext--><path d="M396.412,740.796 C359.342,761.372 312.447,787.401 279.233,805.836 " fill="none" id="AbstractRefreshableApplicationContext&lt;-AbstractRefreshableConfigApplicationContext" style="stroke: #A80036; stroke-width: 1.0;"/><polygon fill="none" points="393.099,734.63,413.983,731.044,399.893,746.871,393.099,734.63" style="stroke: #A80036; stroke-width: 1.0;"/><!--reverse link BeanNameAware to AbstractRefreshableConfigApplicationContext--><path d="M134.856,750.887 C159.221,769.429 186.762,790.388 207.178,805.925 " fill="none" id="BeanNameAware&lt;-AbstractRefreshableConfigApplicationContext" style="stroke: #A80036; stroke-width: 1.0; stroke-dasharray: 7.0,7.0;"/><polygon fill="none" points="130.299,756.216,118.622,738.533,138.777,745.075,130.299,756.216" style="stroke: #A80036; stroke-width: 1.0;"/><!--reverse link InitializingBean to AbstractRefreshableConfigApplicationContext--><path d="M237.5,758.692 C237.5,775.039 237.5,792.369 237.5,805.733 " fill="none" id="InitializingBean&lt;-AbstractRefreshableConfigApplicationContext" style="stroke: #A80036; stroke-width: 1.0; stroke-dasharray: 7.0,7.0;"/><polygon fill="none" points="230.5,758.533,237.5,738.533,244.5,758.533,230.5,758.533" style="stroke: #A80036; stroke-width: 1.0;"/><!--reverse link Aware to BeanNameAware--><path d="M78.5,620.878 C78.5,638.69 78.5,658.902 78.5,675.16 " fill="none" id="Aware&lt;-BeanNameAware" style="stroke: #A80036; stroke-width: 1.0;"/><polygon fill="none" points="71.5001,620.77,78.5,600.77,85.5001,620.77,71.5001,620.77" style="stroke: #A80036; stroke-width: 1.0;"/><!--reverse link AbstractApplicationContext to AbstractRefreshableApplicationContext--><path d="M468.095,620.817 C465.022,641.6 461.464,665.664 458.915,682.903 " fill="none" id="AbstractApplicationContext&lt;-AbstractRefreshableApplicationContext" style="stroke: #A80036; stroke-width: 1.0;"/><polygon fill="none" points="461.209,619.531,471.059,600.77,475.058,621.579,461.209,619.531" style="stroke: #A80036; stroke-width: 1.0;"/><!--reverse link GenericApplicationContext to AnnotationConfigApplicationContext--><path d="M735.46,746.348 C752.193,765.816 771.978,788.835 786.413,805.63 " fill="none" id="GenericApplicationContext&lt;-AnnotationConfigApplicationContext" style="stroke: #A80036; stroke-width: 1.0;"/><polygon fill="none" points="730.034,750.774,722.306,731.044,740.652,741.649,730.034,750.774" style="stroke: #A80036; stroke-width: 1.0;"/><!--reverse link AnnotationConfigRegistry to AnnotationConfigApplicationContext--><path d="M865.121,761.447 C851.649,776.972 837.631,793.125 826.683,805.742 " fill="none" id="AnnotationConfigRegistry&lt;-AnnotationConfigApplicationContext" style="stroke: #A80036; stroke-width: 1.0; stroke-dasharray: 7.0,7.0;"/><polygon fill="none" points="859.882,756.803,878.277,746.285,870.456,765.979,859.882,756.803" style="stroke: #A80036; stroke-width: 1.0;"/><!--reverse link AbstractApplicationContext to GenericApplicationContext--><path d="M533.036,610.491 C573.237,633.148 625.603,662.661 661.42,682.848 " fill="none" id="AbstractApplicationContext&lt;-GenericApplicationContext" style="stroke: #A80036; stroke-width: 1.0;"/><polygon fill="none" points="529.512,616.54,515.525,600.622,536.385,604.343,529.512,616.54" style="stroke: #A80036; stroke-width: 1.0;"/><!--reverse link BeanDefinitionRegistry to GenericApplicationContext--><path d="M702.5,628.437 C702.5,647.209 702.5,667.566 702.5,682.713 " fill="none" id="BeanDefinitionRegistry&lt;-GenericApplicationContext" style="stroke: #A80036; stroke-width: 1.0; stroke-dasharray: 7.0,7.0;"/><polygon fill="none" points="695.5,628.279,702.5,608.279,709.5,628.279,695.5,628.279" style="stroke: #A80036; stroke-width: 1.0;"/><!--reverse link AliasRegistry to BeanDefinitionRegistry--><path d="M702.5,505.293 C702.5,518.786 702.5,532.94 702.5,544.976 " fill="none" id="AliasRegistry&lt;-BeanDefinitionRegistry" style="stroke: #A80036; stroke-width: 1.0;"/><polygon fill="none" points="695.5,505.033,702.5,485.033,709.5,505.033,695.5,505.033" style="stroke: #A80036; stroke-width: 1.0;"/><!--link ResourcePatternResolver to ResourceLoader--><path d="M528.144,194.284 C528.519,212.254 529.003,235.38 529.434,256.002 " fill="none" id="ResourcePatternResolver-&gt;ResourceLoader" style="stroke: #A80036; stroke-width: 1.0;"/><polygon fill="none" points="536.438,256.125,529.857,276.267,522.441,256.417,536.438,256.125" style="stroke: #A80036; stroke-width: 1.0;"/><!--
@startuml
interface ApplicationContext extends ApplicationEventPublisher,MessageSource,EnvironmentCapable {
    getApplicationName()
}
interface ListableBeanFactory
interface HierarchicalBeanFactory
ApplicationContext -left-|> ListableBeanFactory
ApplicationContext -left-|> HierarchicalBeanFactory
ListableBeanFactory -[hidden]- HierarchicalBeanFactory
interface ApplicationEventPublisher {
    publishEvent()
}
interface MessageSource {
    getMessage()
}
interface EnvironmentCapable {
    getEnvironment()
}
interface ResourcePatternResolver {
    getResources()
}
ApplicationContext -right-|> ResourcePatternResolver
interface ResourceLoader {
    getResource()
}
interface ConfigurableApplicationContext extends ApplicationContext {
    setXxx()
    addXxx()
    refresh()
    close()
}
interface Lifecycle {
    start()
    stop()
}
ConfigurableApplicationContext -left-|> Lifecycle
class DefaultResourceLoader implements ResourceLoader
abstract class AbstractApplicationContext extends DefaultResourceLoader implements ConfigurableApplicationContext
class FileSystemXmlApplicationContext extends AbstractXmlApplicationContext
class ClassPathXmlApplicationContext extends AbstractXmlApplicationContext
abstract class AbstractXmlApplicationContext extends AbstractRefreshableConfigApplicationContext
abstract class AbstractRefreshableConfigApplicationContext extends AbstractRefreshableApplicationContext implements BeanNameAware, InitializingBean
interface BeanNameAware extends Aware {
    setBeanName()
}
interface InitializingBean {
    afterPropertiesSet()
}
abstract class AbstractRefreshableApplicationContext extends AbstractApplicationContext
class AnnotationConfigApplicationContext extends GenericApplicationContext implements AnnotationConfigRegistry
interface AnnotationConfigRegistry {
	register()
	scan()
}
class GenericApplicationContext extends AbstractApplicationContext implements BeanDefinitionRegistry
interface BeanDefinitionRegistry extends AliasRegistry {
    registerBeanDefinition()
}
interface AliasRegistry {
    registerAlias()
}
ResourcePatternResolver -down-|> ResourceLoader
@enduml

PlantUML version 1.2019.09(Tue Aug 27 00:19:51 CST 2019)
(GPL source distribution)
Java Runtime: Java(TM) SE Runtime Environment
JVM: Java HotSpot(TM) 64-Bit Server VM
Java Version: 1.8.0_231-b11
Operating System: Windows 10
OS Version: 10.0
Default Encoding: GBK
Language: zh
Country: CN
--></g></svg>