<?xml version="1.0" encoding="UTF-8" standalone="no"?><svg xmlns="http://www.w3.org/2000/svg" xmlns:xlink="http://www.w3.org/1999/xlink" contentScriptType="application/ecmascript" contentStyleType="text/css" height="1195px" preserveAspectRatio="none" style="width:890px;height:1195px;" version="1.1" viewBox="0 0 890 1195" width="890px" zoomAndPan="magnify"><defs><filter height="300%" id="f1wfhuzpb3uroa" width="300%" x="-1" y="-1"><feGaussianBlur result="blurOut" stdDeviation="2.0"/><feColorMatrix in="blurOut" result="blurOut2" type="matrix" values="0 0 0 0 0 0 0 0 0 0 0 0 0 0 0 0 0 0 .4 0"/><feOffset dx="4.0" dy="4.0" in="blurOut2" result="blurOut3"/><feBlend in="SourceGraphic" in2="blurOut3" mode="normal"/></filter></defs><g><!--class BeanFactory--><rect fill="#FEFECE" filter="url(#f1wfhuzpb3uroa)" height="153.1606" id="BeanFactory" style="stroke: #A80036; stroke-width: 1.5;" width="101" x="188" y="131"/><ellipse cx="203" cy="147" fill="#B4A7E5" rx="11" ry="11" style="stroke: #A80036; stroke-width: 1.0;"/><path d="M199.5938,141.2813 L199.5938,140.875 L205.9063,140.875 L205.9063,141.2813 L203.375,141.2813 Q203.375,141.2813 203.5234,141.4141 Q203.6719,141.5469 203.6719,141.8125 L203.6719,151.2969 Q203.6719,151.5625 203.8906,151.6953 Q204.1094,151.8281 204.1094,151.8281 L205.9063,151.8281 L205.9063,152.2344 L199.5938,152.2344 L199.5938,151.8281 L201.125,151.8281 Q201.4531,151.8281 201.5859,151.6953 Q201.7188,151.5625 201.7188,151.2969 L201.7188,141.8125 Q201.7188,141.5469 201.5859,141.4141 Q201.4531,141.2813 201.125,141.2813 L199.5938,141.2813 Z "/><text fill="#000000" font-family="sans-serif" font-size="12" font-style="italic" lengthAdjust="spacingAndGlyphs" textLength="69" x="217" y="152.5576">BeanFactory</text><line style="stroke: #A80036; stroke-width: 1.5;" x1="189" x2="288" y1="163" y2="163"/><line style="stroke: #A80036; stroke-width: 1.5;" x1="189" x2="288" y1="171" y2="171"/><text fill="#000000" font-family="sans-serif" font-size="11" lengthAdjust="spacingAndGlyphs" textLength="48" x="194" y="187.606">getBean()</text><text fill="#000000" font-family="sans-serif" font-size="11" lengthAdjust="spacingAndGlyphs" textLength="88" x="194" y="202.6289">getBeanProvider()</text><text fill="#000000" font-family="sans-serif" font-size="11" lengthAdjust="spacingAndGlyphs" textLength="74" x="194" y="217.6519">containsBean()</text><text fill="#000000" font-family="sans-serif" font-size="11" lengthAdjust="spacingAndGlyphs" textLength="60" x="194" y="232.6748">isSingleton()</text><text fill="#000000" font-family="sans-serif" font-size="11" lengthAdjust="spacingAndGlyphs" textLength="62" x="194" y="247.6978">isPrototype()</text><text fill="#000000" font-family="sans-serif" font-size="11" lengthAdjust="spacingAndGlyphs" textLength="69" x="194" y="262.7207">isTypeMatch()</text><text fill="#000000" font-family="sans-serif" font-size="11" lengthAdjust="spacingAndGlyphs" textLength="47" x="194" y="277.7437">getType()</text><!--class ListableBeanFactory--><rect fill="#FEFECE" filter="url(#f1wfhuzpb3uroa)" height="153.1606" id="ListableBeanFactory" style="stroke: #A80036; stroke-width: 1.5;" width="161" x="6" y="344"/><ellipse cx="28.2" cy="360" fill="#B4A7E5" rx="11" ry="11" style="stroke: #A80036; stroke-width: 1.0;"/><path d="M24.7938,354.2813 L24.7938,353.875 L31.1063,353.875 L31.1063,354.2813 L28.575,354.2813 Q28.575,354.2813 28.7234,354.4141 Q28.8719,354.5469 28.8719,354.8125 L28.8719,364.2969 Q28.8719,364.5625 29.0906,364.6953 Q29.3094,364.8281 29.3094,364.8281 L31.1063,364.8281 L31.1063,365.2344 L24.7938,365.2344 L24.7938,364.8281 L26.325,364.8281 Q26.6531,364.8281 26.7859,364.6953 Q26.9188,364.5625 26.9188,364.2969 L26.9188,354.8125 Q26.9188,354.5469 26.7859,354.4141 Q26.6531,354.2813 26.325,354.2813 L24.7938,354.2813 Z "/><text fill="#000000" font-family="sans-serif" font-size="12" font-style="italic" lengthAdjust="spacingAndGlyphs" textLength="113" x="43.8" y="365.5576">ListableBeanFactory</text><line style="stroke: #A80036; stroke-width: 1.5;" x1="7" x2="166" y1="376" y2="376"/><line style="stroke: #A80036; stroke-width: 1.5;" x1="7" x2="166" y1="384" y2="384"/><text fill="#000000" font-family="sans-serif" font-size="11" lengthAdjust="spacingAndGlyphs" textLength="118" x="12" y="400.606">containsBeanDefinition()</text><text fill="#000000" font-family="sans-serif" font-size="11" lengthAdjust="spacingAndGlyphs" textLength="120" x="12" y="415.6289">getBeanDefinitionCount()</text><text fill="#000000" font-family="sans-serif" font-size="11" lengthAdjust="spacingAndGlyphs" textLength="125" x="12" y="430.6519">getBeanDefinitionNames()</text><text fill="#000000" font-family="sans-serif" font-size="11" lengthAdjust="spacingAndGlyphs" textLength="121" x="12" y="445.6748">getBeanNamesForType()</text><text fill="#000000" font-family="sans-serif" font-size="11" lengthAdjust="spacingAndGlyphs" textLength="90" x="12" y="460.6978">getBeansOfType()</text><text fill="#000000" font-family="sans-serif" font-size="11" lengthAdjust="spacingAndGlyphs" textLength="149" x="12" y="475.7207">getBeanNamesForAnnotation()</text><text fill="#000000" font-family="sans-serif" font-size="11" lengthAdjust="spacingAndGlyphs" textLength="127" x="12" y="490.7437">getBeansWithAnnotation()</text><!--class HierarchicalBeanFactory--><rect fill="#FEFECE" filter="url(#f1wfhuzpb3uroa)" height="63.0229" id="HierarchicalBeanFactory" style="stroke: #A80036; stroke-width: 1.5;" width="167" x="294" y="389"/><ellipse cx="309" cy="405" fill="#B4A7E5" rx="11" ry="11" style="stroke: #A80036; stroke-width: 1.0;"/><path d="M305.5938,399.2813 L305.5938,398.875 L311.9063,398.875 L311.9063,399.2813 L309.375,399.2813 Q309.375,399.2813 309.5234,399.4141 Q309.6719,399.5469 309.6719,399.8125 L309.6719,409.2969 Q309.6719,409.5625 309.8906,409.6953 Q310.1094,409.8281 310.1094,409.8281 L311.9063,409.8281 L311.9063,410.2344 L305.5938,410.2344 L305.5938,409.8281 L307.125,409.8281 Q307.4531,409.8281 307.5859,409.6953 Q307.7188,409.5625 307.7188,409.2969 L307.7188,399.8125 Q307.7188,399.5469 307.5859,399.4141 Q307.4531,399.2813 307.125,399.2813 L305.5938,399.2813 Z "/><text fill="#000000" font-family="sans-serif" font-size="12" font-style="italic" lengthAdjust="spacingAndGlyphs" textLength="135" x="323" y="410.5576">HierarchicalBeanFactory</text><line style="stroke: #A80036; stroke-width: 1.5;" x1="295" x2="460" y1="421" y2="421"/><line style="stroke: #A80036; stroke-width: 1.5;" x1="295" x2="460" y1="429" y2="429"/><text fill="#000000" font-family="sans-serif" font-size="11" lengthAdjust="spacingAndGlyphs" textLength="116" x="300" y="445.606">getParentBeanFactory()</text><!--class AutowireCapableBeanFactory--><rect fill="#FEFECE" filter="url(#f1wfhuzpb3uroa)" height="243.2983" id="AutowireCapableBeanFactory" style="stroke: #A80036; stroke-width: 1.5;" width="235" x="121" y="557"/><ellipse cx="153.55" cy="573" fill="#B4A7E5" rx="11" ry="11" style="stroke: #A80036; stroke-width: 1.0;"/><path d="M150.1438,567.2813 L150.1438,566.875 L156.4563,566.875 L156.4563,567.2813 L153.925,567.2813 Q153.925,567.2813 154.0734,567.4141 Q154.2219,567.5469 154.2219,567.8125 L154.2219,577.2969 Q154.2219,577.5625 154.4406,577.6953 Q154.6594,577.8281 154.6594,577.8281 L156.4563,577.8281 L156.4563,578.2344 L150.1438,578.2344 L150.1438,577.8281 L151.675,577.8281 Q152.0031,577.8281 152.1359,577.6953 Q152.2688,577.5625 152.2688,577.2969 L152.2688,567.8125 Q152.2688,567.5469 152.1359,567.4141 Q152.0031,567.2813 151.675,567.2813 L150.1438,567.2813 Z "/><text fill="#000000" font-family="sans-serif" font-size="12" font-style="italic" lengthAdjust="spacingAndGlyphs" textLength="164" x="171.45" y="578.5576">AutowireCapableBeanFactory</text><line style="stroke: #A80036; stroke-width: 1.5;" x1="122" x2="355" y1="589" y2="589"/><line style="stroke: #A80036; stroke-width: 1.5;" x1="122" x2="355" y1="597" y2="597"/><text fill="#000000" font-family="sans-serif" font-size="11" lengthAdjust="spacingAndGlyphs" textLength="64" x="127" y="613.606">createBean()</text><text fill="#000000" font-family="sans-serif" font-size="11" lengthAdjust="spacingAndGlyphs" textLength="51" x="127" y="628.6289">autowire()</text><text fill="#000000" font-family="sans-serif" font-size="11" lengthAdjust="spacingAndGlyphs" textLength="76" x="127" y="643.6519">autowireBean()</text><text fill="#000000" font-family="sans-serif" font-size="11" lengthAdjust="spacingAndGlyphs" textLength="79" x="127" y="658.6748">configureBean()</text><text fill="#000000" font-family="sans-serif" font-size="11" lengthAdjust="spacingAndGlyphs" textLength="125" x="127" y="673.6978">autowireBeanProperties()</text><text fill="#000000" font-family="sans-serif" font-size="11" lengthAdjust="spacingAndGlyphs" textLength="134" x="127" y="688.7207">applyBeanPropertyValues()</text><text fill="#000000" font-family="sans-serif" font-size="11" lengthAdjust="spacingAndGlyphs" textLength="70" x="127" y="703.7437">initializeBean()</text><text fill="#000000" font-family="sans-serif" font-size="11" lengthAdjust="spacingAndGlyphs" textLength="223" x="127" y="718.7666">applyBeanPostProcessorsBeforeInitialization()</text><text fill="#000000" font-family="sans-serif" font-size="11" lengthAdjust="spacingAndGlyphs" textLength="215" x="127" y="733.7896">applyBeanPostProcessorsAfterInitialization()</text><text fill="#000000" font-family="sans-serif" font-size="11" lengthAdjust="spacingAndGlyphs" textLength="70" x="127" y="748.8125">destroyBean()</text><text fill="#000000" font-family="sans-serif" font-size="11" lengthAdjust="spacingAndGlyphs" textLength="102" x="127" y="763.8354">resolveNamedBean()</text><text fill="#000000" font-family="sans-serif" font-size="11" lengthAdjust="spacingAndGlyphs" textLength="109" x="127" y="778.8584">resolveBeanByName()</text><text fill="#000000" font-family="sans-serif" font-size="11" lengthAdjust="spacingAndGlyphs" textLength="105" x="127" y="793.8813">resolveDependency()</text><!--class SingletonBeanRegistry--><rect fill="#FEFECE" filter="url(#f1wfhuzpb3uroa)" height="123.1147" id="SingletonBeanRegistry" style="stroke: #A80036; stroke-width: 1.5;" width="158" x="445.5" y="146"/><ellipse cx="460.5" cy="162" fill="#B4A7E5" rx="11" ry="11" style="stroke: #A80036; stroke-width: 1.0;"/><path d="M457.0938,156.2813 L457.0938,155.875 L463.4063,155.875 L463.4063,156.2813 L460.875,156.2813 Q460.875,156.2813 461.0234,156.4141 Q461.1719,156.5469 461.1719,156.8125 L461.1719,166.2969 Q461.1719,166.5625 461.3906,166.6953 Q461.6094,166.8281 461.6094,166.8281 L463.4063,166.8281 L463.4063,167.2344 L457.0938,167.2344 L457.0938,166.8281 L458.625,166.8281 Q458.9531,166.8281 459.0859,166.6953 Q459.2188,166.5625 459.2188,166.2969 L459.2188,156.8125 Q459.2188,156.5469 459.0859,156.4141 Q458.9531,156.2813 458.625,156.2813 L457.0938,156.2813 Z "/><text fill="#000000" font-family="sans-serif" font-size="12" font-style="italic" lengthAdjust="spacingAndGlyphs" textLength="126" x="474.5" y="167.5576">SingletonBeanRegistry</text><line style="stroke: #A80036; stroke-width: 1.5;" x1="446.5" x2="602.5" y1="178" y2="178"/><line style="stroke: #A80036; stroke-width: 1.5;" x1="446.5" x2="602.5" y1="186" y2="186"/><text fill="#000000" font-family="sans-serif" font-size="11" lengthAdjust="spacingAndGlyphs" textLength="93" x="451.5" y="202.606">containsSingleton()</text><text fill="#000000" font-family="sans-serif" font-size="11" lengthAdjust="spacingAndGlyphs" textLength="67" x="451.5" y="217.6289">getSingleton()</text><text fill="#000000" font-family="sans-serif" font-size="11" lengthAdjust="spacingAndGlyphs" textLength="95" x="451.5" y="232.6519">getSingletonCount()</text><text fill="#000000" font-family="sans-serif" font-size="11" lengthAdjust="spacingAndGlyphs" textLength="100" x="451.5" y="247.6748">getSingletonNames()</text><text fill="#000000" font-family="sans-serif" font-size="11" lengthAdjust="spacingAndGlyphs" textLength="89" x="451.5" y="262.6978">registerSingleton()</text><!--class ConfigurableBeanFactory--><rect fill="#FEFECE" filter="url(#f1wfhuzpb3uroa)" height="243.2983" id="ConfigurableBeanFactory" style="stroke: #A80036; stroke-width: 1.5;" width="173" x="391" y="557"/><ellipse cx="406" cy="573" fill="#B4A7E5" rx="11" ry="11" style="stroke: #A80036; stroke-width: 1.0;"/><path d="M402.5938,567.2813 L402.5938,566.875 L408.9063,566.875 L408.9063,567.2813 L406.375,567.2813 Q406.375,567.2813 406.5234,567.4141 Q406.6719,567.5469 406.6719,567.8125 L406.6719,577.2969 Q406.6719,577.5625 406.8906,577.6953 Q407.1094,577.8281 407.1094,577.8281 L408.9063,577.8281 L408.9063,578.2344 L402.5938,578.2344 L402.5938,577.8281 L404.125,577.8281 Q404.4531,577.8281 404.5859,577.6953 Q404.7188,577.5625 404.7188,577.2969 L404.7188,567.8125 Q404.7188,567.5469 404.5859,567.4141 Q404.4531,567.2813 404.125,567.2813 L402.5938,567.2813 Z "/><text fill="#000000" font-family="sans-serif" font-size="12" font-style="italic" lengthAdjust="spacingAndGlyphs" textLength="141" x="420" y="578.5576">ConfigurableBeanFactory</text><line style="stroke: #A80036; stroke-width: 1.5;" x1="392" x2="563" y1="589" y2="589"/><line style="stroke: #A80036; stroke-width: 1.5;" x1="392" x2="563" y1="597" y2="597"/><text fill="#000000" font-family="sans-serif" font-size="11" lengthAdjust="spacingAndGlyphs" textLength="116" x="397" y="613.606">setParentBeanFactory()</text><text fill="#000000" font-family="sans-serif" font-size="11" lengthAdjust="spacingAndGlyphs" textLength="109" x="397" y="628.6289">setBeanClassLoader()</text><text fill="#000000" font-family="sans-serif" font-size="11" lengthAdjust="spacingAndGlyphs" textLength="145" x="397" y="643.6519">setBeanExpressionResolver()</text><text fill="#000000" font-family="sans-serif" font-size="11" lengthAdjust="spacingAndGlyphs" textLength="115" x="397" y="658.6748">setConversionService()</text><text fill="#000000" font-family="sans-serif" font-size="11" lengthAdjust="spacingAndGlyphs" textLength="138" x="397" y="673.6978">addPropertyEditorRegistrar()</text><text fill="#000000" font-family="sans-serif" font-size="11" lengthAdjust="spacingAndGlyphs" textLength="108" x="397" y="688.7207">registerCustomEditor()</text><text fill="#000000" font-family="sans-serif" font-size="11" lengthAdjust="spacingAndGlyphs" textLength="95" x="397" y="703.7437">setTypeConverter()</text><text fill="#000000" font-family="sans-serif" font-size="11" lengthAdjust="spacingAndGlyphs" textLength="122" x="397" y="718.7666">addBeanPostProcessor()</text><text fill="#000000" font-family="sans-serif" font-size="11" lengthAdjust="spacingAndGlyphs" textLength="76" x="397" y="733.7896">registerScope()</text><text fill="#000000" font-family="sans-serif" font-size="11" lengthAdjust="spacingAndGlyphs" textLength="120" x="397" y="748.8125">copyConfigurationFrom()</text><text fill="#000000" font-family="sans-serif" font-size="11" lengthAdjust="spacingAndGlyphs" textLength="115" x="397" y="763.8354">setCurrentlyInCreation()</text><text fill="#000000" font-family="sans-serif" font-size="11" lengthAdjust="spacingAndGlyphs" textLength="122" x="397" y="778.8584">registerDependentBean()</text><text fill="#000000" font-family="sans-serif" font-size="11" lengthAdjust="spacingAndGlyphs" textLength="95" x="397" y="793.8813">destroySingletons()</text><!--class ConfigurableListableBeanFactory--><rect fill="#FEFECE" filter="url(#f1wfhuzpb3uroa)" height="93.0688" id="ConfigurableListableBeanFactory" style="stroke: #A80036; stroke-width: 1.5;" width="217" x="130" y="860"/><ellipse cx="145" cy="876" fill="#B4A7E5" rx="11" ry="11" style="stroke: #A80036; stroke-width: 1.0;"/><path d="M141.5938,870.2813 L141.5938,869.875 L147.9063,869.875 L147.9063,870.2813 L145.375,870.2813 Q145.375,870.2813 145.5234,870.4141 Q145.6719,870.5469 145.6719,870.8125 L145.6719,880.2969 Q145.6719,880.5625 145.8906,880.6953 Q146.1094,880.8281 146.1094,880.8281 L147.9063,880.8281 L147.9063,881.2344 L141.5938,881.2344 L141.5938,880.8281 L143.125,880.8281 Q143.4531,880.8281 143.5859,880.6953 Q143.7188,880.5625 143.7188,880.2969 L143.7188,870.8125 Q143.7188,870.5469 143.5859,870.4141 Q143.4531,870.2813 143.125,870.2813 L141.5938,870.2813 Z "/><text fill="#000000" font-family="sans-serif" font-size="12" font-style="italic" lengthAdjust="spacingAndGlyphs" textLength="185" x="159" y="881.5576">ConfigurableListableBeanFactory</text><line style="stroke: #A80036; stroke-width: 1.5;" x1="131" x2="346" y1="892" y2="892"/><line style="stroke: #A80036; stroke-width: 1.5;" x1="131" x2="346" y1="900" y2="900"/><text fill="#000000" font-family="sans-serif" font-size="11" lengthAdjust="spacingAndGlyphs" textLength="92" x="136" y="916.606">getBeanDefinition()</text><text fill="#000000" font-family="sans-serif" font-size="11" lengthAdjust="spacingAndGlyphs" textLength="104" x="136" y="931.6289">freezeConfiguration()</text><text fill="#000000" font-family="sans-serif" font-size="11" lengthAdjust="spacingAndGlyphs" textLength="123" x="136" y="946.6519">preInstantiateSingletons()</text><!--class AliasRegistry--><rect fill="#FEFECE" filter="url(#f1wfhuzpb3uroa)" height="63.0229" id="AliasRegistry" style="stroke: #A80036; stroke-width: 1.5;" width="104" x="725.5" y="8"/><ellipse cx="740.5" cy="24" fill="#B4A7E5" rx="11" ry="11" style="stroke: #A80036; stroke-width: 1.0;"/><path d="M737.0938,18.2813 L737.0938,17.875 L743.4063,17.875 L743.4063,18.2813 L740.875,18.2813 Q740.875,18.2813 741.0234,18.4141 Q741.1719,18.5469 741.1719,18.8125 L741.1719,28.2969 Q741.1719,28.5625 741.3906,28.6953 Q741.6094,28.8281 741.6094,28.8281 L743.4063,28.8281 L743.4063,29.2344 L737.0938,29.2344 L737.0938,28.8281 L738.625,28.8281 Q738.9531,28.8281 739.0859,28.6953 Q739.2188,28.5625 739.2188,28.2969 L739.2188,18.8125 Q739.2188,18.5469 739.0859,18.4141 Q738.9531,18.2813 738.625,18.2813 L737.0938,18.2813 Z "/><text fill="#000000" font-family="sans-serif" font-size="12" font-style="italic" lengthAdjust="spacingAndGlyphs" textLength="72" x="754.5" y="29.5576">AliasRegistry</text><line style="stroke: #A80036; stroke-width: 1.5;" x1="726.5" x2="828.5" y1="40" y2="40"/><line style="stroke: #A80036; stroke-width: 1.5;" x1="726.5" x2="828.5" y1="48" y2="48"/><text fill="#000000" font-family="sans-serif" font-size="11" lengthAdjust="spacingAndGlyphs" textLength="69" x="731.5" y="64.606">registerAlias()</text><!--class SimpleAliasRegistry--><rect fill="#FEFECE" filter="url(#f1wfhuzpb3uroa)" height="48" id="SimpleAliasRegistry" style="stroke: #A80036; stroke-width: 1.5;" width="143" x="643" y="183.5"/><ellipse cx="658" cy="199.5" fill="#ADD1B2" rx="11" ry="11" style="stroke: #A80036; stroke-width: 1.0;"/><path d="M656.5781,204.8594 Q654.7188,204.8594 653.625,203.4688 Q652.5313,202.0781 652.5313,199.0938 Q652.5313,196.5625 653.6953,194.9063 Q654.8594,193.25 656.8438,193.25 Q658.3125,193.25 658.7813,193.375 Q659.25,193.5781 659.25,193.5781 Q659.25,193.5781 659.25,193.5078 Q659.25,193.4375 659.8594,192.5156 L660.9063,196.1719 L659.5781,196.5781 Q659.1094,195.0313 658.4453,194.3672 Q657.7813,193.7031 656.7188,193.7031 Q656.3281,193.7031 655.5625,195.2344 Q654.7969,196.7656 654.7969,199.0156 Q654.7969,201.4844 655.4609,202.875 Q656.125,204.2656 656.6563,204.2656 Q657.7188,204.2656 658.4766,203.5 Q659.2344,202.7344 659.5781,201.0781 L660.9063,201.6719 Q660.5781,203.0781 659.6797,203.9688 Q658.7813,204.8594 656.5781,204.8594 Z "/><text fill="#000000" font-family="sans-serif" font-size="12" lengthAdjust="spacingAndGlyphs" textLength="111" x="672" y="205.0576">SimpleAliasRegistry</text><line style="stroke: #A80036; stroke-width: 1.5;" x1="644" x2="785" y1="215.5" y2="215.5"/><line style="stroke: #A80036; stroke-width: 1.5;" x1="644" x2="785" y1="223.5" y2="223.5"/><!--class DefaultSingletonBeanRegistry--><rect fill="#FEFECE" filter="url(#f1wfhuzpb3uroa)" height="48" id="DefaultSingletonBeanRegistry" style="stroke: #A80036; stroke-width: 1.5;" width="197" x="591" y="396.5"/><ellipse cx="606" cy="412.5" fill="#ADD1B2" rx="11" ry="11" style="stroke: #A80036; stroke-width: 1.0;"/><path d="M604.5781,417.8594 Q602.7188,417.8594 601.625,416.4688 Q600.5313,415.0781 600.5313,412.0938 Q600.5313,409.5625 601.6953,407.9063 Q602.8594,406.25 604.8438,406.25 Q606.3125,406.25 606.7813,406.375 Q607.25,406.5781 607.25,406.5781 Q607.25,406.5781 607.25,406.5078 Q607.25,406.4375 607.8594,405.5156 L608.9063,409.1719 L607.5781,409.5781 Q607.1094,408.0313 606.4453,407.3672 Q605.7813,406.7031 604.7188,406.7031 Q604.3281,406.7031 603.5625,408.2344 Q602.7969,409.7656 602.7969,412.0156 Q602.7969,414.4844 603.4609,415.875 Q604.125,417.2656 604.6563,417.2656 Q605.7188,417.2656 606.4766,416.5 Q607.2344,415.7344 607.5781,414.0781 L608.9063,414.6719 Q608.5781,416.0781 607.6797,416.9688 Q606.7813,417.8594 604.5781,417.8594 Z "/><text fill="#000000" font-family="sans-serif" font-size="12" lengthAdjust="spacingAndGlyphs" textLength="165" x="620" y="418.0576">DefaultSingletonBeanRegistry</text><line style="stroke: #A80036; stroke-width: 1.5;" x1="592" x2="787" y1="428.5" y2="428.5"/><line style="stroke: #A80036; stroke-width: 1.5;" x1="592" x2="787" y1="436.5" y2="436.5"/><!--class FactoryBeanRegistrySupport--><rect fill="#FEFECE" filter="url(#f1wfhuzpb3uroa)" height="48" id="FactoryBeanRegistrySupport" style="stroke: #A80036; stroke-width: 1.5;" width="189" x="599" y="654.5"/><ellipse cx="614" cy="670.5" fill="#A9DCDF" rx="11" ry="11" style="stroke: #A80036; stroke-width: 1.0;"/><path d="M614.375,670.4844 L612.3906,670.4844 L611.7969,673 Q611.7344,673.3438 611.7344,673.5313 Q611.7344,673.7969 611.8281,674.0625 Q611.9219,674.3281 611.9219,674.3281 L612.5938,674.3281 L612.5938,674.7344 L609.1406,674.7344 L609.1406,674.3281 L609.3281,674.3281 Q609.5938,674.3281 609.7969,674.1641 Q610,674 610.0625,673.6094 L612.6563,663.4375 L614.5313,662.8281 L617.1719,673.6094 Q617.3125,674 617.5078,674.1641 Q617.7031,674.3281 617.7031,674.3281 L618.1719,674.3281 L618.1719,674.7344 L614.3125,674.7344 L614.3125,674.3281 L614.5781,674.3281 Q614.9844,674.3281 615.0469,674.1641 Q615.1094,674 615.1094,673.875 Q615.1094,673.6094 615.0469,673.4063 L614.375,670.4844 Z M612.9844,664.5781 L612.9844,664.5781 L612.5313,670.0781 L614.3125,670.0781 L612.9844,664.5781 Z "/><text fill="#000000" font-family="sans-serif" font-size="12" font-style="italic" lengthAdjust="spacingAndGlyphs" textLength="157" x="628" y="676.0576">FactoryBeanRegistrySupport</text><line style="stroke: #A80036; stroke-width: 1.5;" x1="600" x2="787" y1="686.5" y2="686.5"/><line style="stroke: #A80036; stroke-width: 1.5;" x1="600" x2="787" y1="694.5" y2="694.5"/><!--class AbstractBeanFactory--><rect fill="#FEFECE" filter="url(#f1wfhuzpb3uroa)" height="48" id="AbstractBeanFactory" style="stroke: #A80036; stroke-width: 1.5;" width="146" x="453.5" y="882.5"/><ellipse cx="468.5" cy="898.5" fill="#A9DCDF" rx="11" ry="11" style="stroke: #A80036; stroke-width: 1.0;"/><path d="M468.875,898.4844 L466.8906,898.4844 L466.2969,901 Q466.2344,901.3438 466.2344,901.5313 Q466.2344,901.7969 466.3281,902.0625 Q466.4219,902.3281 466.4219,902.3281 L467.0938,902.3281 L467.0938,902.7344 L463.6406,902.7344 L463.6406,902.3281 L463.8281,902.3281 Q464.0938,902.3281 464.2969,902.1641 Q464.5,902 464.5625,901.6094 L467.1563,891.4375 L469.0313,890.8281 L471.6719,901.6094 Q471.8125,902 472.0078,902.1641 Q472.2031,902.3281 472.2031,902.3281 L472.6719,902.3281 L472.6719,902.7344 L468.8125,902.7344 L468.8125,902.3281 L469.0781,902.3281 Q469.4844,902.3281 469.5469,902.1641 Q469.6094,902 469.6094,901.875 Q469.6094,901.6094 469.5469,901.4063 L468.875,898.4844 Z M467.4844,892.5781 L467.4844,892.5781 L467.0313,898.0781 L468.8125,898.0781 L467.4844,892.5781 Z "/><text fill="#000000" font-family="sans-serif" font-size="12" font-style="italic" lengthAdjust="spacingAndGlyphs" textLength="114" x="482.5" y="904.0576">AbstractBeanFactory</text><line style="stroke: #A80036; stroke-width: 1.5;" x1="454.5" x2="598.5" y1="914.5" y2="914.5"/><line style="stroke: #A80036; stroke-width: 1.5;" x1="454.5" x2="598.5" y1="922.5" y2="922.5"/><!--class AbstractAutowireCapableBeanFactory--><rect fill="#FEFECE" filter="url(#f1wfhuzpb3uroa)" height="48" id="AbstractAutowireCapableBeanFactory" style="stroke: #A80036; stroke-width: 1.5;" width="241" x="377" y="1020.5"/><ellipse cx="392" cy="1036.5" fill="#A9DCDF" rx="11" ry="11" style="stroke: #A80036; stroke-width: 1.0;"/><path d="M392.375,1036.4844 L390.3906,1036.4844 L389.7969,1039 Q389.7344,1039.3438 389.7344,1039.5313 Q389.7344,1039.7969 389.8281,1040.0625 Q389.9219,1040.3281 389.9219,1040.3281 L390.5938,1040.3281 L390.5938,1040.7344 L387.1406,1040.7344 L387.1406,1040.3281 L387.3281,1040.3281 Q387.5938,1040.3281 387.7969,1040.1641 Q388,1040 388.0625,1039.6094 L390.6563,1029.4375 L392.5313,1028.8281 L395.1719,1039.6094 Q395.3125,1040 395.5078,1040.1641 Q395.7031,1040.3281 395.7031,1040.3281 L396.1719,1040.3281 L396.1719,1040.7344 L392.3125,1040.7344 L392.3125,1040.3281 L392.5781,1040.3281 Q392.9844,1040.3281 393.0469,1040.1641 Q393.1094,1040 393.1094,1039.875 Q393.1094,1039.6094 393.0469,1039.4063 L392.375,1036.4844 Z M390.9844,1030.5781 L390.9844,1030.5781 L390.5313,1036.0781 L392.3125,1036.0781 L390.9844,1030.5781 Z "/><text fill="#000000" font-family="sans-serif" font-size="12" font-style="italic" lengthAdjust="spacingAndGlyphs" textLength="209" x="406" y="1042.0576">AbstractAutowireCapableBeanFactory</text><line style="stroke: #A80036; stroke-width: 1.5;" x1="378" x2="617" y1="1052.5" y2="1052.5"/><line style="stroke: #A80036; stroke-width: 1.5;" x1="378" x2="617" y1="1060.5" y2="1060.5"/><!--class DefaultListableBeanFactory--><rect fill="#FEFECE" filter="url(#f1wfhuzpb3uroa)" height="48" id="DefaultListableBeanFactory" style="stroke: #A80036; stroke-width: 1.5;" width="183" x="406" y="1136"/><ellipse cx="421" cy="1152" fill="#ADD1B2" rx="11" ry="11" style="stroke: #A80036; stroke-width: 1.0;"/><path d="M419.5781,1157.3594 Q417.7188,1157.3594 416.625,1155.9688 Q415.5313,1154.5781 415.5313,1151.5938 Q415.5313,1149.0625 416.6953,1147.4063 Q417.8594,1145.75 419.8438,1145.75 Q421.3125,1145.75 421.7813,1145.875 Q422.25,1146.0781 422.25,1146.0781 Q422.25,1146.0781 422.25,1146.0078 Q422.25,1145.9375 422.8594,1145.0156 L423.9063,1148.6719 L422.5781,1149.0781 Q422.1094,1147.5313 421.4453,1146.8672 Q420.7813,1146.2031 419.7188,1146.2031 Q419.3281,1146.2031 418.5625,1147.7344 Q417.7969,1149.2656 417.7969,1151.5156 Q417.7969,1153.9844 418.4609,1155.375 Q419.125,1156.7656 419.6563,1156.7656 Q420.7188,1156.7656 421.4766,1156 Q422.2344,1155.2344 422.5781,1153.5781 L423.9063,1154.1719 Q423.5781,1155.5781 422.6797,1156.4688 Q421.7813,1157.3594 419.5781,1157.3594 Z "/><text fill="#000000" font-family="sans-serif" font-size="12" lengthAdjust="spacingAndGlyphs" textLength="151" x="435" y="1157.5576">DefaultListableBeanFactory</text><line style="stroke: #A80036; stroke-width: 1.5;" x1="407" x2="588" y1="1168" y2="1168"/><line style="stroke: #A80036; stroke-width: 1.5;" x1="407" x2="588" y1="1176" y2="1176"/><!--class BeanDefinitionRegistry--><rect fill="#FEFECE" filter="url(#f1wfhuzpb3uroa)" height="63.0229" id="BeanDefinitionRegistry" style="stroke: #A80036; stroke-width: 1.5;" width="158" x="721.5" y="1013"/><ellipse cx="736.5" cy="1029" fill="#B4A7E5" rx="11" ry="11" style="stroke: #A80036; stroke-width: 1.0;"/><path d="M733.0938,1023.2813 L733.0938,1022.875 L739.4063,1022.875 L739.4063,1023.2813 L736.875,1023.2813 Q736.875,1023.2813 737.0234,1023.4141 Q737.1719,1023.5469 737.1719,1023.8125 L737.1719,1033.2969 Q737.1719,1033.5625 737.3906,1033.6953 Q737.6094,1033.8281 737.6094,1033.8281 L739.4063,1033.8281 L739.4063,1034.2344 L733.0938,1034.2344 L733.0938,1033.8281 L734.625,1033.8281 Q734.9531,1033.8281 735.0859,1033.6953 Q735.2188,1033.5625 735.2188,1033.2969 L735.2188,1023.8125 Q735.2188,1023.5469 735.0859,1023.4141 Q734.9531,1023.2813 734.625,1023.2813 L733.0938,1023.2813 Z "/><text fill="#000000" font-family="sans-serif" font-size="12" font-style="italic" lengthAdjust="spacingAndGlyphs" textLength="126" x="750.5" y="1034.5576">BeanDefinitionRegistry</text><line style="stroke: #A80036; stroke-width: 1.5;" x1="722.5" x2="878.5" y1="1045" y2="1045"/><line style="stroke: #A80036; stroke-width: 1.5;" x1="722.5" x2="878.5" y1="1053" y2="1053"/><text fill="#000000" font-family="sans-serif" font-size="11" lengthAdjust="spacingAndGlyphs" textLength="114" x="727.5" y="1069.606">registerBeanDefinition()</text><!--reverse link BeanFactory to ListableBeanFactory--><path d="M176.196,294.988 C164.55,311.154 152.46,327.937 141.07,343.748 " fill="none" id="BeanFactory&lt;-ListableBeanFactory" style="stroke: #A80036; stroke-width: 1.0;"/><polygon fill="none" points="170.516,290.896,187.886,278.76,181.876,299.079,170.516,290.896" style="stroke: #A80036; stroke-width: 1.0;"/><!--reverse link BeanFactory to HierarchicalBeanFactory--><path d="M299.374,300.906 C320.204,332.526 342.084,365.739 357.373,388.947 " fill="none" id="BeanFactory&lt;-HierarchicalBeanFactory" style="stroke: #A80036; stroke-width: 1.0;"/><polygon fill="none" points="293.447,304.632,288.29,284.08,305.138,296.931,293.447,304.632" style="stroke: #A80036; stroke-width: 1.0;"/><!--reverse link BeanFactory to AutowireCapableBeanFactory--><path d="M238.5,304.383 C238.5,377.349 238.5,478.247 238.5,556.723 " fill="none" id="BeanFactory&lt;-AutowireCapableBeanFactory" style="stroke: #A80036; stroke-width: 1.0;"/><polygon fill="none" points="231.5,304.113,238.5,284.113,245.5,304.113,231.5,304.113" style="stroke: #A80036; stroke-width: 1.0;"/><!--reverse link HierarchicalBeanFactory to ConfigurableBeanFactory--><path d="M396.747,470.773 C406.368,495.402 418.472,526.389 430.36,556.822 " fill="none" id="HierarchicalBeanFactory&lt;-ConfigurableBeanFactory" style="stroke: #A80036; stroke-width: 1.0;"/><polygon fill="none" points="390.22,473.301,389.463,452.125,403.26,468.207,390.22,473.301" style="stroke: #A80036; stroke-width: 1.0;"/><!--reverse link SingletonBeanRegistry to ConfigurableBeanFactory--><path d="M516.377,289.56 C508.998,363.191 498.014,472.796 489.602,556.74 " fill="none" id="SingletonBeanRegistry&lt;-ConfigurableBeanFactory" style="stroke: #A80036; stroke-width: 1.0;"/><polygon fill="none" points="509.444,288.535,518.404,269.333,523.375,289.931,509.444,288.535" style="stroke: #A80036; stroke-width: 1.0;"/><!--reverse link ListableBeanFactory to ConfigurableListableBeanFactory--><path d="M69.5583,517.421 C60.2089,597.514 58.2893,712.34 103.5,800 C115.771,823.793 136.1,843.896 157.303,859.963 " fill="none" id="ListableBeanFactory&lt;-ConfigurableListableBeanFactory" style="stroke: #A80036; stroke-width: 1.0;"/><polygon fill="none" points="62.6475,516.278,72.1426,497.335,76.5331,518.065,62.6475,516.278" style="stroke: #A80036; stroke-width: 1.0;"/><!--reverse link AutowireCapableBeanFactory to ConfigurableListableBeanFactory--><path d="M238.5,820.316 C238.5,834.389 238.5,847.849 238.5,859.745 " fill="none" id="AutowireCapableBeanFactory&lt;-ConfigurableListableBeanFactory" style="stroke: #A80036; stroke-width: 1.0;"/><polygon fill="none" points="231.5,820.109,238.5,800.109,245.5,820.109,231.5,820.109" style="stroke: #A80036; stroke-width: 1.0;"/><!--reverse link ConfigurableBeanFactory to ConfigurableListableBeanFactory--><path d="M376.766,796.861 C375.677,797.917 374.588,798.964 373.5,800 C351.423,821.028 325.382,842.13 302.091,859.876 " fill="none" id="ConfigurableBeanFactory&lt;-ConfigurableListableBeanFactory" style="stroke: #A80036; stroke-width: 1.0;"/><polygon fill="none" points="371.818,791.909,390.89,782.674,381.74,801.786,371.818,791.909" style="stroke: #A80036; stroke-width: 1.0;"/><!--reverse link AliasRegistry to SimpleAliasRegistry--><path d="M758.589,90.33 C746.881,121.18 732.395,159.35 723.298,183.32 " fill="none" id="AliasRegistry&lt;-SimpleAliasRegistry" style="stroke: #A80036; stroke-width: 1.0; stroke-dasharray: 7.0,7.0;"/><polygon fill="none" points="752.157,87.55,765.798,71.33,765.246,92.52,752.157,87.55" style="stroke: #A80036; stroke-width: 1.0;"/><!--reverse link SimpleAliasRegistry to DefaultSingletonBeanRegistry--><path d="M709.354,251.931 C704.165,295.728 696.352,361.672 692.245,396.33 " fill="none" id="SimpleAliasRegistry&lt;-DefaultSingletonBeanRegistry" style="stroke: #A80036; stroke-width: 1.0;"/><polygon fill="none" points="702.424,250.924,711.729,231.887,716.327,252.572,702.424,250.924" style="stroke: #A80036; stroke-width: 1.0;"/><!--reverse link SingletonBeanRegistry to DefaultSingletonBeanRegistry--><path d="M584.433,285.141 C615.252,324.553 650.623,369.784 671.459,396.43 " fill="none" id="SingletonBeanRegistry&lt;-DefaultSingletonBeanRegistry" style="stroke: #A80036; stroke-width: 1.0; stroke-dasharray: 7.0,7.0;"/><polygon fill="none" points="578.809,289.314,572.003,269.247,589.838,280.69,578.809,289.314" style="stroke: #A80036; stroke-width: 1.0;"/><!--reverse link DefaultSingletonBeanRegistry to FactoryBeanRegistrySupport--><path d="M690.178,464.902 C691.032,519.525 692.467,611.368 693.136,654.198 " fill="none" id="DefaultSingletonBeanRegistry&lt;-FactoryBeanRegistrySupport" style="stroke: #A80036; stroke-width: 1.0;"/><polygon fill="none" points="683.175,464.777,689.862,444.67,697.174,464.558,683.175,464.777" style="stroke: #A80036; stroke-width: 1.0;"/><!--reverse link FactoryBeanRegistrySupport to AbstractBeanFactory--><path d="M664.288,719.033 C629.371,766.286 572.098,843.792 543.649,882.292 " fill="none" id="FactoryBeanRegistrySupport&lt;-AbstractBeanFactory" style="stroke: #A80036; stroke-width: 1.0;"/><polygon fill="none" points="658.741,714.76,676.257,702.835,670.001,723.08,658.741,714.76" style="stroke: #A80036; stroke-width: 1.0;"/><!--reverse link ConfigurableBeanFactory to AbstractBeanFactory--><path d="M507.936,819.878 C513.202,844.164 518.078,866.655 521.51,882.486 " fill="none" id="ConfigurableBeanFactory&lt;-AbstractBeanFactory" style="stroke: #A80036; stroke-width: 1.0; stroke-dasharray: 7.0,7.0;"/><polygon fill="none" points="501.047,821.138,503.65,800.109,514.729,818.172,501.047,821.138" style="stroke: #A80036; stroke-width: 1.0;"/><!--reverse link AbstractBeanFactory to AbstractAutowireCapableBeanFactory--><path d="M517.396,950.196 C512.453,973.377 506.534,1001.135 502.444,1020.316 " fill="none" id="AbstractBeanFactory&lt;-AbstractAutowireCapableBeanFactory" style="stroke: #A80036; stroke-width: 1.0;"/><polygon fill="none" points="510.563,948.671,521.581,930.571,524.256,951.591,510.563,948.671" style="stroke: #A80036; stroke-width: 1.0;"/><!--reverse link AutowireCapableBeanFactory to AbstractAutowireCapableBeanFactory--><path d="M336.139,816.723 C390.198,892.697 452.154,979.771 481.053,1020.385 " fill="none" id="AutowireCapableBeanFactory&lt;-AbstractAutowireCapableBeanFactory" style="stroke: #A80036; stroke-width: 1.0; stroke-dasharray: 7.0,7.0;"/><polygon fill="none" points="330.275,820.555,324.383,800.201,341.682,812.439,330.275,820.555" style="stroke: #A80036; stroke-width: 1.0;"/><!--reverse link AbstractAutowireCapableBeanFactory to DefaultListableBeanFactory--><path d="M497.5,1088.7572 C497.5,1104.7465 497.5,1122.2528 497.5,1135.7888 " fill="none" id="AbstractAutowireCapableBeanFactory&lt;-DefaultListableBeanFactory" style="stroke: #A80036; stroke-width: 1.0;"/><polygon fill="none" points="490.5,1088.7423,497.5,1068.742,504.5,1088.7423,490.5,1088.7423" style="stroke: #A80036; stroke-width: 1.0;"/><!--reverse link ConfigurableListableBeanFactory to DefaultListableBeanFactory--><path d="M274.81,970.25 C296.489,1004.202 326.24,1045.339 359.5,1076 C385.915,1100.3502 420.582,1121.1675 448.561,1135.8634 " fill="none" id="ConfigurableListableBeanFactory&lt;-DefaultListableBeanFactory" style="stroke: #A80036; stroke-width: 1.0; stroke-dasharray: 7.0,7.0;"/><polygon fill="none" points="268.852,973.924,264.234,953.244,280.74,966.53,268.852,973.924" style="stroke: #A80036; stroke-width: 1.0;"/><!--reverse link BeanDefinitionRegistry to DefaultListableBeanFactory--><path d="M702.314,1082.279 C655.189,1099.9316 600.176,1120.5388 559.038,1135.9485 " fill="none" id="BeanDefinitionRegistry&lt;-DefaultListableBeanFactory" style="stroke: #A80036; stroke-width: 1.0; stroke-dasharray: 7.0,7.0;"/><polygon fill="none" points="700.101,1075.633,721.286,1075.173,705.012,1088.7435,700.101,1075.633" style="stroke: #A80036; stroke-width: 1.0;"/><!--reverse link AliasRegistry to BeanDefinitionRegistry--><path d="M793.325,90.58 C797.055,103.64 800.744,117.77 803.5,131 C829.873,257.612 841.5,290.17 841.5,419.5 C841.5,419.5 841.5,419.5 841.5,679.5 C841.5,803.826 817.589,950.547 806.287,1012.951 " fill="none" id="AliasRegistry&lt;-BeanDefinitionRegistry" style="stroke: #A80036; stroke-width: 1.0;"/><polygon fill="none" points="786.556,92.38,787.555,71.21,799.974,88.38,786.556,92.38" style="stroke: #A80036; stroke-width: 1.0;"/><!--
@startuml
interface BeanFactory {
    getBean()
    getBeanProvider()
    containsBean()
    isSingleton()
    isPrototype()
    isTypeMatch()
    getType()
}
interface ListableBeanFactory extends BeanFactory {
    containsBeanDefinition()
    getBeanDefinitionCount()
    getBeanDefinitionNames()
    getBeanNamesForType()
    getBeansOfType()
    getBeanNamesForAnnotation()
    getBeansWithAnnotation()
}
interface HierarchicalBeanFactory extends BeanFactory {
    getParentBeanFactory()
}
interface AutowireCapableBeanFactory extends BeanFactory {
    createBean()
    autowire()
    autowireBean()
    configureBean()
    autowireBeanProperties()
    applyBeanPropertyValues()
    initializeBean()
    applyBeanPostProcessorsBeforeInitialization()
    applyBeanPostProcessorsAfterInitialization()
    destroyBean()
    resolveNamedBean()
    resolveBeanByName()
    resolveDependency()
}
interface SingletonBeanRegistry {
    containsSingleton()
    getSingleton()
    getSingletonCount()
    getSingletonNames()
    registerSingleton()
}
interface ConfigurableBeanFactory extends HierarchicalBeanFactory, SingletonBeanRegistry {
    setParentBeanFactory()
    setBeanClassLoader()
    setBeanExpressionResolver()
    setConversionService()
    addPropertyEditorRegistrar()
    registerCustomEditor()
    setTypeConverter()
    addBeanPostProcessor()
    registerScope()
    copyConfigurationFrom()
    setCurrentlyInCreation()
    registerDependentBean()
    destroySingletons()
}
interface ConfigurableListableBeanFactory extends ListableBeanFactory,AutowireCapableBeanFactory,ConfigurableBeanFactory {
    getBeanDefinition()
    freezeConfiguration()
    preInstantiateSingletons()
}
interface AliasRegistry  {
    registerAlias()
}
class SimpleAliasRegistry implements AliasRegistry
class DefaultSingletonBeanRegistry extends SimpleAliasRegistry implements SingletonBeanRegistry
abstract class FactoryBeanRegistrySupport extends DefaultSingletonBeanRegistry
abstract class AbstractBeanFactory extends FactoryBeanRegistrySupport implements ConfigurableBeanFactory
abstract class AbstractAutowireCapableBeanFactory extends AbstractBeanFactory implements AutowireCapableBeanFactory
class DefaultListableBeanFactory extends AbstractAutowireCapableBeanFactory implements ConfigurableListableBeanFactory,BeanDefinitionRegistry
interface BeanDefinitionRegistry extends AliasRegistry {
    registerBeanDefinition()
}
@enduml

PlantUML version 1.2019.09(Tue Aug 27 00:19:51 CST 2019)
(GPL source distribution)
Java Runtime: Java(TM) SE Runtime Environment
JVM: Java HotSpot(TM) 64-Bit Server VM
Java Version: 1.8.0_231-b11
Operating System: Windows 10
OS Version: 10.0
Default Encoding: GBK
Language: zh
Country: CN
--></g></svg>