<?xml version="1.0" encoding="UTF-8" standalone="no"?><svg xmlns="http://www.w3.org/2000/svg" xmlns:xlink="http://www.w3.org/1999/xlink" contentScriptType="application/ecmascript" contentStyleType="text/css" height="190px" preserveAspectRatio="none" style="width:496px;height:190px;" version="1.1" viewBox="0 0 496 190" width="496px" zoomAndPan="magnify"><defs><filter height="300%" id="f2twslnj3fmv2" width="300%" x="-1" y="-1"><feGaussianBlur result="blurOut" stdDeviation="2.0"/><feColorMatrix in="blurOut" result="blurOut2" type="matrix" values="0 0 0 0 0 0 0 0 0 0 0 0 0 0 0 0 0 0 .4 0"/><feOffset dx="4.0" dy="4.0" in="blurOut2" result="blurOut3"/><feBlend in="SourceGraphic" in2="blurOut3" mode="normal"/></filter></defs><g><!--class Feature--><rect fill="#FEFECE" filter="url(#f2twslnj3fmv2)" height="48" id="Feature" style="stroke: #A80036; stroke-width: 1.5;" width="74" x="125.5" y="15.5"/><ellipse cx="140.5" cy="31.5" fill="#B4A7E5" rx="11" ry="11" style="stroke: #A80036; stroke-width: 1.0;"/><path d="M137.0938,25.7813 L137.0938,25.375 L143.4063,25.375 L143.4063,25.7813 L140.875,25.7813 Q140.875,25.7813 141.0234,25.9141 Q141.1719,26.0469 141.1719,26.3125 L141.1719,35.7969 Q141.1719,36.0625 141.3906,36.1953 Q141.6094,36.3281 141.6094,36.3281 L143.4063,36.3281 L143.4063,36.7344 L137.0938,36.7344 L137.0938,36.3281 L138.625,36.3281 Q138.9531,36.3281 139.0859,36.1953 Q139.2188,36.0625 139.2188,35.7969 L139.2188,26.3125 Q139.2188,26.0469 139.0859,25.9141 Q138.9531,25.7813 138.625,25.7813 L137.0938,25.7813 Z "/><text fill="#000000" font-family="sans-serif" font-size="12" font-style="italic" lengthAdjust="spacingAndGlyphs" textLength="42" x="154.5" y="37.0576">Feature</text><line style="stroke: #A80036; stroke-width: 1.5;" x1="126.5" x2="198.5" y1="47.5" y2="47.5"/><line style="stroke: #A80036; stroke-width: 1.5;" x1="126.5" x2="198.5" y1="55.5" y2="55.5"/><!--class Feature1--><rect fill="#FEFECE" filter="url(#f2twslnj3fmv2)" height="48" id="Feature1" style="stroke: #A80036; stroke-width: 1.5;" width="81" x="6" y="131"/><ellipse cx="21" cy="147" fill="#ADD1B2" rx="11" ry="11" style="stroke: #A80036; stroke-width: 1.0;"/><path d="M19.5781,152.3594 Q17.7188,152.3594 16.625,150.9688 Q15.5313,149.5781 15.5313,146.5938 Q15.5313,144.0625 16.6953,142.4063 Q17.8594,140.75 19.8438,140.75 Q21.3125,140.75 21.7813,140.875 Q22.25,141.0781 22.25,141.0781 Q22.25,141.0781 22.25,141.0078 Q22.25,140.9375 22.8594,140.0156 L23.9063,143.6719 L22.5781,144.0781 Q22.1094,142.5313 21.4453,141.8672 Q20.7813,141.2031 19.7188,141.2031 Q19.3281,141.2031 18.5625,142.7344 Q17.7969,144.2656 17.7969,146.5156 Q17.7969,148.9844 18.4609,150.375 Q19.125,151.7656 19.6563,151.7656 Q20.7188,151.7656 21.4766,151 Q22.2344,150.2344 22.5781,148.5781 L23.9063,149.1719 Q23.5781,150.5781 22.6797,151.4688 Q21.7813,152.3594 19.5781,152.3594 Z "/><text fill="#000000" font-family="sans-serif" font-size="12" lengthAdjust="spacingAndGlyphs" textLength="49" x="35" y="152.5576">Feature1</text><line style="stroke: #A80036; stroke-width: 1.5;" x1="7" x2="86" y1="163" y2="163"/><line style="stroke: #A80036; stroke-width: 1.5;" x1="7" x2="86" y1="171" y2="171"/><!--class Feature2--><rect fill="#FEFECE" filter="url(#f2twslnj3fmv2)" height="48" id="Feature2" style="stroke: #A80036; stroke-width: 1.5;" width="81" x="122" y="131"/><ellipse cx="137" cy="147" fill="#ADD1B2" rx="11" ry="11" style="stroke: #A80036; stroke-width: 1.0;"/><path d="M135.5781,152.3594 Q133.7188,152.3594 132.625,150.9688 Q131.5313,149.5781 131.5313,146.5938 Q131.5313,144.0625 132.6953,142.4063 Q133.8594,140.75 135.8438,140.75 Q137.3125,140.75 137.7813,140.875 Q138.25,141.0781 138.25,141.0781 Q138.25,141.0781 138.25,141.0078 Q138.25,140.9375 138.8594,140.0156 L139.9063,143.6719 L138.5781,144.0781 Q138.1094,142.5313 137.4453,141.8672 Q136.7813,141.2031 135.7188,141.2031 Q135.3281,141.2031 134.5625,142.7344 Q133.7969,144.2656 133.7969,146.5156 Q133.7969,148.9844 134.4609,150.375 Q135.125,151.7656 135.6563,151.7656 Q136.7188,151.7656 137.4766,151 Q138.2344,150.2344 138.5781,148.5781 L139.9063,149.1719 Q139.5781,150.5781 138.6797,151.4688 Q137.7813,152.3594 135.5781,152.3594 Z "/><text fill="#000000" font-family="sans-serif" font-size="12" lengthAdjust="spacingAndGlyphs" textLength="49" x="151" y="152.5576">Feature2</text><line style="stroke: #A80036; stroke-width: 1.5;" x1="123" x2="202" y1="163" y2="163"/><line style="stroke: #A80036; stroke-width: 1.5;" x1="123" x2="202" y1="171" y2="171"/><!--class NewFeature--><rect fill="#FEFECE" filter="url(#f2twslnj3fmv2)" height="63.0229" id="NewFeature" style="stroke: #A80036; stroke-width: 1.5;" width="98" x="242.5" y="8"/><ellipse cx="257.5" cy="24" fill="#A9DCDF" rx="11" ry="11" style="stroke: #A80036; stroke-width: 1.0;"/><path d="M257.875,23.9844 L255.8906,23.9844 L255.2969,26.5 Q255.2344,26.8438 255.2344,27.0313 Q255.2344,27.2969 255.3281,27.5625 Q255.4219,27.8281 255.4219,27.8281 L256.0938,27.8281 L256.0938,28.2344 L252.6406,28.2344 L252.6406,27.8281 L252.8281,27.8281 Q253.0938,27.8281 253.2969,27.6641 Q253.5,27.5 253.5625,27.1094 L256.1563,16.9375 L258.0313,16.3281 L260.6719,27.1094 Q260.8125,27.5 261.0078,27.6641 Q261.2031,27.8281 261.2031,27.8281 L261.6719,27.8281 L261.6719,28.2344 L257.8125,28.2344 L257.8125,27.8281 L258.0781,27.8281 Q258.4844,27.8281 258.5469,27.6641 Q258.6094,27.5 258.6094,27.375 Q258.6094,27.1094 258.5469,26.9063 L257.875,23.9844 Z M256.4844,18.0781 L256.4844,18.0781 L256.0313,23.5781 L257.8125,23.5781 L256.4844,18.0781 Z "/><text fill="#000000" font-family="sans-serif" font-size="12" font-style="italic" lengthAdjust="spacingAndGlyphs" textLength="66" x="271.5" y="29.5576">NewFeature</text><line style="stroke: #A80036; stroke-width: 1.5;" x1="243.5" x2="339.5" y1="40" y2="40"/><rect fill="none" height="6" style="stroke: #C82930; stroke-width: 1.0;" width="6" x="250.5" y="48"/><text fill="#000000" font-family="sans-serif" font-size="11" lengthAdjust="spacingAndGlyphs" textLength="70" x="262.5" y="56.606">Feature bridge</text><line style="stroke: #A80036; stroke-width: 1.5;" x1="243.5" x2="339.5" y1="63.0229" y2="63.0229"/><!--class NewFeature1--><rect fill="#FEFECE" filter="url(#f2twslnj3fmv2)" height="48" id="NewFeature1" style="stroke: #A80036; stroke-width: 1.5;" width="106" x="238.5" y="131"/><ellipse cx="253.5" cy="147" fill="#ADD1B2" rx="11" ry="11" style="stroke: #A80036; stroke-width: 1.0;"/><path d="M252.0781,152.3594 Q250.2188,152.3594 249.125,150.9688 Q248.0313,149.5781 248.0313,146.5938 Q248.0313,144.0625 249.1953,142.4063 Q250.3594,140.75 252.3438,140.75 Q253.8125,140.75 254.2813,140.875 Q254.75,141.0781 254.75,141.0781 Q254.75,141.0781 254.75,141.0078 Q254.75,140.9375 255.3594,140.0156 L256.4063,143.6719 L255.0781,144.0781 Q254.6094,142.5313 253.9453,141.8672 Q253.2813,141.2031 252.2188,141.2031 Q251.8281,141.2031 251.0625,142.7344 Q250.2969,144.2656 250.2969,146.5156 Q250.2969,148.9844 250.9609,150.375 Q251.625,151.7656 252.1563,151.7656 Q253.2188,151.7656 253.9766,151 Q254.7344,150.2344 255.0781,148.5781 L256.4063,149.1719 Q256.0781,150.5781 255.1797,151.4688 Q254.2813,152.3594 252.0781,152.3594 Z "/><text fill="#000000" font-family="sans-serif" font-size="12" lengthAdjust="spacingAndGlyphs" textLength="74" x="267.5" y="152.5576">NewFeature1</text><line style="stroke: #A80036; stroke-width: 1.5;" x1="239.5" x2="343.5" y1="163" y2="163"/><line style="stroke: #A80036; stroke-width: 1.5;" x1="239.5" x2="343.5" y1="171" y2="171"/><!--class NewFeature2--><rect fill="#FEFECE" filter="url(#f2twslnj3fmv2)" height="48" id="NewFeature2" style="stroke: #A80036; stroke-width: 1.5;" width="106" x="379.5" y="131"/><ellipse cx="394.5" cy="147" fill="#ADD1B2" rx="11" ry="11" style="stroke: #A80036; stroke-width: 1.0;"/><path d="M393.0781,152.3594 Q391.2188,152.3594 390.125,150.9688 Q389.0313,149.5781 389.0313,146.5938 Q389.0313,144.0625 390.1953,142.4063 Q391.3594,140.75 393.3438,140.75 Q394.8125,140.75 395.2813,140.875 Q395.75,141.0781 395.75,141.0781 Q395.75,141.0781 395.75,141.0078 Q395.75,140.9375 396.3594,140.0156 L397.4063,143.6719 L396.0781,144.0781 Q395.6094,142.5313 394.9453,141.8672 Q394.2813,141.2031 393.2188,141.2031 Q392.8281,141.2031 392.0625,142.7344 Q391.2969,144.2656 391.2969,146.5156 Q391.2969,148.9844 391.9609,150.375 Q392.625,151.7656 393.1563,151.7656 Q394.2188,151.7656 394.9766,151 Q395.7344,150.2344 396.0781,148.5781 L397.4063,149.1719 Q397.0781,150.5781 396.1797,151.4688 Q395.2813,152.3594 393.0781,152.3594 Z "/><text fill="#000000" font-family="sans-serif" font-size="12" lengthAdjust="spacingAndGlyphs" textLength="74" x="408.5" y="152.5576">NewFeature2</text><line style="stroke: #A80036; stroke-width: 1.5;" x1="380.5" x2="484.5" y1="163" y2="163"/><line style="stroke: #A80036; stroke-width: 1.5;" x1="380.5" x2="484.5" y1="171" y2="171"/><!--reverse link Feature to Feature1--><path d="M124.301,77.876 C106.459,95.3334 85.7762,115.5703 70.2225,130.7888 " fill="none" id="Feature&lt;-Feature1" style="stroke: #A80036; stroke-width: 1.0; stroke-dasharray: 7.0,7.0;"/><polygon fill="none" points="119.555,72.726,138.746,63.742,129.346,82.733,119.555,72.726" style="stroke: #A80036; stroke-width: 1.0;"/><!--reverse link Feature to Feature2--><path d="M162.5,83.7572 C162.5,99.7465 162.5,117.2528 162.5,130.7888 " fill="none" id="Feature&lt;-Feature2" style="stroke: #A80036; stroke-width: 1.0; stroke-dasharray: 7.0,7.0;"/><polygon fill="none" points="155.5,83.7423,162.5,63.742,169.5,83.7423,155.5,83.7423" style="stroke: #A80036; stroke-width: 1.0;"/><!--reverse link NewFeature to NewFeature1--><path d="M291.5,91.3536 C291.5,105.1427 291.5,119.4011 291.5,130.8252 " fill="none" id="NewFeature&lt;-NewFeature1" style="stroke: #A80036; stroke-width: 1.0; stroke-dasharray: 7.0,7.0;"/><polygon fill="none" points="284.5,91.2148,291.5,71.215,298.5,91.2147,284.5,91.2148" style="stroke: #A80036; stroke-width: 1.0;"/><!--reverse link NewFeature to NewFeature2--><path d="M345.387,83.877 C365.228,99.8482 386.93,117.3179 403.71,130.8252 " fill="none" id="NewFeature&lt;-NewFeature2" style="stroke: #A80036; stroke-width: 1.0; stroke-dasharray: 7.0,7.0;"/><polygon fill="none" points="340.847,89.2086,329.657,71.215,349.626,78.303,340.847,89.2086" style="stroke: #A80036; stroke-width: 1.0;"/><!--link Feature to NewFeature--><path d="M199.537,39.5 C209.445,39.5 219.353,39.5 229.261,39.5 " fill="none" id="Feature-&gt;NewFeature" style="stroke: #A80036; stroke-width: 1.0; stroke-dasharray: 7.0,7.0;"/><polygon fill="#FFFFFF" points="242.285,39.5,236.285,35.5,230.285,39.5,236.285,43.5,242.285,39.5" style="stroke: #A80036; stroke-width: 1.0;"/><!--
@startuml
interface Feature
class Feature1 implements Feature
class Feature2 implements Feature
abstract class NewFeature {
    -Feature bridge
}
class NewFeature1 implements NewFeature
class NewFeature2 implements NewFeature
Feature .left.o NewFeature
@enduml

PlantUML version 1.2019.09(Tue Aug 27 00:19:51 CST 2019)
(GPL source distribution)
Java Runtime: Java(TM) SE Runtime Environment
JVM: Java HotSpot(TM) 64-Bit Server VM
Java Version: 1.8.0_231-b11
Operating System: Windows 10
OS Version: 10.0
Default Encoding: GBK
Language: zh
Country: CN
--></g></svg>