<?xml version="1.0" encoding="UTF-8" standalone="no"?><svg xmlns="http://www.w3.org/2000/svg" xmlns:xlink="http://www.w3.org/1999/xlink" contentScriptType="application/ecmascript" contentStyleType="text/css" height="205px" preserveAspectRatio="none" style="width:377px;height:205px;" version="1.1" viewBox="0 0 377 205" width="377px" zoomAndPan="magnify"><defs><filter height="300%" id="f7ig01t2erds8" width="300%" x="-1" y="-1"><feGaussianBlur result="blurOut" stdDeviation="2.0"/><feColorMatrix in="blurOut" result="blurOut2" type="matrix" values="0 0 0 0 0 0 0 0 0 0 0 0 0 0 0 0 0 0 .4 0"/><feOffset dx="4.0" dy="4.0" in="blurOut2" result="blurOut3"/><feBlend in="SourceGraphic" in2="blurOut3" mode="normal"/></filter></defs><g><!--class Product--><rect fill="#FEFECE" filter="url(#f7ig01t2erds8)" height="48" id="Product" style="stroke: #A80036; stroke-width: 1.5;" width="74" x="6" y="23"/><ellipse cx="21" cy="39" fill="#ADD1B2" rx="11" ry="11" style="stroke: #A80036; stroke-width: 1.0;"/><path d="M19.5781,44.3594 Q17.7188,44.3594 16.625,42.9688 Q15.5313,41.5781 15.5313,38.5938 Q15.5313,36.0625 16.6953,34.4063 Q17.8594,32.75 19.8438,32.75 Q21.3125,32.75 21.7813,32.875 Q22.25,33.0781 22.25,33.0781 Q22.25,33.0781 22.25,33.0078 Q22.25,32.9375 22.8594,32.0156 L23.9063,35.6719 L22.5781,36.0781 Q22.1094,34.5313 21.4453,33.8672 Q20.7813,33.2031 19.7188,33.2031 Q19.3281,33.2031 18.5625,34.7344 Q17.7969,36.2656 17.7969,38.5156 Q17.7969,40.9844 18.4609,42.375 Q19.125,43.7656 19.6563,43.7656 Q20.7188,43.7656 21.4766,43 Q22.2344,42.2344 22.5781,40.5781 L23.9063,41.1719 Q23.5781,42.5781 22.6797,43.4688 Q21.7813,44.3594 19.5781,44.3594 Z "/><text fill="#000000" font-family="sans-serif" font-size="12" lengthAdjust="spacingAndGlyphs" textLength="42" x="35" y="44.5576">Product</text><line style="stroke: #A80036; stroke-width: 1.5;" x1="7" x2="79" y1="55" y2="55"/><line style="stroke: #A80036; stroke-width: 1.5;" x1="7" x2="79" y1="63" y2="63"/><!--class Builder--><rect fill="#FEFECE" filter="url(#f7ig01t2erds8)" height="78.0459" id="Builder" style="stroke: #A80036; stroke-width: 1.5;" width="103" x="115.5" y="8"/><ellipse cx="144.9" cy="24" fill="#A9DCDF" rx="11" ry="11" style="stroke: #A80036; stroke-width: 1.0;"/><path d="M145.275,23.9844 L143.2906,23.9844 L142.6969,26.5 Q142.6344,26.8438 142.6344,27.0313 Q142.6344,27.2969 142.7281,27.5625 Q142.8219,27.8281 142.8219,27.8281 L143.4938,27.8281 L143.4938,28.2344 L140.0406,28.2344 L140.0406,27.8281 L140.2281,27.8281 Q140.4938,27.8281 140.6969,27.6641 Q140.9,27.5 140.9625,27.1094 L143.5563,16.9375 L145.4313,16.3281 L148.0719,27.1094 Q148.2125,27.5 148.4078,27.6641 Q148.6031,27.8281 148.6031,27.8281 L149.0719,27.8281 L149.0719,28.2344 L145.2125,28.2344 L145.2125,27.8281 L145.4781,27.8281 Q145.8844,27.8281 145.9469,27.6641 Q146.0094,27.5 146.0094,27.375 Q146.0094,27.1094 145.9469,26.9063 L145.275,23.9844 Z M143.8844,18.0781 L143.8844,18.0781 L143.4313,23.5781 L145.2125,23.5781 L143.8844,18.0781 Z "/><text fill="#000000" font-family="sans-serif" font-size="12" font-style="italic" lengthAdjust="spacingAndGlyphs" textLength="39" x="162.1" y="29.5576">Builder</text><line style="stroke: #A80036; stroke-width: 1.5;" x1="116.5" x2="217.5" y1="40" y2="40"/><rect fill="none" height="6" style="stroke: #C82930; stroke-width: 1.0;" width="6" x="123.5" y="48"/><text fill="#000000" font-family="sans-serif" font-size="11" lengthAdjust="spacingAndGlyphs" textLength="77" x="135.5" y="56.606">Product product</text><line style="stroke: #A80036; stroke-width: 1.5;" x1="116.5" x2="217.5" y1="63.0229" y2="63.0229"/><text fill="#000000" font-family="sans-serif" font-size="11" font-style="italic" lengthAdjust="spacingAndGlyphs" textLength="74" x="121.5" y="79.6289">Product build()</text><!--class Builder1--><rect fill="#FEFECE" filter="url(#f7ig01t2erds8)" height="48" id="Builder1" style="stroke: #A80036; stroke-width: 1.5;" width="78" x="71" y="146"/><ellipse cx="86" cy="162" fill="#ADD1B2" rx="11" ry="11" style="stroke: #A80036; stroke-width: 1.0;"/><path d="M84.5781,167.3594 Q82.7188,167.3594 81.625,165.9688 Q80.5313,164.5781 80.5313,161.5938 Q80.5313,159.0625 81.6953,157.4063 Q82.8594,155.75 84.8438,155.75 Q86.3125,155.75 86.7813,155.875 Q87.25,156.0781 87.25,156.0781 Q87.25,156.0781 87.25,156.0078 Q87.25,155.9375 87.8594,155.0156 L88.9063,158.6719 L87.5781,159.0781 Q87.1094,157.5313 86.4453,156.8672 Q85.7813,156.2031 84.7188,156.2031 Q84.3281,156.2031 83.5625,157.7344 Q82.7969,159.2656 82.7969,161.5156 Q82.7969,163.9844 83.4609,165.375 Q84.125,166.7656 84.6563,166.7656 Q85.7188,166.7656 86.4766,166 Q87.2344,165.2344 87.5781,163.5781 L88.9063,164.1719 Q88.5781,165.5781 87.6797,166.4688 Q86.7813,167.3594 84.5781,167.3594 Z "/><text fill="#000000" font-family="sans-serif" font-size="12" lengthAdjust="spacingAndGlyphs" textLength="46" x="100" y="167.5576">Builder1</text><line style="stroke: #A80036; stroke-width: 1.5;" x1="72" x2="148" y1="178" y2="178"/><line style="stroke: #A80036; stroke-width: 1.5;" x1="72" x2="148" y1="186" y2="186"/><!--class Builder2--><rect fill="#FEFECE" filter="url(#f7ig01t2erds8)" height="48" id="Builder2" style="stroke: #A80036; stroke-width: 1.5;" width="78" x="184" y="146"/><ellipse cx="199" cy="162" fill="#ADD1B2" rx="11" ry="11" style="stroke: #A80036; stroke-width: 1.0;"/><path d="M197.5781,167.3594 Q195.7188,167.3594 194.625,165.9688 Q193.5313,164.5781 193.5313,161.5938 Q193.5313,159.0625 194.6953,157.4063 Q195.8594,155.75 197.8438,155.75 Q199.3125,155.75 199.7813,155.875 Q200.25,156.0781 200.25,156.0781 Q200.25,156.0781 200.25,156.0078 Q200.25,155.9375 200.8594,155.0156 L201.9063,158.6719 L200.5781,159.0781 Q200.1094,157.5313 199.4453,156.8672 Q198.7813,156.2031 197.7188,156.2031 Q197.3281,156.2031 196.5625,157.7344 Q195.7969,159.2656 195.7969,161.5156 Q195.7969,163.9844 196.4609,165.375 Q197.125,166.7656 197.6563,166.7656 Q198.7188,166.7656 199.4766,166 Q200.2344,165.2344 200.5781,163.5781 L201.9063,164.1719 Q201.5781,165.5781 200.6797,166.4688 Q199.7813,167.3594 197.5781,167.3594 Z "/><text fill="#000000" font-family="sans-serif" font-size="12" lengthAdjust="spacingAndGlyphs" textLength="46" x="213" y="167.5576">Builder2</text><line style="stroke: #A80036; stroke-width: 1.5;" x1="185" x2="261" y1="178" y2="178"/><line style="stroke: #A80036; stroke-width: 1.5;" x1="185" x2="261" y1="186" y2="186"/><!--class Director--><rect fill="#FEFECE" filter="url(#f7ig01t2erds8)" height="78.0459" id="Director" style="stroke: #A80036; stroke-width: 1.5;" width="112" x="254" y="8"/><ellipse cx="285.65" cy="24" fill="#ADD1B2" rx="11" ry="11" style="stroke: #A80036; stroke-width: 1.0;"/><path d="M284.2281,29.3594 Q282.3688,29.3594 281.275,27.9688 Q280.1813,26.5781 280.1813,23.5938 Q280.1813,21.0625 281.3453,19.4063 Q282.5094,17.75 284.4938,17.75 Q285.9625,17.75 286.4313,17.875 Q286.9,18.0781 286.9,18.0781 Q286.9,18.0781 286.9,18.0078 Q286.9,17.9375 287.5094,17.0156 L288.5563,20.6719 L287.2281,21.0781 Q286.7594,19.5313 286.0953,18.8672 Q285.4313,18.2031 284.3688,18.2031 Q283.9781,18.2031 283.2125,19.7344 Q282.4469,21.2656 282.4469,23.5156 Q282.4469,25.9844 283.1109,27.375 Q283.775,28.7656 284.3063,28.7656 Q285.3688,28.7656 286.1266,28 Q286.8844,27.2344 287.2281,25.5781 L288.5563,26.1719 Q288.2281,27.5781 287.3297,28.4688 Q286.4313,29.3594 284.2281,29.3594 Z "/><text fill="#000000" font-family="sans-serif" font-size="12" lengthAdjust="spacingAndGlyphs" textLength="43" x="303.35" y="29.5576">Director</text><line style="stroke: #A80036; stroke-width: 1.5;" x1="255" x2="365" y1="40" y2="40"/><rect fill="none" height="6" style="stroke: #C82930; stroke-width: 1.0;" width="6" x="262" y="48"/><text fill="#000000" font-family="sans-serif" font-size="11" lengthAdjust="spacingAndGlyphs" textLength="68" x="274" y="56.606">Builder builder</text><line style="stroke: #A80036; stroke-width: 1.5;" x1="255" x2="365" y1="63.0229" y2="63.0229"/><text fill="#000000" font-family="sans-serif" font-size="11" lengthAdjust="spacingAndGlyphs" textLength="100" x="260" y="79.6289">Product getProduct()</text><!--reverse link Builder to Builder1--><path d="M140.219,104.8511 C133.408,119.3085 126.466,134.0449 120.956,145.7416 " fill="none" id="Builder&lt;-Builder1" style="stroke: #A80036; stroke-width: 1.0;"/><polygon fill="none" points="134.109,101.395,148.965,86.285,146.774,107.3613,134.109,101.395" style="stroke: #A80036; stroke-width: 1.0;"/><!--reverse link Builder to Builder2--><path d="M193.311,104.8511 C200.002,119.3085 206.822,134.0449 212.236,145.7416 " fill="none" id="Builder&lt;-Builder2" style="stroke: #A80036; stroke-width: 1.0;"/><polygon fill="none" points="186.766,107.3756,184.719,86.285,199.472,101.4955,186.766,107.3756" style="stroke: #A80036; stroke-width: 1.0;"/><!--link Product to Builder--><path d="M80.2969,47 C87.5645,47 94.8321,47 102.0997,47 " fill="none" id="Product-&gt;Builder" style="stroke: #A80036; stroke-width: 1.0; stroke-dasharray: 7.0,7.0;"/><polygon fill="#FFFFFF" points="115.181,47,109.181,43,103.181,47,109.181,51,115.181,47" style="stroke: #A80036; stroke-width: 1.0;"/><!--link Builder to Director--><path d="M218.67,47 C226.028,47 233.386,47 240.744,47 " fill="none" id="Builder-&gt;Director" style="stroke: #A80036; stroke-width: 1.0; stroke-dasharray: 7.0,7.0;"/><polygon fill="#FFFFFF" points="253.989,47,247.989,43,241.989,47,247.989,51,253.989,47" style="stroke: #A80036; stroke-width: 1.0;"/><!--
@startuml
class Product
abstract class Builder {
    -Product product
    {abstract} Product build()
}
class Builder1 extends Builder
class Builder2 extends Builder
class Director {
    -Builder builder
    Product getProduct()
}
Product .left.o Builder
Builder .left.o Director
@enduml

PlantUML version 1.2019.09(Tue Aug 27 00:19:51 CST 2019)
(GPL source distribution)
Java Runtime: Java(TM) SE Runtime Environment
JVM: Java HotSpot(TM) 64-Bit Server VM
Java Version: 1.8.0_231-b11
Operating System: Windows 10
OS Version: 10.0
Default Encoding: GBK
Language: zh
Country: CN
--></g></svg>