<?xml version="1.0" encoding="UTF-8" standalone="no"?><svg xmlns="http://www.w3.org/2000/svg" xmlns:xlink="http://www.w3.org/1999/xlink" contentScriptType="application/ecmascript" contentStyleType="text/css" height="205px" preserveAspectRatio="none" style="width:206px;height:205px;" version="1.1" viewBox="0 0 206 205" width="206px" zoomAndPan="magnify"><defs><filter height="300%" id="f1dbeedtmcsa1u" width="300%" x="-1" y="-1"><feGaussianBlur result="blurOut" stdDeviation="2.0"/><feColorMatrix in="blurOut" result="blurOut2" type="matrix" values="0 0 0 0 0 0 0 0 0 0 0 0 0 0 0 0 0 0 .4 0"/><feOffset dx="4.0" dy="4.0" in="blurOut2" result="blurOut3"/><feBlend in="SourceGraphic" in2="blurOut3" mode="normal"/></filter></defs><g><!--class Chain--><rect fill="#FEFECE" filter="url(#f1dbeedtmcsa1u)" height="78.0459" id="Chain" style="stroke: #A80036; stroke-width: 1.5;" width="129" x="30.5" y="8"/><ellipse cx="74.3" cy="24" fill="#A9DCDF" rx="11" ry="11" style="stroke: #A80036; stroke-width: 1.0;"/><path d="M74.675,23.9844 L72.6906,23.9844 L72.0969,26.5 Q72.0344,26.8438 72.0344,27.0313 Q72.0344,27.2969 72.1281,27.5625 Q72.2219,27.8281 72.2219,27.8281 L72.8938,27.8281 L72.8938,28.2344 L69.4406,28.2344 L69.4406,27.8281 L69.6281,27.8281 Q69.8938,27.8281 70.0969,27.6641 Q70.3,27.5 70.3625,27.1094 L72.9563,16.9375 L74.8313,16.3281 L77.4719,27.1094 Q77.6125,27.5 77.8078,27.6641 Q78.0031,27.8281 78.0031,27.8281 L78.4719,27.8281 L78.4719,28.2344 L74.6125,28.2344 L74.6125,27.8281 L74.8781,27.8281 Q75.2844,27.8281 75.3469,27.6641 Q75.4094,27.5 75.4094,27.375 Q75.4094,27.1094 75.3469,26.9063 L74.675,23.9844 Z M73.2844,18.0781 L73.2844,18.0781 L72.8313,23.5781 L74.6125,23.5781 L73.2844,18.0781 Z "/><text fill="#000000" font-family="sans-serif" font-size="12" font-style="italic" lengthAdjust="spacingAndGlyphs" textLength="33" x="94.7" y="29.5576">Chain</text><line style="stroke: #A80036; stroke-width: 1.5;" x1="31.5" x2="158.5" y1="40" y2="40"/><rect fill="none" height="6" style="stroke: #C82930; stroke-width: 1.0;" width="6" x="38.5" y="48"/><text fill="#000000" font-family="sans-serif" font-size="11" lengthAdjust="spacingAndGlyphs" textLength="51" x="50.5" y="56.606">Chain next</text><line style="stroke: #A80036; stroke-width: 1.5;" x1="31.5" x2="158.5" y1="63.0229" y2="63.0229"/><text fill="#000000" font-family="sans-serif" font-size="11" font-style="italic" lengthAdjust="spacingAndGlyphs" textLength="117" x="36.5" y="79.6289">void handle(String msg)</text><!--class Chain1--><rect fill="#FEFECE" filter="url(#f1dbeedtmcsa1u)" height="48" id="Chain1" style="stroke: #A80036; stroke-width: 1.5;" width="72" x="6" y="146"/><ellipse cx="21" cy="162" fill="#ADD1B2" rx="11" ry="11" style="stroke: #A80036; stroke-width: 1.0;"/><path d="M19.5781,167.3594 Q17.7188,167.3594 16.625,165.9688 Q15.5313,164.5781 15.5313,161.5938 Q15.5313,159.0625 16.6953,157.4063 Q17.8594,155.75 19.8438,155.75 Q21.3125,155.75 21.7813,155.875 Q22.25,156.0781 22.25,156.0781 Q22.25,156.0781 22.25,156.0078 Q22.25,155.9375 22.8594,155.0156 L23.9063,158.6719 L22.5781,159.0781 Q22.1094,157.5313 21.4453,156.8672 Q20.7813,156.2031 19.7188,156.2031 Q19.3281,156.2031 18.5625,157.7344 Q17.7969,159.2656 17.7969,161.5156 Q17.7969,163.9844 18.4609,165.375 Q19.125,166.7656 19.6563,166.7656 Q20.7188,166.7656 21.4766,166 Q22.2344,165.2344 22.5781,163.5781 L23.9063,164.1719 Q23.5781,165.5781 22.6797,166.4688 Q21.7813,167.3594 19.5781,167.3594 Z "/><text fill="#000000" font-family="sans-serif" font-size="12" lengthAdjust="spacingAndGlyphs" textLength="40" x="35" y="167.5576">Chain1</text><line style="stroke: #A80036; stroke-width: 1.5;" x1="7" x2="77" y1="178" y2="178"/><line style="stroke: #A80036; stroke-width: 1.5;" x1="7" x2="77" y1="186" y2="186"/><!--class Chain2--><rect fill="#FEFECE" filter="url(#f1dbeedtmcsa1u)" height="48" id="Chain2" style="stroke: #A80036; stroke-width: 1.5;" width="72" x="113" y="146"/><ellipse cx="128" cy="162" fill="#ADD1B2" rx="11" ry="11" style="stroke: #A80036; stroke-width: 1.0;"/><path d="M126.5781,167.3594 Q124.7188,167.3594 123.625,165.9688 Q122.5313,164.5781 122.5313,161.5938 Q122.5313,159.0625 123.6953,157.4063 Q124.8594,155.75 126.8438,155.75 Q128.3125,155.75 128.7813,155.875 Q129.25,156.0781 129.25,156.0781 Q129.25,156.0781 129.25,156.0078 Q129.25,155.9375 129.8594,155.0156 L130.9063,158.6719 L129.5781,159.0781 Q129.1094,157.5313 128.4453,156.8672 Q127.7813,156.2031 126.7188,156.2031 Q126.3281,156.2031 125.5625,157.7344 Q124.7969,159.2656 124.7969,161.5156 Q124.7969,163.9844 125.4609,165.375 Q126.125,166.7656 126.6563,166.7656 Q127.7188,166.7656 128.4766,166 Q129.2344,165.2344 129.5781,163.5781 L130.9063,164.1719 Q130.5781,165.5781 129.6797,166.4688 Q128.7813,167.3594 126.5781,167.3594 Z "/><text fill="#000000" font-family="sans-serif" font-size="12" lengthAdjust="spacingAndGlyphs" textLength="40" x="142" y="167.5576">Chain2</text><line style="stroke: #A80036; stroke-width: 1.5;" x1="114" x2="184" y1="178" y2="178"/><line style="stroke: #A80036; stroke-width: 1.5;" x1="114" x2="184" y1="186" y2="186"/><!--reverse link Chain to Chain1--><path d="M70.0983,104.8511 C63.7657,119.3085 57.3109,134.0449 52.1876,145.7416 " fill="none" id="Chain&lt;-Chain1" style="stroke: #A80036; stroke-width: 1.0;"/><polygon fill="none" points="63.7942,101.7963,78.2305,86.285,76.618,107.4134,63.7942,101.7963" style="stroke: #A80036; stroke-width: 1.0;"/><!--reverse link Chain to Chain2--><path d="M120.372,104.8511 C126.824,119.3085 133.4,134.0449 138.62,145.7416 " fill="none" id="Chain&lt;-Chain2" style="stroke: #A80036; stroke-width: 1.0;"/><polygon fill="none" points="113.844,107.4017,112.086,86.285,126.629,101.6961,113.844,107.4017" style="stroke: #A80036; stroke-width: 1.0;"/><!--link Chain to Chain--><path d="M159.597,24.16 C179.187,24.732 194.5,32.346 194.5,47 C194.5,58.22 185.524,65.312 172.524,68.277 " fill="none" id="Chain-&gt;Chain" style="stroke: #A80036; stroke-width: 1.0; stroke-dasharray: 7.0,7.0;"/><polygon fill="#FFFFFF" points="159.597,69.84,166.0337,73.0911,171.5103,68.4,165.0736,65.1489,159.597,69.84" style="stroke: #A80036; stroke-width: 1.0;"/><!--
@startuml
abstract class Chain {
    -Chain next
    {abstract} void handle(String msg)
}
class Chain1 extends Chain
class Chain2 extends Chain
Chain ..o Chain
@enduml

PlantUML version 1.2019.09(Tue Aug 27 00:19:51 CST 2019)
(GPL source distribution)
Java Runtime: Java(TM) SE Runtime Environment
JVM: Java HotSpot(TM) 64-Bit Server VM
Java Version: 1.8.0_231-b11
Operating System: Windows 10
OS Version: 10.0
Default Encoding: GBK
Language: zh
Country: CN
--></g></svg>