<?xml version="1.0" encoding="UTF-8" standalone="no"?><svg xmlns="http://www.w3.org/2000/svg" xmlns:xlink="http://www.w3.org/1999/xlink" contentScriptType="application/ecmascript" contentStyleType="text/css" height="499px" preserveAspectRatio="none" style="width:1059px;height:499px;" version="1.1" viewBox="0 0 1059 499" width="1059px" zoomAndPan="magnify"><defs><filter height="300%" id="fq9bk4hl1yr4b" width="300%" x="-1" y="-1"><feGaussianBlur result="blurOut" stdDeviation="2.0"/><feColorMatrix in="blurOut" result="blurOut2" type="matrix" values="0 0 0 0 0 0 0 0 0 0 0 0 0 0 0 0 0 0 .4 0"/><feOffset dx="4.0" dy="4.0" in="blurOut2" result="blurOut3"/><feBlend in="SourceGraphic" in2="blurOut3" mode="normal"/></filter></defs><g><!--class ChannelHandler--><rect fill="#FEFECE" filter="url(#fq9bk4hl1yr4b)" height="48" id="ChannelHandler" style="stroke: #A80036; stroke-width: 1.5;" width="123" x="466" y="8"/><ellipse cx="481" cy="24" fill="#B4A7E5" rx="11" ry="11" style="stroke: #A80036; stroke-width: 1.0;"/><path d="M477.5938,18.2813 L477.5938,17.875 L483.9063,17.875 L483.9063,18.2813 L481.375,18.2813 Q481.375,18.2813 481.5234,18.4141 Q481.6719,18.5469 481.6719,18.8125 L481.6719,28.2969 Q481.6719,28.5625 481.8906,28.6953 Q482.1094,28.8281 482.1094,28.8281 L483.9063,28.8281 L483.9063,29.2344 L477.5938,29.2344 L477.5938,28.8281 L479.125,28.8281 Q479.4531,28.8281 479.5859,28.6953 Q479.7188,28.5625 479.7188,28.2969 L479.7188,18.8125 Q479.7188,18.5469 479.5859,18.4141 Q479.4531,18.2813 479.125,18.2813 L477.5938,18.2813 Z "/><text fill="#000000" font-family="sans-serif" font-size="12" font-style="italic" lengthAdjust="spacingAndGlyphs" textLength="91" x="495" y="29.5576">ChannelHandler</text><line style="stroke: #A80036; stroke-width: 1.5;" x1="467" x2="588" y1="40" y2="40"/><line style="stroke: #A80036; stroke-width: 1.5;" x1="467" x2="588" y1="48" y2="48"/><!--class ChannelInboundHandler--><rect fill="#FEFECE" filter="url(#fq9bk4hl1yr4b)" height="48" id="ChannelInboundHandler" style="stroke: #A80036; stroke-width: 1.5;" width="170" x="239.5" y="116"/><ellipse cx="254.5" cy="132" fill="#B4A7E5" rx="11" ry="11" style="stroke: #A80036; stroke-width: 1.0;"/><path d="M251.0938,126.2813 L251.0938,125.875 L257.4063,125.875 L257.4063,126.2813 L254.875,126.2813 Q254.875,126.2813 255.0234,126.4141 Q255.1719,126.5469 255.1719,126.8125 L255.1719,136.2969 Q255.1719,136.5625 255.3906,136.6953 Q255.6094,136.8281 255.6094,136.8281 L257.4063,136.8281 L257.4063,137.2344 L251.0938,137.2344 L251.0938,136.8281 L252.625,136.8281 Q252.9531,136.8281 253.0859,136.6953 Q253.2188,136.5625 253.2188,136.2969 L253.2188,126.8125 Q253.2188,126.5469 253.0859,126.4141 Q252.9531,126.2813 252.625,126.2813 L251.0938,126.2813 Z "/><text fill="#000000" font-family="sans-serif" font-size="12" font-style="italic" lengthAdjust="spacingAndGlyphs" textLength="138" x="268.5" y="137.5576">ChannelInboundHandler</text><line style="stroke: #A80036; stroke-width: 1.5;" x1="240.5" x2="408.5" y1="148" y2="148"/><line style="stroke: #A80036; stroke-width: 1.5;" x1="240.5" x2="408.5" y1="156" y2="156"/><!--class ChannelOutboundHandler--><rect fill="#FEFECE" filter="url(#fq9bk4hl1yr4b)" height="48" id="ChannelOutboundHandler" style="stroke: #A80036; stroke-width: 1.5;" width="178" x="645.5" y="116"/><ellipse cx="660.5" cy="132" fill="#B4A7E5" rx="11" ry="11" style="stroke: #A80036; stroke-width: 1.0;"/><path d="M657.0938,126.2813 L657.0938,125.875 L663.4063,125.875 L663.4063,126.2813 L660.875,126.2813 Q660.875,126.2813 661.0234,126.4141 Q661.1719,126.5469 661.1719,126.8125 L661.1719,136.2969 Q661.1719,136.5625 661.3906,136.6953 Q661.6094,136.8281 661.6094,136.8281 L663.4063,136.8281 L663.4063,137.2344 L657.0938,137.2344 L657.0938,136.8281 L658.625,136.8281 Q658.9531,136.8281 659.0859,136.6953 Q659.2188,136.5625 659.2188,136.2969 L659.2188,126.8125 Q659.2188,126.5469 659.0859,126.4141 Q658.9531,126.2813 658.625,126.2813 L657.0938,126.2813 Z "/><text fill="#000000" font-family="sans-serif" font-size="12" font-style="italic" lengthAdjust="spacingAndGlyphs" textLength="146" x="674.5" y="137.5576">ChannelOutboundHandler</text><line style="stroke: #A80036; stroke-width: 1.5;" x1="646.5" x2="822.5" y1="148" y2="148"/><line style="stroke: #A80036; stroke-width: 1.5;" x1="646.5" x2="822.5" y1="156" y2="156"/><!--class ChannelHandlerAdapter--><rect fill="#FEFECE" filter="url(#fq9bk4hl1yr4b)" height="48" id="ChannelHandlerAdapter" style="stroke: #A80036; stroke-width: 1.5;" width="166" x="444.5" y="116"/><ellipse cx="459.5" cy="132" fill="#A9DCDF" rx="11" ry="11" style="stroke: #A80036; stroke-width: 1.0;"/><path d="M459.875,131.9844 L457.8906,131.9844 L457.2969,134.5 Q457.2344,134.8438 457.2344,135.0313 Q457.2344,135.2969 457.3281,135.5625 Q457.4219,135.8281 457.4219,135.8281 L458.0938,135.8281 L458.0938,136.2344 L454.6406,136.2344 L454.6406,135.8281 L454.8281,135.8281 Q455.0938,135.8281 455.2969,135.6641 Q455.5,135.5 455.5625,135.1094 L458.1563,124.9375 L460.0313,124.3281 L462.6719,135.1094 Q462.8125,135.5 463.0078,135.6641 Q463.2031,135.8281 463.2031,135.8281 L463.6719,135.8281 L463.6719,136.2344 L459.8125,136.2344 L459.8125,135.8281 L460.0781,135.8281 Q460.4844,135.8281 460.5469,135.6641 Q460.6094,135.5 460.6094,135.375 Q460.6094,135.1094 460.5469,134.9063 L459.875,131.9844 Z M458.4844,126.0781 L458.4844,126.0781 L458.0313,131.5781 L459.8125,131.5781 L458.4844,126.0781 Z "/><text fill="#000000" font-family="sans-serif" font-size="12" font-style="italic" lengthAdjust="spacingAndGlyphs" textLength="134" x="473.5" y="137.5576">ChannelHandlerAdapter</text><line style="stroke: #A80036; stroke-width: 1.5;" x1="445.5" x2="609.5" y1="148" y2="148"/><line style="stroke: #A80036; stroke-width: 1.5;" x1="445.5" x2="609.5" y1="156" y2="156"/><!--class ChannelInboundHandlerAdapter--><rect fill="#FEFECE" filter="url(#fq9bk4hl1yr4b)" height="48" id="ChannelInboundHandlerAdapter" style="stroke: #A80036; stroke-width: 1.5;" width="210" x="219.5" y="224"/><ellipse cx="234.5" cy="240" fill="#ADD1B2" rx="11" ry="11" style="stroke: #A80036; stroke-width: 1.0;"/><path d="M233.0781,245.3594 Q231.2188,245.3594 230.125,243.9688 Q229.0313,242.5781 229.0313,239.5938 Q229.0313,237.0625 230.1953,235.4063 Q231.3594,233.75 233.3438,233.75 Q234.8125,233.75 235.2813,233.875 Q235.75,234.0781 235.75,234.0781 Q235.75,234.0781 235.75,234.0078 Q235.75,233.9375 236.3594,233.0156 L237.4063,236.6719 L236.0781,237.0781 Q235.6094,235.5313 234.9453,234.8672 Q234.2813,234.2031 233.2188,234.2031 Q232.8281,234.2031 232.0625,235.7344 Q231.2969,237.2656 231.2969,239.5156 Q231.2969,241.9844 231.9609,243.375 Q232.625,244.7656 233.1563,244.7656 Q234.2188,244.7656 234.9766,244 Q235.7344,243.2344 236.0781,241.5781 L237.4063,242.1719 Q237.0781,243.5781 236.1797,244.4688 Q235.2813,245.3594 233.0781,245.3594 Z "/><text fill="#000000" font-family="sans-serif" font-size="12" lengthAdjust="spacingAndGlyphs" textLength="178" x="248.5" y="245.5576">ChannelInboundHandlerAdapter</text><line style="stroke: #A80036; stroke-width: 1.5;" x1="220.5" x2="428.5" y1="256" y2="256"/><line style="stroke: #A80036; stroke-width: 1.5;" x1="220.5" x2="428.5" y1="264" y2="264"/><!--class ChannelOutboundHandlerAdapter--><rect fill="#FEFECE" filter="url(#fq9bk4hl1yr4b)" height="48" id="ChannelOutboundHandlerAdapter" style="stroke: #A80036; stroke-width: 1.5;" width="219" x="627" y="224"/><ellipse cx="642" cy="240" fill="#ADD1B2" rx="11" ry="11" style="stroke: #A80036; stroke-width: 1.0;"/><path d="M640.5781,245.3594 Q638.7188,245.3594 637.625,243.9688 Q636.5313,242.5781 636.5313,239.5938 Q636.5313,237.0625 637.6953,235.4063 Q638.8594,233.75 640.8438,233.75 Q642.3125,233.75 642.7813,233.875 Q643.25,234.0781 643.25,234.0781 Q643.25,234.0781 643.25,234.0078 Q643.25,233.9375 643.8594,233.0156 L644.9063,236.6719 L643.5781,237.0781 Q643.1094,235.5313 642.4453,234.8672 Q641.7813,234.2031 640.7188,234.2031 Q640.3281,234.2031 639.5625,235.7344 Q638.7969,237.2656 638.7969,239.5156 Q638.7969,241.9844 639.4609,243.375 Q640.125,244.7656 640.6563,244.7656 Q641.7188,244.7656 642.4766,244 Q643.2344,243.2344 643.5781,241.5781 L644.9063,242.1719 Q644.5781,243.5781 643.6797,244.4688 Q642.7813,245.3594 640.5781,245.3594 Z "/><text fill="#000000" font-family="sans-serif" font-size="12" lengthAdjust="spacingAndGlyphs" textLength="187" x="656" y="245.5576">ChannelOutboundHandlerAdapter</text><line style="stroke: #A80036; stroke-width: 1.5;" x1="628" x2="845" y1="256" y2="256"/><line style="stroke: #A80036; stroke-width: 1.5;" x1="628" x2="845" y1="264" y2="264"/><!--class ByteToMessageDecoder--><rect fill="#FEFECE" filter="url(#fq9bk4hl1yr4b)" height="48" id="ByteToMessageDecoder" style="stroke: #A80036; stroke-width: 1.5;" width="166" x="240.5" y="332"/><ellipse cx="255.5" cy="348" fill="#A9DCDF" rx="11" ry="11" style="stroke: #A80036; stroke-width: 1.0;"/><path d="M255.875,347.9844 L253.8906,347.9844 L253.2969,350.5 Q253.2344,350.8438 253.2344,351.0313 Q253.2344,351.2969 253.3281,351.5625 Q253.4219,351.8281 253.4219,351.8281 L254.0938,351.8281 L254.0938,352.2344 L250.6406,352.2344 L250.6406,351.8281 L250.8281,351.8281 Q251.0938,351.8281 251.2969,351.6641 Q251.5,351.5 251.5625,351.1094 L254.1563,340.9375 L256.0313,340.3281 L258.6719,351.1094 Q258.8125,351.5 259.0078,351.6641 Q259.2031,351.8281 259.2031,351.8281 L259.6719,351.8281 L259.6719,352.2344 L255.8125,352.2344 L255.8125,351.8281 L256.0781,351.8281 Q256.4844,351.8281 256.5469,351.6641 Q256.6094,351.5 256.6094,351.375 Q256.6094,351.1094 256.5469,350.9063 L255.875,347.9844 Z M254.4844,342.0781 L254.4844,342.0781 L254.0313,347.5781 L255.8125,347.5781 L254.4844,342.0781 Z "/><text fill="#000000" font-family="sans-serif" font-size="12" font-style="italic" lengthAdjust="spacingAndGlyphs" textLength="134" x="269.5" y="353.5576">ByteToMessageDecoder</text><line style="stroke: #A80036; stroke-width: 1.5;" x1="241.5" x2="405.5" y1="364" y2="364"/><line style="stroke: #A80036; stroke-width: 1.5;" x1="241.5" x2="405.5" y1="372" y2="372"/><!--class MessageToMessageDecoder--><rect fill="#FEFECE" filter="url(#fq9bk4hl1yr4b)" height="48" id="MessageToMessageDecoder" style="stroke: #A80036; stroke-width: 1.5;" width="199" x="6" y="332"/><ellipse cx="21" cy="348" fill="#A9DCDF" rx="11" ry="11" style="stroke: #A80036; stroke-width: 1.0;"/><path d="M21.375,347.9844 L19.3906,347.9844 L18.7969,350.5 Q18.7344,350.8438 18.7344,351.0313 Q18.7344,351.2969 18.8281,351.5625 Q18.9219,351.8281 18.9219,351.8281 L19.5938,351.8281 L19.5938,352.2344 L16.1406,352.2344 L16.1406,351.8281 L16.3281,351.8281 Q16.5938,351.8281 16.7969,351.6641 Q17,351.5 17.0625,351.1094 L19.6563,340.9375 L21.5313,340.3281 L24.1719,351.1094 Q24.3125,351.5 24.5078,351.6641 Q24.7031,351.8281 24.7031,351.8281 L25.1719,351.8281 L25.1719,352.2344 L21.3125,352.2344 L21.3125,351.8281 L21.5781,351.8281 Q21.9844,351.8281 22.0469,351.6641 Q22.1094,351.5 22.1094,351.375 Q22.1094,351.1094 22.0469,350.9063 L21.375,347.9844 Z M19.9844,342.0781 L19.9844,342.0781 L19.5313,347.5781 L21.3125,347.5781 L19.9844,342.0781 Z "/><text fill="#000000" font-family="sans-serif" font-size="12" font-style="italic" lengthAdjust="spacingAndGlyphs" textLength="159" x="35" y="353.5576">MessageToMessageDecoder</text><rect fill="#FFFFFF" height="18.3887" style="stroke: #000000; stroke-width: 1.0; stroke-dasharray: 2.0,2.0;" width="6" x="202" y="329"/><text fill="#000000" font-family="sans-serif" font-size="12" font-style="italic" lengthAdjust="spacingAndGlyphs" textLength="4" x="203" y="343.752">I</text><line style="stroke: #A80036; stroke-width: 1.5;" x1="7" x2="204" y1="364" y2="364"/><line style="stroke: #A80036; stroke-width: 1.5;" x1="7" x2="204" y1="372" y2="372"/><!--class MessageToByteEncoder--><rect fill="#FEFECE" filter="url(#fq9bk4hl1yr4b)" height="48" id="MessageToByteEncoder" style="stroke: #A80036; stroke-width: 1.5;" width="173" x="872" y="332"/><ellipse cx="887" cy="348" fill="#A9DCDF" rx="11" ry="11" style="stroke: #A80036; stroke-width: 1.0;"/><path d="M887.375,347.9844 L885.3906,347.9844 L884.7969,350.5 Q884.7344,350.8438 884.7344,351.0313 Q884.7344,351.2969 884.8281,351.5625 Q884.9219,351.8281 884.9219,351.8281 L885.5938,351.8281 L885.5938,352.2344 L882.1406,352.2344 L882.1406,351.8281 L882.3281,351.8281 Q882.5938,351.8281 882.7969,351.6641 Q883,351.5 883.0625,351.1094 L885.6563,340.9375 L887.5313,340.3281 L890.1719,351.1094 Q890.3125,351.5 890.5078,351.6641 Q890.7031,351.8281 890.7031,351.8281 L891.1719,351.8281 L891.1719,352.2344 L887.3125,352.2344 L887.3125,351.8281 L887.5781,351.8281 Q887.9844,351.8281 888.0469,351.6641 Q888.1094,351.5 888.1094,351.375 Q888.1094,351.1094 888.0469,350.9063 L887.375,347.9844 Z M885.9844,342.0781 L885.9844,342.0781 L885.5313,347.5781 L887.3125,347.5781 L885.9844,342.0781 Z "/><text fill="#000000" font-family="sans-serif" font-size="12" font-style="italic" lengthAdjust="spacingAndGlyphs" textLength="133" x="901" y="353.5576">MessageToByteEncoder</text><rect fill="#FFFFFF" height="18.3887" style="stroke: #000000; stroke-width: 1.0; stroke-dasharray: 2.0,2.0;" width="6" x="1042" y="329"/><text fill="#000000" font-family="sans-serif" font-size="12" font-style="italic" lengthAdjust="spacingAndGlyphs" textLength="4" x="1043" y="343.752">I</text><line style="stroke: #A80036; stroke-width: 1.5;" x1="873" x2="1044" y1="364" y2="364"/><line style="stroke: #A80036; stroke-width: 1.5;" x1="873" x2="1044" y1="372" y2="372"/><!--class MessageToMessageEncoder--><rect fill="#FEFECE" filter="url(#fq9bk4hl1yr4b)" height="48" id="MessageToMessageEncoder" style="stroke: #A80036; stroke-width: 1.5;" width="198" x="638.5" y="332"/><ellipse cx="653.5" cy="348" fill="#A9DCDF" rx="11" ry="11" style="stroke: #A80036; stroke-width: 1.0;"/><path d="M653.875,347.9844 L651.8906,347.9844 L651.2969,350.5 Q651.2344,350.8438 651.2344,351.0313 Q651.2344,351.2969 651.3281,351.5625 Q651.4219,351.8281 651.4219,351.8281 L652.0938,351.8281 L652.0938,352.2344 L648.6406,352.2344 L648.6406,351.8281 L648.8281,351.8281 Q649.0938,351.8281 649.2969,351.6641 Q649.5,351.5 649.5625,351.1094 L652.1563,340.9375 L654.0313,340.3281 L656.6719,351.1094 Q656.8125,351.5 657.0078,351.6641 Q657.2031,351.8281 657.2031,351.8281 L657.6719,351.8281 L657.6719,352.2344 L653.8125,352.2344 L653.8125,351.8281 L654.0781,351.8281 Q654.4844,351.8281 654.5469,351.6641 Q654.6094,351.5 654.6094,351.375 Q654.6094,351.1094 654.5469,350.9063 L653.875,347.9844 Z M652.4844,342.0781 L652.4844,342.0781 L652.0313,347.5781 L653.8125,347.5781 L652.4844,342.0781 Z "/><text fill="#000000" font-family="sans-serif" font-size="12" font-style="italic" lengthAdjust="spacingAndGlyphs" textLength="158" x="667.5" y="353.5576">MessageToMessageEncoder</text><rect fill="#FFFFFF" height="18.3887" style="stroke: #000000; stroke-width: 1.0; stroke-dasharray: 2.0,2.0;" width="6" x="833.5" y="329"/><text fill="#000000" font-family="sans-serif" font-size="12" font-style="italic" lengthAdjust="spacingAndGlyphs" textLength="4" x="834.5" y="343.752">I</text><line style="stroke: #A80036; stroke-width: 1.5;" x1="639.5" x2="835.5" y1="364" y2="364"/><line style="stroke: #A80036; stroke-width: 1.5;" x1="639.5" x2="835.5" y1="372" y2="372"/><!--class ChannelDuplexHandler--><rect fill="#FEFECE" filter="url(#fq9bk4hl1yr4b)" height="48" id="ChannelDuplexHandler" style="stroke: #A80036; stroke-width: 1.5;" width="161" x="442" y="332"/><ellipse cx="457" cy="348" fill="#ADD1B2" rx="11" ry="11" style="stroke: #A80036; stroke-width: 1.0;"/><path d="M455.5781,353.3594 Q453.7188,353.3594 452.625,351.9688 Q451.5313,350.5781 451.5313,347.5938 Q451.5313,345.0625 452.6953,343.4063 Q453.8594,341.75 455.8438,341.75 Q457.3125,341.75 457.7813,341.875 Q458.25,342.0781 458.25,342.0781 Q458.25,342.0781 458.25,342.0078 Q458.25,341.9375 458.8594,341.0156 L459.9063,344.6719 L458.5781,345.0781 Q458.1094,343.5313 457.4453,342.8672 Q456.7813,342.2031 455.7188,342.2031 Q455.3281,342.2031 454.5625,343.7344 Q453.7969,345.2656 453.7969,347.5156 Q453.7969,349.9844 454.4609,351.375 Q455.125,352.7656 455.6563,352.7656 Q456.7188,352.7656 457.4766,352 Q458.2344,351.2344 458.5781,349.5781 L459.9063,350.1719 Q459.5781,351.5781 458.6797,352.4688 Q457.7813,353.3594 455.5781,353.3594 Z "/><text fill="#000000" font-family="sans-serif" font-size="12" lengthAdjust="spacingAndGlyphs" textLength="129" x="471" y="353.5576">ChannelDuplexHandler</text><line style="stroke: #A80036; stroke-width: 1.5;" x1="443" x2="602" y1="364" y2="364"/><line style="stroke: #A80036; stroke-width: 1.5;" x1="443" x2="602" y1="372" y2="372"/><!--class ByteToMessageCodec--><rect fill="#FEFECE" filter="url(#fq9bk4hl1yr4b)" height="48" id="ByteToMessageCodec" style="stroke: #A80036; stroke-width: 1.5;" width="163" x="294" y="440"/><ellipse cx="309" cy="456" fill="#A9DCDF" rx="11" ry="11" style="stroke: #A80036; stroke-width: 1.0;"/><path d="M309.375,455.9844 L307.3906,455.9844 L306.7969,458.5 Q306.7344,458.8438 306.7344,459.0313 Q306.7344,459.2969 306.8281,459.5625 Q306.9219,459.8281 306.9219,459.8281 L307.5938,459.8281 L307.5938,460.2344 L304.1406,460.2344 L304.1406,459.8281 L304.3281,459.8281 Q304.5938,459.8281 304.7969,459.6641 Q305,459.5 305.0625,459.1094 L307.6563,448.9375 L309.5313,448.3281 L312.1719,459.1094 Q312.3125,459.5 312.5078,459.6641 Q312.7031,459.8281 312.7031,459.8281 L313.1719,459.8281 L313.1719,460.2344 L309.3125,460.2344 L309.3125,459.8281 L309.5781,459.8281 Q309.9844,459.8281 310.0469,459.6641 Q310.1094,459.5 310.1094,459.375 Q310.1094,459.1094 310.0469,458.9063 L309.375,455.9844 Z M307.9844,450.0781 L307.9844,450.0781 L307.5313,455.5781 L309.3125,455.5781 L307.9844,450.0781 Z "/><text fill="#000000" font-family="sans-serif" font-size="12" font-style="italic" lengthAdjust="spacingAndGlyphs" textLength="123" x="323" y="461.5576">ByteToMessageCodec</text><rect fill="#FFFFFF" height="18.3887" style="stroke: #000000; stroke-width: 1.0; stroke-dasharray: 2.0,2.0;" width="6" x="454" y="437"/><text fill="#000000" font-family="sans-serif" font-size="12" font-style="italic" lengthAdjust="spacingAndGlyphs" textLength="4" x="455" y="451.752">I</text><line style="stroke: #A80036; stroke-width: 1.5;" x1="295" x2="456" y1="472" y2="472"/><line style="stroke: #A80036; stroke-width: 1.5;" x1="295" x2="456" y1="480" y2="480"/><!--class MessageToMessageCodec--><rect fill="#FEFECE" filter="url(#fq9bk4hl1yr4b)" height="48" id="MessageToMessageCodec" style="stroke: #A80036; stroke-width: 1.5;" width="356" x="492.5" y="440"/><ellipse cx="507.5" cy="456" fill="#A9DCDF" rx="11" ry="11" style="stroke: #A80036; stroke-width: 1.0;"/><path d="M507.875,455.9844 L505.8906,455.9844 L505.2969,458.5 Q505.2344,458.8438 505.2344,459.0313 Q505.2344,459.2969 505.3281,459.5625 Q505.4219,459.8281 505.4219,459.8281 L506.0938,459.8281 L506.0938,460.2344 L502.6406,460.2344 L502.6406,459.8281 L502.8281,459.8281 Q503.0938,459.8281 503.2969,459.6641 Q503.5,459.5 503.5625,459.1094 L506.1563,448.9375 L508.0313,448.3281 L510.6719,459.1094 Q510.8125,459.5 511.0078,459.6641 Q511.2031,459.8281 511.2031,459.8281 L511.6719,459.8281 L511.6719,460.2344 L507.8125,460.2344 L507.8125,459.8281 L508.0781,459.8281 Q508.4844,459.8281 508.5469,459.6641 Q508.6094,459.5 508.6094,459.375 Q508.6094,459.1094 508.5469,458.9063 L507.875,455.9844 Z M506.4844,450.0781 L506.4844,450.0781 L506.0313,455.5781 L507.8125,455.5781 L506.4844,450.0781 Z "/><text fill="#000000" font-family="sans-serif" font-size="12" font-style="italic" lengthAdjust="spacingAndGlyphs" textLength="148" x="521.5" y="461.5576">MessageToMessageCodec</text><rect fill="#FFFFFF" height="18.3887" style="stroke: #000000; stroke-width: 1.0; stroke-dasharray: 2.0,2.0;" width="174" x="677.5" y="437"/><text fill="#000000" font-family="sans-serif" font-size="12" font-style="italic" lengthAdjust="spacingAndGlyphs" textLength="172" x="678.5" y="451.752">INBOUND_IN, OUTBOUND_IN</text><line style="stroke: #A80036; stroke-width: 1.5;" x1="493.5" x2="847.5" y1="472" y2="472"/><line style="stroke: #A80036; stroke-width: 1.5;" x1="493.5" x2="847.5" y1="480" y2="480"/><!--reverse link ChannelHandler to ChannelInboundHandler--><path d="M465.392,65.431 C434.187,81.725 397.101,101.09 368.812,115.862 " fill="none" id="ChannelHandler&lt;-ChannelInboundHandler" style="stroke: #A80036; stroke-width: 1.0;"/><polygon fill="none" points="462.483,59.053,483.452,56,468.964,71.463,462.483,59.053" style="stroke: #A80036; stroke-width: 1.0;"/><!--reverse link ChannelHandler to ChannelOutboundHandler--><path d="M590.384,65.201 C622.297,81.543 660.333,101.021 689.315,115.862 " fill="none" id="ChannelHandler&lt;-ChannelOutboundHandler" style="stroke: #A80036; stroke-width: 1.0;"/><polygon fill="none" points="587.027,71.347,572.416,56,593.408,58.886,587.027,71.347" style="stroke: #A80036; stroke-width: 1.0;"/><!--reverse link ChannelHandler to ChannelHandlerAdapter--><path d="M527.5,76.024 C527.5,89.579 527.5,104.038 527.5,115.678 " fill="none" id="ChannelHandler&lt;-ChannelHandlerAdapter" style="stroke: #A80036; stroke-width: 1.0; stroke-dasharray: 7.0,7.0;"/><polygon fill="none" points="520.5,76,527.5,56,534.5,76,520.5,76" style="stroke: #A80036; stroke-width: 1.0;"/><!--reverse link ChannelHandlerAdapter to ChannelInboundHandlerAdapter--><path d="M465.392,173.431 C434.187,189.725 397.101,209.09 368.812,223.862 " fill="none" id="ChannelHandlerAdapter&lt;-ChannelInboundHandlerAdapter" style="stroke: #A80036; stroke-width: 1.0;"/><polygon fill="none" points="462.483,167.053,483.452,164,468.964,179.463,462.483,167.053" style="stroke: #A80036; stroke-width: 1.0;"/><!--reverse link ChannelInboundHandler to ChannelInboundHandlerAdapter--><path d="M324.5,184.024 C324.5,197.579 324.5,212.038 324.5,223.678 " fill="none" id="ChannelInboundHandler&lt;-ChannelInboundHandlerAdapter" style="stroke: #A80036; stroke-width: 1.0; stroke-dasharray: 7.0,7.0;"/><polygon fill="none" points="317.5,184,324.5,164,331.5,184,317.5,184" style="stroke: #A80036; stroke-width: 1.0;"/><!--reverse link ChannelHandlerAdapter to ChannelOutboundHandlerAdapter--><path d="M590.991,173.201 C623.213,189.543 661.617,209.021 690.878,223.862 " fill="none" id="ChannelHandlerAdapter&lt;-ChannelOutboundHandlerAdapter" style="stroke: #A80036; stroke-width: 1.0;"/><polygon fill="none" points="587.521,179.29,572.85,164,593.853,166.804,587.521,179.29" style="stroke: #A80036; stroke-width: 1.0;"/><!--reverse link ChannelOutboundHandler to ChannelOutboundHandlerAdapter--><path d="M735.312,184.024 C735.568,197.579 735.84,212.038 736.06,223.678 " fill="none" id="ChannelOutboundHandler&lt;-ChannelOutboundHandlerAdapter" style="stroke: #A80036; stroke-width: 1.0; stroke-dasharray: 7.0,7.0;"/><polygon fill="none" points="728.313,184.129,734.934,164,742.31,183.865,728.313,184.129" style="stroke: #A80036; stroke-width: 1.0;"/><!--reverse link ChannelInboundHandlerAdapter to ByteToMessageDecoder--><path d="M324.094,292.024 C323.966,305.579 323.83,320.038 323.72,331.678 " fill="none" id="ChannelInboundHandlerAdapter&lt;-ByteToMessageDecoder" style="stroke: #A80036; stroke-width: 1.0;"/><polygon fill="none" points="317.095,291.933,324.283,272,331.094,292.066,317.095,291.933" style="stroke: #A80036; stroke-width: 1.0;"/><!--reverse link ChannelInboundHandlerAdapter to MessageToMessageDecoder--><path d="M258.916,280.744 C224.961,297.179 184.253,316.882 153.305,331.862 " fill="none" id="ChannelInboundHandlerAdapter&lt;-MessageToMessageDecoder" style="stroke: #A80036; stroke-width: 1.0;"/><polygon fill="none" points="255.928,274.413,276.98,272,262.028,287.015,255.928,274.413" style="stroke: #A80036; stroke-width: 1.0;"/><!--reverse link ChannelOutboundHandlerAdapter to MessageToByteEncoder--><path d="M802.983,280.744 C837.403,297.179 878.669,316.882 910.04,331.862 " fill="none" id="ChannelOutboundHandlerAdapter&lt;-MessageToByteEncoder" style="stroke: #A80036; stroke-width: 1.0;"/><polygon fill="none" points="799.703,286.935,784.671,272,805.735,274.301,799.703,286.935" style="stroke: #A80036; stroke-width: 1.0;"/><!--reverse link ChannelOutboundHandlerAdapter to MessageToMessageEncoder--><path d="M736.906,292.024 C737.034,305.579 737.17,320.038 737.28,331.678 " fill="none" id="ChannelOutboundHandlerAdapter&lt;-MessageToMessageEncoder" style="stroke: #A80036; stroke-width: 1.0;"/><polygon fill="none" points="729.906,292.066,736.717,272,743.905,291.933,729.906,292.066" style="stroke: #A80036; stroke-width: 1.0;"/><!--reverse link ChannelInboundHandlerAdapter to ChannelDuplexHandler--><path d="M385.507,281.66 C415.855,297.907 451.817,317.16 479.279,331.862 " fill="none" id="ChannelInboundHandlerAdapter&lt;-ChannelDuplexHandler" style="stroke: #A80036; stroke-width: 1.0;"/><polygon fill="none" points="381.791,287.611,367.463,272,388.399,275.269,381.791,287.611" style="stroke: #A80036; stroke-width: 1.0;"/><!--reverse link ChannelOutboundHandler to ChannelDuplexHandler--><path d="M673.662,174.546 C651.982,188.196 628.302,205.199 609.5,224 C576.68,256.817 549.084,303.817 534.247,331.692 " fill="none" id="ChannelOutboundHandler&lt;-ChannelDuplexHandler" style="stroke: #A80036; stroke-width: 1.0; stroke-dasharray: 7.0,7.0;"/><polygon fill="none" points="670.135,168.499,690.868,164.126,677.387,180.474,670.135,168.499" style="stroke: #A80036; stroke-width: 1.0;"/><!--reverse link ChannelDuplexHandler to ByteToMessageCodec--><path d="M474.316,391.7451 C452.421,407.5335 427.111,425.7838 407.588,439.8617 " fill="none" id="ChannelDuplexHandler&lt;-ByteToMessageCodec" style="stroke: #A80036; stroke-width: 1.0;"/><polygon fill="none" points="470.287,386.02,490.603,380,478.475,397.376,470.287,386.02" style="stroke: #A80036; stroke-width: 1.0;"/><!--reverse link ChannelDuplexHandler to MessageToMessageCodec--><path d="M571.012,391.7451 C593.056,407.5335 618.538,425.7838 638.194,439.8617 " fill="none" id="ChannelDuplexHandler&lt;-MessageToMessageCodec" style="stroke: #A80036; stroke-width: 1.0;"/><polygon fill="none" points="566.798,397.3369,554.614,380,574.95,385.955,566.798,397.3369" style="stroke: #A80036; stroke-width: 1.0;"/><!--
@startuml
interface ChannelHandler
interface ChannelInboundHandler extends ChannelHandler
interface ChannelOutboundHandler extends ChannelHandler
abstract class ChannelHandlerAdapter implements ChannelHandler
class ChannelInboundHandlerAdapter extends ChannelHandlerAdapter implements ChannelInboundHandler
class ChannelOutboundHandlerAdapter extends ChannelHandlerAdapter implements ChannelOutboundHandler
abstract class ByteToMessageDecoder extends ChannelInboundHandlerAdapter
abstract class MessageToMessageDecoder<I> extends ChannelInboundHandlerAdapter
abstract class MessageToByteEncoder<I> extends ChannelOutboundHandlerAdapter
abstract class MessageToMessageEncoder<I> extends ChannelOutboundHandlerAdapter
class ChannelDuplexHandler extends ChannelInboundHandlerAdapter implements ChannelOutboundHandler
abstract class ByteToMessageCodec<I> extends ChannelDuplexHandler
abstract class MessageToMessageCodec<INBOUND_IN, OUTBOUND_IN> extends ChannelDuplexHandler
@enduml

PlantUML version 1.2019.09(Tue Aug 27 00:19:51 CST 2019)
(GPL source distribution)
Java Runtime: Java(TM) SE Runtime Environment
JVM: Java HotSpot(TM) 64-Bit Server VM
Java Version: 1.8.0_231-b11
Operating System: Windows 10
OS Version: 10.0
Default Encoding: GBK
Language: zh
Country: CN
--></g></svg>