<?xml version="1.0" encoding="UTF-8" standalone="no"?><svg xmlns="http://www.w3.org/2000/svg" xmlns:xlink="http://www.w3.org/1999/xlink" contentScriptType="application/ecmascript" contentStyleType="text/css" height="190px" preserveAspectRatio="none" style="width:343px;height:190px;" version="1.1" viewBox="0 0 343 190" width="343px" zoomAndPan="magnify"><defs><filter height="300%" id="f1lifui9d2chfz" width="300%" x="-1" y="-1"><feGaussianBlur result="blurOut" stdDeviation="2.0"/><feColorMatrix in="blurOut" result="blurOut2" type="matrix" values="0 0 0 0 0 0 0 0 0 0 0 0 0 0 0 0 0 0 .4 0"/><feOffset dx="4.0" dy="4.0" in="blurOut2" result="blurOut3"/><feBlend in="SourceGraphic" in2="blurOut3" mode="normal"/></filter></defs><g><!--class Command--><rect fill="#FEFECE" filter="url(#f1lifui9d2chfz)" height="63.0229" id="Command" style="stroke: #A80036; stroke-width: 1.5;" width="91" x="75.5" y="8"/><ellipse cx="90.5" cy="24" fill="#B4A7E5" rx="11" ry="11" style="stroke: #A80036; stroke-width: 1.0;"/><path d="M87.0938,18.2813 L87.0938,17.875 L93.4063,17.875 L93.4063,18.2813 L90.875,18.2813 Q90.875,18.2813 91.0234,18.4141 Q91.1719,18.5469 91.1719,18.8125 L91.1719,28.2969 Q91.1719,28.5625 91.3906,28.6953 Q91.6094,28.8281 91.6094,28.8281 L93.4063,28.8281 L93.4063,29.2344 L87.0938,29.2344 L87.0938,28.8281 L88.625,28.8281 Q88.9531,28.8281 89.0859,28.6953 Q89.2188,28.5625 89.2188,28.2969 L89.2188,18.8125 Q89.2188,18.5469 89.0859,18.4141 Q88.9531,18.2813 88.625,18.2813 L87.0938,18.2813 Z "/><text fill="#000000" font-family="sans-serif" font-size="12" font-style="italic" lengthAdjust="spacingAndGlyphs" textLength="59" x="104.5" y="29.5576">Command</text><line style="stroke: #A80036; stroke-width: 1.5;" x1="76.5" x2="165.5" y1="40" y2="40"/><line style="stroke: #A80036; stroke-width: 1.5;" x1="76.5" x2="165.5" y1="48" y2="48"/><text fill="#000000" font-family="sans-serif" font-size="11" lengthAdjust="spacingAndGlyphs" textLength="70" x="81.5" y="64.606">void execute()</text><!--class Command1--><rect fill="#FEFECE" filter="url(#f1lifui9d2chfz)" height="48" id="Command1" style="stroke: #A80036; stroke-width: 1.5;" width="98" x="6" y="131"/><ellipse cx="21" cy="147" fill="#ADD1B2" rx="11" ry="11" style="stroke: #A80036; stroke-width: 1.0;"/><path d="M19.5781,152.3594 Q17.7188,152.3594 16.625,150.9688 Q15.5313,149.5781 15.5313,146.5938 Q15.5313,144.0625 16.6953,142.4063 Q17.8594,140.75 19.8438,140.75 Q21.3125,140.75 21.7813,140.875 Q22.25,141.0781 22.25,141.0781 Q22.25,141.0781 22.25,141.0078 Q22.25,140.9375 22.8594,140.0156 L23.9063,143.6719 L22.5781,144.0781 Q22.1094,142.5313 21.4453,141.8672 Q20.7813,141.2031 19.7188,141.2031 Q19.3281,141.2031 18.5625,142.7344 Q17.7969,144.2656 17.7969,146.5156 Q17.7969,148.9844 18.4609,150.375 Q19.125,151.7656 19.6563,151.7656 Q20.7188,151.7656 21.4766,151 Q22.2344,150.2344 22.5781,148.5781 L23.9063,149.1719 Q23.5781,150.5781 22.6797,151.4688 Q21.7813,152.3594 19.5781,152.3594 Z "/><text fill="#000000" font-family="sans-serif" font-size="12" lengthAdjust="spacingAndGlyphs" textLength="66" x="35" y="152.5576">Command1</text><line style="stroke: #A80036; stroke-width: 1.5;" x1="7" x2="103" y1="163" y2="163"/><line style="stroke: #A80036; stroke-width: 1.5;" x1="7" x2="103" y1="171" y2="171"/><!--class Command2--><rect fill="#FEFECE" filter="url(#f1lifui9d2chfz)" height="48" id="Command2" style="stroke: #A80036; stroke-width: 1.5;" width="98" x="139" y="131"/><ellipse cx="154" cy="147" fill="#ADD1B2" rx="11" ry="11" style="stroke: #A80036; stroke-width: 1.0;"/><path d="M152.5781,152.3594 Q150.7188,152.3594 149.625,150.9688 Q148.5313,149.5781 148.5313,146.5938 Q148.5313,144.0625 149.6953,142.4063 Q150.8594,140.75 152.8438,140.75 Q154.3125,140.75 154.7813,140.875 Q155.25,141.0781 155.25,141.0781 Q155.25,141.0781 155.25,141.0078 Q155.25,140.9375 155.8594,140.0156 L156.9063,143.6719 L155.5781,144.0781 Q155.1094,142.5313 154.4453,141.8672 Q153.7813,141.2031 152.7188,141.2031 Q152.3281,141.2031 151.5625,142.7344 Q150.7969,144.2656 150.7969,146.5156 Q150.7969,148.9844 151.4609,150.375 Q152.125,151.7656 152.6563,151.7656 Q153.7188,151.7656 154.4766,151 Q155.2344,150.2344 155.5781,148.5781 L156.9063,149.1719 Q156.5781,150.5781 155.6797,151.4688 Q154.7813,152.3594 152.5781,152.3594 Z "/><text fill="#000000" font-family="sans-serif" font-size="12" lengthAdjust="spacingAndGlyphs" textLength="66" x="168" y="152.5576">Command2</text><line style="stroke: #A80036; stroke-width: 1.5;" x1="140" x2="236" y1="163" y2="163"/><line style="stroke: #A80036; stroke-width: 1.5;" x1="140" x2="236" y1="171" y2="171"/><!--class Subject--><rect fill="#FEFECE" filter="url(#f1lifui9d2chfz)" height="63.0229" id="Subject" style="stroke: #A80036; stroke-width: 1.5;" width="130" x="202" y="8"/><ellipse cx="242.65" cy="24" fill="#ADD1B2" rx="11" ry="11" style="stroke: #A80036; stroke-width: 1.0;"/><path d="M241.2281,29.3594 Q239.3688,29.3594 238.275,27.9688 Q237.1813,26.5781 237.1813,23.5938 Q237.1813,21.0625 238.3453,19.4063 Q239.5094,17.75 241.4938,17.75 Q242.9625,17.75 243.4313,17.875 Q243.9,18.0781 243.9,18.0781 Q243.9,18.0781 243.9,18.0078 Q243.9,17.9375 244.5094,17.0156 L245.5563,20.6719 L244.2281,21.0781 Q243.7594,19.5313 243.0953,18.8672 Q242.4313,18.2031 241.3688,18.2031 Q240.9781,18.2031 240.2125,19.7344 Q239.4469,21.2656 239.4469,23.5156 Q239.4469,25.9844 240.1109,27.375 Q240.775,28.7656 241.3063,28.7656 Q242.3688,28.7656 243.1266,28 Q243.8844,27.2344 244.2281,25.5781 L245.5563,26.1719 Q245.2281,27.5781 244.3297,28.4688 Q243.4313,29.3594 241.2281,29.3594 Z "/><text fill="#000000" font-family="sans-serif" font-size="12" lengthAdjust="spacingAndGlyphs" textLength="41" x="262.35" y="29.5576">Subject</text><line style="stroke: #A80036; stroke-width: 1.5;" x1="203" x2="331" y1="40" y2="40"/><line style="stroke: #A80036; stroke-width: 1.5;" x1="203" x2="331" y1="48" y2="48"/><text fill="#000000" font-family="sans-serif" font-size="11" lengthAdjust="spacingAndGlyphs" textLength="118" x="208" y="64.606">void invoke(Command c)</text><!--reverse link Command to Command1--><path d="M92.8405,88.9257 C84.3916,103.4554 75.5099,118.7291 68.4761,130.8252 " fill="none" id="Command&lt;-Command1" style="stroke: #A80036; stroke-width: 1.0;"/><polygon fill="none" points="87.0344,84.9853,103.1394,71.215,99.137,92.0229,87.0344,84.9853" style="stroke: #A80036; stroke-width: 1.0;"/><!--reverse link Command to Command2--><path d="M149.3,88.4417 C157.962,103.1156 167.1,118.5947 174.32,130.8252 " fill="none" id="Command&lt;-Command2" style="stroke: #A80036; stroke-width: 1.0;"/><polygon fill="none" points="143.27,91.9962,139.131,71.215,155.326,84.8794,143.27,91.9962" style="stroke: #A80036; stroke-width: 1.0;"/><!--reverse link Command to Subject--><path d="M171.863,39.5 C181.88,39.5 191.896,39.5 201.913,39.5 " fill="none" id="Command&lt;-Subject" style="stroke: #A80036; stroke-width: 1.0; stroke-dasharray: 7.0,7.0;"/><polygon fill="#A80036" points="166.625,39.5,175.625,43.5,171.625,39.5,175.625,35.5,166.625,39.5" style="stroke: #A80036; stroke-width: 1.0;"/><!--
@startuml
interface Command {
    void execute()
}
class Command1 extends Command
class Command2 extends Command
class Subject {
    void invoke(Command c)
}
Command <.left. Subject
@enduml

PlantUML version 1.2019.09(Tue Aug 27 00:19:51 CST 2019)
(GPL source distribution)
Java Runtime: Java(TM) SE Runtime Environment
JVM: Java HotSpot(TM) 64-Bit Server VM
Java Version: 1.8.0_231-b11
Operating System: Windows 10
OS Version: 10.0
Default Encoding: GBK
Language: zh
Country: CN
--></g></svg>