<?xml version="1.0" encoding="UTF-8" standalone="no"?><svg xmlns="http://www.w3.org/2000/svg" xmlns:xlink="http://www.w3.org/1999/xlink" contentScriptType="application/ecmascript" contentStyleType="text/css" height="127px" preserveAspectRatio="none" style="width:203px;height:127px;" version="1.1" viewBox="0 0 203 127" width="203px" zoomAndPan="magnify"><defs><filter height="300%" id="fegv0k3tlqtou" width="300%" x="-1" y="-1"><feGaussianBlur result="blurOut" stdDeviation="2.0"/><feColorMatrix in="blurOut" result="blurOut2" type="matrix" values="0 0 0 0 0 0 0 0 0 0 0 0 0 0 0 0 0 0 .4 0"/><feOffset dx="4.0" dy="4.0" in="blurOut2" result="blurOut3"/><feBlend in="SourceGraphic" in2="blurOut3" mode="normal"/></filter></defs><g><!--class Component--><rect fill="#FEFECE" filter="url(#fegv0k3tlqtou)" height="108.0918" id="Component" style="stroke: #A80036; stroke-width: 1.5;" width="150" x="6" y="8"/><ellipse cx="44.85" cy="24" fill="#ADD1B2" rx="11" ry="11" style="stroke: #A80036; stroke-width: 1.0;"/><path d="M43.4281,29.3594 Q41.5688,29.3594 40.475,27.9688 Q39.3813,26.5781 39.3813,23.5938 Q39.3813,21.0625 40.5453,19.4063 Q41.7094,17.75 43.6938,17.75 Q45.1625,17.75 45.6313,17.875 Q46.1,18.0781 46.1,18.0781 Q46.1,18.0781 46.1,18.0078 Q46.1,17.9375 46.7094,17.0156 L47.7563,20.6719 L46.4281,21.0781 Q45.9594,19.5313 45.2953,18.8672 Q44.6313,18.2031 43.5688,18.2031 Q43.1781,18.2031 42.4125,19.7344 Q41.6469,21.2656 41.6469,23.5156 Q41.6469,25.9844 42.3109,27.375 Q42.975,28.7656 43.5063,28.7656 Q44.5688,28.7656 45.3266,28 Q46.0844,27.2344 46.4281,25.5781 L47.7563,26.1719 Q47.4281,27.5781 46.5297,28.4688 Q45.6313,29.3594 43.4281,29.3594 Z "/><text fill="#000000" font-family="sans-serif" font-size="12" lengthAdjust="spacingAndGlyphs" textLength="65" x="64.15" y="29.5576">Component</text><line style="stroke: #A80036; stroke-width: 1.5;" x1="7" x2="155" y1="40" y2="40"/><rect fill="none" height="6" style="stroke: #C82930; stroke-width: 1.0;" width="6" x="14" y="48"/><text fill="#000000" font-family="sans-serif" font-size="11" lengthAdjust="spacingAndGlyphs" textLength="124" x="26" y="56.606">List&lt;Component&gt; children</text><line style="stroke: #A80036; stroke-width: 1.5;" x1="7" x2="155" y1="63.0229" y2="63.0229"/><text fill="#000000" font-family="sans-serif" font-size="11" lengthAdjust="spacingAndGlyphs" textLength="112" x="12" y="79.6289">void add(Component c)</text><text fill="#000000" font-family="sans-serif" font-size="11" lengthAdjust="spacingAndGlyphs" textLength="130" x="12" y="94.6519">void remove(Component c)</text><text fill="#000000" font-family="sans-serif" font-size="11" lengthAdjust="spacingAndGlyphs" textLength="68" x="12" y="109.6748">void operate()</text><!--link Component to Component--><path d="M156.063,41.928 C175.943,43.075 191,49.7656 191,62 C191,71.3669 182.174,77.4843 169.115,80.352 " fill="none" id="Component-&gt;Component" style="stroke: #A80036; stroke-width: 1.0; stroke-dasharray: 7.0,7.0;"/><polygon fill="#FFFFFF" points="156.063,82.072,162.5342,85.2538,167.9601,80.5041,161.4889,77.3223,156.063,82.072" style="stroke: #A80036; stroke-width: 1.0;"/><text fill="#000000" font-family="sans-serif" font-size="13" lengthAdjust="spacingAndGlyphs" textLength="7" x="164.1648" y="81.1975">n</text><!--
@startuml
class Component {
    -List<Component> children
    void add(Component c)
    void remove(Component c)
    void operate()
}
Component ..o "n" Component
@enduml

PlantUML version 1.2019.09(Tue Aug 27 00:19:51 CST 2019)
(GPL source distribution)
Java Runtime: Java(TM) SE Runtime Environment
JVM: Java HotSpot(TM) 64-Bit Server VM
Java Version: 1.8.0_231-b11
Operating System: Windows 10
OS Version: 10.0
Default Encoding: GBK
Language: zh
Country: CN
--></g></svg>