<?xml version="1.0" encoding="UTF-8" standalone="no"?><svg xmlns="http://www.w3.org/2000/svg" xmlns:xlink="http://www.w3.org/1999/xlink" contentScriptType="application/ecmascript" contentStyleType="text/css" height="250px" preserveAspectRatio="none" style="width:282px;height:250px;" version="1.1" viewBox="0 0 282 250" width="282px" zoomAndPan="magnify"><defs><filter height="300%" id="fay5ta0hege4a" width="300%" x="-1" y="-1"><feGaussianBlur result="blurOut" stdDeviation="2.0"/><feColorMatrix in="blurOut" result="blurOut2" type="matrix" values="0 0 0 0 0 0 0 0 0 0 0 0 0 0 0 0 0 0 .4 0"/><feOffset dx="4.0" dy="4.0" in="blurOut2" result="blurOut3"/><feBlend in="SourceGraphic" in2="blurOut3" mode="normal"/></filter></defs><g><!--class Component--><rect fill="#FEFECE" filter="url(#fay5ta0hege4a)" height="63.0229" id="Component" style="stroke: #A80036; stroke-width: 1.5;" width="97" x="32.5" y="8"/><ellipse cx="47.5" cy="24" fill="#B4A7E5" rx="11" ry="11" style="stroke: #A80036; stroke-width: 1.0;"/><path d="M44.0938,18.2813 L44.0938,17.875 L50.4063,17.875 L50.4063,18.2813 L47.875,18.2813 Q47.875,18.2813 48.0234,18.4141 Q48.1719,18.5469 48.1719,18.8125 L48.1719,28.2969 Q48.1719,28.5625 48.3906,28.6953 Q48.6094,28.8281 48.6094,28.8281 L50.4063,28.8281 L50.4063,29.2344 L44.0938,29.2344 L44.0938,28.8281 L45.625,28.8281 Q45.9531,28.8281 46.0859,28.6953 Q46.2188,28.5625 46.2188,28.2969 L46.2188,18.8125 Q46.2188,18.5469 46.0859,18.4141 Q45.9531,18.2813 45.625,18.2813 L44.0938,18.2813 Z "/><text fill="#000000" font-family="sans-serif" font-size="12" font-style="italic" lengthAdjust="spacingAndGlyphs" textLength="65" x="61.5" y="29.5576">Component</text><line style="stroke: #A80036; stroke-width: 1.5;" x1="33.5" x2="128.5" y1="40" y2="40"/><line style="stroke: #A80036; stroke-width: 1.5;" x1="33.5" x2="128.5" y1="48" y2="48"/><text fill="#000000" font-family="sans-serif" font-size="11" lengthAdjust="spacingAndGlyphs" textLength="68" x="38.5" y="64.606">void operate()</text><!--class Composite--><rect fill="#FEFECE" filter="url(#fay5ta0hege4a)" height="108.0918" id="Composite" style="stroke: #A80036; stroke-width: 1.5;" width="150" x="6" y="131"/><ellipse cx="46.65" cy="147" fill="#ADD1B2" rx="11" ry="11" style="stroke: #A80036; stroke-width: 1.0;"/><path d="M45.2281,152.3594 Q43.3688,152.3594 42.275,150.9688 Q41.1813,149.5781 41.1813,146.5938 Q41.1813,144.0625 42.3453,142.4063 Q43.5094,140.75 45.4938,140.75 Q46.9625,140.75 47.4313,140.875 Q47.9,141.0781 47.9,141.0781 Q47.9,141.0781 47.9,141.0078 Q47.9,140.9375 48.5094,140.0156 L49.5563,143.6719 L48.2281,144.0781 Q47.7594,142.5313 47.0953,141.8672 Q46.4313,141.2031 45.3688,141.2031 Q44.9781,141.2031 44.2125,142.7344 Q43.4469,144.2656 43.4469,146.5156 Q43.4469,148.9844 44.1109,150.375 Q44.775,151.7656 45.3063,151.7656 Q46.3688,151.7656 47.1266,151 Q47.8844,150.2344 48.2281,148.5781 L49.5563,149.1719 Q49.2281,150.5781 48.3297,151.4688 Q47.4313,152.3594 45.2281,152.3594 Z "/><text fill="#000000" font-family="sans-serif" font-size="12" lengthAdjust="spacingAndGlyphs" textLength="61" x="66.35" y="152.5576">Composite</text><line style="stroke: #A80036; stroke-width: 1.5;" x1="7" x2="155" y1="163" y2="163"/><rect fill="none" height="6" style="stroke: #C82930; stroke-width: 1.0;" width="6" x="14" y="171"/><text fill="#000000" font-family="sans-serif" font-size="11" lengthAdjust="spacingAndGlyphs" textLength="124" x="26" y="179.606">List&lt;Component&gt; children</text><line style="stroke: #A80036; stroke-width: 1.5;" x1="7" x2="155" y1="186.0229" y2="186.0229"/><text fill="#000000" font-family="sans-serif" font-size="11" lengthAdjust="spacingAndGlyphs" textLength="112" x="12" y="202.6289">void add(Component c)</text><text fill="#000000" font-family="sans-serif" font-size="11" lengthAdjust="spacingAndGlyphs" textLength="130" x="12" y="217.6519">void remove(Component c)</text><text fill="#000000" font-family="sans-serif" font-size="11" lengthAdjust="spacingAndGlyphs" textLength="68" x="12" y="232.6748">void operate()</text><!--class Leaf--><rect fill="#FEFECE" filter="url(#fay5ta0hege4a)" height="63.0229" id="Leaf" style="stroke: #A80036; stroke-width: 1.5;" width="80" x="191" y="153.5"/><ellipse cx="216.8" cy="169.5" fill="#ADD1B2" rx="11" ry="11" style="stroke: #A80036; stroke-width: 1.0;"/><path d="M215.3781,174.8594 Q213.5188,174.8594 212.425,173.4688 Q211.3313,172.0781 211.3313,169.0938 Q211.3313,166.5625 212.4953,164.9063 Q213.6594,163.25 215.6438,163.25 Q217.1125,163.25 217.5813,163.375 Q218.05,163.5781 218.05,163.5781 Q218.05,163.5781 218.05,163.5078 Q218.05,163.4375 218.6594,162.5156 L219.7063,166.1719 L218.3781,166.5781 Q217.9094,165.0313 217.2453,164.3672 Q216.5813,163.7031 215.5188,163.7031 Q215.1281,163.7031 214.3625,165.2344 Q213.5969,166.7656 213.5969,169.0156 Q213.5969,171.4844 214.2609,172.875 Q214.925,174.2656 215.4563,174.2656 Q216.5188,174.2656 217.2766,173.5 Q218.0344,172.7344 218.3781,171.0781 L219.7063,171.6719 Q219.3781,173.0781 218.4797,173.9688 Q217.5813,174.8594 215.3781,174.8594 Z "/><text fill="#000000" font-family="sans-serif" font-size="12" lengthAdjust="spacingAndGlyphs" textLength="24" x="233.2" y="175.0576">Leaf</text><line style="stroke: #A80036; stroke-width: 1.5;" x1="192" x2="270" y1="185.5" y2="185.5"/><line style="stroke: #A80036; stroke-width: 1.5;" x1="192" x2="270" y1="193.5" y2="193.5"/><text fill="#000000" font-family="sans-serif" font-size="11" lengthAdjust="spacingAndGlyphs" textLength="68" x="197" y="210.106">void operate()</text><!--reverse link Component to Composite--><path d="M68.7331,91.565 C68.1205,104.344 68.0905,118.08 68.643,130.952 " fill="none" id="Component&lt;-Composite" style="stroke: #A80036; stroke-width: 1.0; stroke-dasharray: 7.0,7.0;"/><polygon fill="none" points="61.7808,90.68,70.314,71.284,75.7384,91.768,61.7808,90.68" style="stroke: #A80036; stroke-width: 1.0;"/><!--link Component to Composite--><path d="M92.3146,71.284 C93.9495,84.86 94.6671,101.378 94.4674,117.536 " fill="none" id="Component-&gt;Composite" style="stroke: #A80036; stroke-width: 1.0; stroke-dasharray: 7.0,7.0;"/><polygon fill="#FFFFFF" points="94.0838,130.952,98.2536,125.0687,94.4267,118.9569,90.2569,124.8402,94.0838,130.952" style="stroke: #A80036; stroke-width: 1.0;"/><text fill="#000000" font-family="sans-serif" font-size="13" lengthAdjust="spacingAndGlyphs" textLength="7" x="88.4315" y="120.1007">n</text><!--reverse link Component to Leaf--><path d="M127.656,85.134 C150.782,107.258 178.125,133.416 198.874,153.2666 " fill="none" id="Component&lt;-Leaf" style="stroke: #A80036; stroke-width: 1.0; stroke-dasharray: 7.0,7.0;"/><polygon fill="none" points="122.792,90.168,113.179,71.284,132.47,80.052,122.792,90.168" style="stroke: #A80036; stroke-width: 1.0;"/><!--
@startuml
interface Component {
    void operate()
}
class Composite implements Component {
    -List<Component> children
    void add(Component c)
    void remove(Component c)
    void operate()
}
class Leaf implements Component {
    void operate()
}
Component ..o "n" Composite
@enduml

PlantUML version 1.2019.09(Tue Aug 27 00:19:51 CST 2019)
(GPL source distribution)
Java Runtime: Java(TM) SE Runtime Environment
JVM: Java HotSpot(TM) 64-Bit Server VM
Java Version: 1.8.0_231-b11
Operating System: Windows 10
OS Version: 10.0
Default Encoding: GBK
Language: zh
Country: CN
--></g></svg>