<?xml version="1.0" encoding="UTF-8" standalone="no"?><svg xmlns="http://www.w3.org/2000/svg" xmlns:xlink="http://www.w3.org/1999/xlink" contentScriptType="application/ecmascript" contentStyleType="text/css" height="298px" preserveAspectRatio="none" style="width:212px;height:298px;" version="1.1" viewBox="0 0 212 298" width="212px" zoomAndPan="magnify"><defs><filter height="300%" id="f16t0ktkcr7utt" width="300%" x="-1" y="-1"><feGaussianBlur result="blurOut" stdDeviation="2.0"/><feColorMatrix in="blurOut" result="blurOut2" type="matrix" values="0 0 0 0 0 0 0 0 0 0 0 0 0 0 0 0 0 0 .4 0"/><feOffset dx="4.0" dy="4.0" in="blurOut2" result="blurOut3"/><feBlend in="SourceGraphic" in2="blurOut3" mode="normal"/></filter></defs><g><!--class Subject--><rect fill="#FEFECE" filter="url(#f16t0ktkcr7utt)" height="48" id="Subject" style="stroke: #A80036; stroke-width: 1.5;" width="74" x="66" y="131"/><ellipse cx="81" cy="147" fill="#B4A7E5" rx="11" ry="11" style="stroke: #A80036; stroke-width: 1.0;"/><path d="M77.5938,141.2813 L77.5938,140.875 L83.9063,140.875 L83.9063,141.2813 L81.375,141.2813 Q81.375,141.2813 81.5234,141.4141 Q81.6719,141.5469 81.6719,141.8125 L81.6719,151.2969 Q81.6719,151.5625 81.8906,151.6953 Q82.1094,151.8281 82.1094,151.8281 L83.9063,151.8281 L83.9063,152.2344 L77.5938,152.2344 L77.5938,151.8281 L79.125,151.8281 Q79.4531,151.8281 79.5859,151.6953 Q79.7188,151.5625 79.7188,151.2969 L79.7188,141.8125 Q79.7188,141.5469 79.5859,141.4141 Q79.4531,141.2813 79.125,141.2813 L77.5938,141.2813 Z "/><text fill="#000000" font-family="sans-serif" font-size="12" font-style="italic" lengthAdjust="spacingAndGlyphs" textLength="42" x="95" y="152.5576">Subject</text><line style="stroke: #A80036; stroke-width: 1.5;" x1="67" x2="139" y1="163" y2="163"/><line style="stroke: #A80036; stroke-width: 1.5;" x1="67" x2="139" y1="171" y2="171"/><!--class Subject1--><rect fill="#FEFECE" filter="url(#f16t0ktkcr7utt)" height="48" id="Subject1" style="stroke: #A80036; stroke-width: 1.5;" width="80" x="6" y="239"/><ellipse cx="21" cy="255" fill="#ADD1B2" rx="11" ry="11" style="stroke: #A80036; stroke-width: 1.0;"/><path d="M19.5781,260.3594 Q17.7188,260.3594 16.625,258.9688 Q15.5313,257.5781 15.5313,254.5938 Q15.5313,252.0625 16.6953,250.4063 Q17.8594,248.75 19.8438,248.75 Q21.3125,248.75 21.7813,248.875 Q22.25,249.0781 22.25,249.0781 Q22.25,249.0781 22.25,249.0078 Q22.25,248.9375 22.8594,248.0156 L23.9063,251.6719 L22.5781,252.0781 Q22.1094,250.5313 21.4453,249.8672 Q20.7813,249.2031 19.7188,249.2031 Q19.3281,249.2031 18.5625,250.7344 Q17.7969,252.2656 17.7969,254.5156 Q17.7969,256.9844 18.4609,258.375 Q19.125,259.7656 19.6563,259.7656 Q20.7188,259.7656 21.4766,259 Q22.2344,258.2344 22.5781,256.5781 L23.9063,257.1719 Q23.5781,258.5781 22.6797,259.4688 Q21.7813,260.3594 19.5781,260.3594 Z "/><text fill="#000000" font-family="sans-serif" font-size="12" lengthAdjust="spacingAndGlyphs" textLength="48" x="35" y="260.5576">Subject1</text><line style="stroke: #A80036; stroke-width: 1.5;" x1="7" x2="85" y1="271" y2="271"/><line style="stroke: #A80036; stroke-width: 1.5;" x1="7" x2="85" y1="279" y2="279"/><!--class Subject2--><rect fill="#FEFECE" filter="url(#f16t0ktkcr7utt)" height="48" id="Subject2" style="stroke: #A80036; stroke-width: 1.5;" width="80" x="121" y="239"/><ellipse cx="136" cy="255" fill="#ADD1B2" rx="11" ry="11" style="stroke: #A80036; stroke-width: 1.0;"/><path d="M134.5781,260.3594 Q132.7188,260.3594 131.625,258.9688 Q130.5313,257.5781 130.5313,254.5938 Q130.5313,252.0625 131.6953,250.4063 Q132.8594,248.75 134.8438,248.75 Q136.3125,248.75 136.7813,248.875 Q137.25,249.0781 137.25,249.0781 Q137.25,249.0781 137.25,249.0078 Q137.25,248.9375 137.8594,248.0156 L138.9063,251.6719 L137.5781,252.0781 Q137.1094,250.5313 136.4453,249.8672 Q135.7813,249.2031 134.7188,249.2031 Q134.3281,249.2031 133.5625,250.7344 Q132.7969,252.2656 132.7969,254.5156 Q132.7969,256.9844 133.4609,258.375 Q134.125,259.7656 134.6563,259.7656 Q135.7188,259.7656 136.4766,259 Q137.2344,258.2344 137.5781,256.5781 L138.9063,257.1719 Q138.5781,258.5781 137.6797,259.4688 Q136.7813,260.3594 134.5781,260.3594 Z "/><text fill="#000000" font-family="sans-serif" font-size="12" lengthAdjust="spacingAndGlyphs" textLength="48" x="150" y="260.5576">Subject2</text><line style="stroke: #A80036; stroke-width: 1.5;" x1="122" x2="200" y1="271" y2="271"/><line style="stroke: #A80036; stroke-width: 1.5;" x1="122" x2="200" y1="279" y2="279"/><!--class Decorator--><rect fill="#FEFECE" filter="url(#f16t0ktkcr7utt)" height="63.0229" id="Decorator" style="stroke: #A80036; stroke-width: 1.5;" width="100" x="53" y="8"/><ellipse cx="74.3" cy="24" fill="#ADD1B2" rx="11" ry="11" style="stroke: #A80036; stroke-width: 1.0;"/><path d="M72.8781,29.3594 Q71.0188,29.3594 69.925,27.9688 Q68.8313,26.5781 68.8313,23.5938 Q68.8313,21.0625 69.9953,19.4063 Q71.1594,17.75 73.1438,17.75 Q74.6125,17.75 75.0813,17.875 Q75.55,18.0781 75.55,18.0781 Q75.55,18.0781 75.55,18.0078 Q75.55,17.9375 76.1594,17.0156 L77.2063,20.6719 L75.8781,21.0781 Q75.4094,19.5313 74.7453,18.8672 Q74.0813,18.2031 73.0188,18.2031 Q72.6281,18.2031 71.8625,19.7344 Q71.0969,21.2656 71.0969,23.5156 Q71.0969,25.9844 71.7609,27.375 Q72.425,28.7656 72.9563,28.7656 Q74.0188,28.7656 74.7766,28 Q75.5344,27.2344 75.8781,25.5781 L77.2063,26.1719 Q76.8781,27.5781 75.9797,28.4688 Q75.0813,29.3594 72.8781,29.3594 Z "/><text fill="#000000" font-family="sans-serif" font-size="12" lengthAdjust="spacingAndGlyphs" textLength="54" x="89.7" y="29.5576">Decorator</text><line style="stroke: #A80036; stroke-width: 1.5;" x1="54" x2="152" y1="40" y2="40"/><rect fill="none" height="6" style="stroke: #C82930; stroke-width: 1.0;" width="6" x="61" y="48"/><text fill="#000000" font-family="sans-serif" font-size="11" lengthAdjust="spacingAndGlyphs" textLength="74" x="73" y="56.606">Subject subject</text><line style="stroke: #A80036; stroke-width: 1.5;" x1="54" x2="152" y1="63.0229" y2="63.0229"/><!--reverse link Subject to Subject1--><path d="M80.9025,197.0936 C73.3193,211.1958 65.0983,226.4838 58.5409,238.6784 " fill="none" id="Subject&lt;-Subject1" style="stroke: #A80036; stroke-width: 1.0; stroke-dasharray: 7.0,7.0;"/><polygon fill="none" points="74.9945,193.2999,90.6318,179,87.3249,199.9304,74.9945,193.2999" style="stroke: #A80036; stroke-width: 1.0;"/><!--reverse link Subject to Subject2--><path d="M125.222,196.6133 C133.011,210.8479 141.491,226.3452 148.239,238.6784 " fill="none" id="Subject&lt;-Subject2" style="stroke: #A80036; stroke-width: 1.0; stroke-dasharray: 7.0,7.0;"/><polygon fill="none" points="119.045,199.9058,115.585,179,131.326,193.1856,119.045,199.9058" style="stroke: #A80036; stroke-width: 1.0;"/><!--link Decorator to Subject--><path d="M91.5264,71.215 C90.2441,83.39 89.9279,97.606 90.5781,110.788 " fill="none" id="Decorator-&gt;Subject" style="stroke: #A80036; stroke-width: 1.0; stroke-dasharray: 7.0,7.0;"/><polygon fill="none" points="97.5586,110.251,92.4877,130.825,83.6217,111.58,97.5586,110.251" style="stroke: #A80036; stroke-width: 1.0;"/><!--reverse link Decorator to Subject--><path d="M116.197,84.593 C116.964,100.369 116.275,117.52 114.131,130.825 " fill="none" id="Decorator&lt;-Subject" style="stroke: #A80036; stroke-width: 1.0; stroke-dasharray: 7.0,7.0;"/><polygon fill="#FFFFFF" points="115.148,71.215,111.6297,77.5096,116.0869,83.1782,119.6052,76.8836,115.148,71.215" style="stroke: #A80036; stroke-width: 1.0;"/><!--
@startuml
interface Subject
class Subject1 implements Subject
class Subject2 implements Subject
class Decorator {
    -Subject subject
}
Decorator ..|> Subject
Subject .down.o Decorator
@enduml

PlantUML version 1.2019.09(Tue Aug 27 00:19:51 CST 2019)
(GPL source distribution)
Java Runtime: Java(TM) SE Runtime Environment
JVM: Java HotSpot(TM) 64-Bit Server VM
Java Version: 1.8.0_231-b11
Operating System: Windows 10
OS Version: 10.0
Default Encoding: GBK
Language: zh
Country: CN
--></g></svg>