<?xml version="1.0" encoding="UTF-8" standalone="no"?><svg xmlns="http://www.w3.org/2000/svg" xmlns:xlink="http://www.w3.org/1999/xlink" contentScriptType="application/ecmascript" contentStyleType="text/css" height="982px" preserveAspectRatio="none" style="width:868px;height:982px;" version="1.1" viewBox="0 0 868 982" width="868px" zoomAndPan="magnify"><defs><filter height="300%" id="f21s9ns0lba40" width="300%" x="-1" y="-1"><feGaussianBlur result="blurOut" stdDeviation="2.0"/><feColorMatrix in="blurOut" result="blurOut2" type="matrix" values="0 0 0 0 0 0 0 0 0 0 0 0 0 0 0 0 0 0 .4 0"/><feOffset dx="4.0" dy="4.0" in="blurOut2" result="blurOut3"/><feBlend in="SourceGraphic" in2="blurOut3" mode="normal"/></filter></defs><g><!--MD5=[6a545997200b33e2c9563df5a505ed42]
cluster java.util.concurrent--><polygon fill="#FFFFFF" filter="url(#f21s9ns0lba40)" points="237.5,24,380.5,24,387.5,49.1201,710.5,49.1201,710.5,264,237.5,264,237.5,24" style="stroke: #000000; stroke-width: 1.5;"/><line style="stroke: #000000; stroke-width: 1.5;" x1="237.5" x2="387.5" y1="49.1201" y2="49.1201"/><text fill="#000000" font-family="sans-serif" font-size="14" font-weight="bold" lengthAdjust="spacingAndGlyphs" textLength="137" x="241.5" y="42.0439">java.util.concurrent</text><!--MD5=[fbe7cb4dd3e4512a9c9b7459657d78ce]
class java.util.concurrent.Executor--><rect fill="#FEFECE" filter="url(#f21s9ns0lba40)" height="63.0229" id="java.util.concurrent.Executor" style="stroke: #A80036; stroke-width: 1.5;" width="104" x="330.5" y="62"/><ellipse cx="356.3" cy="78" fill="#B4A7E5" rx="11" ry="11" style="stroke: #A80036; stroke-width: 1.0;"/><path d="M352.8938,72.7813 L352.8938,71.6875 L358.8938,71.6875 L358.8938,72.7813 L357.0188,72.7813 Q356.8781,72.7813 356.8156,72.8281 Q356.7688,72.8594 356.7688,72.9688 L356.7688,82.4531 Q356.7688,82.5625 356.8156,82.6094 Q356.8781,82.6406 357.0188,82.6406 L358.8938,82.6406 L358.8938,83.7344 L352.8938,83.7344 L352.8938,82.6406 L354.7688,82.6406 Q354.9563,82.6406 354.9875,82.6094 Q355.0188,82.5781 355.0188,82.4531 L355.0188,72.9688 Q355.0188,72.8438 354.9875,72.8125 Q354.9563,72.7813 354.7688,72.7813 L352.8938,72.7813 Z "/><text fill="#000000" font-family="sans-serif" font-size="12" font-style="italic" lengthAdjust="spacingAndGlyphs" textLength="48" x="372.7" y="83.5576">Executor</text><line style="stroke: #A80036; stroke-width: 1.5;" x1="331.5" x2="433.5" y1="94" y2="94"/><line style="stroke: #A80036; stroke-width: 1.5;" x1="331.5" x2="433.5" y1="102" y2="102"/><text fill="#000000" font-family="sans-serif" font-size="11" lengthAdjust="spacingAndGlyphs" textLength="92" x="336.5" y="118.606">execute(Runnable)</text><!--MD5=[1713c5a57134b21499a98182708bb002]
class java.util.concurrent.ExecutorService--><rect fill="#FEFECE" filter="url(#f21s9ns0lba40)" height="63.0229" id="java.util.concurrent.ExecutorService" style="stroke: #A80036; stroke-width: 1.5;" width="130" x="469.5" y="62"/><ellipse cx="488.55" cy="78" fill="#B4A7E5" rx="11" ry="11" style="stroke: #A80036; stroke-width: 1.0;"/><path d="M485.1438,72.7813 L485.1438,71.6875 L491.1438,71.6875 L491.1438,72.7813 L489.2688,72.7813 Q489.1281,72.7813 489.0656,72.8281 Q489.0188,72.8594 489.0188,72.9688 L489.0188,82.4531 Q489.0188,82.5625 489.0656,82.6094 Q489.1281,82.6406 489.2688,82.6406 L491.1438,82.6406 L491.1438,83.7344 L485.1438,83.7344 L485.1438,82.6406 L487.0188,82.6406 Q487.2063,82.6406 487.2375,82.6094 Q487.2688,82.5781 487.2688,82.4531 L487.2688,72.9688 Q487.2688,72.8438 487.2375,72.8125 Q487.2063,72.7813 487.0188,72.7813 L485.1438,72.7813 Z "/><text fill="#000000" font-family="sans-serif" font-size="12" font-style="italic" lengthAdjust="spacingAndGlyphs" textLength="89" x="503.45" y="83.5576">ExecutorService</text><line style="stroke: #A80036; stroke-width: 1.5;" x1="470.5" x2="598.5" y1="94" y2="94"/><line style="stroke: #A80036; stroke-width: 1.5;" x1="470.5" x2="598.5" y1="102" y2="102"/><text fill="#000000" font-family="sans-serif" font-size="11" lengthAdjust="spacingAndGlyphs" textLength="118" x="475.5" y="118.606">Future submit(Runnable)</text><!--MD5=[e9f88d99d221ed2b718e639a89363737]
class java.util.concurrent.ScheduledExecutorService--><rect fill="#FEFECE" filter="url(#f21s9ns0lba40)" height="63.0229" id="java.util.concurrent.ScheduledExecutorService" style="stroke: #A80036; stroke-width: 1.5;" width="239" x="254" y="185"/><ellipse cx="295.55" cy="201" fill="#B4A7E5" rx="11" ry="11" style="stroke: #A80036; stroke-width: 1.0;"/><path d="M292.1438,195.7813 L292.1438,194.6875 L298.1438,194.6875 L298.1438,195.7813 L296.2688,195.7813 Q296.1281,195.7813 296.0656,195.8281 Q296.0188,195.8594 296.0188,195.9688 L296.0188,205.4531 Q296.0188,205.5625 296.0656,205.6094 Q296.1281,205.6406 296.2688,205.6406 L298.1438,205.6406 L298.1438,206.7344 L292.1438,206.7344 L292.1438,205.6406 L294.0188,205.6406 Q294.2063,205.6406 294.2375,205.6094 Q294.2688,205.5781 294.2688,205.4531 L294.2688,195.9688 Q294.2688,195.8438 294.2375,195.8125 Q294.2063,195.7813 294.0188,195.7813 L292.1438,195.7813 Z "/><text fill="#000000" font-family="sans-serif" font-size="12" font-style="italic" lengthAdjust="spacingAndGlyphs" textLength="148" x="315.45" y="206.5576">ScheduledExecutorService</text><line style="stroke: #A80036; stroke-width: 1.5;" x1="255" x2="492" y1="217" y2="217"/><line style="stroke: #A80036; stroke-width: 1.5;" x1="255" x2="492" y1="225" y2="225"/><text fill="#000000" font-family="sans-serif" font-size="11" lengthAdjust="spacingAndGlyphs" textLength="227" x="260" y="241.606">ScheduledFuture schedule(Runnable,long,time)</text><!--MD5=[b7327a249ef3e45119424c1d352a547a]
class java.util.concurrent.AbstractExecutorService--><rect fill="#FEFECE" filter="url(#f21s9ns0lba40)" height="48" id="java.util.concurrent.AbstractExecutorService" style="stroke: #A80036; stroke-width: 1.5;" width="166" x="528.5" y="192.5"/><ellipse cx="543.5" cy="208.5" fill="#A9DCDF" rx="11" ry="11" style="stroke: #A80036; stroke-width: 1.0;"/><path d="M543.9375,208.9844 L541.5,208.9844 L540.9844,211.2188 Q540.9219,211.5313 540.9219,211.6875 Q540.9219,211.8906 540.9688,212.0156 Q541.0156,212.1406 541.2344,212.1406 L541.7813,212.1406 L541.7813,213.2344 L538.6406,213.2344 L538.6406,212.1406 L539.1719,212.1406 Q539.3125,212.1406 539.4219,212.0625 Q539.5313,211.9688 539.5625,211.7031 L542.2188,201.3281 L543.75,200.8281 L546.3438,211.6719 Q546.4531,211.9531 546.5625,212.0469 Q546.6719,212.1406 546.8125,212.1406 L547.3594,212.1406 L547.3594,213.2344 L543.8125,213.2344 L543.8125,212.1406 L544.4219,212.1406 Q544.5938,212.1406 544.5938,212.125 Q544.6094,212.0938 544.6094,212.0313 Q544.6094,211.8125 544.5625,211.6563 L543.9375,208.9844 Z M539.3594,212.8281 L539.3594,212.8281 Z M540.0313,212.8281 L540.0313,212.8281 Z M544.75,212.8281 L544.75,212.8281 Z M545.875,212.8281 L545.875,212.8281 Z M542.7656,202.8125 L542.8281,202.8125 L541.8125,207.8906 L543.7188,207.8906 L542.7656,202.8125 Z "/><text fill="#000000" font-family="sans-serif" font-size="12" font-style="italic" lengthAdjust="spacingAndGlyphs" textLength="134" x="557.5" y="214.0576">AbstractExecutorService</text><line style="stroke: #A80036; stroke-width: 1.5;" x1="529.5" x2="693.5" y1="224.5" y2="224.5"/><line style="stroke: #A80036; stroke-width: 1.5;" x1="529.5" x2="693.5" y1="232.5" y2="232.5"/><!--MD5=[1a6616551675d80badaa6fe397ceb0aa]
class EventExecutorGroup--><rect fill="#FEFECE" filter="url(#f21s9ns0lba40)" height="78.0459" id="EventExecutorGroup" style="stroke: #A80036; stroke-width: 1.5;" width="153" x="257" y="308"/><ellipse cx="275.6" cy="324" fill="#B4A7E5" rx="11" ry="11" style="stroke: #A80036; stroke-width: 1.0;"/><path d="M272.1938,318.7813 L272.1938,317.6875 L278.1938,317.6875 L278.1938,318.7813 L276.3188,318.7813 Q276.1781,318.7813 276.1156,318.8281 Q276.0688,318.8594 276.0688,318.9688 L276.0688,328.4531 Q276.0688,328.5625 276.1156,328.6094 Q276.1781,328.6406 276.3188,328.6406 L278.1938,328.6406 L278.1938,329.7344 L272.1938,329.7344 L272.1938,328.6406 L274.0688,328.6406 Q274.2563,328.6406 274.2875,328.6094 Q274.3188,328.5781 274.3188,328.4531 L274.3188,318.9688 Q274.3188,318.8438 274.2875,318.8125 Q274.2563,318.7813 274.0688,318.7813 L272.1938,318.7813 Z "/><text fill="#000000" font-family="sans-serif" font-size="12" font-style="italic" lengthAdjust="spacingAndGlyphs" textLength="113" x="290.4" y="329.5576">EventExecutorGroup</text><line style="stroke: #A80036; stroke-width: 1.5;" x1="258" x2="409" y1="340" y2="340"/><line style="stroke: #A80036; stroke-width: 1.5;" x1="258" x2="409" y1="348" y2="348"/><text fill="#000000" font-family="sans-serif" font-size="11" lengthAdjust="spacingAndGlyphs" textLength="141" x="263" y="364.606">Future shutdownGracefully()</text><text fill="#000000" font-family="sans-serif" font-size="11" lengthAdjust="spacingAndGlyphs" textLength="102" x="263" y="379.6289">EventExecutor next()</text><!--MD5=[48043a588e95f4a7241fa35de9142aa2]
class EventExecutor--><rect fill="#FEFECE" filter="url(#f21s9ns0lba40)" height="78.0459" id="EventExecutor" style="stroke: #A80036; stroke-width: 1.5;" width="154" x="449.5" y="308"/><ellipse cx="483.85" cy="324" fill="#B4A7E5" rx="11" ry="11" style="stroke: #A80036; stroke-width: 1.0;"/><path d="M480.4438,318.7813 L480.4438,317.6875 L486.4438,317.6875 L486.4438,318.7813 L484.5688,318.7813 Q484.4281,318.7813 484.3656,318.8281 Q484.3188,318.8594 484.3188,318.9688 L484.3188,328.4531 Q484.3188,328.5625 484.3656,328.6094 Q484.4281,328.6406 484.5688,328.6406 L486.4438,328.6406 L486.4438,329.7344 L480.4438,329.7344 L480.4438,328.6406 L482.3188,328.6406 Q482.5063,328.6406 482.5375,328.6094 Q482.5688,328.5781 482.5688,328.4531 L482.5688,318.9688 Q482.5688,318.8438 482.5375,318.8125 Q482.5063,318.7813 482.3188,318.7813 L480.4438,318.7813 Z "/><text fill="#000000" font-family="sans-serif" font-size="12" font-style="italic" lengthAdjust="spacingAndGlyphs" textLength="79" x="502.15" y="329.5576">EventExecutor</text><line style="stroke: #A80036; stroke-width: 1.5;" x1="450.5" x2="602.5" y1="340" y2="340"/><line style="stroke: #A80036; stroke-width: 1.5;" x1="450.5" x2="602.5" y1="348" y2="348"/><text fill="#000000" font-family="sans-serif" font-size="11" lengthAdjust="spacingAndGlyphs" textLength="142" x="455.5" y="364.606">EventExecutorGroup parent()</text><text fill="#000000" font-family="sans-serif" font-size="11" lengthAdjust="spacingAndGlyphs" textLength="109" x="455.5" y="379.6289">Promise newPromise()</text><!--MD5=[31e6bf576c9aaf5263a966654f33d9c5]
class OrderedEventExecutor--><rect fill="#FEFECE" filter="url(#f21s9ns0lba40)" height="48" id="OrderedEventExecutor" style="stroke: #A80036; stroke-width: 1.5;" width="156" x="450.5" y="569"/><ellipse cx="465.5" cy="585" fill="#B4A7E5" rx="11" ry="11" style="stroke: #A80036; stroke-width: 1.0;"/><path d="M462.0938,579.7813 L462.0938,578.6875 L468.0938,578.6875 L468.0938,579.7813 L466.2188,579.7813 Q466.0781,579.7813 466.0156,579.8281 Q465.9688,579.8594 465.9688,579.9688 L465.9688,589.4531 Q465.9688,589.5625 466.0156,589.6094 Q466.0781,589.6406 466.2188,589.6406 L468.0938,589.6406 L468.0938,590.7344 L462.0938,590.7344 L462.0938,589.6406 L463.9688,589.6406 Q464.1563,589.6406 464.1875,589.6094 Q464.2188,589.5781 464.2188,589.4531 L464.2188,579.9688 Q464.2188,579.8438 464.1875,579.8125 Q464.1563,579.7813 463.9688,579.7813 L462.0938,579.7813 Z "/><text fill="#000000" font-family="sans-serif" font-size="12" font-style="italic" lengthAdjust="spacingAndGlyphs" textLength="124" x="479.5" y="590.5576">OrderedEventExecutor</text><line style="stroke: #A80036; stroke-width: 1.5;" x1="451.5" x2="605.5" y1="601" y2="601"/><line style="stroke: #A80036; stroke-width: 1.5;" x1="451.5" x2="605.5" y1="609" y2="609"/><!--MD5=[182eec8b7b66490e510791b80ab141ac]
class EventLoopGroup--><rect fill="#FEFECE" filter="url(#f21s9ns0lba40)" height="78.0459" id="EventLoopGroup" style="stroke: #A80036; stroke-width: 1.5;" width="169" x="246" y="554"/><ellipse cx="280.8" cy="570" fill="#B4A7E5" rx="11" ry="11" style="stroke: #A80036; stroke-width: 1.0;"/><path d="M277.3938,564.7813 L277.3938,563.6875 L283.3938,563.6875 L283.3938,564.7813 L281.5188,564.7813 Q281.3781,564.7813 281.3156,564.8281 Q281.2688,564.8594 281.2688,564.9688 L281.2688,574.4531 Q281.2688,574.5625 281.3156,574.6094 Q281.3781,574.6406 281.5188,574.6406 L283.3938,574.6406 L283.3938,575.7344 L277.3938,575.7344 L277.3938,574.6406 L279.2688,574.6406 Q279.4563,574.6406 279.4875,574.6094 Q279.5188,574.5781 279.5188,574.4531 L279.5188,564.9688 Q279.5188,564.8438 279.4875,564.8125 Q279.4563,564.7813 279.2688,564.7813 L277.3938,564.7813 Z "/><text fill="#000000" font-family="sans-serif" font-size="12" font-style="italic" lengthAdjust="spacingAndGlyphs" textLength="93" x="299.2" y="575.5576">EventLoopGroup</text><line style="stroke: #A80036; stroke-width: 1.5;" x1="247" x2="414" y1="586" y2="586"/><line style="stroke: #A80036; stroke-width: 1.5;" x1="247" x2="414" y1="594" y2="594"/><text fill="#000000" font-family="sans-serif" font-size="11" lengthAdjust="spacingAndGlyphs" textLength="83" x="252" y="610.606">EventLoop next()</text><text fill="#000000" font-family="sans-serif" font-size="11" lengthAdjust="spacingAndGlyphs" textLength="157" x="252" y="625.6289">ChannelFuture register(Channel)</text><!--MD5=[9ba90c589bbf79465856ab78aa063cc8]
class EventLoop--><rect fill="#FEFECE" filter="url(#f21s9ns0lba40)" height="63.0229" id="EventLoop" style="stroke: #A80036; stroke-width: 1.5;" width="135" x="363" y="692"/><ellipse cx="397.8" cy="708" fill="#B4A7E5" rx="11" ry="11" style="stroke: #A80036; stroke-width: 1.0;"/><path d="M394.3938,702.7813 L394.3938,701.6875 L400.3938,701.6875 L400.3938,702.7813 L398.5188,702.7813 Q398.3781,702.7813 398.3156,702.8281 Q398.2688,702.8594 398.2688,702.9688 L398.2688,712.4531 Q398.2688,712.5625 398.3156,712.6094 Q398.3781,712.6406 398.5188,712.6406 L400.3938,712.6406 L400.3938,713.7344 L394.3938,713.7344 L394.3938,712.6406 L396.2688,712.6406 Q396.4563,712.6406 396.4875,712.6094 Q396.5188,712.5781 396.5188,712.4531 L396.5188,702.9688 Q396.5188,702.8438 396.4875,702.8125 Q396.4563,702.7813 396.2688,702.7813 L394.3938,702.7813 Z "/><text fill="#000000" font-family="sans-serif" font-size="12" font-style="italic" lengthAdjust="spacingAndGlyphs" textLength="59" x="416.2" y="713.5576">EventLoop</text><line style="stroke: #A80036; stroke-width: 1.5;" x1="364" x2="497" y1="724" y2="724"/><line style="stroke: #A80036; stroke-width: 1.5;" x1="364" x2="497" y1="732" y2="732"/><text fill="#000000" font-family="sans-serif" font-size="11" lengthAdjust="spacingAndGlyphs" textLength="123" x="369" y="748.606">EventLoopGroup parent()</text><!--MD5=[d7942c09c4022a06c7cf0fb7e8d3a131]
class NioEventLoop--><rect fill="#FEFECE" filter="url(#f21s9ns0lba40)" height="48" id="NioEventLoop" style="stroke: #A80036; stroke-width: 1.5;" width="109" x="473" y="923"/><ellipse cx="488" cy="939" fill="#ADD1B2" rx="11" ry="11" style="stroke: #A80036; stroke-width: 1.0;"/><path d="M487.4219,944.8594 Q485.3906,944.8594 484.2031,943.3594 Q483.0313,941.8594 483.0313,938.75 Q483.0313,936.1094 484.2813,934.3438 Q485.5313,932.5625 487.6875,932.5625 Q488.2031,932.5625 488.7344,932.7031 Q489.1719,932.8906 489.4219,932.8906 Q489.6094,932.8906 489.7031,932.8594 Q489.7969,932.8125 490.3438,932.0938 L491.1563,936.0625 L490.1094,936.375 Q489.6563,934.875 489.0625,934.2969 Q488.4844,933.7031 487.5625,933.7031 Q486.3906,933.7031 485.6875,935.1094 Q484.9844,936.5 484.9844,938.6719 Q484.9844,941.0625 485.5781,942.3281 Q486.1875,943.5781 487.5,943.5781 Q488.4219,943.5781 489.0938,942.9063 Q489.7656,942.2188 490.0938,940.6406 L491.1406,941.1406 Q490.7344,942.9063 489.75,943.8906 Q488.7656,944.8594 487.4219,944.8594 Z "/><text fill="#000000" font-family="sans-serif" font-size="12" lengthAdjust="spacingAndGlyphs" textLength="77" x="502" y="944.5576">NioEventLoop</text><line style="stroke: #A80036; stroke-width: 1.5;" x1="474" x2="581" y1="955" y2="955"/><line style="stroke: #A80036; stroke-width: 1.5;" x1="474" x2="581" y1="963" y2="963"/><!--MD5=[2834fcf4b40d54a30cbd61c9c42c0179]
class SingleThreadEventLoop--><rect fill="#FEFECE" filter="url(#f21s9ns0lba40)" height="48" id="SingleThreadEventLoop" style="stroke: #A80036; stroke-width: 1.5;" width="165" x="445" y="815"/><ellipse cx="460" cy="831" fill="#A9DCDF" rx="11" ry="11" style="stroke: #A80036; stroke-width: 1.0;"/><path d="M460.4375,831.4844 L458,831.4844 L457.4844,833.7188 Q457.4219,834.0313 457.4219,834.1875 Q457.4219,834.3906 457.4688,834.5156 Q457.5156,834.6406 457.7344,834.6406 L458.2813,834.6406 L458.2813,835.7344 L455.1406,835.7344 L455.1406,834.6406 L455.6719,834.6406 Q455.8125,834.6406 455.9219,834.5625 Q456.0313,834.4688 456.0625,834.2031 L458.7188,823.8281 L460.25,823.3281 L462.8438,834.1719 Q462.9531,834.4531 463.0625,834.5469 Q463.1719,834.6406 463.3125,834.6406 L463.8594,834.6406 L463.8594,835.7344 L460.3125,835.7344 L460.3125,834.6406 L460.9219,834.6406 Q461.0938,834.6406 461.0938,834.625 Q461.1094,834.5938 461.1094,834.5313 Q461.1094,834.3125 461.0625,834.1563 L460.4375,831.4844 Z M455.8594,835.3281 L455.8594,835.3281 Z M456.5313,835.3281 L456.5313,835.3281 Z M461.25,835.3281 L461.25,835.3281 Z M462.375,835.3281 L462.375,835.3281 Z M459.2656,825.3125 L459.3281,825.3125 L458.3125,830.3906 L460.2188,830.3906 L459.2656,825.3125 Z "/><text fill="#000000" font-family="sans-serif" font-size="12" font-style="italic" lengthAdjust="spacingAndGlyphs" textLength="133" x="474" y="836.5576">SingleThreadEventLoop</text><line style="stroke: #A80036; stroke-width: 1.5;" x1="446" x2="609" y1="847" y2="847"/><line style="stroke: #A80036; stroke-width: 1.5;" x1="446" x2="609" y1="855" y2="855"/><!--MD5=[96c3c01045bed13c0cc13f5b81d58a10]
class SingleThreadEventExecutor--><rect fill="#FEFECE" filter="url(#f21s9ns0lba40)" height="48" id="SingleThreadEventExecutor" style="stroke: #A80036; stroke-width: 1.5;" width="185" x="533" y="699.5"/><ellipse cx="548" cy="715.5" fill="#A9DCDF" rx="11" ry="11" style="stroke: #A80036; stroke-width: 1.0;"/><path d="M548.4375,715.9844 L546,715.9844 L545.4844,718.2188 Q545.4219,718.5313 545.4219,718.6875 Q545.4219,718.8906 545.4688,719.0156 Q545.5156,719.1406 545.7344,719.1406 L546.2813,719.1406 L546.2813,720.2344 L543.1406,720.2344 L543.1406,719.1406 L543.6719,719.1406 Q543.8125,719.1406 543.9219,719.0625 Q544.0313,718.9688 544.0625,718.7031 L546.7188,708.3281 L548.25,707.8281 L550.8438,718.6719 Q550.9531,718.9531 551.0625,719.0469 Q551.1719,719.1406 551.3125,719.1406 L551.8594,719.1406 L551.8594,720.2344 L548.3125,720.2344 L548.3125,719.1406 L548.9219,719.1406 Q549.0938,719.1406 549.0938,719.125 Q549.1094,719.0938 549.1094,719.0313 Q549.1094,718.8125 549.0625,718.6563 L548.4375,715.9844 Z M543.8594,719.8281 L543.8594,719.8281 Z M544.5313,719.8281 L544.5313,719.8281 Z M549.25,719.8281 L549.25,719.8281 Z M550.375,719.8281 L550.375,719.8281 Z M547.2656,709.8125 L547.3281,709.8125 L546.3125,714.8906 L548.2188,714.8906 L547.2656,709.8125 Z "/><text fill="#000000" font-family="sans-serif" font-size="12" font-style="italic" lengthAdjust="spacingAndGlyphs" textLength="153" x="562" y="721.0576">SingleThreadEventExecutor</text><line style="stroke: #A80036; stroke-width: 1.5;" x1="534" x2="717" y1="731.5" y2="731.5"/><line style="stroke: #A80036; stroke-width: 1.5;" x1="534" x2="717" y1="739.5" y2="739.5"/><!--MD5=[4e977ab36d9ae709726eb9e2837efbd6]
class AbstractScheduledEventExecutor--><rect fill="#FEFECE" filter="url(#f21s9ns0lba40)" height="48" id="AbstractScheduledEventExecutor" style="stroke: #A80036; stroke-width: 1.5;" width="215" x="642" y="569"/><ellipse cx="657" cy="585" fill="#A9DCDF" rx="11" ry="11" style="stroke: #A80036; stroke-width: 1.0;"/><path d="M657.4375,585.4844 L655,585.4844 L654.4844,587.7188 Q654.4219,588.0313 654.4219,588.1875 Q654.4219,588.3906 654.4688,588.5156 Q654.5156,588.6406 654.7344,588.6406 L655.2813,588.6406 L655.2813,589.7344 L652.1406,589.7344 L652.1406,588.6406 L652.6719,588.6406 Q652.8125,588.6406 652.9219,588.5625 Q653.0313,588.4688 653.0625,588.2031 L655.7188,577.8281 L657.25,577.3281 L659.8438,588.1719 Q659.9531,588.4531 660.0625,588.5469 Q660.1719,588.6406 660.3125,588.6406 L660.8594,588.6406 L660.8594,589.7344 L657.3125,589.7344 L657.3125,588.6406 L657.9219,588.6406 Q658.0938,588.6406 658.0938,588.625 Q658.1094,588.5938 658.1094,588.5313 Q658.1094,588.3125 658.0625,588.1563 L657.4375,585.4844 Z M652.8594,589.3281 L652.8594,589.3281 Z M653.5313,589.3281 L653.5313,589.3281 Z M658.25,589.3281 L658.25,589.3281 Z M659.375,589.3281 L659.375,589.3281 Z M656.2656,579.3125 L656.3281,579.3125 L655.3125,584.3906 L657.2188,584.3906 L656.2656,579.3125 Z "/><text fill="#000000" font-family="sans-serif" font-size="12" font-style="italic" lengthAdjust="spacingAndGlyphs" textLength="183" x="671" y="590.5576">AbstractScheduledEventExecutor</text><line style="stroke: #A80036; stroke-width: 1.5;" x1="643" x2="856" y1="601" y2="601"/><line style="stroke: #A80036; stroke-width: 1.5;" x1="643" x2="856" y1="609" y2="609"/><!--MD5=[238209841564766d337d22f2a12617d3]
class AbstractEventExecutor--><rect fill="#FEFECE" filter="url(#f21s9ns0lba40)" height="48" id="AbstractEventExecutor" style="stroke: #A80036; stroke-width: 1.5;" width="156" x="579.5" y="446"/><ellipse cx="594.5" cy="462" fill="#A9DCDF" rx="11" ry="11" style="stroke: #A80036; stroke-width: 1.0;"/><path d="M594.9375,462.4844 L592.5,462.4844 L591.9844,464.7188 Q591.9219,465.0313 591.9219,465.1875 Q591.9219,465.3906 591.9688,465.5156 Q592.0156,465.6406 592.2344,465.6406 L592.7813,465.6406 L592.7813,466.7344 L589.6406,466.7344 L589.6406,465.6406 L590.1719,465.6406 Q590.3125,465.6406 590.4219,465.5625 Q590.5313,465.4688 590.5625,465.2031 L593.2188,454.8281 L594.75,454.3281 L597.3438,465.1719 Q597.4531,465.4531 597.5625,465.5469 Q597.6719,465.6406 597.8125,465.6406 L598.3594,465.6406 L598.3594,466.7344 L594.8125,466.7344 L594.8125,465.6406 L595.4219,465.6406 Q595.5938,465.6406 595.5938,465.625 Q595.6094,465.5938 595.6094,465.5313 Q595.6094,465.3125 595.5625,465.1563 L594.9375,462.4844 Z M590.3594,466.3281 L590.3594,466.3281 Z M591.0313,466.3281 L591.0313,466.3281 Z M595.75,466.3281 L595.75,466.3281 Z M596.875,466.3281 L596.875,466.3281 Z M593.7656,456.3125 L593.8281,456.3125 L592.8125,461.3906 L594.7188,461.3906 L593.7656,456.3125 Z "/><text fill="#000000" font-family="sans-serif" font-size="12" font-style="italic" lengthAdjust="spacingAndGlyphs" textLength="124" x="608.5" y="467.5576">AbstractEventExecutor</text><line style="stroke: #A80036; stroke-width: 1.5;" x1="580.5" x2="734.5" y1="478" y2="478"/><line style="stroke: #A80036; stroke-width: 1.5;" x1="580.5" x2="734.5" y1="486" y2="486"/><!--MD5=[38573ce85640f8cffb6dc6ff704a07d8]
class NioEventLoopGroup--><rect fill="#FEFECE" filter="url(#f21s9ns0lba40)" height="48" id="NioEventLoopGroup" style="stroke: #A80036; stroke-width: 1.5;" width="143" x="149" y="815"/><ellipse cx="164" cy="831" fill="#ADD1B2" rx="11" ry="11" style="stroke: #A80036; stroke-width: 1.0;"/><path d="M163.4219,836.8594 Q161.3906,836.8594 160.2031,835.3594 Q159.0313,833.8594 159.0313,830.75 Q159.0313,828.1094 160.2813,826.3438 Q161.5313,824.5625 163.6875,824.5625 Q164.2031,824.5625 164.7344,824.7031 Q165.1719,824.8906 165.4219,824.8906 Q165.6094,824.8906 165.7031,824.8594 Q165.7969,824.8125 166.3438,824.0938 L167.1563,828.0625 L166.1094,828.375 Q165.6563,826.875 165.0625,826.2969 Q164.4844,825.7031 163.5625,825.7031 Q162.3906,825.7031 161.6875,827.1094 Q160.9844,828.5 160.9844,830.6719 Q160.9844,833.0625 161.5781,834.3281 Q162.1875,835.5781 163.5,835.5781 Q164.4219,835.5781 165.0938,834.9063 Q165.7656,834.2188 166.0938,832.6406 L167.1406,833.1406 Q166.7344,834.9063 165.75,835.8906 Q164.7656,836.8594 163.4219,836.8594 Z "/><text fill="#000000" font-family="sans-serif" font-size="12" lengthAdjust="spacingAndGlyphs" textLength="111" x="178" y="836.5576">NioEventLoopGroup</text><line style="stroke: #A80036; stroke-width: 1.5;" x1="150" x2="291" y1="847" y2="847"/><line style="stroke: #A80036; stroke-width: 1.5;" x1="150" x2="291" y1="855" y2="855"/><!--MD5=[abb142f99370fcba50b87116001ff014]
class MultithreadEventLoopGroup--><rect fill="#FEFECE" filter="url(#f21s9ns0lba40)" height="48" id="MultithreadEventLoopGroup" style="stroke: #A80036; stroke-width: 1.5;" width="185" x="128" y="699.5"/><ellipse cx="143" cy="715.5" fill="#A9DCDF" rx="11" ry="11" style="stroke: #A80036; stroke-width: 1.0;"/><path d="M143.4375,715.9844 L141,715.9844 L140.4844,718.2188 Q140.4219,718.5313 140.4219,718.6875 Q140.4219,718.8906 140.4688,719.0156 Q140.5156,719.1406 140.7344,719.1406 L141.2813,719.1406 L141.2813,720.2344 L138.1406,720.2344 L138.1406,719.1406 L138.6719,719.1406 Q138.8125,719.1406 138.9219,719.0625 Q139.0313,718.9688 139.0625,718.7031 L141.7188,708.3281 L143.25,707.8281 L145.8438,718.6719 Q145.9531,718.9531 146.0625,719.0469 Q146.1719,719.1406 146.3125,719.1406 L146.8594,719.1406 L146.8594,720.2344 L143.3125,720.2344 L143.3125,719.1406 L143.9219,719.1406 Q144.0938,719.1406 144.0938,719.125 Q144.1094,719.0938 144.1094,719.0313 Q144.1094,718.8125 144.0625,718.6563 L143.4375,715.9844 Z M138.8594,719.8281 L138.8594,719.8281 Z M139.5313,719.8281 L139.5313,719.8281 Z M144.25,719.8281 L144.25,719.8281 Z M145.375,719.8281 L145.375,719.8281 Z M142.2656,709.8125 L142.3281,709.8125 L141.3125,714.8906 L143.2188,714.8906 L142.2656,709.8125 Z "/><text fill="#000000" font-family="sans-serif" font-size="12" font-style="italic" lengthAdjust="spacingAndGlyphs" textLength="153" x="157" y="721.0576">MultithreadEventLoopGroup</text><line style="stroke: #A80036; stroke-width: 1.5;" x1="129" x2="312" y1="731.5" y2="731.5"/><line style="stroke: #A80036; stroke-width: 1.5;" x1="129" x2="312" y1="739.5" y2="739.5"/><!--MD5=[f21b0271d028296fa8f0191ecae2ec4c]
class MultithreadEventExecutorGroup--><rect fill="#FEFECE" filter="url(#f21s9ns0lba40)" height="48" id="MultithreadEventExecutorGroup" style="stroke: #A80036; stroke-width: 1.5;" width="205" x="6" y="569"/><ellipse cx="21" cy="585" fill="#A9DCDF" rx="11" ry="11" style="stroke: #A80036; stroke-width: 1.0;"/><path d="M21.4375,585.4844 L19,585.4844 L18.4844,587.7188 Q18.4219,588.0313 18.4219,588.1875 Q18.4219,588.3906 18.4688,588.5156 Q18.5156,588.6406 18.7344,588.6406 L19.2813,588.6406 L19.2813,589.7344 L16.1406,589.7344 L16.1406,588.6406 L16.6719,588.6406 Q16.8125,588.6406 16.9219,588.5625 Q17.0313,588.4688 17.0625,588.2031 L19.7188,577.8281 L21.25,577.3281 L23.8438,588.1719 Q23.9531,588.4531 24.0625,588.5469 Q24.1719,588.6406 24.3125,588.6406 L24.8594,588.6406 L24.8594,589.7344 L21.3125,589.7344 L21.3125,588.6406 L21.9219,588.6406 Q22.0938,588.6406 22.0938,588.625 Q22.1094,588.5938 22.1094,588.5313 Q22.1094,588.3125 22.0625,588.1563 L21.4375,585.4844 Z M16.8594,589.3281 L16.8594,589.3281 Z M17.5313,589.3281 L17.5313,589.3281 Z M22.25,589.3281 L22.25,589.3281 Z M23.375,589.3281 L23.375,589.3281 Z M20.2656,579.3125 L20.3281,579.3125 L19.3125,584.3906 L21.2188,584.3906 L20.2656,579.3125 Z "/><text fill="#000000" font-family="sans-serif" font-size="12" font-style="italic" lengthAdjust="spacingAndGlyphs" textLength="173" x="35" y="590.5576">MultithreadEventExecutorGroup</text><line style="stroke: #A80036; stroke-width: 1.5;" x1="7" x2="210" y1="601" y2="601"/><line style="stroke: #A80036; stroke-width: 1.5;" x1="7" x2="210" y1="609" y2="609"/><!--MD5=[bd8ab9508fc20592563f54be3fa15d2a]
class AbstractEventExecutorGroup--><rect fill="#FEFECE" filter="url(#f21s9ns0lba40)" height="48" id="AbstractEventExecutorGroup" style="stroke: #A80036; stroke-width: 1.5;" width="190" x="50.5" y="446"/><ellipse cx="65.5" cy="462" fill="#A9DCDF" rx="11" ry="11" style="stroke: #A80036; stroke-width: 1.0;"/><path d="M65.9375,462.4844 L63.5,462.4844 L62.9844,464.7188 Q62.9219,465.0313 62.9219,465.1875 Q62.9219,465.3906 62.9688,465.5156 Q63.0156,465.6406 63.2344,465.6406 L63.7813,465.6406 L63.7813,466.7344 L60.6406,466.7344 L60.6406,465.6406 L61.1719,465.6406 Q61.3125,465.6406 61.4219,465.5625 Q61.5313,465.4688 61.5625,465.2031 L64.2188,454.8281 L65.75,454.3281 L68.3438,465.1719 Q68.4531,465.4531 68.5625,465.5469 Q68.6719,465.6406 68.8125,465.6406 L69.3594,465.6406 L69.3594,466.7344 L65.8125,466.7344 L65.8125,465.6406 L66.4219,465.6406 Q66.5938,465.6406 66.5938,465.625 Q66.6094,465.5938 66.6094,465.5313 Q66.6094,465.3125 66.5625,465.1563 L65.9375,462.4844 Z M61.3594,466.3281 L61.3594,466.3281 Z M62.0313,466.3281 L62.0313,466.3281 Z M66.75,466.3281 L66.75,466.3281 Z M67.875,466.3281 L67.875,466.3281 Z M64.7656,456.3125 L64.8281,456.3125 L63.8125,461.3906 L65.7188,461.3906 L64.7656,456.3125 Z "/><text fill="#000000" font-family="sans-serif" font-size="12" font-style="italic" lengthAdjust="spacingAndGlyphs" textLength="158" x="79.5" y="467.5576">AbstractEventExecutorGroup</text><line style="stroke: #A80036; stroke-width: 1.5;" x1="51.5" x2="239.5" y1="478" y2="478"/><line style="stroke: #A80036; stroke-width: 1.5;" x1="51.5" x2="239.5" y1="486" y2="486"/><!--MD5=[9fabd84d66ec4cbcfc6af86d32e6c1ae]
reverse link java.util.concurrent.Executor to java.util.concurrent.ExecutorService--><path d="M454.799,93.5 C459.675,93.5 464.552,93.5 469.429,93.5 " fill="none" id="java.util.concurrent.Executor&lt;-java.util.concurrent.ExecutorService" style="stroke: #A80036; stroke-width: 1.0;"/><polygon fill="none" points="454.75,100.5,434.75,93.5,454.75,86.5,454.75,100.5" style="stroke: #A80036; stroke-width: 1.0;"/><!--MD5=[57d37649562af0af853f133c47b0da6f]
reverse link java.util.concurrent.ExecutorService to java.util.concurrent.ScheduledExecutorService--><path d="M477.678,137.205 C456.701,152.97 433.37,170.504 414.114,184.976 " fill="none" id="java.util.concurrent.ExecutorService&lt;-java.util.concurrent.ScheduledExecutorService" style="stroke: #A80036; stroke-width: 1.0;"/><polygon fill="none" points="473.679,131.453,493.873,125.033,482.09,142.645,473.679,131.453" style="stroke: #A80036; stroke-width: 1.0;"/><!--MD5=[5b2524bd305e5917e8440ae09a40da23]
reverse link java.util.concurrent.ScheduledExecutorService to EventExecutorGroup--><path d="M357.925,267.534 C353.775,280.865 349.358,295.056 345.437,307.652 " fill="none" id="java.util.concurrent.ScheduledExecutorService&lt;-EventExecutorGroup" style="stroke: #A80036; stroke-width: 1.0;"/><polygon fill="none" points="351.291,265.295,363.919,248.279,364.658,269.456,351.291,265.295" style="stroke: #A80036; stroke-width: 1.0;"/><!--MD5=[b34c1fe538914a51f262a7b7d6e08346]
reverse link EventExecutorGroup to EventExecutor--><path d="M430.198,347 C436.515,347 442.833,347 449.151,347 " fill="none" id="EventExecutorGroup&lt;-EventExecutor" style="stroke: #A80036; stroke-width: 1.0;"/><polygon fill="none" points="430.022,354,410.021,347,430.021,340,430.022,354" style="stroke: #A80036; stroke-width: 1.0;"/><!--MD5=[7fe48e89cb61ddd445e61f72c0a1fa93]
reverse link EventExecutor to OrderedEventExecutor--><path d="M526.977,406.254 C527.404,458.284 528.007,531.825 528.31,568.825 " fill="none" id="EventExecutor&lt;-OrderedEventExecutor" style="stroke: #A80036; stroke-width: 1.0;"/><polygon fill="none" points="519.977,406.182,526.813,386.125,533.976,406.067,519.977,406.182" style="stroke: #A80036; stroke-width: 1.0;"/><!--MD5=[9eb9ffb82ea89ef77e979f3da40e7621]
reverse link EventExecutorGroup to EventLoopGroup--><path d="M332.782,406.423 C332.22,452.084 331.456,514.233 330.97,553.741 " fill="none" id="EventExecutorGroup&lt;-EventLoopGroup" style="stroke: #A80036; stroke-width: 1.0;"/><polygon fill="none" points="325.786,406.037,333.031,386.125,339.785,406.21,325.786,406.037" style="stroke: #A80036; stroke-width: 1.0;"/><!--MD5=[e1d79b5a66b0741000c26aaace1a5a0e]
reverse link EventLoopGroup to EventLoop--><path d="M372.552,648.037 C384.236,663.05 396.513,678.827 406.745,691.975 " fill="none" id="EventLoopGroup&lt;-EventLoop" style="stroke: #A80036; stroke-width: 1.0;"/><polygon fill="none" points="366.991,652.289,360.233,632.206,378.04,643.691,366.991,652.289" style="stroke: #A80036; stroke-width: 1.0;"/><!--MD5=[aaa1f502ca20c8e647a3b8eb3a0839e7]
reverse link OrderedEventExecutor to EventLoop--><path d="M498.518,633.314 C484.223,652.057 467.373,674.151 454.02,691.66 " fill="none" id="OrderedEventExecutor&lt;-EventLoop" style="stroke: #A80036; stroke-width: 1.0;"/><polygon fill="none" points="493.059,628.928,510.753,617.27,504.191,637.418,493.059,628.928" style="stroke: #A80036; stroke-width: 1.0;"/><!--MD5=[739096d8f978839707b149b3e65aaaab]
reverse link SingleThreadEventLoop to NioEventLoop--><path d="M527.5,883.0236 C527.5,896.5792 527.5,911.0381 527.5,922.6784 " fill="none" id="SingleThreadEventLoop&lt;-NioEventLoop" style="stroke: #A80036; stroke-width: 1.0;"/><polygon fill="none" points="520.5,883.0005,527.5,863,534.5,883.0004,520.5,883.0005" style="stroke: #A80036; stroke-width: 1.0;"/><!--MD5=[737475060ce110f96d20e93d6061cd05]
reverse link SingleThreadEventExecutor to SingleThreadEventLoop--><path d="M592.316,762.932 C577.454,780.145 560.417,799.876 547.541,814.789 " fill="none" id="SingleThreadEventExecutor&lt;-SingleThreadEventLoop" style="stroke: #A80036; stroke-width: 1.0;"/><polygon fill="none" points="587.063,758.306,605.432,747.742,597.659,767.455,587.063,758.306" style="stroke: #A80036; stroke-width: 1.0;"/><!--MD5=[369f761534dedd1b7399ccc1315a208a]
reverse link EventLoop to SingleThreadEventLoop--><path d="M469.823,770.512 C482.845,785.748 496.782,802.057 507.694,814.825 " fill="none" id="EventLoop&lt;-SingleThreadEventLoop" style="stroke: #A80036; stroke-width: 1.0; stroke-dasharray: 7.0,7.0;"/><polygon fill="none" points="464.422,774.967,456.75,755.215,475.065,765.871,464.422,774.967" style="stroke: #A80036; stroke-width: 1.0;"/><!--MD5=[f5ed1f2aace80ce32ee4b9c67dd3fa59]
reverse link AbstractScheduledEventExecutor to SingleThreadEventExecutor--><path d="M713,631.825 C691.853,653.739 665.912,680.621 647.788,699.403 " fill="none" id="AbstractScheduledEventExecutor&lt;-SingleThreadEventExecutor" style="stroke: #A80036; stroke-width: 1.0;"/><polygon fill="none" points="708.119,626.802,727.045,617.27,718.194,636.523,708.119,626.802" style="stroke: #A80036; stroke-width: 1.0;"/><!--MD5=[9b5208dc41b27cd93cd576286f02e721]
reverse link OrderedEventExecutor to SingleThreadEventExecutor--><path d="M558.258,633.421 C574.572,655.033 594.23,681.075 608.065,699.403 " fill="none" id="OrderedEventExecutor&lt;-SingleThreadEventExecutor" style="stroke: #A80036; stroke-width: 1.0; stroke-dasharray: 7.0,7.0;"/><polygon fill="none" points="552.529,637.45,546.066,617.27,563.703,629.016,552.529,637.45" style="stroke: #A80036; stroke-width: 1.0;"/><!--MD5=[d2d99a97c8e17c522e71b423e71406ee]
reverse link AbstractEventExecutor to AbstractScheduledEventExecutor--><path d="M687.325,510.226 C701.983,529.505 719.153,552.087 731.731,568.63 " fill="none" id="AbstractEventExecutor&lt;-AbstractScheduledEventExecutor" style="stroke: #A80036; stroke-width: 1.0;"/><polygon fill="none" points="681.554,514.201,675.021,494.044,692.698,505.728,681.554,514.201" style="stroke: #A80036; stroke-width: 1.0;"/><!--MD5=[a3236736c25a026febec219526ac1e16]
reverse link java.util.concurrent.AbstractExecutorService to AbstractEventExecutor--><path d="M619.383,260.6 C629.188,314.206 645.571,403.779 653.265,445.846 " fill="none" id="java.util.concurrent.AbstractExecutorService&lt;-AbstractEventExecutor" style="stroke: #A80036; stroke-width: 1.0;"/><polygon fill="none" points="612.458,261.643,615.745,240.71,626.229,259.124,612.458,261.643" style="stroke: #A80036; stroke-width: 1.0;"/><!--MD5=[04752669caf4c4f729540d038661e602]
reverse link EventExecutor to AbstractEventExecutor--><path d="M582.79,399.993 C600.075,415.959 618.233,432.731 632.319,445.742 " fill="none" id="EventExecutor&lt;-AbstractEventExecutor" style="stroke: #A80036; stroke-width: 1.0; stroke-dasharray: 7.0,7.0;"/><polygon fill="none" points="577.891,404.998,567.949,386.285,587.391,394.713,577.891,404.998" style="stroke: #A80036; stroke-width: 1.0;"/><!--MD5=[1a4e3b357a2d590d68cf67efb94d845b]
reverse link java.util.concurrent.ExecutorService to java.util.concurrent.AbstractExecutorService--><path d="M564.675,141.918 C575.671,159.198 587.619,177.973 596.694,192.233 " fill="none" id="java.util.concurrent.ExecutorService&lt;-java.util.concurrent.AbstractExecutorService" style="stroke: #A80036; stroke-width: 1.0; stroke-dasharray: 7.0,7.0;"/><polygon fill="none" points="558.762,145.665,553.93,125.033,570.574,138.149,558.762,145.665" style="stroke: #A80036; stroke-width: 1.0;"/><!--MD5=[1554eec567ca9bdc3a1d0cad0d3aa0d9]
reverse link MultithreadEventLoopGroup to NioEventLoopGroup--><path d="M220.5,767.757 C220.5,783.747 220.5,801.253 220.5,814.789 " fill="none" id="MultithreadEventLoopGroup&lt;-NioEventLoopGroup" style="stroke: #A80036; stroke-width: 1.0;"/><polygon fill="none" points="213.5,767.742,220.5,747.742,227.5,767.742,213.5,767.742" style="stroke: #A80036; stroke-width: 1.0;"/><!--MD5=[e98cf829bfa33eaf539ec7e74159a58f]
reverse link MultithreadEventExecutorGroup to MultithreadEventLoopGroup--><path d="M142.023,632.461 C161.021,654.258 184.157,680.803 200.369,699.403 " fill="none" id="MultithreadEventExecutorGroup&lt;-MultithreadEventLoopGroup" style="stroke: #A80036; stroke-width: 1.0;"/><polygon fill="none" points="136.646,636.947,128.782,617.27,147.2,627.748,136.646,636.947" style="stroke: #A80036; stroke-width: 1.0;"/><!--MD5=[9f3fa7a5e6fc4f1e38040229f9c6330c]
reverse link EventLoopGroup to MultithreadEventLoopGroup--><path d="M284.633,647.581 C269.226,665.58 252.834,684.728 240.479,699.161 " fill="none" id="EventLoopGroup&lt;-MultithreadEventLoopGroup" style="stroke: #A80036; stroke-width: 1.0; stroke-dasharray: 7.0,7.0;"/><polygon fill="none" points="279.47,642.848,297.794,632.206,290.106,651.952,279.47,642.848" style="stroke: #A80036; stroke-width: 1.0;"/><!--MD5=[151bfd72a64f714ac98cff2bd408382d]
reverse link AbstractEventExecutorGroup to MultithreadEventExecutorGroup--><path d="M132.6,513.186 C126.914,531.782 120.448,552.927 115.646,568.63 " fill="none" id="AbstractEventExecutorGroup&lt;-MultithreadEventExecutorGroup" style="stroke: #A80036; stroke-width: 1.0;"/><polygon fill="none" points="125.911,511.123,138.453,494.044,139.299,515.217,125.911,511.123" style="stroke: #A80036; stroke-width: 1.0;"/><!--MD5=[e50e6885e7a57c42b13ca56642a11b5e]
reverse link EventExecutorGroup to AbstractEventExecutorGroup--><path d="M257.395,396.982 C231.15,413.874 202.972,432.01 181.459,445.856 " fill="none" id="EventExecutorGroup&lt;-AbstractEventExecutorGroup" style="stroke: #A80036; stroke-width: 1.0; stroke-dasharray: 7.0,7.0;"/><polygon fill="none" points="253.667,391.057,274.274,386.119,261.244,402.83,253.667,391.057" style="stroke: #A80036; stroke-width: 1.0;"/><!--MD5=[502a454596790e59e57cafe02ff109df]
@startuml
interface java.util.concurrent.Executor {
    execute(Runnable)
}
interface java.util.concurrent.ExecutorService {
    Future submit(Runnable)
}
java.util.concurrent.ExecutorService -left-|> java.util.concurrent.Executor
interface java.util.concurrent.ScheduledExecutorService extends java.util.concurrent.ExecutorService {
    ScheduledFuture schedule(Runnable,long,time)
}
interface EventExecutorGroup extends java.util.concurrent.ScheduledExecutorService {
    Future shutdownGracefully()
    EventExecutor next()
}
interface EventExecutor {
    EventExecutorGroup parent()
    Promise newPromise()
}
EventExecutor -left-|> EventExecutorGroup
interface OrderedEventExecutor extends EventExecutor
interface EventLoopGroup extends EventExecutorGroup {
    EventLoop next()
    ChannelFuture register(Channel)
}
interface EventLoop extends EventLoopGroup,OrderedEventExecutor {
    EventLoopGroup parent()
}
class NioEventLoop extends SingleThreadEventLoop
abstract class SingleThreadEventLoop extends SingleThreadEventExecutor implements EventLoop
abstract class SingleThreadEventExecutor extends AbstractScheduledEventExecutor implements OrderedEventExecutor
abstract class AbstractScheduledEventExecutor extends AbstractEventExecutor
abstract class AbstractEventExecutor extends java.util.concurrent.AbstractExecutorService implements EventExecutor
abstract class java.util.concurrent.AbstractExecutorService implements java.util.concurrent.ExecutorService
class NioEventLoopGroup extends MultithreadEventLoopGroup
abstract class MultithreadEventLoopGroup extends MultithreadEventExecutorGroup implements EventLoopGroup
abstract class MultithreadEventExecutorGroup extends AbstractEventExecutorGroup
abstract class AbstractEventExecutorGroup implements EventExecutorGroup
@enduml

PlantUML version 1.2020.10(Sun May 17 17:35:57 CST 2020)
(GPL source distribution)
Java Runtime: Java(TM) SE Runtime Environment
JVM: Java HotSpot(TM) 64-Bit Server VM
Java Version: 11.0.6+8-LTS
Operating System: Windows 10
Default Encoding: GBK
Language: zh
Country: CN
--></g></svg>