<?xml version="1.0" encoding="UTF-8" standalone="no"?><svg xmlns="http://www.w3.org/2000/svg" xmlns:xlink="http://www.w3.org/1999/xlink" contentScriptType="application/ecmascript" contentStyleType="text/css" height="175px" preserveAspectRatio="none" style="width:256px;height:175px;" version="1.1" viewBox="0 0 256 175" width="256px" zoomAndPan="magnify"><defs><filter height="300%" id="f1u01sxl5fsgm7" width="300%" x="-1" y="-1"><feGaussianBlur result="blurOut" stdDeviation="2.0"/><feColorMatrix in="blurOut" result="blurOut2" type="matrix" values="0 0 0 0 0 0 0 0 0 0 0 0 0 0 0 0 0 0 .4 0"/><feOffset dx="4.0" dy="4.0" in="blurOut2" result="blurOut3"/><feBlend in="SourceGraphic" in2="blurOut3" mode="normal"/></filter></defs><g><!--class SubSystem1--><rect fill="#FEFECE" filter="url(#f1u01sxl5fsgm7)" height="48" id="SubSystem1" style="stroke: #A80036; stroke-width: 1.5;" width="102" x="6" y="8"/><ellipse cx="21" cy="24" fill="#ADD1B2" rx="11" ry="11" style="stroke: #A80036; stroke-width: 1.0;"/><path d="M19.5781,29.3594 Q17.7188,29.3594 16.625,27.9688 Q15.5313,26.5781 15.5313,23.5938 Q15.5313,21.0625 16.6953,19.4063 Q17.8594,17.75 19.8438,17.75 Q21.3125,17.75 21.7813,17.875 Q22.25,18.0781 22.25,18.0781 Q22.25,18.0781 22.25,18.0078 Q22.25,17.9375 22.8594,17.0156 L23.9063,20.6719 L22.5781,21.0781 Q22.1094,19.5313 21.4453,18.8672 Q20.7813,18.2031 19.7188,18.2031 Q19.3281,18.2031 18.5625,19.7344 Q17.7969,21.2656 17.7969,23.5156 Q17.7969,25.9844 18.4609,27.375 Q19.125,28.7656 19.6563,28.7656 Q20.7188,28.7656 21.4766,28 Q22.2344,27.2344 22.5781,25.5781 L23.9063,26.1719 Q23.5781,27.5781 22.6797,28.4688 Q21.7813,29.3594 19.5781,29.3594 Z "/><text fill="#000000" font-family="sans-serif" font-size="12" lengthAdjust="spacingAndGlyphs" textLength="70" x="35" y="29.5576">SubSystem1</text><line style="stroke: #A80036; stroke-width: 1.5;" x1="7" x2="107" y1="40" y2="40"/><line style="stroke: #A80036; stroke-width: 1.5;" x1="7" x2="107" y1="48" y2="48"/><!--class SubSystem2--><rect fill="#FEFECE" filter="url(#f1u01sxl5fsgm7)" height="48" id="SubSystem2" style="stroke: #A80036; stroke-width: 1.5;" width="102" x="143" y="8"/><ellipse cx="158" cy="24" fill="#ADD1B2" rx="11" ry="11" style="stroke: #A80036; stroke-width: 1.0;"/><path d="M156.5781,29.3594 Q154.7188,29.3594 153.625,27.9688 Q152.5313,26.5781 152.5313,23.5938 Q152.5313,21.0625 153.6953,19.4063 Q154.8594,17.75 156.8438,17.75 Q158.3125,17.75 158.7813,17.875 Q159.25,18.0781 159.25,18.0781 Q159.25,18.0781 159.25,18.0078 Q159.25,17.9375 159.8594,17.0156 L160.9063,20.6719 L159.5781,21.0781 Q159.1094,19.5313 158.4453,18.8672 Q157.7813,18.2031 156.7188,18.2031 Q156.3281,18.2031 155.5625,19.7344 Q154.7969,21.2656 154.7969,23.5156 Q154.7969,25.9844 155.4609,27.375 Q156.125,28.7656 156.6563,28.7656 Q157.7188,28.7656 158.4766,28 Q159.2344,27.2344 159.5781,25.5781 L160.9063,26.1719 Q160.5781,27.5781 159.6797,28.4688 Q158.7813,29.3594 156.5781,29.3594 Z "/><text fill="#000000" font-family="sans-serif" font-size="12" lengthAdjust="spacingAndGlyphs" textLength="70" x="172" y="29.5576">SubSystem2</text><line style="stroke: #A80036; stroke-width: 1.5;" x1="144" x2="244" y1="40" y2="40"/><line style="stroke: #A80036; stroke-width: 1.5;" x1="144" x2="244" y1="48" y2="48"/><!--class Facade--><rect fill="#FEFECE" filter="url(#f1u01sxl5fsgm7)" height="48" id="Facade" style="stroke: #A80036; stroke-width: 1.5;" width="73" x="88.5" y="116"/><ellipse cx="103.5" cy="132" fill="#ADD1B2" rx="11" ry="11" style="stroke: #A80036; stroke-width: 1.0;"/><path d="M102.0781,137.3594 Q100.2188,137.3594 99.125,135.9688 Q98.0313,134.5781 98.0313,131.5938 Q98.0313,129.0625 99.1953,127.4063 Q100.3594,125.75 102.3438,125.75 Q103.8125,125.75 104.2813,125.875 Q104.75,126.0781 104.75,126.0781 Q104.75,126.0781 104.75,126.0078 Q104.75,125.9375 105.3594,125.0156 L106.4063,128.6719 L105.0781,129.0781 Q104.6094,127.5313 103.9453,126.8672 Q103.2813,126.2031 102.2188,126.2031 Q101.8281,126.2031 101.0625,127.7344 Q100.2969,129.2656 100.2969,131.5156 Q100.2969,133.9844 100.9609,135.375 Q101.625,136.7656 102.1563,136.7656 Q103.2188,136.7656 103.9766,136 Q104.7344,135.2344 105.0781,133.5781 L106.4063,134.1719 Q106.0781,135.5781 105.1797,136.4688 Q104.2813,137.3594 102.0781,137.3594 Z "/><text fill="#000000" font-family="sans-serif" font-size="12" lengthAdjust="spacingAndGlyphs" textLength="41" x="117.5" y="137.5576">Facade</text><line style="stroke: #A80036; stroke-width: 1.5;" x1="89.5" x2="160.5" y1="148" y2="148"/><line style="stroke: #A80036; stroke-width: 1.5;" x1="89.5" x2="160.5" y1="156" y2="156"/><!--reverse link SubSystem1 to Facade--><path d="M74.4837,60.254 C85.4911,77.4126 99.5491,99.3265 110.039,115.6784 " fill="none" id="SubSystem1&lt;-Facade" style="stroke: #A80036; stroke-width: 1.0; stroke-dasharray: 7.0,7.0;"/><polygon fill="#A80036" points="71.755,56,73.2481,65.735,74.4549,60.2084,79.9815,61.4152,71.755,56" style="stroke: #A80036; stroke-width: 1.0;"/><!--reverse link SubSystem2 to Facade--><path d="M176.259,60.254 C165.09,77.4126 150.825,99.3265 140.181,115.6784 " fill="none" id="SubSystem2&lt;-Facade" style="stroke: #A80036; stroke-width: 1.0; stroke-dasharray: 7.0,7.0;"/><polygon fill="#A80036" points="179.028,56,170.7648,61.359,176.2995,60.1899,177.4686,65.7246,179.028,56" style="stroke: #A80036; stroke-width: 1.0;"/><!--
@startuml
class SubSystem1
class SubSystem2
class Facade
SubSystem1 <.up. Facade
SubSystem2 <.up. Facade
@enduml

PlantUML version 1.2019.09(Tue Aug 27 00:19:51 CST 2019)
(GPL source distribution)
Java Runtime: Java(TM) SE Runtime Environment
JVM: Java HotSpot(TM) 64-Bit Server VM
Java Version: 1.8.0_231-b11
Operating System: Windows 10
OS Version: 10.0
Default Encoding: GBK
Language: zh
Country: CN
--></g></svg>