<?xml version="1.0" encoding="UTF-8" standalone="no"?><svg xmlns="http://www.w3.org/2000/svg" xmlns:xlink="http://www.w3.org/1999/xlink" contentScriptType="application/ecmascript" contentStyleType="text/css" height="313px" preserveAspectRatio="none" style="width:429px;height:313px;" version="1.1" viewBox="0 0 429 313" width="429px" zoomAndPan="magnify"><defs><filter height="300%" id="f1bkoc2vm0dbwt" width="300%" x="-1" y="-1"><feGaussianBlur result="blurOut" stdDeviation="2.0"/><feColorMatrix in="blurOut" result="blurOut2" type="matrix" values="0 0 0 0 0 0 0 0 0 0 0 0 0 0 0 0 0 0 .4 0"/><feOffset dx="4.0" dy="4.0" in="blurOut2" result="blurOut3"/><feBlend in="SourceGraphic" in2="blurOut3" mode="normal"/></filter></defs><g><!--class Product--><rect fill="#FEFECE" filter="url(#f1bkoc2vm0dbwt)" height="48" id="Product" style="stroke: #A80036; stroke-width: 1.5;" width="74" x="175" y="138.5"/><ellipse cx="190" cy="154.5" fill="#B4A7E5" rx="11" ry="11" style="stroke: #A80036; stroke-width: 1.0;"/><path d="M186.5938,148.7813 L186.5938,148.375 L192.9063,148.375 L192.9063,148.7813 L190.375,148.7813 Q190.375,148.7813 190.5234,148.9141 Q190.6719,149.0469 190.6719,149.3125 L190.6719,158.7969 Q190.6719,159.0625 190.8906,159.1953 Q191.1094,159.3281 191.1094,159.3281 L192.9063,159.3281 L192.9063,159.7344 L186.5938,159.7344 L186.5938,159.3281 L188.125,159.3281 Q188.4531,159.3281 188.5859,159.1953 Q188.7188,159.0625 188.7188,158.7969 L188.7188,149.3125 Q188.7188,149.0469 188.5859,148.9141 Q188.4531,148.7813 188.125,148.7813 L186.5938,148.7813 Z "/><text fill="#000000" font-family="sans-serif" font-size="12" font-style="italic" lengthAdjust="spacingAndGlyphs" textLength="42" x="204" y="160.0576">Product</text><line style="stroke: #A80036; stroke-width: 1.5;" x1="176" x2="248" y1="170.5" y2="170.5"/><line style="stroke: #A80036; stroke-width: 1.5;" x1="176" x2="248" y1="178.5" y2="178.5"/><!--class Product1--><rect fill="#FEFECE" filter="url(#f1bkoc2vm0dbwt)" height="48" id="Product1" style="stroke: #A80036; stroke-width: 1.5;" width="81" x="43.5" y="254"/><ellipse cx="58.5" cy="270" fill="#ADD1B2" rx="11" ry="11" style="stroke: #A80036; stroke-width: 1.0;"/><path d="M57.0781,275.3594 Q55.2188,275.3594 54.125,273.9688 Q53.0313,272.5781 53.0313,269.5938 Q53.0313,267.0625 54.1953,265.4063 Q55.3594,263.75 57.3438,263.75 Q58.8125,263.75 59.2813,263.875 Q59.75,264.0781 59.75,264.0781 Q59.75,264.0781 59.75,264.0078 Q59.75,263.9375 60.3594,263.0156 L61.4063,266.6719 L60.0781,267.0781 Q59.6094,265.5313 58.9453,264.8672 Q58.2813,264.2031 57.2188,264.2031 Q56.8281,264.2031 56.0625,265.7344 Q55.2969,267.2656 55.2969,269.5156 Q55.2969,271.9844 55.9609,273.375 Q56.625,274.7656 57.1563,274.7656 Q58.2188,274.7656 58.9766,274 Q59.7344,273.2344 60.0781,271.5781 L61.4063,272.1719 Q61.0781,273.5781 60.1797,274.4688 Q59.2813,275.3594 57.0781,275.3594 Z "/><text fill="#000000" font-family="sans-serif" font-size="12" lengthAdjust="spacingAndGlyphs" textLength="49" x="72.5" y="275.5576">Product1</text><line style="stroke: #A80036; stroke-width: 1.5;" x1="44.5" x2="123.5" y1="286" y2="286"/><line style="stroke: #A80036; stroke-width: 1.5;" x1="44.5" x2="123.5" y1="294" y2="294"/><!--class Product2--><rect fill="#FEFECE" filter="url(#f1bkoc2vm0dbwt)" height="48" id="Product2" style="stroke: #A80036; stroke-width: 1.5;" width="81" x="240.5" y="254"/><ellipse cx="255.5" cy="270" fill="#ADD1B2" rx="11" ry="11" style="stroke: #A80036; stroke-width: 1.0;"/><path d="M254.0781,275.3594 Q252.2188,275.3594 251.125,273.9688 Q250.0313,272.5781 250.0313,269.5938 Q250.0313,267.0625 251.1953,265.4063 Q252.3594,263.75 254.3438,263.75 Q255.8125,263.75 256.2813,263.875 Q256.75,264.0781 256.75,264.0781 Q256.75,264.0781 256.75,264.0078 Q256.75,263.9375 257.3594,263.0156 L258.4063,266.6719 L257.0781,267.0781 Q256.6094,265.5313 255.9453,264.8672 Q255.2813,264.2031 254.2188,264.2031 Q253.8281,264.2031 253.0625,265.7344 Q252.2969,267.2656 252.2969,269.5156 Q252.2969,271.9844 252.9609,273.375 Q253.625,274.7656 254.1563,274.7656 Q255.2188,274.7656 255.9766,274 Q256.7344,273.2344 257.0781,271.5781 L258.4063,272.1719 Q258.0781,273.5781 257.1797,274.4688 Q256.2813,275.3594 254.0781,275.3594 Z "/><text fill="#000000" font-family="sans-serif" font-size="12" lengthAdjust="spacingAndGlyphs" textLength="49" x="269.5" y="275.5576">Product2</text><line style="stroke: #A80036; stroke-width: 1.5;" x1="241.5" x2="320.5" y1="286" y2="286"/><line style="stroke: #A80036; stroke-width: 1.5;" x1="241.5" x2="320.5" y1="294" y2="294"/><!--class Factory--><rect fill="#FEFECE" filter="url(#f1bkoc2vm0dbwt)" height="63.0229" id="Factory" style="stroke: #A80036; stroke-width: 1.5;" width="128" x="148" y="8"/><ellipse cx="188.2" cy="24" fill="#B4A7E5" rx="11" ry="11" style="stroke: #A80036; stroke-width: 1.0;"/><path d="M184.7938,18.2813 L184.7938,17.875 L191.1063,17.875 L191.1063,18.2813 L188.575,18.2813 Q188.575,18.2813 188.7234,18.4141 Q188.8719,18.5469 188.8719,18.8125 L188.8719,28.2969 Q188.8719,28.5625 189.0906,28.6953 Q189.3094,28.8281 189.3094,28.8281 L191.1063,28.8281 L191.1063,29.2344 L184.7938,29.2344 L184.7938,28.8281 L186.325,28.8281 Q186.6531,28.8281 186.7859,28.6953 Q186.9188,28.5625 186.9188,28.2969 L186.9188,18.8125 Q186.9188,18.5469 186.7859,18.4141 Q186.6531,18.2813 186.325,18.2813 L184.7938,18.2813 Z "/><text fill="#000000" font-family="sans-serif" font-size="12" font-style="italic" lengthAdjust="spacingAndGlyphs" textLength="40" x="207.8" y="29.5576">Factory</text><line style="stroke: #A80036; stroke-width: 1.5;" x1="149" x2="275" y1="40" y2="40"/><line style="stroke: #A80036; stroke-width: 1.5;" x1="149" x2="275" y1="48" y2="48"/><text fill="#000000" font-family="sans-serif" font-size="11" lengthAdjust="spacingAndGlyphs" textLength="116" x="154" y="64.606">Product createProduct()</text><!--class Factory1--><rect fill="#FEFECE" filter="url(#f1bkoc2vm0dbwt)" height="63.0229" id="Factory1" style="stroke: #A80036; stroke-width: 1.5;" width="134" x="6" y="131"/><ellipse cx="46.2" cy="147" fill="#ADD1B2" rx="11" ry="11" style="stroke: #A80036; stroke-width: 1.0;"/><path d="M44.7781,152.3594 Q42.9188,152.3594 41.825,150.9688 Q40.7313,149.5781 40.7313,146.5938 Q40.7313,144.0625 41.8953,142.4063 Q43.0594,140.75 45.0438,140.75 Q46.5125,140.75 46.9813,140.875 Q47.45,141.0781 47.45,141.0781 Q47.45,141.0781 47.45,141.0078 Q47.45,140.9375 48.0594,140.0156 L49.1063,143.6719 L47.7781,144.0781 Q47.3094,142.5313 46.6453,141.8672 Q45.9813,141.2031 44.9188,141.2031 Q44.5281,141.2031 43.7625,142.7344 Q42.9969,144.2656 42.9969,146.5156 Q42.9969,148.9844 43.6609,150.375 Q44.325,151.7656 44.8563,151.7656 Q45.9188,151.7656 46.6766,151 Q47.4344,150.2344 47.7781,148.5781 L49.1063,149.1719 Q48.7781,150.5781 47.8797,151.4688 Q46.9813,152.3594 44.7781,152.3594 Z "/><text fill="#000000" font-family="sans-serif" font-size="12" lengthAdjust="spacingAndGlyphs" textLength="46" x="65.8" y="152.5576">Factory1</text><line style="stroke: #A80036; stroke-width: 1.5;" x1="7" x2="139" y1="163" y2="163"/><line style="stroke: #A80036; stroke-width: 1.5;" x1="7" x2="139" y1="171" y2="171"/><text fill="#000000" font-family="sans-serif" font-size="11" lengthAdjust="spacingAndGlyphs" textLength="122" x="12" y="187.606">Product1 createProduct()</text><!--class Factory2--><rect fill="#FEFECE" filter="url(#f1bkoc2vm0dbwt)" height="63.0229" id="Factory2" style="stroke: #A80036; stroke-width: 1.5;" width="134" x="284" y="131"/><ellipse cx="324.2" cy="147" fill="#ADD1B2" rx="11" ry="11" style="stroke: #A80036; stroke-width: 1.0;"/><path d="M322.7781,152.3594 Q320.9188,152.3594 319.825,150.9688 Q318.7313,149.5781 318.7313,146.5938 Q318.7313,144.0625 319.8953,142.4063 Q321.0594,140.75 323.0438,140.75 Q324.5125,140.75 324.9813,140.875 Q325.45,141.0781 325.45,141.0781 Q325.45,141.0781 325.45,141.0078 Q325.45,140.9375 326.0594,140.0156 L327.1063,143.6719 L325.7781,144.0781 Q325.3094,142.5313 324.6453,141.8672 Q323.9813,141.2031 322.9188,141.2031 Q322.5281,141.2031 321.7625,142.7344 Q320.9969,144.2656 320.9969,146.5156 Q320.9969,148.9844 321.6609,150.375 Q322.325,151.7656 322.8563,151.7656 Q323.9188,151.7656 324.6766,151 Q325.4344,150.2344 325.7781,148.5781 L327.1063,149.1719 Q326.7781,150.5781 325.8797,151.4688 Q324.9813,152.3594 322.7781,152.3594 Z "/><text fill="#000000" font-family="sans-serif" font-size="12" lengthAdjust="spacingAndGlyphs" textLength="46" x="343.8" y="152.5576">Factory2</text><line style="stroke: #A80036; stroke-width: 1.5;" x1="285" x2="417" y1="163" y2="163"/><line style="stroke: #A80036; stroke-width: 1.5;" x1="285" x2="417" y1="171" y2="171"/><text fill="#000000" font-family="sans-serif" font-size="11" lengthAdjust="spacingAndGlyphs" textLength="122" x="290" y="187.606">Product2 createProduct()</text><!--reverse link Product to Product1--><path d="M170.737,200.088 C150.851,217.7221 127.598,238.3409 110.177,253.7888 " fill="none" id="Product&lt;-Product1" style="stroke: #A80036; stroke-width: 1.0; stroke-dasharray: 7.0,7.0;"/><polygon fill="none" points="166.18,194.774,185.788,186.742,175.468,205.249,166.18,194.774" style="stroke: #A80036; stroke-width: 1.0;"/><!--reverse link Product to Product2--><path d="M236.659,204.0627 C246.807,220.7558 258.195,239.488 266.889,253.7888 " fill="none" id="Product&lt;-Product2" style="stroke: #A80036; stroke-width: 1.0; stroke-dasharray: 7.0,7.0;"/><polygon fill="none" points="230.538,207.4684,226.13,186.742,242.501,200.196,230.538,207.4684" style="stroke: #A80036; stroke-width: 1.0;"/><!--reverse link Factory to Factory1--><path d="M161.594,84.379 C143.837,99.836 124.278,116.862 108.064,130.976 " fill="none" id="Factory&lt;-Factory1" style="stroke: #A80036; stroke-width: 1.0; stroke-dasharray: 7.0,7.0;"/><polygon fill="none" points="157.243,78.885,176.924,71.033,166.435,89.445,157.243,78.885" style="stroke: #A80036; stroke-width: 1.0;"/><!--reverse link Factory to Factory2--><path d="M262.406,84.379 C280.163,99.836 299.722,116.862 315.936,130.976 " fill="none" id="Factory&lt;-Factory2" style="stroke: #A80036; stroke-width: 1.0; stroke-dasharray: 7.0,7.0;"/><polygon fill="none" points="257.565,89.445,247.076,71.033,266.757,78.885,257.565,89.445" style="stroke: #A80036; stroke-width: 1.0;"/><!--link Factory1 to Product1--><path d="M75.9768,194.215 C77.6259,211.2308 79.6614,232.2338 81.2695,248.8266 " fill="none" id="Factory1-&gt;Product1" style="stroke: #A80036; stroke-width: 1.0; stroke-dasharray: 7.0,7.0;"/><polygon fill="#A80036" points="81.754,253.8252,84.867,244.4813,81.2716,248.8485,76.9043,245.2531,81.754,253.8252" style="stroke: #A80036; stroke-width: 1.0;"/><!--link Factory2 to Product2--><path d="M332.057,194.215 C321.472,211.3774 308.386,232.5962 298.112,249.2547 " fill="none" id="Factory2-&gt;Product2" style="stroke: #A80036; stroke-width: 1.0; stroke-dasharray: 7.0,7.0;"/><polygon fill="#A80036" points="295.293,253.8252,303.422,248.2647,297.9177,249.5695,296.6129,244.0652,295.293,253.8252" style="stroke: #A80036; stroke-width: 1.0;"/><!--
@startuml
interface Product
class Product1 implements Product
class Product2 implements Product
interface Factory {
    Product createProduct()
}
class Factory1 implements Factory {
    Product1 createProduct()
}
class Factory2 implements Factory {
    Product2 createProduct()
}
Factory1 ..> Product1
Factory2 ..> Product2
@enduml

PlantUML version 1.2019.09(Tue Aug 27 00:19:51 CST 2019)
(GPL source distribution)
Java Runtime: Java(TM) SE Runtime Environment
JVM: Java HotSpot(TM) 64-Bit Server VM
Java Version: 1.8.0_231-b11
Operating System: Windows 10
OS Version: 10.0
Default Encoding: GBK
Language: zh
Country: CN
--></g></svg>