<?xml version="1.0" encoding="UTF-8" standalone="no"?><svg xmlns="http://www.w3.org/2000/svg" xmlns:xlink="http://www.w3.org/1999/xlink" contentScriptType="application/ecmascript" contentStyleType="text/css" height="285px" preserveAspectRatio="none" style="width:173px;height:285px;" version="1.1" viewBox="0 0 173 285" width="173px" zoomAndPan="magnify"><defs><filter height="300%" id="fgfbyft4losbw" width="300%" x="-1" y="-1"><feGaussianBlur result="blurOut" stdDeviation="2.0"/><feColorMatrix in="blurOut" result="blurOut2" type="matrix" values="0 0 0 0 0 0 0 0 0 0 0 0 0 0 0 0 0 0 .4 0"/><feOffset dx="4.0" dy="4.0" in="blurOut2" result="blurOut3"/><feBlend in="SourceGraphic" in2="blurOut3" mode="normal"/></filter></defs><g><!--MD5=[d7f82778a20fd9344b946fccab09f26f]
class Flux--><rect codeLine="1" fill="#FEFECE" filter="url(#fgfbyft4losbw)" height="48" id="Flux" style="stroke: #A80036; stroke-width: 1.5;" width="55" x="7" y="223"/><ellipse cx="22" cy="239" fill="#A9DCDF" rx="11" ry="11" style="stroke: #A80036; stroke-width: 1.0;"/><path d="M22.4375,239.4844 L20,239.4844 L19.4844,241.7188 Q19.4219,242.0313 19.4219,242.1875 Q19.4219,242.3906 19.4688,242.5156 Q19.5156,242.6406 19.7344,242.6406 L20.2813,242.6406 L20.2813,243.7344 L17.1406,243.7344 L17.1406,242.6406 L17.6719,242.6406 Q17.8125,242.6406 17.9219,242.5625 Q18.0313,242.4688 18.0625,242.2031 L20.7188,231.8281 L22.25,231.3281 L24.8438,242.1719 Q24.9531,242.4531 25.0625,242.5469 Q25.1719,242.6406 25.3125,242.6406 L25.8594,242.6406 L25.8594,243.7344 L22.3125,243.7344 L22.3125,242.6406 L22.9219,242.6406 Q23.0938,242.6406 23.0938,242.625 Q23.1094,242.5938 23.1094,242.5313 Q23.1094,242.3125 23.0625,242.1563 L22.4375,239.4844 Z M17.8594,243.3281 L17.8594,243.3281 Z M18.5313,243.3281 L18.5313,243.3281 Z M23.25,243.3281 L23.25,243.3281 Z M24.375,243.3281 L24.375,243.3281 Z M21.2656,233.3125 L21.3281,233.3125 L20.3125,238.3906 L22.2188,238.3906 L21.2656,233.3125 Z "/><text fill="#000000" font-family="sans-serif" font-size="12" font-style="italic" lengthAdjust="spacingAndGlyphs" textLength="23" x="36" y="244.5576">Flux</text><line style="stroke: #A80036; stroke-width: 1.5;" x1="8" x2="61" y1="255" y2="255"/><line style="stroke: #A80036; stroke-width: 1.5;" x1="8" x2="61" y1="263" y2="263"/><!--MD5=[91b63b16cd1d918812fa754d2947c42b]
class CorePublisher--><rect codeLine="3" fill="#FEFECE" filter="url(#fgfbyft4losbw)" height="48" id="CorePublisher" style="stroke: #A80036; stroke-width: 1.5;" width="112" x="25.5" y="115"/><ellipse cx="40.5" cy="131" fill="#B4A7E5" rx="11" ry="11" style="stroke: #A80036; stroke-width: 1.0;"/><path d="M37.0938,125.7813 L37.0938,124.6875 L43.0938,124.6875 L43.0938,125.7813 L41.2188,125.7813 Q41.0781,125.7813 41.0156,125.8281 Q40.9688,125.8594 40.9688,125.9688 L40.9688,135.4531 Q40.9688,135.5625 41.0156,135.6094 Q41.0781,135.6406 41.2188,135.6406 L43.0938,135.6406 L43.0938,136.7344 L37.0938,136.7344 L37.0938,135.6406 L38.9688,135.6406 Q39.1563,135.6406 39.1875,135.6094 Q39.2188,135.5781 39.2188,135.4531 L39.2188,125.9688 Q39.2188,125.8438 39.1875,125.8125 Q39.1563,125.7813 38.9688,125.7813 L37.0938,125.7813 Z "/><text fill="#000000" font-family="sans-serif" font-size="12" font-style="italic" lengthAdjust="spacingAndGlyphs" textLength="80" x="54.5" y="136.5576">CorePublisher</text><line style="stroke: #A80036; stroke-width: 1.5;" x1="26.5" x2="136.5" y1="147" y2="147"/><line style="stroke: #A80036; stroke-width: 1.5;" x1="26.5" x2="136.5" y1="155" y2="155"/><!--MD5=[e3ea8b577dcad0c0fd1a918e8a2f39ea]
class Mono--><rect codeLine="2" fill="#FEFECE" filter="url(#fgfbyft4losbw)" height="48" id="Mono" style="stroke: #A80036; stroke-width: 1.5;" width="62" x="97.5" y="223"/><ellipse cx="112.5" cy="239" fill="#A9DCDF" rx="11" ry="11" style="stroke: #A80036; stroke-width: 1.0;"/><path d="M112.9375,239.4844 L110.5,239.4844 L109.9844,241.7188 Q109.9219,242.0313 109.9219,242.1875 Q109.9219,242.3906 109.9688,242.5156 Q110.0156,242.6406 110.2344,242.6406 L110.7813,242.6406 L110.7813,243.7344 L107.6406,243.7344 L107.6406,242.6406 L108.1719,242.6406 Q108.3125,242.6406 108.4219,242.5625 Q108.5313,242.4688 108.5625,242.2031 L111.2188,231.8281 L112.75,231.3281 L115.3438,242.1719 Q115.4531,242.4531 115.5625,242.5469 Q115.6719,242.6406 115.8125,242.6406 L116.3594,242.6406 L116.3594,243.7344 L112.8125,243.7344 L112.8125,242.6406 L113.4219,242.6406 Q113.5938,242.6406 113.5938,242.625 Q113.6094,242.5938 113.6094,242.5313 Q113.6094,242.3125 113.5625,242.1563 L112.9375,239.4844 Z M108.3594,243.3281 L108.3594,243.3281 Z M109.0313,243.3281 L109.0313,243.3281 Z M113.75,243.3281 L113.75,243.3281 Z M114.875,243.3281 L114.875,243.3281 Z M111.7656,233.3125 L111.8281,233.3125 L110.8125,238.3906 L112.7188,238.3906 L111.7656,233.3125 Z "/><text fill="#000000" font-family="sans-serif" font-size="12" font-style="italic" lengthAdjust="spacingAndGlyphs" textLength="30" x="126.5" y="244.5576">Mono</text><line style="stroke: #A80036; stroke-width: 1.5;" x1="98.5" x2="158.5" y1="255" y2="255"/><line style="stroke: #A80036; stroke-width: 1.5;" x1="98.5" x2="158.5" y1="263" y2="263"/><!--MD5=[13fb849c6dfc9273db4c5b2c7ac96a10]
class Publisher--><rect fill="#FEFECE" filter="url(#fgfbyft4losbw)" height="48" id="Publisher" style="stroke: #A80036; stroke-width: 1.5;" width="85" x="39" y="7"/><ellipse cx="54" cy="23" fill="#B4A7E5" rx="11" ry="11" style="stroke: #A80036; stroke-width: 1.0;"/><path d="M50.5938,17.7813 L50.5938,16.6875 L56.5938,16.6875 L56.5938,17.7813 L54.7188,17.7813 Q54.5781,17.7813 54.5156,17.8281 Q54.4688,17.8594 54.4688,17.9688 L54.4688,27.4531 Q54.4688,27.5625 54.5156,27.6094 Q54.5781,27.6406 54.7188,27.6406 L56.5938,27.6406 L56.5938,28.7344 L50.5938,28.7344 L50.5938,27.6406 L52.4688,27.6406 Q52.6563,27.6406 52.6875,27.6094 Q52.7188,27.5781 52.7188,27.4531 L52.7188,17.9688 Q52.7188,17.8438 52.6875,17.8125 Q52.6563,17.7813 52.4688,17.7813 L50.5938,17.7813 Z "/><text fill="#000000" font-family="sans-serif" font-size="12" font-style="italic" lengthAdjust="spacingAndGlyphs" textLength="53" x="68" y="28.5576">Publisher</text><line style="stroke: #A80036; stroke-width: 1.5;" x1="40" x2="123" y1="39" y2="39"/><line style="stroke: #A80036; stroke-width: 1.5;" x1="40" x2="123" y1="47" y2="47"/><!--MD5=[9c65644d5c2f58cb0dc1f8d05bfb4f68]
reverse link CorePublisher to Flux--><path d="M63.0659,181.5748 C56.8725,195.5428 50.1863,210.6224 44.8407,222.6784 " fill="none" id="CorePublisher-backto-Flux" style="stroke: #A80036; stroke-width: 1.0; stroke-dasharray: 7.0,7.0;"/><polygon fill="none" points="56.7957,178.4464,71.3017,163,69.594,184.1212,56.7957,178.4464" style="stroke: #A80036; stroke-width: 1.0;"/><!--MD5=[5978f8b2ac7a7aad2602f4cd7637a892]
reverse link CorePublisher to Mono--><path d="M99.9341,181.5748 C106.1275,195.5428 112.814,210.6224 118.159,222.6784 " fill="none" id="CorePublisher-backto-Mono" style="stroke: #A80036; stroke-width: 1.0; stroke-dasharray: 7.0,7.0;"/><polygon fill="none" points="93.406,184.1212,91.6983,163,106.2043,178.4464,93.406,184.1212" style="stroke: #A80036; stroke-width: 1.0;"/><!--MD5=[a328953efe3d52aacc98f452adb5f048]
reverse link Publisher to CorePublisher--><path d="M81.5,75.024 C81.5,88.579 81.5,103.038 81.5,114.678 " fill="none" id="Publisher-backto-CorePublisher" style="stroke: #A80036; stroke-width: 1.0;"/><polygon fill="none" points="74.5001,75,81.5,55,88.5001,75,74.5001,75" style="stroke: #A80036; stroke-width: 1.0;"/><!--MD5=[39fe1ab32c83200cd6df4df3b7cf34b5]
@startuml
abstract class Flux implements CorePublisher
abstract class Mono implements CorePublisher
interface CorePublisher extends Publisher
@enduml

PlantUML version 1.2020.18(Thu Oct 01 03:40:44 CST 2020)
(GPL source distribution)
Java Runtime: Java(TM) SE Runtime Environment
JVM: Java HotSpot(TM) 64-Bit Server VM
Default Encoding: GBK
Language: zh
Country: CN
--></g></svg>