<?xml version="1.0" encoding="UTF-8" standalone="no"?><svg xmlns="http://www.w3.org/2000/svg" xmlns:xlink="http://www.w3.org/1999/xlink" contentScriptType="application/ecmascript" contentStyleType="text/css" height="250px" preserveAspectRatio="none" style="width:322px;height:250px;" version="1.1" viewBox="0 0 322 250" width="322px" zoomAndPan="magnify"><defs><filter height="300%" id="f2cqgzjhbudr3" width="300%" x="-1" y="-1"><feGaussianBlur result="blurOut" stdDeviation="2.0"/><feColorMatrix in="blurOut" result="blurOut2" type="matrix" values="0 0 0 0 0 0 0 0 0 0 0 0 0 0 0 0 0 0 .4 0"/><feOffset dx="4.0" dy="4.0" in="blurOut2" result="blurOut3"/><feBlend in="SourceGraphic" in2="blurOut3" mode="normal"/></filter></defs><g><!--class Interpreter--><rect fill="#FEFECE" filter="url(#f2cqgzjhbudr3)" height="63.0229" id="Interpreter" style="stroke: #A80036; stroke-width: 1.5;" width="100" x="203" y="8"/><ellipse cx="218" cy="24" fill="#B4A7E5" rx="11" ry="11" style="stroke: #A80036; stroke-width: 1.0;"/><path d="M214.5938,18.2813 L214.5938,17.875 L220.9063,17.875 L220.9063,18.2813 L218.375,18.2813 Q218.375,18.2813 218.5234,18.4141 Q218.6719,18.5469 218.6719,18.8125 L218.6719,28.2969 Q218.6719,28.5625 218.8906,28.6953 Q219.1094,28.8281 219.1094,28.8281 L220.9063,28.8281 L220.9063,29.2344 L214.5938,29.2344 L214.5938,28.8281 L216.125,28.8281 Q216.4531,28.8281 216.5859,28.6953 Q216.7188,28.5625 216.7188,28.2969 L216.7188,18.8125 Q216.7188,18.5469 216.5859,18.4141 Q216.4531,18.2813 216.125,18.2813 L214.5938,18.2813 Z "/><text fill="#000000" font-family="sans-serif" font-size="12" font-style="italic" lengthAdjust="spacingAndGlyphs" textLength="57" x="232" y="29.5576">Interpreter</text><rect fill="#FFFFFF" height="18.3887" style="stroke: #000000; stroke-width: 1.0; stroke-dasharray: 2.0,2.0;" width="9" x="297" y="5"/><text fill="#000000" font-family="sans-serif" font-size="12" font-style="italic" lengthAdjust="spacingAndGlyphs" textLength="7" x="298" y="19.752">T</text><line style="stroke: #A80036; stroke-width: 1.5;" x1="204" x2="302" y1="40" y2="40"/><line style="stroke: #A80036; stroke-width: 1.5;" x1="204" x2="302" y1="48" y2="48"/><text fill="#000000" font-family="sans-serif" font-size="11" lengthAdjust="spacingAndGlyphs" textLength="57" x="209" y="64.606">T interpret()</text><!--class Terminal--><rect fill="#FEFECE" filter="url(#f2cqgzjhbudr3)" height="63.0229" id="Terminal" style="stroke: #A80036; stroke-width: 1.5;" width="92" x="70" y="153.5"/><ellipse cx="85" cy="169.5" fill="#ADD1B2" rx="11" ry="11" style="stroke: #A80036; stroke-width: 1.0;"/><path d="M83.5781,174.8594 Q81.7188,174.8594 80.625,173.4688 Q79.5313,172.0781 79.5313,169.0938 Q79.5313,166.5625 80.6953,164.9063 Q81.8594,163.25 83.8438,163.25 Q85.3125,163.25 85.7813,163.375 Q86.25,163.5781 86.25,163.5781 Q86.25,163.5781 86.25,163.5078 Q86.25,163.4375 86.8594,162.5156 L87.9063,166.1719 L86.5781,166.5781 Q86.1094,165.0313 85.4453,164.3672 Q84.7813,163.7031 83.7188,163.7031 Q83.3281,163.7031 82.5625,165.2344 Q81.7969,166.7656 81.7969,169.0156 Q81.7969,171.4844 82.4609,172.875 Q83.125,174.2656 83.6563,174.2656 Q84.7188,174.2656 85.4766,173.5 Q86.2344,172.7344 86.5781,171.0781 L87.9063,171.6719 Q87.5781,173.0781 86.6797,173.9688 Q85.7813,174.8594 83.5781,174.8594 Z "/><text fill="#000000" font-family="sans-serif" font-size="12" lengthAdjust="spacingAndGlyphs" textLength="49" x="99" y="175.0576">Terminal</text><rect fill="#FFFFFF" height="18.3887" style="stroke: #000000; stroke-width: 1.0; stroke-dasharray: 2.0,2.0;" width="9" x="156" y="150.5"/><text fill="#000000" font-family="sans-serif" font-size="12" font-style="italic" lengthAdjust="spacingAndGlyphs" textLength="7" x="157" y="165.252">T</text><line style="stroke: #A80036; stroke-width: 1.5;" x1="71" x2="161" y1="185.5" y2="185.5"/><line style="stroke: #A80036; stroke-width: 1.5;" x1="71" x2="161" y1="193.5" y2="193.5"/><text fill="#000000" font-family="sans-serif" font-size="11" lengthAdjust="spacingAndGlyphs" textLength="57" x="76" y="210.106">T interpret()</text><!--class Nonterminal--><rect fill="#FEFECE" filter="url(#f2cqgzjhbudr3)" height="108.0918" id="Nonterminal" style="stroke: #A80036; stroke-width: 1.5;" width="111" x="197.5" y="131"/><ellipse cx="212.5" cy="147" fill="#ADD1B2" rx="11" ry="11" style="stroke: #A80036; stroke-width: 1.0;"/><path d="M211.0781,152.3594 Q209.2188,152.3594 208.125,150.9688 Q207.0313,149.5781 207.0313,146.5938 Q207.0313,144.0625 208.1953,142.4063 Q209.3594,140.75 211.3438,140.75 Q212.8125,140.75 213.2813,140.875 Q213.75,141.0781 213.75,141.0781 Q213.75,141.0781 213.75,141.0078 Q213.75,140.9375 214.3594,140.0156 L215.4063,143.6719 L214.0781,144.0781 Q213.6094,142.5313 212.9453,141.8672 Q212.2813,141.2031 211.2188,141.2031 Q210.8281,141.2031 210.0625,142.7344 Q209.2969,144.2656 209.2969,146.5156 Q209.2969,148.9844 209.9609,150.375 Q210.625,151.7656 211.1563,151.7656 Q212.2188,151.7656 212.9766,151 Q213.7344,150.2344 214.0781,148.5781 L215.4063,149.1719 Q215.0781,150.5781 214.1797,151.4688 Q213.2813,152.3594 211.0781,152.3594 Z "/><text fill="#000000" font-family="sans-serif" font-size="12" lengthAdjust="spacingAndGlyphs" textLength="68" x="226.5" y="152.5576">Nonterminal</text><rect fill="#FFFFFF" height="18.3887" style="stroke: #000000; stroke-width: 1.0; stroke-dasharray: 2.0,2.0;" width="9" x="302.5" y="128"/><text fill="#000000" font-family="sans-serif" font-size="12" font-style="italic" lengthAdjust="spacingAndGlyphs" textLength="7" x="303.5" y="142.752">T</text><line style="stroke: #A80036; stroke-width: 1.5;" x1="198.5" x2="307.5" y1="163" y2="163"/><text fill="#000000" font-family="sans-serif" font-size="11" lengthAdjust="spacingAndGlyphs" textLength="61" x="203.5" y="179.606">Interpreter i1</text><text fill="#000000" font-family="sans-serif" font-size="11" lengthAdjust="spacingAndGlyphs" textLength="61" x="203.5" y="194.6289">Interpreter i2</text><text fill="#000000" font-family="sans-serif" font-size="11" lengthAdjust="spacingAndGlyphs" textLength="9" x="203.5" y="209.6519">...</text><line style="stroke: #A80036; stroke-width: 1.5;" x1="198.5" x2="307.5" y1="216.0688" y2="216.0688"/><text fill="#000000" font-family="sans-serif" font-size="11" lengthAdjust="spacingAndGlyphs" textLength="57" x="203.5" y="232.6748">T interpret()</text><!--class Parser--><rect fill="#FEFECE" filter="url(#f2cqgzjhbudr3)" height="63.0229" id="Parser" style="stroke: #A80036; stroke-width: 1.5;" width="162" x="6" y="8"/><ellipse cx="64.25" cy="24" fill="#ADD1B2" rx="11" ry="11" style="stroke: #A80036; stroke-width: 1.0;"/><path d="M62.8281,29.3594 Q60.9688,29.3594 59.875,27.9688 Q58.7813,26.5781 58.7813,23.5938 Q58.7813,21.0625 59.9453,19.4063 Q61.1094,17.75 63.0938,17.75 Q64.5625,17.75 65.0313,17.875 Q65.5,18.0781 65.5,18.0781 Q65.5,18.0781 65.5,18.0078 Q65.5,17.9375 66.1094,17.0156 L67.1563,20.6719 L65.8281,21.0781 Q65.3594,19.5313 64.6953,18.8672 Q64.0313,18.2031 62.9688,18.2031 Q62.5781,18.2031 61.8125,19.7344 Q61.0469,21.2656 61.0469,23.5156 Q61.0469,25.9844 61.7109,27.375 Q62.375,28.7656 62.9063,28.7656 Q63.9688,28.7656 64.7266,28 Q65.4844,27.2344 65.8281,25.5781 L67.1563,26.1719 Q66.8281,27.5781 65.9297,28.4688 Q65.0313,29.3594 62.8281,29.3594 Z "/><text fill="#000000" font-family="sans-serif" font-size="12" lengthAdjust="spacingAndGlyphs" textLength="37" x="84.75" y="29.5576">Parser</text><line style="stroke: #A80036; stroke-width: 1.5;" x1="7" x2="167" y1="40" y2="40"/><line style="stroke: #A80036; stroke-width: 1.5;" x1="7" x2="167" y1="48" y2="48"/><text fill="#000000" font-family="sans-serif" font-size="11" lengthAdjust="spacingAndGlyphs" textLength="150" x="12" y="64.606">Interpreter&lt;T&gt; build(String exp)</text><!--reverse link Interpreter to Terminal--><path d="M209.783,85.767 C188.79,107.756 164.112,133.605 145.341,153.2666 " fill="none" id="Interpreter&lt;-Terminal" style="stroke: #A80036; stroke-width: 1.0; stroke-dasharray: 7.0,7.0;"/><polygon fill="none" points="204.736,80.917,223.61,71.284,214.862,90.584,204.736,80.917" style="stroke: #A80036; stroke-width: 1.0;"/><!--reverse link Interpreter to Nonterminal--><path d="M240.733,91.565 C240.121,104.344 240.091,118.08 240.643,130.952 " fill="none" id="Interpreter&lt;-Nonterminal" style="stroke: #A80036; stroke-width: 1.0; stroke-dasharray: 7.0,7.0;"/><polygon fill="none" points="233.781,90.68,242.314,71.284,247.738,91.768,233.781,90.68" style="stroke: #A80036; stroke-width: 1.0;"/><!--link Interpreter to Nonterminal--><path d="M264.315,71.284 C265.95,84.86 266.667,101.378 266.467,117.536 " fill="none" id="Interpreter-&gt;Nonterminal" style="stroke: #A80036; stroke-width: 1.0; stroke-dasharray: 7.0,7.0;"/><polygon fill="#FFFFFF" points="266.084,130.952,270.2538,125.0687,266.4268,118.9569,262.257,124.8402,266.084,130.952" style="stroke: #A80036; stroke-width: 1.0;"/><!--link Parser to Interpreter--><path d="M168.055,39.5 C177.944,39.5 187.834,39.5 197.724,39.5 " fill="none" id="Parser-&gt;Interpreter" style="stroke: #A80036; stroke-width: 1.0; stroke-dasharray: 7.0,7.0;"/><polygon fill="#A80036" points="202.896,39.5,193.896,35.5,197.896,39.5,193.896,43.5,202.896,39.5" style="stroke: #A80036; stroke-width: 1.0;"/><!--
@startuml
interface Interpreter<T> {
    T interpret()
}
class Terminal<T> implements Interpreter {
    T interpret()
}
class Nonterminal<T> implements Interpreter {
    Interpreter i1
    Interpreter i2
    ...
    T interpret()
}
Interpreter ..o Nonterminal
class Parser {
    Interpreter<T> build(String exp)
}
Parser .right.> Interpreter
@enduml

PlantUML version 1.2019.09(Tue Aug 27 00:19:51 CST 2019)
(GPL source distribution)
Java Runtime: Java(TM) SE Runtime Environment
JVM: Java HotSpot(TM) 64-Bit Server VM
Java Version: 1.8.0_231-b11
Operating System: Windows 10
OS Version: 10.0
Default Encoding: GBK
Language: zh
Country: CN
--></g></svg>