<?xml version="1.0" encoding="UTF-8" standalone="no"?><svg xmlns="http://www.w3.org/2000/svg" xmlns:xlink="http://www.w3.org/1999/xlink" contentScriptType="application/ecmascript" contentStyleType="text/css" height="97px" preserveAspectRatio="none" style="width:283px;height:97px;" version="1.1" viewBox="0 0 283 97" width="283px" zoomAndPan="magnify"><defs><filter height="300%" id="fnn5tznzlzev6" width="300%" x="-1" y="-1"><feGaussianBlur result="blurOut" stdDeviation="2.0"/><feColorMatrix in="blurOut" result="blurOut2" type="matrix" values="0 0 0 0 0 0 0 0 0 0 0 0 0 0 0 0 0 0 .4 0"/><feOffset dx="4.0" dy="4.0" in="blurOut2" result="blurOut3"/><feBlend in="SourceGraphic" in2="blurOut3" mode="normal"/></filter></defs><g><!--class Iterator--><rect fill="#FEFECE" filter="url(#fnn5tznzlzev6)" height="78.0459" id="Iterator" style="stroke: #A80036; stroke-width: 1.5;" width="101" x="6" y="8"/><ellipse cx="29.55" cy="24" fill="#B4A7E5" rx="11" ry="11" style="stroke: #A80036; stroke-width: 1.0;"/><path d="M26.1438,18.2813 L26.1438,17.875 L32.4563,17.875 L32.4563,18.2813 L29.925,18.2813 Q29.925,18.2813 30.0734,18.4141 Q30.2219,18.5469 30.2219,18.8125 L30.2219,28.2969 Q30.2219,28.5625 30.4406,28.6953 Q30.6594,28.8281 30.6594,28.8281 L32.4563,28.8281 L32.4563,29.2344 L26.1438,29.2344 L26.1438,28.8281 L27.675,28.8281 Q28.0031,28.8281 28.1359,28.6953 Q28.2688,28.5625 28.2688,28.2969 L28.2688,18.8125 Q28.2688,18.5469 28.1359,18.4141 Q28.0031,18.2813 27.675,18.2813 L26.1438,18.2813 Z "/><text fill="#000000" font-family="sans-serif" font-size="12" font-style="italic" lengthAdjust="spacingAndGlyphs" textLength="39" x="45.45" y="29.5576">Iterator</text><rect fill="#FFFFFF" height="18.3887" style="stroke: #000000; stroke-width: 1.0; stroke-dasharray: 2.0,2.0;" width="9" x="101" y="5"/><text fill="#000000" font-family="sans-serif" font-size="12" font-style="italic" lengthAdjust="spacingAndGlyphs" textLength="7" x="102" y="19.752">T</text><line style="stroke: #A80036; stroke-width: 1.5;" x1="7" x2="106" y1="40" y2="40"/><line style="stroke: #A80036; stroke-width: 1.5;" x1="7" x2="106" y1="48" y2="48"/><text fill="#000000" font-family="sans-serif" font-size="11" lengthAdjust="spacingAndGlyphs" textLength="89" x="12" y="64.606">boolean hasNext()</text><text fill="#000000" font-family="sans-serif" font-size="11" lengthAdjust="spacingAndGlyphs" textLength="38" x="12" y="79.6289">T next()</text><!--class Aggregate--><rect fill="#FEFECE" filter="url(#fnn5tznzlzev6)" height="63.0229" id="Aggregate" style="stroke: #A80036; stroke-width: 1.5;" width="127" x="142" y="15.5"/><ellipse cx="169.15" cy="31.5" fill="#B4A7E5" rx="11" ry="11" style="stroke: #A80036; stroke-width: 1.0;"/><path d="M165.7438,25.7813 L165.7438,25.375 L172.0563,25.375 L172.0563,25.7813 L169.525,25.7813 Q169.525,25.7813 169.6734,25.9141 Q169.8219,26.0469 169.8219,26.3125 L169.8219,35.7969 Q169.8219,36.0625 170.0406,36.1953 Q170.2594,36.3281 170.2594,36.3281 L172.0563,36.3281 L172.0563,36.7344 L165.7438,36.7344 L165.7438,36.3281 L167.275,36.3281 Q167.6031,36.3281 167.7359,36.1953 Q167.8688,36.0625 167.8688,35.7969 L167.8688,26.3125 Q167.8688,26.0469 167.7359,25.9141 Q167.6031,25.7813 167.275,25.7813 L165.7438,25.7813 Z "/><text fill="#000000" font-family="sans-serif" font-size="12" font-style="italic" lengthAdjust="spacingAndGlyphs" textLength="57" x="185.85" y="37.0576">Aggregate</text><rect fill="#FFFFFF" height="18.3887" style="stroke: #000000; stroke-width: 1.0; stroke-dasharray: 2.0,2.0;" width="9" x="263" y="12.5"/><text fill="#000000" font-family="sans-serif" font-size="12" font-style="italic" lengthAdjust="spacingAndGlyphs" textLength="7" x="264" y="27.252">T</text><line style="stroke: #A80036; stroke-width: 1.5;" x1="143" x2="268" y1="47.5" y2="47.5"/><line style="stroke: #A80036; stroke-width: 1.5;" x1="143" x2="268" y1="55.5" y2="55.5"/><text fill="#000000" font-family="sans-serif" font-size="11" font-style="italic" lengthAdjust="spacingAndGlyphs" textLength="115" x="148" y="72.106">Iterator&lt;T&gt; getIterator()</text><!--reverse link Iterator to Aggregate--><path d="M112.27,47 C122.086,47 131.902,47 141.718,47 " fill="none" id="Iterator&lt;-Aggregate" style="stroke: #A80036; stroke-width: 1.0; stroke-dasharray: 7.0,7.0;"/><polygon fill="#A80036" points="107.137,47,116.137,51,112.137,47,116.137,43,107.137,47" style="stroke: #A80036; stroke-width: 1.0;"/><!--
@startuml
interface Iterator<T> {
    boolean hasNext()
    T next()
}
interface Aggregate<T> {
    {abstract} Iterator<T> getIterator()
}
Aggregate .left.> Iterator
@enduml

PlantUML version 1.2019.09(Tue Aug 27 00:19:51 CST 2019)
(GPL source distribution)
Java Runtime: Java(TM) SE Runtime Environment
JVM: Java HotSpot(TM) 64-Bit Server VM
Java Version: 1.8.0_231-b11
Operating System: Windows 10
OS Version: 10.0
Default Encoding: GBK
Language: zh
Country: CN
--></g></svg>