<?xml version="1.0" encoding="UTF-8" standalone="no"?><svg xmlns="http://www.w3.org/2000/svg" xmlns:xlink="http://www.w3.org/1999/xlink" contentScriptType="application/ecmascript" contentStyleType="text/css" height="220px" preserveAspectRatio="none" style="width:522px;height:220px;" version="1.1" viewBox="0 0 522 220" width="522px" zoomAndPan="magnify"><defs><filter height="300%" id="f1on8frgsmwmhx" width="300%" x="-1" y="-1"><feGaussianBlur result="blurOut" stdDeviation="2.0"/><feColorMatrix in="blurOut" result="blurOut2" type="matrix" values="0 0 0 0 0 0 0 0 0 0 0 0 0 0 0 0 0 0 .4 0"/><feOffset dx="4.0" dy="4.0" in="blurOut2" result="blurOut3"/><feBlend in="SourceGraphic" in2="blurOut3" mode="normal"/></filter></defs><g><!--class Colleague--><rect fill="#FEFECE" filter="url(#f1on8frgsmwmhx)" height="93.0688" id="Colleague" style="stroke: #A80036; stroke-width: 1.5;" width="142" x="95" y="8"/><ellipse cx="133.85" cy="24" fill="#A9DCDF" rx="11" ry="11" style="stroke: #A80036; stroke-width: 1.0;"/><path d="M134.225,23.9844 L132.2406,23.9844 L131.6469,26.5 Q131.5844,26.8438 131.5844,27.0313 Q131.5844,27.2969 131.6781,27.5625 Q131.7719,27.8281 131.7719,27.8281 L132.4438,27.8281 L132.4438,28.2344 L128.9906,28.2344 L128.9906,27.8281 L129.1781,27.8281 Q129.4438,27.8281 129.6469,27.6641 Q129.85,27.5 129.9125,27.1094 L132.5063,16.9375 L134.3813,16.3281 L137.0219,27.1094 Q137.1625,27.5 137.3578,27.6641 Q137.5531,27.8281 137.5531,27.8281 L138.0219,27.8281 L138.0219,28.2344 L134.1625,28.2344 L134.1625,27.8281 L134.4281,27.8281 Q134.8344,27.8281 134.8969,27.6641 Q134.9594,27.5 134.9594,27.375 Q134.9594,27.1094 134.8969,26.9063 L134.225,23.9844 Z M132.8344,18.0781 L132.8344,18.0781 L132.3813,23.5781 L134.1625,23.5781 L132.8344,18.0781 Z "/><text fill="#000000" font-family="sans-serif" font-size="12" font-style="italic" lengthAdjust="spacingAndGlyphs" textLength="57" x="153.15" y="29.5576">Colleague</text><line style="stroke: #A80036; stroke-width: 1.5;" x1="96" x2="236" y1="40" y2="40"/><rect fill="none" height="6" style="stroke: #C82930; stroke-width: 1.0;" width="6" x="103" y="48"/><text fill="#000000" font-family="sans-serif" font-size="11" lengthAdjust="spacingAndGlyphs" textLength="85" x="115" y="56.606">Mediator mediator</text><line style="stroke: #A80036; stroke-width: 1.5;" x1="96" x2="236" y1="63.0229" y2="63.0229"/><text fill="#000000" font-family="sans-serif" font-size="11" font-style="italic" lengthAdjust="spacingAndGlyphs" textLength="121" x="101" y="79.6289">void request(String msg)</text><text fill="#000000" font-family="sans-serif" font-size="11" font-style="italic" lengthAdjust="spacingAndGlyphs" textLength="130" x="101" y="94.6519">void response(String msg)</text><!--class Colleague1--><rect fill="#FEFECE" filter="url(#f1on8frgsmwmhx)" height="48" id="Colleague1" style="stroke: #A80036; stroke-width: 1.5;" width="96" x="6" y="161"/><ellipse cx="21" cy="177" fill="#ADD1B2" rx="11" ry="11" style="stroke: #A80036; stroke-width: 1.0;"/><path d="M19.5781,182.3594 Q17.7188,182.3594 16.625,180.9688 Q15.5313,179.5781 15.5313,176.5938 Q15.5313,174.0625 16.6953,172.4063 Q17.8594,170.75 19.8438,170.75 Q21.3125,170.75 21.7813,170.875 Q22.25,171.0781 22.25,171.0781 Q22.25,171.0781 22.25,171.0078 Q22.25,170.9375 22.8594,170.0156 L23.9063,173.6719 L22.5781,174.0781 Q22.1094,172.5313 21.4453,171.8672 Q20.7813,171.2031 19.7188,171.2031 Q19.3281,171.2031 18.5625,172.7344 Q17.7969,174.2656 17.7969,176.5156 Q17.7969,178.9844 18.4609,180.375 Q19.125,181.7656 19.6563,181.7656 Q20.7188,181.7656 21.4766,181 Q22.2344,180.2344 22.5781,178.5781 L23.9063,179.1719 Q23.5781,180.5781 22.6797,181.4688 Q21.7813,182.3594 19.5781,182.3594 Z "/><text fill="#000000" font-family="sans-serif" font-size="12" lengthAdjust="spacingAndGlyphs" textLength="64" x="35" y="182.5576">Colleague1</text><line style="stroke: #A80036; stroke-width: 1.5;" x1="7" x2="101" y1="193" y2="193"/><line style="stroke: #A80036; stroke-width: 1.5;" x1="7" x2="101" y1="201" y2="201"/><!--class Colleague2--><rect fill="#FEFECE" filter="url(#f1on8frgsmwmhx)" height="48" id="Colleague2" style="stroke: #A80036; stroke-width: 1.5;" width="96" x="137" y="161"/><ellipse cx="152" cy="177" fill="#ADD1B2" rx="11" ry="11" style="stroke: #A80036; stroke-width: 1.0;"/><path d="M150.5781,182.3594 Q148.7188,182.3594 147.625,180.9688 Q146.5313,179.5781 146.5313,176.5938 Q146.5313,174.0625 147.6953,172.4063 Q148.8594,170.75 150.8438,170.75 Q152.3125,170.75 152.7813,170.875 Q153.25,171.0781 153.25,171.0781 Q153.25,171.0781 153.25,171.0078 Q153.25,170.9375 153.8594,170.0156 L154.9063,173.6719 L153.5781,174.0781 Q153.1094,172.5313 152.4453,171.8672 Q151.7813,171.2031 150.7188,171.2031 Q150.3281,171.2031 149.5625,172.7344 Q148.7969,174.2656 148.7969,176.5156 Q148.7969,178.9844 149.4609,180.375 Q150.125,181.7656 150.6563,181.7656 Q151.7188,181.7656 152.4766,181 Q153.2344,180.2344 153.5781,178.5781 L154.9063,179.1719 Q154.5781,180.5781 153.6797,181.4688 Q152.7813,182.3594 150.5781,182.3594 Z "/><text fill="#000000" font-family="sans-serif" font-size="12" lengthAdjust="spacingAndGlyphs" textLength="64" x="166" y="182.5576">Colleague2</text><line style="stroke: #A80036; stroke-width: 1.5;" x1="138" x2="232" y1="193" y2="193"/><line style="stroke: #A80036; stroke-width: 1.5;" x1="138" x2="232" y1="201" y2="201"/><!--class Mediator--><rect fill="#FEFECE" filter="url(#f1on8frgsmwmhx)" height="93.0688" id="Mediator" style="stroke: #A80036; stroke-width: 1.5;" width="185" x="272.5" y="8"/><ellipse cx="337.25" cy="24" fill="#A9DCDF" rx="11" ry="11" style="stroke: #A80036; stroke-width: 1.0;"/><path d="M337.625,23.9844 L335.6406,23.9844 L335.0469,26.5 Q334.9844,26.8438 334.9844,27.0313 Q334.9844,27.2969 335.0781,27.5625 Q335.1719,27.8281 335.1719,27.8281 L335.8438,27.8281 L335.8438,28.2344 L332.3906,28.2344 L332.3906,27.8281 L332.5781,27.8281 Q332.8438,27.8281 333.0469,27.6641 Q333.25,27.5 333.3125,27.1094 L335.9063,16.9375 L337.7813,16.3281 L340.4219,27.1094 Q340.5625,27.5 340.7578,27.6641 Q340.9531,27.8281 340.9531,27.8281 L341.4219,27.8281 L341.4219,28.2344 L337.5625,28.2344 L337.5625,27.8281 L337.8281,27.8281 Q338.2344,27.8281 338.2969,27.6641 Q338.3594,27.5 338.3594,27.375 Q338.3594,27.1094 338.2969,26.9063 L337.625,23.9844 Z M336.2344,18.0781 L336.2344,18.0781 L335.7813,23.5781 L337.5625,23.5781 L336.2344,18.0781 Z "/><text fill="#000000" font-family="sans-serif" font-size="12" font-style="italic" lengthAdjust="spacingAndGlyphs" textLength="47" x="357.75" y="29.5576">Mediator</text><line style="stroke: #A80036; stroke-width: 1.5;" x1="273.5" x2="456.5" y1="40" y2="40"/><rect fill="none" height="6" style="stroke: #C82930; stroke-width: 1.0;" width="6" x="280.5" y="48"/><text fill="#000000" font-family="sans-serif" font-size="11" lengthAdjust="spacingAndGlyphs" textLength="92" x="292.5" y="56.606">List&lt;Colleague&gt; list</text><line style="stroke: #A80036; stroke-width: 1.5;" x1="273.5" x2="456.5" y1="63.0229" y2="63.0229"/><text fill="#000000" font-family="sans-serif" font-size="11" lengthAdjust="spacingAndGlyphs" textLength="124" x="278.5" y="79.6289">void register(Colleague c)</text><text fill="#000000" font-family="sans-serif" font-size="11" font-style="italic" lengthAdjust="spacingAndGlyphs" textLength="173" x="278.5" y="94.6519">void relay(Colleague c, String msg)</text><!--class Mediator1--><rect fill="#FEFECE" filter="url(#f1on8frgsmwmhx)" height="48" id="Mediator1" style="stroke: #A80036; stroke-width: 1.5;" width="86" x="304" y="161"/><ellipse cx="319" cy="177" fill="#ADD1B2" rx="11" ry="11" style="stroke: #A80036; stroke-width: 1.0;"/><path d="M317.5781,182.3594 Q315.7188,182.3594 314.625,180.9688 Q313.5313,179.5781 313.5313,176.5938 Q313.5313,174.0625 314.6953,172.4063 Q315.8594,170.75 317.8438,170.75 Q319.3125,170.75 319.7813,170.875 Q320.25,171.0781 320.25,171.0781 Q320.25,171.0781 320.25,171.0078 Q320.25,170.9375 320.8594,170.0156 L321.9063,173.6719 L320.5781,174.0781 Q320.1094,172.5313 319.4453,171.8672 Q318.7813,171.2031 317.7188,171.2031 Q317.3281,171.2031 316.5625,172.7344 Q315.7969,174.2656 315.7969,176.5156 Q315.7969,178.9844 316.4609,180.375 Q317.125,181.7656 317.6563,181.7656 Q318.7188,181.7656 319.4766,181 Q320.2344,180.2344 320.5781,178.5781 L321.9063,179.1719 Q321.5781,180.5781 320.6797,181.4688 Q319.7813,182.3594 317.5781,182.3594 Z "/><text fill="#000000" font-family="sans-serif" font-size="12" lengthAdjust="spacingAndGlyphs" textLength="54" x="333" y="182.5576">Mediator1</text><line style="stroke: #A80036; stroke-width: 1.5;" x1="305" x2="389" y1="193" y2="193"/><line style="stroke: #A80036; stroke-width: 1.5;" x1="305" x2="389" y1="201" y2="201"/><!--class Mediator2--><rect fill="#FEFECE" filter="url(#f1on8frgsmwmhx)" height="48" id="Mediator2" style="stroke: #A80036; stroke-width: 1.5;" width="86" x="425" y="161"/><ellipse cx="440" cy="177" fill="#ADD1B2" rx="11" ry="11" style="stroke: #A80036; stroke-width: 1.0;"/><path d="M438.5781,182.3594 Q436.7188,182.3594 435.625,180.9688 Q434.5313,179.5781 434.5313,176.5938 Q434.5313,174.0625 435.6953,172.4063 Q436.8594,170.75 438.8438,170.75 Q440.3125,170.75 440.7813,170.875 Q441.25,171.0781 441.25,171.0781 Q441.25,171.0781 441.25,171.0078 Q441.25,170.9375 441.8594,170.0156 L442.9063,173.6719 L441.5781,174.0781 Q441.1094,172.5313 440.4453,171.8672 Q439.7813,171.2031 438.7188,171.2031 Q438.3281,171.2031 437.5625,172.7344 Q436.7969,174.2656 436.7969,176.5156 Q436.7969,178.9844 437.4609,180.375 Q438.125,181.7656 438.6563,181.7656 Q439.7188,181.7656 440.4766,181 Q441.2344,180.2344 441.5781,178.5781 L442.9063,179.1719 Q442.5781,180.5781 441.6797,181.4688 Q440.7813,182.3594 438.5781,182.3594 Z "/><text fill="#000000" font-family="sans-serif" font-size="12" lengthAdjust="spacingAndGlyphs" textLength="54" x="454" y="182.5576">Mediator2</text><line style="stroke: #A80036; stroke-width: 1.5;" x1="426" x2="510" y1="193" y2="193"/><line style="stroke: #A80036; stroke-width: 1.5;" x1="426" x2="510" y1="201" y2="201"/><!--reverse link Colleague to Colleague1--><path d="M112.678,116.6776 C98.9645,132.4113 85.0364,148.3913 74.1932,160.8319 " fill="none" id="Colleague&lt;-Colleague1" style="stroke: #A80036; stroke-width: 1.0;"/><polygon fill="none" points="107.78,111.6437,126.198,101.166,118.334,120.8424,107.78,111.6437" style="stroke: #A80036; stroke-width: 1.0;"/><!--reverse link Colleague to Colleague2--><path d="M175.701,121.106 C177.811,135.3764 179.907,149.5576 181.574,160.8319 " fill="none" id="Colleague&lt;-Colleague2" style="stroke: #A80036; stroke-width: 1.0;"/><polygon fill="none" points="168.753,121.9749,172.752,101.166,182.602,119.9271,168.753,121.9749" style="stroke: #A80036; stroke-width: 1.0;"/><!--reverse link Mediator to Mediator1--><path d="M355.81,121.106 C353.811,135.3764 351.825,149.5576 350.245,160.8319 " fill="none" id="Mediator&lt;-Mediator1" style="stroke: #A80036; stroke-width: 1.0;"/><polygon fill="none" points="348.896,120.0016,358.603,101.166,362.761,121.9438,348.896,120.0016" style="stroke: #A80036; stroke-width: 1.0;"/><!--reverse link Mediator to Mediator2--><path d="M414.431,117.1693 C426.915,132.7438 439.561,148.5209 449.429,160.8319 " fill="none" id="Mediator&lt;-Mediator2" style="stroke: #A80036; stroke-width: 1.0;"/><polygon fill="none" points="408.651,121.1497,401.604,101.166,419.575,112.3936,408.651,121.1497" style="stroke: #A80036; stroke-width: 1.0;"/><!--link Colleague to Mediator--><path d="M249.127,54.5 C249.127,54.5 260.092,54.5 260.092,54.5 " fill="none" id="Colleague-Mediator" style="stroke: #A80036; stroke-width: 1.0; stroke-dasharray: 7.0,7.0;"/><polygon fill="#FFFFFF" points="272.092,54.5,266.092,50.5,260.092,54.5,266.092,58.5,272.092,54.5" style="stroke: #A80036; stroke-width: 1.0;"/><polygon fill="#FFFFFF" points="237.127,54.5,243.127,58.5,249.127,54.5,243.127,50.5,237.127,54.5" style="stroke: #A80036; stroke-width: 1.0;"/><!--
@startuml
abstract class Colleague {
    -Mediator mediator
    {abstract} void request(String msg)
    {abstract} void response(String msg)
}
class Colleague1 extends Colleague
class Colleague2 extends Colleague
abstract class Mediator {
    -List<Colleague> list
    void register(Colleague c)
    {abstract} void relay(Colleague c, String msg)
}
class Mediator1 extends Mediator
class Mediator2 extends Mediator
Colleague o.left.o Mediator
@enduml

PlantUML version 1.2019.09(Tue Aug 27 00:19:51 CST 2019)
(GPL source distribution)
Java Runtime: Java(TM) SE Runtime Environment
JVM: Java HotSpot(TM) 64-Bit Server VM
Java Version: 1.8.0_231-b11
Operating System: Windows 10
OS Version: 10.0
Default Encoding: GBK
Language: zh
Country: CN
--></g></svg>