<?xml version="1.0" encoding="UTF-8" standalone="no"?><svg xmlns="http://www.w3.org/2000/svg" xmlns:xlink="http://www.w3.org/1999/xlink" contentScriptType="application/ecmascript" contentStyleType="text/css" height="112px" preserveAspectRatio="none" style="width:419px;height:112px;" version="1.1" viewBox="0 0 419 112" width="419px" zoomAndPan="magnify"><defs><filter height="300%" id="f1uxlrenn6enb6" width="300%" x="-1" y="-1"><feGaussianBlur result="blurOut" stdDeviation="2.0"/><feColorMatrix in="blurOut" result="blurOut2" type="matrix" values="0 0 0 0 0 0 0 0 0 0 0 0 0 0 0 0 0 0 .4 0"/><feOffset dx="4.0" dy="4.0" in="blurOut2" result="blurOut3"/><feBlend in="SourceGraphic" in2="blurOut3" mode="normal"/></filter></defs><g><!--class Memento--><rect fill="#FEFECE" filter="url(#f1uxlrenn6enb6)" height="48" id="Memento" style="stroke: #A80036; stroke-width: 1.5;" width="83" x="173.5" y="30.5"/><ellipse cx="188.5" cy="46.5" fill="#ADD1B2" rx="11" ry="11" style="stroke: #A80036; stroke-width: 1.0;"/><path d="M187.0781,51.8594 Q185.2188,51.8594 184.125,50.4688 Q183.0313,49.0781 183.0313,46.0938 Q183.0313,43.5625 184.1953,41.9063 Q185.3594,40.25 187.3438,40.25 Q188.8125,40.25 189.2813,40.375 Q189.75,40.5781 189.75,40.5781 Q189.75,40.5781 189.75,40.5078 Q189.75,40.4375 190.3594,39.5156 L191.4063,43.1719 L190.0781,43.5781 Q189.6094,42.0313 188.9453,41.3672 Q188.2813,40.7031 187.2188,40.7031 Q186.8281,40.7031 186.0625,42.2344 Q185.2969,43.7656 185.2969,46.0156 Q185.2969,48.4844 185.9609,49.875 Q186.625,51.2656 187.1563,51.2656 Q188.2188,51.2656 188.9766,50.5 Q189.7344,49.7344 190.0781,48.0781 L191.4063,48.6719 Q191.0781,50.0781 190.1797,50.9688 Q189.2813,51.8594 187.0781,51.8594 Z "/><text fill="#000000" font-family="sans-serif" font-size="12" lengthAdjust="spacingAndGlyphs" textLength="51" x="202.5" y="52.0576">Memento</text><line style="stroke: #A80036; stroke-width: 1.5;" x1="174.5" x2="255.5" y1="62.5" y2="62.5"/><line style="stroke: #A80036; stroke-width: 1.5;" x1="174.5" x2="255.5" y1="70.5" y2="70.5"/><!--class Originator--><rect fill="#FEFECE" filter="url(#f1uxlrenn6enb6)" height="78.0459" id="Originator" style="stroke: #A80036; stroke-width: 1.5;" width="132" x="6" y="15.5"/><ellipse cx="41.7" cy="31.5" fill="#ADD1B2" rx="11" ry="11" style="stroke: #A80036; stroke-width: 1.0;"/><path d="M40.2781,36.8594 Q38.4188,36.8594 37.325,35.4688 Q36.2313,34.0781 36.2313,31.0938 Q36.2313,28.5625 37.3953,26.9063 Q38.5594,25.25 40.5438,25.25 Q42.0125,25.25 42.4813,25.375 Q42.95,25.5781 42.95,25.5781 Q42.95,25.5781 42.95,25.5078 Q42.95,25.4375 43.5594,24.5156 L44.6063,28.1719 L43.2781,28.5781 Q42.8094,27.0313 42.1453,26.3672 Q41.4813,25.7031 40.4188,25.7031 Q40.0281,25.7031 39.2625,27.2344 Q38.4969,28.7656 38.4969,31.0156 Q38.4969,33.4844 39.1609,34.875 Q39.825,36.2656 40.3563,36.2656 Q41.4188,36.2656 42.1766,35.5 Q42.9344,34.7344 43.2781,33.0781 L44.6063,33.6719 Q44.2781,35.0781 43.3797,35.9688 Q42.4813,36.8594 40.2781,36.8594 Z "/><text fill="#000000" font-family="sans-serif" font-size="12" lengthAdjust="spacingAndGlyphs" textLength="54" x="60.3" y="37.0576">Originator</text><line style="stroke: #A80036; stroke-width: 1.5;" x1="7" x2="137" y1="47.5" y2="47.5"/><line style="stroke: #A80036; stroke-width: 1.5;" x1="7" x2="137" y1="55.5" y2="55.5"/><text fill="#000000" font-family="sans-serif" font-size="11" lengthAdjust="spacingAndGlyphs" textLength="99" x="12" y="72.106">Memento snapshot()</text><text fill="#000000" font-family="sans-serif" font-size="11" lengthAdjust="spacingAndGlyphs" textLength="120" x="12" y="87.1289">void restore(Memento m)</text><!--class Caretaker--><rect fill="#FEFECE" filter="url(#f1uxlrenn6enb6)" height="93.0688" id="Caretaker" style="stroke: #A80036; stroke-width: 1.5;" width="116" x="292" y="8"/><ellipse cx="320.5" cy="24" fill="#ADD1B2" rx="11" ry="11" style="stroke: #A80036; stroke-width: 1.0;"/><path d="M319.0781,29.3594 Q317.2188,29.3594 316.125,27.9688 Q315.0313,26.5781 315.0313,23.5938 Q315.0313,21.0625 316.1953,19.4063 Q317.3594,17.75 319.3438,17.75 Q320.8125,17.75 321.2813,17.875 Q321.75,18.0781 321.75,18.0781 Q321.75,18.0781 321.75,18.0078 Q321.75,17.9375 322.3594,17.0156 L323.4063,20.6719 L322.0781,21.0781 Q321.6094,19.5313 320.9453,18.8672 Q320.2813,18.2031 319.2188,18.2031 Q318.8281,18.2031 318.0625,19.7344 Q317.2969,21.2656 317.2969,23.5156 Q317.2969,25.9844 317.9609,27.375 Q318.625,28.7656 319.1563,28.7656 Q320.2188,28.7656 320.9766,28 Q321.7344,27.2344 322.0781,25.5781 L323.4063,26.1719 Q323.0781,27.5781 322.1797,28.4688 Q321.2813,29.3594 319.0781,29.3594 Z "/><text fill="#000000" font-family="sans-serif" font-size="12" lengthAdjust="spacingAndGlyphs" textLength="54" x="337.5" y="29.5576">Caretaker</text><line style="stroke: #A80036; stroke-width: 1.5;" x1="293" x2="407" y1="40" y2="40"/><rect fill="none" height="6" style="stroke: #C82930; stroke-width: 1.0;" width="6" x="300" y="48"/><text fill="#000000" font-family="sans-serif" font-size="11" lengthAdjust="spacingAndGlyphs" textLength="88" x="312" y="56.606">List&lt;Memento&gt; list</text><line style="stroke: #A80036; stroke-width: 1.5;" x1="293" x2="407" y1="63.0229" y2="63.0229"/><text fill="#000000" font-family="sans-serif" font-size="11" lengthAdjust="spacingAndGlyphs" textLength="100" x="298" y="79.6289">void put(Memento m)</text><text fill="#000000" font-family="sans-serif" font-size="11" lengthAdjust="spacingAndGlyphs" textLength="104" x="298" y="94.6519">Memento get(int step)</text><!--link Originator to Memento--><path d="M138.193,54.5 C148.158,54.5 158.122,54.5 168.086,54.5 " fill="none" id="Originator-&gt;Memento" style="stroke: #A80036; stroke-width: 1.0; stroke-dasharray: 7.0,7.0;"/><polygon fill="#A80036" points="173.296,54.5,164.296,50.5,168.296,54.5,164.296,58.5,173.296,54.5" style="stroke: #A80036; stroke-width: 1.0;"/><!--reverse link Memento to Caretaker--><path d="M261.856,54.5 C271.791,54.5 281.727,54.5 291.663,54.5 " fill="none" id="Memento&lt;-Caretaker" style="stroke: #A80036; stroke-width: 1.0; stroke-dasharray: 7.0,7.0;"/><polygon fill="#A80036" points="256.66,54.5,265.66,58.5,261.66,54.5,265.66,50.5,256.66,54.5" style="stroke: #A80036; stroke-width: 1.0;"/><!--
@startuml
class Memento
class Originator {
    Memento snapshot()
    void restore(Memento m)
}
class Caretaker {
    -List<Memento> list
    void put(Memento m)
    Memento get(int step)
}
Originator .right.> Memento
Caretaker .left.> Memento
@enduml

PlantUML version 1.2019.09(Tue Aug 27 00:19:51 CST 2019)
(GPL source distribution)
Java Runtime: Java(TM) SE Runtime Environment
JVM: Java HotSpot(TM) 64-Bit Server VM
Java Version: 1.8.0_231-b11
Operating System: Windows 10
OS Version: 10.0
Default Encoding: GBK
Language: zh
Country: CN
--></g></svg>