<?xml version="1.0" encoding="UTF-8" standalone="no"?><svg xmlns="http://www.w3.org/2000/svg" xmlns:xlink="http://www.w3.org/1999/xlink" contentScriptType="application/ecmascript" contentStyleType="text/css" height="214px" preserveAspectRatio="none" style="width:363px;height:214px;" version="1.1" viewBox="0 0 363 214" width="363px" zoomAndPan="magnify"><defs><filter height="300%" id="f1jlp29gqs9dhv" width="300%" x="-1" y="-1"><feGaussianBlur result="blurOut" stdDeviation="2.0"/><feColorMatrix in="blurOut" result="blurOut2" type="matrix" values="0 0 0 0 0 0 0 0 0 0 0 0 0 0 0 0 0 0 .4 0"/><feOffset dx="4.0" dy="4.0" in="blurOut2" result="blurOut3"/><feBlend in="SourceGraphic" in2="blurOut3" mode="normal"/></filter></defs><g><!--entity root--><rect fill="#FEFECE" filter="url(#f1jlp29gqs9dhv)" height="25.1201" style="stroke: #000000; stroke-width: 1.5;" width="24" x="209.5" y="8"/><text fill="#000000" font-family="sans-serif" font-size="14" lengthAdjust="spacingAndGlyphs" textLength="4" x="219.5" y="27.0439">/</text><!--entity node1--><rect fill="#FEFECE" filter="url(#f1jlp29gqs9dhv)" height="25.1201" style="stroke: #000000; stroke-width: 1.5;" width="64" x="90.5" y="93"/><text fill="#000000" font-family="sans-serif" font-size="14" lengthAdjust="spacingAndGlyphs" textLength="44" x="100.5" y="112.0439">/node1</text><!--entity node2--><rect fill="#FEFECE" filter="url(#f1jlp29gqs9dhv)" height="25.1201" style="stroke: #000000; stroke-width: 1.5;" width="64" x="189.5" y="93"/><text fill="#000000" font-family="sans-serif" font-size="14" lengthAdjust="spacingAndGlyphs" textLength="44" x="199.5" y="112.0439">/node2</text><!--entity node3--><rect fill="#FEFECE" filter="url(#f1jlp29gqs9dhv)" height="25.1201" style="stroke: #000000; stroke-width: 1.5;" width="64" x="288.5" y="93"/><text fill="#000000" font-family="sans-serif" font-size="14" lengthAdjust="spacingAndGlyphs" textLength="44" x="298.5" y="112.0439">/node3</text><!--entity sub1--><rect fill="#FEFECE" filter="url(#f1jlp29gqs9dhv)" height="25.1201" style="stroke: #000000; stroke-width: 1.5;" width="99" x="6" y="178"/><text fill="#000000" font-family="sans-serif" font-size="14" lengthAdjust="spacingAndGlyphs" textLength="79" x="16" y="197.0439">/node1/sub1</text><!--entity sub2--><rect fill="#FEFECE" filter="url(#f1jlp29gqs9dhv)" height="25.1201" style="stroke: #000000; stroke-width: 1.5;" width="99" x="140" y="178"/><text fill="#000000" font-family="sans-serif" font-size="14" lengthAdjust="spacingAndGlyphs" textLength="79" x="150" y="197.0439">/node1/sub2</text><!--link root to node1--><path d="M209.361,31.677 C192.104,46.145 160.363,72.756 140.402,89.491 " fill="none" id="root-&gt;node1" style="stroke: #A80036; stroke-width: 1.0;"/><polygon fill="#A80036" points="136.331,92.905,145.7974,90.1871,140.1623,89.6923,140.6571,84.0571,136.331,92.905" style="stroke: #A80036; stroke-width: 1.0;"/><!--link root to node2--><path d="M221.5,33.041 C221.5,47.208 221.5,71.348 221.5,87.605 " fill="none" id="root-&gt;node2" style="stroke: #A80036; stroke-width: 1.0;"/><polygon fill="#A80036" points="221.5,92.79,225.5,83.79,221.5,87.79,217.5,83.79,221.5,92.79" style="stroke: #A80036; stroke-width: 1.0;"/><!--link root to node3--><path d="M233.639,31.677 C250.896,46.145 282.637,72.756 302.598,89.491 " fill="none" id="root-&gt;node3" style="stroke: #A80036; stroke-width: 1.0;"/><polygon fill="#A80036" points="306.669,92.905,302.3429,84.0571,302.8377,89.6923,297.2026,90.1871,306.669,92.905" style="stroke: #A80036; stroke-width: 1.0;"/><!--link node1 to sub1--><path d="M113.184,118.0408 C101.4497,132.5772 81.239,157.6143 68.1247,173.8604 " fill="none" id="node1-&gt;sub1" style="stroke: #A80036; stroke-width: 1.0;"/><polygon fill="#A80036" points="64.9529,177.7897,73.7185,173.2993,68.0936,173.8992,67.4937,168.2742,64.9529,177.7897" style="stroke: #A80036; stroke-width: 1.0;"/><!--link node1 to sub2--><path d="M131.816,118.0408 C143.55,132.5772 163.761,157.6143 176.875,173.8604 " fill="none" id="node1-&gt;sub2" style="stroke: #A80036; stroke-width: 1.0;"/><polygon fill="#A80036" points="180.047,177.7897,177.5055,168.2744,176.906,173.8994,171.281,173.2999,180.047,177.7897" style="stroke: #A80036; stroke-width: 1.0;"/><!--
@startuml
card root as "/"
card node1 as "/node1"
card node2 as "/node2"
card node3 as "/node3"
node1 <-up- root
node2 <-up- root
node3 <-up- root
card sub1 as "/node1/sub1"
card sub2 as "/node1/sub2"
sub1 <-up- node1
sub2 <-up- node1
@enduml

PlantUML version 1.2019.09(Tue Aug 27 00:19:51 CST 2019)
(GPL source distribution)
Java Runtime: Java(TM) SE Runtime Environment
JVM: Java HotSpot(TM) 64-Bit Server VM
Java Version: 1.8.0_231-b11
Operating System: Windows 10
OS Version: 10.0
Default Encoding: GBK
Language: zh
Country: CN
--></g></svg>