<?xml version="1.0" encoding="UTF-8" standalone="no"?><svg xmlns="http://www.w3.org/2000/svg" xmlns:xlink="http://www.w3.org/1999/xlink" contentScriptType="application/ecmascript" contentStyleType="text/css" height="220px" preserveAspectRatio="none" style="width:338px;height:220px;" version="1.1" viewBox="0 0 338 220" width="338px" zoomAndPan="magnify"><defs><filter height="300%" id="fynwj27yzkbga" width="300%" x="-1" y="-1"><feGaussianBlur result="blurOut" stdDeviation="2.0"/><feColorMatrix in="blurOut" result="blurOut2" type="matrix" values="0 0 0 0 0 0 0 0 0 0 0 0 0 0 0 0 0 0 .4 0"/><feOffset dx="4.0" dy="4.0" in="blurOut2" result="blurOut3"/><feBlend in="SourceGraphic" in2="blurOut3" mode="normal"/></filter></defs><g><!--class Observer--><rect fill="#FEFECE" filter="url(#fynwj27yzkbga)" height="63.0229" id="Observer" style="stroke: #A80036; stroke-width: 1.5;" width="89" x="68" y="23"/><ellipse cx="85.7" cy="39" fill="#B4A7E5" rx="11" ry="11" style="stroke: #A80036; stroke-width: 1.0;"/><path d="M82.2938,33.2813 L82.2938,32.875 L88.6063,32.875 L88.6063,33.2813 L86.075,33.2813 Q86.075,33.2813 86.2234,33.4141 Q86.3719,33.5469 86.3719,33.8125 L86.3719,43.2969 Q86.3719,43.5625 86.5906,43.6953 Q86.8094,43.8281 86.8094,43.8281 L88.6063,43.8281 L88.6063,44.2344 L82.2938,44.2344 L82.2938,43.8281 L83.825,43.8281 Q84.1531,43.8281 84.2859,43.6953 Q84.4188,43.5625 84.4188,43.2969 L84.4188,33.8125 Q84.4188,33.5469 84.2859,33.4141 Q84.1531,33.2813 83.825,33.2813 L82.2938,33.2813 Z "/><text fill="#000000" font-family="sans-serif" font-size="12" font-style="italic" lengthAdjust="spacingAndGlyphs" textLength="51" x="100.3" y="44.5576">Observer</text><line style="stroke: #A80036; stroke-width: 1.5;" x1="69" x2="156" y1="55" y2="55"/><line style="stroke: #A80036; stroke-width: 1.5;" x1="69" x2="156" y1="63" y2="63"/><text fill="#000000" font-family="sans-serif" font-size="11" lengthAdjust="spacingAndGlyphs" textLength="77" x="74" y="79.606">void response()</text><!--class Observer1--><rect fill="#FEFECE" filter="url(#fynwj27yzkbga)" height="48" id="Observer1" style="stroke: #A80036; stroke-width: 1.5;" width="89" x="6" y="161"/><ellipse cx="21" cy="177" fill="#ADD1B2" rx="11" ry="11" style="stroke: #A80036; stroke-width: 1.0;"/><path d="M19.5781,182.3594 Q17.7188,182.3594 16.625,180.9688 Q15.5313,179.5781 15.5313,176.5938 Q15.5313,174.0625 16.6953,172.4063 Q17.8594,170.75 19.8438,170.75 Q21.3125,170.75 21.7813,170.875 Q22.25,171.0781 22.25,171.0781 Q22.25,171.0781 22.25,171.0078 Q22.25,170.9375 22.8594,170.0156 L23.9063,173.6719 L22.5781,174.0781 Q22.1094,172.5313 21.4453,171.8672 Q20.7813,171.2031 19.7188,171.2031 Q19.3281,171.2031 18.5625,172.7344 Q17.7969,174.2656 17.7969,176.5156 Q17.7969,178.9844 18.4609,180.375 Q19.125,181.7656 19.6563,181.7656 Q20.7188,181.7656 21.4766,181 Q22.2344,180.2344 22.5781,178.5781 L23.9063,179.1719 Q23.5781,180.5781 22.6797,181.4688 Q21.7813,182.3594 19.5781,182.3594 Z "/><text fill="#000000" font-family="sans-serif" font-size="12" lengthAdjust="spacingAndGlyphs" textLength="57" x="35" y="182.5576">Observer1</text><line style="stroke: #A80036; stroke-width: 1.5;" x1="7" x2="94" y1="193" y2="193"/><line style="stroke: #A80036; stroke-width: 1.5;" x1="7" x2="94" y1="201" y2="201"/><!--class Observer2--><rect fill="#FEFECE" filter="url(#fynwj27yzkbga)" height="48" id="Observer2" style="stroke: #A80036; stroke-width: 1.5;" width="89" x="130" y="161"/><ellipse cx="145" cy="177" fill="#ADD1B2" rx="11" ry="11" style="stroke: #A80036; stroke-width: 1.0;"/><path d="M143.5781,182.3594 Q141.7188,182.3594 140.625,180.9688 Q139.5313,179.5781 139.5313,176.5938 Q139.5313,174.0625 140.6953,172.4063 Q141.8594,170.75 143.8438,170.75 Q145.3125,170.75 145.7813,170.875 Q146.25,171.0781 146.25,171.0781 Q146.25,171.0781 146.25,171.0078 Q146.25,170.9375 146.8594,170.0156 L147.9063,173.6719 L146.5781,174.0781 Q146.1094,172.5313 145.4453,171.8672 Q144.7813,171.2031 143.7188,171.2031 Q143.3281,171.2031 142.5625,172.7344 Q141.7969,174.2656 141.7969,176.5156 Q141.7969,178.9844 142.4609,180.375 Q143.125,181.7656 143.6563,181.7656 Q144.7188,181.7656 145.4766,181 Q146.2344,180.2344 146.5781,178.5781 L147.9063,179.1719 Q147.5781,180.5781 146.6797,181.4688 Q145.7813,182.3594 143.5781,182.3594 Z "/><text fill="#000000" font-family="sans-serif" font-size="12" lengthAdjust="spacingAndGlyphs" textLength="57" x="159" y="182.5576">Observer2</text><line style="stroke: #A80036; stroke-width: 1.5;" x1="131" x2="218" y1="193" y2="193"/><line style="stroke: #A80036; stroke-width: 1.5;" x1="131" x2="218" y1="201" y2="201"/><!--class Subject--><rect fill="#FEFECE" filter="url(#fynwj27yzkbga)" height="93.0688" id="Subject" style="stroke: #A80036; stroke-width: 1.5;" width="135" x="192" y="8"/><ellipse cx="234.9" cy="24" fill="#ADD1B2" rx="11" ry="11" style="stroke: #A80036; stroke-width: 1.0;"/><path d="M233.4781,29.3594 Q231.6188,29.3594 230.525,27.9688 Q229.4313,26.5781 229.4313,23.5938 Q229.4313,21.0625 230.5953,19.4063 Q231.7594,17.75 233.7438,17.75 Q235.2125,17.75 235.6813,17.875 Q236.15,18.0781 236.15,18.0781 Q236.15,18.0781 236.15,18.0078 Q236.15,17.9375 236.7594,17.0156 L237.8063,20.6719 L236.4781,21.0781 Q236.0094,19.5313 235.3453,18.8672 Q234.6813,18.2031 233.6188,18.2031 Q233.2281,18.2031 232.4625,19.7344 Q231.6969,21.2656 231.6969,23.5156 Q231.6969,25.9844 232.3609,27.375 Q233.025,28.7656 233.5563,28.7656 Q234.6188,28.7656 235.3766,28 Q236.1344,27.2344 236.4781,25.5781 L237.8063,26.1719 Q237.4781,27.5781 236.5797,28.4688 Q235.6813,29.3594 233.4781,29.3594 Z "/><text fill="#000000" font-family="sans-serif" font-size="12" lengthAdjust="spacingAndGlyphs" textLength="41" x="255.1" y="29.5576">Subject</text><line style="stroke: #A80036; stroke-width: 1.5;" x1="193" x2="326" y1="40" y2="40"/><rect fill="none" height="6" style="stroke: #C82930; stroke-width: 1.0;" width="6" x="200" y="48"/><text fill="#000000" font-family="sans-serif" font-size="11" lengthAdjust="spacingAndGlyphs" textLength="91" x="212" y="56.606">List&lt;Observer&gt; list</text><line style="stroke: #A80036; stroke-width: 1.5;" x1="193" x2="326" y1="63.0229" y2="63.0229"/><text fill="#000000" font-family="sans-serif" font-size="11" lengthAdjust="spacingAndGlyphs" textLength="123" x="198" y="79.6289">void register(Observer o)</text><text fill="#000000" font-family="sans-serif" font-size="11" lengthAdjust="spacingAndGlyphs" textLength="58" x="198" y="94.6519">void notify()</text><!--reverse link Observer to Observer1--><path d="M88.9427,104.325 C79.6092,123.6689 69.319,144.996 61.7356,160.7133 " fill="none" id="Observer&lt;-Observer1" style="stroke: #A80036; stroke-width: 1.0; stroke-dasharray: 7.0,7.0;"/><polygon fill="none" points="82.6538,101.25,97.6495,86.279,95.2629,107.334,82.6538,101.25" style="stroke: #A80036; stroke-width: 1.0;"/><!--reverse link Observer to Observer2--><path d="M136.057,104.325 C145.391,123.6689 155.681,144.996 163.264,160.7133 " fill="none" id="Observer&lt;-Observer2" style="stroke: #A80036; stroke-width: 1.0; stroke-dasharray: 7.0,7.0;"/><polygon fill="none" points="129.737,107.334,127.351,86.279,142.346,101.25,129.737,107.334" style="stroke: #A80036; stroke-width: 1.0;"/><!--link Observer to Subject--><path d="M157.002,74.448 C164.259,76.288 171.516,77.438 178.773,77.897 " fill="none" id="Observer-&gt;Subject" style="stroke: #A80036; stroke-width: 1.0; stroke-dasharray: 7.0,7.0;"/><polygon fill="#FFFFFF" points="191.835,77.976,185.8593,73.9398,179.8352,77.9035,185.8109,81.9397,191.835,77.976" style="stroke: #A80036; stroke-width: 1.0;"/><!--link Subject to Observer--><path d="M191.835,31.024 C181.857,30.515 171.879,31.312 161.9,33.415 " fill="none" id="Subject-&gt;Observer" style="stroke: #A80036; stroke-width: 1.0; stroke-dasharray: 7.0,7.0;"/><polygon fill="#A80036" points="157.002,34.552,166.6732,36.4142,161.8726,33.4219,164.865,28.6213,157.002,34.552" style="stroke: #A80036; stroke-width: 1.0;"/><!--
@startuml
interface Observer {
    void response()
}
class Observer1 implements Observer
class Observer2 implements Observer
class Subject {
    -List<Observer> list
    void register(Observer o)
    void notify()
}
Observer .left.o Subject
Subject ..> Observer
@enduml

PlantUML version 1.2019.09(Tue Aug 27 00:19:51 CST 2019)
(GPL source distribution)
Java Runtime: Java(TM) SE Runtime Environment
JVM: Java HotSpot(TM) 64-Bit Server VM
Java Version: 1.8.0_231-b11
Operating System: Windows 10
OS Version: 10.0
Default Encoding: GBK
Language: zh
Country: CN
--></g></svg>