<?xml version="1.0" encoding="UTF-8" standalone="no"?><svg xmlns="http://www.w3.org/2000/svg" xmlns:xlink="http://www.w3.org/1999/xlink" contentScriptType="application/ecmascript" contentStyleType="text/css" height="438px" preserveAspectRatio="none" style="width:582px;height:438px;" version="1.1" viewBox="0 0 582 438" width="582px" zoomAndPan="magnify"><defs><filter height="300%" id="faplshogyddrk" width="300%" x="-1" y="-1"><feGaussianBlur result="blurOut" stdDeviation="2.0"/><feColorMatrix in="blurOut" result="blurOut2" type="matrix" values="0 0 0 0 0 0 0 0 0 0 0 0 0 0 0 0 0 0 .4 0"/><feOffset dx="4.0" dy="4.0" in="blurOut2" result="blurOut3"/><feBlend in="SourceGraphic" in2="blurOut3" mode="normal"/></filter></defs><g><!--MD5=[de1e4e6874e4b3b785f9192c3a551bbe]
class Pointcut--><rect codeLine="1" fill="#FEFECE" filter="url(#faplshogyddrk)" height="78.0459" id="Pointcut" style="stroke: #A80036; stroke-width: 1.5;" width="109" x="238.5" y="7"/><ellipse cx="268.35" cy="23" fill="#B4A7E5" rx="11" ry="11" style="stroke: #A80036; stroke-width: 1.0;"/><path d="M264.9438,17.7813 L264.9438,16.6875 L270.9438,16.6875 L270.9438,17.7813 L269.0688,17.7813 Q268.9281,17.7813 268.8656,17.8281 Q268.8188,17.8594 268.8188,17.9688 L268.8188,27.4531 Q268.8188,27.5625 268.8656,27.6094 Q268.9281,27.6406 269.0688,27.6406 L270.9438,27.6406 L270.9438,28.7344 L264.9438,28.7344 L264.9438,27.6406 L266.8188,27.6406 Q267.0063,27.6406 267.0375,27.6094 Q267.0688,27.5781 267.0688,27.4531 L267.0688,17.9688 Q267.0688,17.8438 267.0375,17.8125 Q267.0063,17.7813 266.8188,17.7813 L264.9438,17.7813 Z "/><text fill="#000000" font-family="sans-serif" font-size="12" font-style="italic" lengthAdjust="spacingAndGlyphs" textLength="44" x="285.65" y="28.5576">Pointcut</text><line style="stroke: #A80036; stroke-width: 1.5;" x1="239.5" x2="346.5" y1="39" y2="39"/><line style="stroke: #A80036; stroke-width: 1.5;" x1="239.5" x2="346.5" y1="47" y2="47"/><text fill="#000000" font-family="sans-serif" font-size="11" lengthAdjust="spacingAndGlyphs" textLength="73" x="244.5" y="63.606">getClassFilter()</text><text fill="#000000" font-family="sans-serif" font-size="11" lengthAdjust="spacingAndGlyphs" textLength="97" x="244.5" y="78.6289">getMethodMatcher()</text><!--MD5=[6abd35698ad0f7eb2507d644d5d7be5e]
class ExpressionPointcut--><rect codeLine="5" fill="#FEFECE" filter="url(#faplshogyddrk)" height="63.0229" id="ExpressionPointcut" style="stroke: #A80036; stroke-width: 1.5;" width="137" x="29.5" y="145"/><ellipse cx="44.5" cy="161" fill="#B4A7E5" rx="11" ry="11" style="stroke: #A80036; stroke-width: 1.0;"/><path d="M41.0938,155.7813 L41.0938,154.6875 L47.0938,154.6875 L47.0938,155.7813 L45.2188,155.7813 Q45.0781,155.7813 45.0156,155.8281 Q44.9688,155.8594 44.9688,155.9688 L44.9688,165.4531 Q44.9688,165.5625 45.0156,165.6094 Q45.0781,165.6406 45.2188,165.6406 L47.0938,165.6406 L47.0938,166.7344 L41.0938,166.7344 L41.0938,165.6406 L42.9688,165.6406 Q43.1563,165.6406 43.1875,165.6094 Q43.2188,165.5781 43.2188,165.4531 L43.2188,155.9688 Q43.2188,155.8438 43.1875,155.8125 Q43.1563,155.7813 42.9688,155.7813 L41.0938,155.7813 Z "/><text fill="#000000" font-family="sans-serif" font-size="12" font-style="italic" lengthAdjust="spacingAndGlyphs" textLength="105" x="58.5" y="166.5576">ExpressionPointcut</text><line style="stroke: #A80036; stroke-width: 1.5;" x1="30.5" x2="165.5" y1="177" y2="177"/><line style="stroke: #A80036; stroke-width: 1.5;" x1="30.5" x2="165.5" y1="185" y2="185"/><text fill="#000000" font-family="sans-serif" font-size="11" lengthAdjust="spacingAndGlyphs" textLength="77" x="35.5" y="201.606">getExpression()</text><!--MD5=[6f14fbe25c316f400135141e60be17f6]
class AnnotationMatchingPointcut--><rect codeLine="8" fill="#FEFECE" filter="url(#faplshogyddrk)" height="48" id="AnnotationMatchingPointcut" style="stroke: #A80036; stroke-width: 1.5;" width="183" x="201.5" y="152.5"/><ellipse cx="216.5" cy="168.5" fill="#ADD1B2" rx="11" ry="11" style="stroke: #A80036; stroke-width: 1.0;"/><path d="M215.9219,174.3594 Q213.8906,174.3594 212.7031,172.8594 Q211.5313,171.3594 211.5313,168.25 Q211.5313,165.6094 212.7813,163.8438 Q214.0313,162.0625 216.1875,162.0625 Q216.7031,162.0625 217.2344,162.2031 Q217.6719,162.3906 217.9219,162.3906 Q218.1094,162.3906 218.2031,162.3594 Q218.2969,162.3125 218.8438,161.5938 L219.6563,165.5625 L218.6094,165.875 Q218.1563,164.375 217.5625,163.7969 Q216.9844,163.2031 216.0625,163.2031 Q214.8906,163.2031 214.1875,164.6094 Q213.4844,166 213.4844,168.1719 Q213.4844,170.5625 214.0781,171.8281 Q214.6875,173.0781 216,173.0781 Q216.9219,173.0781 217.5938,172.4063 Q218.2656,171.7188 218.5938,170.1406 L219.6406,170.6406 Q219.2344,172.4063 218.25,173.3906 Q217.2656,174.3594 215.9219,174.3594 Z "/><text fill="#000000" font-family="sans-serif" font-size="12" lengthAdjust="spacingAndGlyphs" textLength="151" x="230.5" y="174.0576">AnnotationMatchingPointcut</text><line style="stroke: #A80036; stroke-width: 1.5;" x1="202.5" x2="383.5" y1="184.5" y2="184.5"/><line style="stroke: #A80036; stroke-width: 1.5;" x1="202.5" x2="383.5" y1="192.5" y2="192.5"/><!--MD5=[0925e6be1d1e9b392f9bc7e1f1cba7d3]
class AbstractExpressionPointcut--><rect codeLine="9" fill="#FEFECE" filter="url(#faplshogyddrk)" height="48" id="AbstractExpressionPointcut" style="stroke: #A80036; stroke-width: 1.5;" width="182" x="7" y="268"/><ellipse cx="22" cy="284" fill="#A9DCDF" rx="11" ry="11" style="stroke: #A80036; stroke-width: 1.0;"/><path d="M22.4375,284.4844 L20,284.4844 L19.4844,286.7188 Q19.4219,287.0313 19.4219,287.1875 Q19.4219,287.3906 19.4688,287.5156 Q19.5156,287.6406 19.7344,287.6406 L20.2813,287.6406 L20.2813,288.7344 L17.1406,288.7344 L17.1406,287.6406 L17.6719,287.6406 Q17.8125,287.6406 17.9219,287.5625 Q18.0313,287.4688 18.0625,287.2031 L20.7188,276.8281 L22.25,276.3281 L24.8438,287.1719 Q24.9531,287.4531 25.0625,287.5469 Q25.1719,287.6406 25.3125,287.6406 L25.8594,287.6406 L25.8594,288.7344 L22.3125,288.7344 L22.3125,287.6406 L22.9219,287.6406 Q23.0938,287.6406 23.0938,287.625 Q23.1094,287.5938 23.1094,287.5313 Q23.1094,287.3125 23.0625,287.1563 L22.4375,284.4844 Z M17.8594,288.3281 L17.8594,288.3281 Z M18.5313,288.3281 L18.5313,288.3281 Z M23.25,288.3281 L23.25,288.3281 Z M24.375,288.3281 L24.375,288.3281 Z M21.2656,278.3125 L21.3281,278.3125 L20.3125,283.3906 L22.2188,283.3906 L21.2656,278.3125 Z "/><text fill="#000000" font-family="sans-serif" font-size="12" font-style="italic" lengthAdjust="spacingAndGlyphs" textLength="150" x="36" y="289.5576">AbstractExpressionPointcut</text><line style="stroke: #A80036; stroke-width: 1.5;" x1="8" x2="188" y1="300" y2="300"/><line style="stroke: #A80036; stroke-width: 1.5;" x1="8" x2="188" y1="308" y2="308"/><!--MD5=[230347177fd746dc5d946ee0ff6ab91d]
class AspectJExpressionPointcut--><rect codeLine="10" fill="#FEFECE" filter="url(#faplshogyddrk)" height="48" id="AspectJExpressionPointcut" style="stroke: #A80036; stroke-width: 1.5;" width="181" x="7.5" y="376"/><ellipse cx="22.5" cy="392" fill="#ADD1B2" rx="11" ry="11" style="stroke: #A80036; stroke-width: 1.0;"/><path d="M21.9219,397.8594 Q19.8906,397.8594 18.7031,396.3594 Q17.5313,394.8594 17.5313,391.75 Q17.5313,389.1094 18.7813,387.3438 Q20.0313,385.5625 22.1875,385.5625 Q22.7031,385.5625 23.2344,385.7031 Q23.6719,385.8906 23.9219,385.8906 Q24.1094,385.8906 24.2031,385.8594 Q24.2969,385.8125 24.8438,385.0938 L25.6563,389.0625 L24.6094,389.375 Q24.1563,387.875 23.5625,387.2969 Q22.9844,386.7031 22.0625,386.7031 Q20.8906,386.7031 20.1875,388.1094 Q19.4844,389.5 19.4844,391.6719 Q19.4844,394.0625 20.0781,395.3281 Q20.6875,396.5781 22,396.5781 Q22.9219,396.5781 23.5938,395.9063 Q24.2656,395.2188 24.5938,393.6406 L25.6406,394.1406 Q25.2344,395.9063 24.25,396.8906 Q23.2656,397.8594 21.9219,397.8594 Z "/><text fill="#000000" font-family="sans-serif" font-size="12" lengthAdjust="spacingAndGlyphs" textLength="149" x="36.5" y="397.5576">AspectJExpressionPointcut</text><line style="stroke: #A80036; stroke-width: 1.5;" x1="8.5" x2="187.5" y1="408" y2="408"/><line style="stroke: #A80036; stroke-width: 1.5;" x1="8.5" x2="187.5" y1="416" y2="416"/><!--MD5=[57f4179b23125d8ffe4d180e00a4af4c]
class ComposablePointcut--><rect codeLine="11" fill="#FEFECE" filter="url(#faplshogyddrk)" height="48" id="ComposablePointcut" style="stroke: #A80036; stroke-width: 1.5;" width="148" x="420" y="152.5"/><ellipse cx="435" cy="168.5" fill="#ADD1B2" rx="11" ry="11" style="stroke: #A80036; stroke-width: 1.0;"/><path d="M434.4219,174.3594 Q432.3906,174.3594 431.2031,172.8594 Q430.0313,171.3594 430.0313,168.25 Q430.0313,165.6094 431.2813,163.8438 Q432.5313,162.0625 434.6875,162.0625 Q435.2031,162.0625 435.7344,162.2031 Q436.1719,162.3906 436.4219,162.3906 Q436.6094,162.3906 436.7031,162.3594 Q436.7969,162.3125 437.3438,161.5938 L438.1563,165.5625 L437.1094,165.875 Q436.6563,164.375 436.0625,163.7969 Q435.4844,163.2031 434.5625,163.2031 Q433.3906,163.2031 432.6875,164.6094 Q431.9844,166 431.9844,168.1719 Q431.9844,170.5625 432.5781,171.8281 Q433.1875,173.0781 434.5,173.0781 Q435.4219,173.0781 436.0938,172.4063 Q436.7656,171.7188 437.0938,170.1406 L438.1406,170.6406 Q437.7344,172.4063 436.75,173.3906 Q435.7656,174.3594 434.4219,174.3594 Z "/><text fill="#000000" font-family="sans-serif" font-size="12" lengthAdjust="spacingAndGlyphs" textLength="116" x="449" y="174.0576">ComposablePointcut</text><line style="stroke: #A80036; stroke-width: 1.5;" x1="421" x2="567" y1="184.5" y2="184.5"/><line style="stroke: #A80036; stroke-width: 1.5;" x1="421" x2="567" y1="192.5" y2="192.5"/><!--MD5=[a17fa307d3d7768cc9848e9854d7ed59]
reverse link Pointcut to ExpressionPointcut--><path d="M221.523,94.101 C195.752,111.084 167.363,129.791 144.306,144.985 " fill="none" id="Pointcut-backto-ExpressionPointcut" style="stroke: #A80036; stroke-width: 1.0;"/><polygon fill="none" points="217.871,88.125,238.422,82.965,225.574,99.815,217.871,88.125" style="stroke: #A80036; stroke-width: 1.0;"/><!--MD5=[c95526910793e318b6c184307026fb20]
reverse link Pointcut to AnnotationMatchingPointcut--><path d="M293,105.238 C293,121.833 293,138.967 293,152.161 " fill="none" id="Pointcut-backto-AnnotationMatchingPointcut" style="stroke: #A80036; stroke-width: 1.0; stroke-dasharray: 7.0,7.0;"/><polygon fill="none" points="286,105.206,293,85.206,300,105.206,286,105.206" style="stroke: #A80036; stroke-width: 1.0;"/><!--MD5=[f51d63a6498e9dce4f665b2b5d5d71e6]
reverse link ExpressionPointcut to AbstractExpressionPointcut--><path d="M98,228.354 C98,242.143 98,256.401 98,267.825 " fill="none" id="ExpressionPointcut-backto-AbstractExpressionPointcut" style="stroke: #A80036; stroke-width: 1.0; stroke-dasharray: 7.0,7.0;"/><polygon fill="none" points="91.0001,228.215,98,208.215,105.0001,228.215,91.0001,228.215" style="stroke: #A80036; stroke-width: 1.0;"/><!--MD5=[1bd7d1f42b4b1133a68cc6047b7ba38a]
reverse link AbstractExpressionPointcut to AspectJExpressionPointcut--><path d="M98,336.0236 C98,349.5792 98,364.0381 98,375.6784 " fill="none" id="AbstractExpressionPointcut-backto-AspectJExpressionPointcut" style="stroke: #A80036; stroke-width: 1.0;"/><polygon fill="none" points="91.0001,336.0005,98,316,105.0001,336.0004,91.0001,336.0005" style="stroke: #A80036; stroke-width: 1.0;"/><!--MD5=[c4f348c50e41b652b8f86a5dc2bb1bfd]
reverse link Pointcut to ComposablePointcut--><path d="M364.663,92.815 C396.198,112.975 431.87,135.78 457.752,152.326 " fill="none" id="Pointcut-backto-ComposablePointcut" style="stroke: #A80036; stroke-width: 1.0; stroke-dasharray: 7.0,7.0;"/><polygon fill="none" points="360.739,98.614,347.659,81.943,368.28,86.818,360.739,98.614" style="stroke: #A80036; stroke-width: 1.0;"/><!--MD5=[d51eea4f052102f09de7f23adb3a2bd2]
@startuml
interface Pointcut {
    getClassFilter()
    getMethodMatcher()
}
interface ExpressionPointcut extends Pointcut {
    getExpression()
}
class AnnotationMatchingPointcut implements Pointcut
abstract class AbstractExpressionPointcut implements ExpressionPointcut
class AspectJExpressionPointcut extends AbstractExpressionPointcut
class ComposablePointcut implements Pointcut
@enduml

PlantUML version 1.2020.18(Thu Oct 01 03:40:44 CST 2020)
(GPL source distribution)
Java Runtime: Java(TM) SE Runtime Environment
JVM: Java HotSpot(TM) 64-Bit Server VM
Default Encoding: GBK
Language: zh
Country: CN
--></g></svg>