<?xml version="1.0" encoding="UTF-8" standalone="no"?><svg xmlns="http://www.w3.org/2000/svg" xmlns:xlink="http://www.w3.org/1999/xlink" contentScriptType="application/ecmascript" contentStyleType="text/css" height="501px" preserveAspectRatio="none" style="width:786px;height:501px;" version="1.1" viewBox="0 0 786 501" width="786px" zoomAndPan="magnify"><defs><filter height="300%" id="fnpp4g0b3ndlq" width="300%" x="-1" y="-1"><feGaussianBlur result="blurOut" stdDeviation="2.0"/><feColorMatrix in="blurOut" result="blurOut2" type="matrix" values="0 0 0 0 0 0 0 0 0 0 0 0 0 0 0 0 0 0 .4 0"/><feOffset dx="4.0" dy="4.0" in="blurOut2" result="blurOut3"/><feBlend in="SourceGraphic" in2="blurOut3" mode="normal"/></filter></defs><g><!--MD5=[0efddbf24333d9d1b7251f53ed311a58]
class AbstractAutoProxyCreator--><rect codeLine="1" fill="#FEFECE" filter="url(#fnpp4g0b3ndlq)" height="48" id="AbstractAutoProxyCreator" style="stroke: #A80036; stroke-width: 1.5;" width="174" x="427.5" y="115"/><ellipse cx="442.5" cy="131" fill="#A9DCDF" rx="11" ry="11" style="stroke: #A80036; stroke-width: 1.0;"/><path d="M442.9375,131.4844 L440.5,131.4844 L439.9844,133.7188 Q439.9219,134.0313 439.9219,134.1875 Q439.9219,134.3906 439.9688,134.5156 Q440.0156,134.6406 440.2344,134.6406 L440.7813,134.6406 L440.7813,135.7344 L437.6406,135.7344 L437.6406,134.6406 L438.1719,134.6406 Q438.3125,134.6406 438.4219,134.5625 Q438.5313,134.4688 438.5625,134.2031 L441.2188,123.8281 L442.75,123.3281 L445.3438,134.1719 Q445.4531,134.4531 445.5625,134.5469 Q445.6719,134.6406 445.8125,134.6406 L446.3594,134.6406 L446.3594,135.7344 L442.8125,135.7344 L442.8125,134.6406 L443.4219,134.6406 Q443.5938,134.6406 443.5938,134.625 Q443.6094,134.5938 443.6094,134.5313 Q443.6094,134.3125 443.5625,134.1563 L442.9375,131.4844 Z M438.3594,135.3281 L438.3594,135.3281 Z M439.0313,135.3281 L439.0313,135.3281 Z M443.75,135.3281 L443.75,135.3281 Z M444.875,135.3281 L444.875,135.3281 Z M441.7656,125.3125 L441.8281,125.3125 L440.8125,130.3906 L442.7188,130.3906 L441.7656,125.3125 Z "/><text fill="#000000" font-family="sans-serif" font-size="12" font-style="italic" lengthAdjust="spacingAndGlyphs" textLength="142" x="456.5" y="136.5576">AbstractAutoProxyCreator</text><line style="stroke: #A80036; stroke-width: 1.5;" x1="428.5" x2="600.5" y1="147" y2="147"/><line style="stroke: #A80036; stroke-width: 1.5;" x1="428.5" x2="600.5" y1="155" y2="155"/><!--MD5=[f4a64beb6f30a0c31c8c012d6baf867a]
class SmartInstantiationAwareBeanPostProcessor--><rect fill="#FEFECE" filter="url(#fnpp4g0b3ndlq)" height="48" id="SmartInstantiationAwareBeanPostProcessor" style="stroke: #A80036; stroke-width: 1.5;" width="274" x="377.5" y="7"/><ellipse cx="392.5" cy="23" fill="#B4A7E5" rx="11" ry="11" style="stroke: #A80036; stroke-width: 1.0;"/><path d="M389.0938,17.7813 L389.0938,16.6875 L395.0938,16.6875 L395.0938,17.7813 L393.2188,17.7813 Q393.0781,17.7813 393.0156,17.8281 Q392.9688,17.8594 392.9688,17.9688 L392.9688,27.4531 Q392.9688,27.5625 393.0156,27.6094 Q393.0781,27.6406 393.2188,27.6406 L395.0938,27.6406 L395.0938,28.7344 L389.0938,28.7344 L389.0938,27.6406 L390.9688,27.6406 Q391.1563,27.6406 391.1875,27.6094 Q391.2188,27.5781 391.2188,27.4531 L391.2188,17.9688 Q391.2188,17.8438 391.1875,17.8125 Q391.1563,17.7813 390.9688,17.7813 L389.0938,17.7813 Z "/><text fill="#000000" font-family="sans-serif" font-size="12" font-style="italic" lengthAdjust="spacingAndGlyphs" textLength="242" x="406.5" y="28.5576">SmartInstantiationAwareBeanPostProcessor</text><line style="stroke: #A80036; stroke-width: 1.5;" x1="378.5" x2="650.5" y1="39" y2="39"/><line style="stroke: #A80036; stroke-width: 1.5;" x1="378.5" x2="650.5" y1="47" y2="47"/><!--MD5=[48e5c3ff6f4f03dbf6c187f0b908eb26]
class AbstractAdvisorAutoProxyCreator--><rect codeLine="2" fill="#FEFECE" filter="url(#fnpp4g0b3ndlq)" height="48" id="AbstractAdvisorAutoProxyCreator" style="stroke: #A80036; stroke-width: 1.5;" width="215" x="289" y="223"/><ellipse cx="304" cy="239" fill="#A9DCDF" rx="11" ry="11" style="stroke: #A80036; stroke-width: 1.0;"/><path d="M304.4375,239.4844 L302,239.4844 L301.4844,241.7188 Q301.4219,242.0313 301.4219,242.1875 Q301.4219,242.3906 301.4688,242.5156 Q301.5156,242.6406 301.7344,242.6406 L302.2813,242.6406 L302.2813,243.7344 L299.1406,243.7344 L299.1406,242.6406 L299.6719,242.6406 Q299.8125,242.6406 299.9219,242.5625 Q300.0313,242.4688 300.0625,242.2031 L302.7188,231.8281 L304.25,231.3281 L306.8438,242.1719 Q306.9531,242.4531 307.0625,242.5469 Q307.1719,242.6406 307.3125,242.6406 L307.8594,242.6406 L307.8594,243.7344 L304.3125,243.7344 L304.3125,242.6406 L304.9219,242.6406 Q305.0938,242.6406 305.0938,242.625 Q305.1094,242.5938 305.1094,242.5313 Q305.1094,242.3125 305.0625,242.1563 L304.4375,239.4844 Z M299.8594,243.3281 L299.8594,243.3281 Z M300.5313,243.3281 L300.5313,243.3281 Z M305.25,243.3281 L305.25,243.3281 Z M306.375,243.3281 L306.375,243.3281 Z M303.2656,233.3125 L303.3281,233.3125 L302.3125,238.3906 L304.2188,238.3906 L303.2656,233.3125 Z "/><text fill="#000000" font-family="sans-serif" font-size="12" font-style="italic" lengthAdjust="spacingAndGlyphs" textLength="183" x="318" y="244.5576">AbstractAdvisorAutoProxyCreator</text><line style="stroke: #A80036; stroke-width: 1.5;" x1="290" x2="503" y1="255" y2="255"/><line style="stroke: #A80036; stroke-width: 1.5;" x1="290" x2="503" y1="263" y2="263"/><!--MD5=[1cd27b56ec483bf782480fda8e635b53]
class BeanNameAutoProxyCreator--><rect codeLine="3" fill="#FEFECE" filter="url(#fnpp4g0b3ndlq)" height="48" id="BeanNameAutoProxyCreator" style="stroke: #A80036; stroke-width: 1.5;" width="189" x="539" y="223"/><ellipse cx="554" cy="239" fill="#ADD1B2" rx="11" ry="11" style="stroke: #A80036; stroke-width: 1.0;"/><path d="M553.4219,244.8594 Q551.3906,244.8594 550.2031,243.3594 Q549.0313,241.8594 549.0313,238.75 Q549.0313,236.1094 550.2813,234.3438 Q551.5313,232.5625 553.6875,232.5625 Q554.2031,232.5625 554.7344,232.7031 Q555.1719,232.8906 555.4219,232.8906 Q555.6094,232.8906 555.7031,232.8594 Q555.7969,232.8125 556.3438,232.0938 L557.1563,236.0625 L556.1094,236.375 Q555.6563,234.875 555.0625,234.2969 Q554.4844,233.7031 553.5625,233.7031 Q552.3906,233.7031 551.6875,235.1094 Q550.9844,236.5 550.9844,238.6719 Q550.9844,241.0625 551.5781,242.3281 Q552.1875,243.5781 553.5,243.5781 Q554.4219,243.5781 555.0938,242.9063 Q555.7656,242.2188 556.0938,240.6406 L557.1406,241.1406 Q556.7344,242.9063 555.75,243.8906 Q554.7656,244.8594 553.4219,244.8594 Z "/><text fill="#000000" font-family="sans-serif" font-size="12" lengthAdjust="spacingAndGlyphs" textLength="157" x="568" y="244.5576">BeanNameAutoProxyCreator</text><line style="stroke: #A80036; stroke-width: 1.5;" x1="540" x2="727" y1="255" y2="255"/><line style="stroke: #A80036; stroke-width: 1.5;" x1="540" x2="727" y1="263" y2="263"/><!--MD5=[e1dfa329123566f174160dbf3498a4c9]
class AnnotationAwareAspectJAutoProxyCreator--><rect codeLine="4" fill="#FEFECE" filter="url(#fnpp4g0b3ndlq)" height="48" id="AnnotationAwareAspectJAutoProxyCreator" style="stroke: #A80036; stroke-width: 1.5;" width="261" x="7" y="439"/><ellipse cx="22" cy="455" fill="#ADD1B2" rx="11" ry="11" style="stroke: #A80036; stroke-width: 1.0;"/><path d="M21.4219,460.8594 Q19.3906,460.8594 18.2031,459.3594 Q17.0313,457.8594 17.0313,454.75 Q17.0313,452.1094 18.2813,450.3438 Q19.5313,448.5625 21.6875,448.5625 Q22.2031,448.5625 22.7344,448.7031 Q23.1719,448.8906 23.4219,448.8906 Q23.6094,448.8906 23.7031,448.8594 Q23.7969,448.8125 24.3438,448.0938 L25.1563,452.0625 L24.1094,452.375 Q23.6563,450.875 23.0625,450.2969 Q22.4844,449.7031 21.5625,449.7031 Q20.3906,449.7031 19.6875,451.1094 Q18.9844,452.5 18.9844,454.6719 Q18.9844,457.0625 19.5781,458.3281 Q20.1875,459.5781 21.5,459.5781 Q22.4219,459.5781 23.0938,458.9063 Q23.7656,458.2188 24.0938,456.6406 L25.1406,457.1406 Q24.7344,458.9063 23.75,459.8906 Q22.7656,460.8594 21.4219,460.8594 Z "/><text fill="#000000" font-family="sans-serif" font-size="12" lengthAdjust="spacingAndGlyphs" textLength="229" x="36" y="460.5576">AnnotationAwareAspectJAutoProxyCreator</text><line style="stroke: #A80036; stroke-width: 1.5;" x1="8" x2="267" y1="471" y2="471"/><line style="stroke: #A80036; stroke-width: 1.5;" x1="8" x2="267" y1="479" y2="479"/><!--MD5=[5947131df5208f5eeeb6b173b5376272]
class AspectJAwareAdvisorAutoProxyCreator--><rect codeLine="5" fill="#FEFECE" filter="url(#fnpp4g0b3ndlq)" height="48" id="AspectJAwareAdvisorAutoProxyCreator" style="stroke: #A80036; stroke-width: 1.5;" width="243" x="16" y="331"/><ellipse cx="31" cy="347" fill="#ADD1B2" rx="11" ry="11" style="stroke: #A80036; stroke-width: 1.0;"/><path d="M30.4219,352.8594 Q28.3906,352.8594 27.2031,351.3594 Q26.0313,349.8594 26.0313,346.75 Q26.0313,344.1094 27.2813,342.3438 Q28.5313,340.5625 30.6875,340.5625 Q31.2031,340.5625 31.7344,340.7031 Q32.1719,340.8906 32.4219,340.8906 Q32.6094,340.8906 32.7031,340.8594 Q32.7969,340.8125 33.3438,340.0938 L34.1563,344.0625 L33.1094,344.375 Q32.6563,342.875 32.0625,342.2969 Q31.4844,341.7031 30.5625,341.7031 Q29.3906,341.7031 28.6875,343.1094 Q27.9844,344.5 27.9844,346.6719 Q27.9844,349.0625 28.5781,350.3281 Q29.1875,351.5781 30.5,351.5781 Q31.4219,351.5781 32.0938,350.9063 Q32.7656,350.2188 33.0938,348.6406 L34.1406,349.1406 Q33.7344,350.9063 32.75,351.8906 Q31.7656,352.8594 30.4219,352.8594 Z "/><text fill="#000000" font-family="sans-serif" font-size="12" lengthAdjust="spacingAndGlyphs" textLength="211" x="45" y="352.5576">AspectJAwareAdvisorAutoProxyCreator</text><line style="stroke: #A80036; stroke-width: 1.5;" x1="17" x2="258" y1="363" y2="363"/><line style="stroke: #A80036; stroke-width: 1.5;" x1="17" x2="258" y1="371" y2="371"/><!--MD5=[996b7f18bdf100f3dfea6c3052bad408]
class DefaultAdvisorAutoProxyCreator--><rect codeLine="6" fill="#FEFECE" filter="url(#fnpp4g0b3ndlq)" height="48" id="DefaultAdvisorAutoProxyCreator" style="stroke: #A80036; stroke-width: 1.5;" width="205" x="294" y="331"/><ellipse cx="309" cy="347" fill="#ADD1B2" rx="11" ry="11" style="stroke: #A80036; stroke-width: 1.0;"/><path d="M308.4219,352.8594 Q306.3906,352.8594 305.2031,351.3594 Q304.0313,349.8594 304.0313,346.75 Q304.0313,344.1094 305.2813,342.3438 Q306.5313,340.5625 308.6875,340.5625 Q309.2031,340.5625 309.7344,340.7031 Q310.1719,340.8906 310.4219,340.8906 Q310.6094,340.8906 310.7031,340.8594 Q310.7969,340.8125 311.3438,340.0938 L312.1563,344.0625 L311.1094,344.375 Q310.6563,342.875 310.0625,342.2969 Q309.4844,341.7031 308.5625,341.7031 Q307.3906,341.7031 306.6875,343.1094 Q305.9844,344.5 305.9844,346.6719 Q305.9844,349.0625 306.5781,350.3281 Q307.1875,351.5781 308.5,351.5781 Q309.4219,351.5781 310.0938,350.9063 Q310.7656,350.2188 311.0938,348.6406 L312.1406,349.1406 Q311.7344,350.9063 310.75,351.8906 Q309.7656,352.8594 308.4219,352.8594 Z "/><text fill="#000000" font-family="sans-serif" font-size="12" lengthAdjust="spacingAndGlyphs" textLength="173" x="323" y="352.5576">DefaultAdvisorAutoProxyCreator</text><line style="stroke: #A80036; stroke-width: 1.5;" x1="295" x2="498" y1="363" y2="363"/><line style="stroke: #A80036; stroke-width: 1.5;" x1="295" x2="498" y1="371" y2="371"/><!--MD5=[a59850faef5f6c39c25ff5ddb46f8cbe]
class InfrastructureAdvisorAutoProxyCreator--><rect codeLine="7" fill="#FEFECE" filter="url(#fnpp4g0b3ndlq)" height="48" id="InfrastructureAdvisorAutoProxyCreator" style="stroke: #A80036; stroke-width: 1.5;" width="238" x="534.5" y="331"/><ellipse cx="549.5" cy="347" fill="#ADD1B2" rx="11" ry="11" style="stroke: #A80036; stroke-width: 1.0;"/><path d="M548.9219,352.8594 Q546.8906,352.8594 545.7031,351.3594 Q544.5313,349.8594 544.5313,346.75 Q544.5313,344.1094 545.7813,342.3438 Q547.0313,340.5625 549.1875,340.5625 Q549.7031,340.5625 550.2344,340.7031 Q550.6719,340.8906 550.9219,340.8906 Q551.1094,340.8906 551.2031,340.8594 Q551.2969,340.8125 551.8438,340.0938 L552.6563,344.0625 L551.6094,344.375 Q551.1563,342.875 550.5625,342.2969 Q549.9844,341.7031 549.0625,341.7031 Q547.8906,341.7031 547.1875,343.1094 Q546.4844,344.5 546.4844,346.6719 Q546.4844,349.0625 547.0781,350.3281 Q547.6875,351.5781 549,351.5781 Q549.9219,351.5781 550.5938,350.9063 Q551.2656,350.2188 551.5938,348.6406 L552.6406,349.1406 Q552.2344,350.9063 551.25,351.8906 Q550.2656,352.8594 548.9219,352.8594 Z "/><text fill="#000000" font-family="sans-serif" font-size="12" lengthAdjust="spacingAndGlyphs" textLength="206" x="563.5" y="352.5576">InfrastructureAdvisorAutoProxyCreator</text><line style="stroke: #A80036; stroke-width: 1.5;" x1="535.5" x2="771.5" y1="363" y2="363"/><line style="stroke: #A80036; stroke-width: 1.5;" x1="535.5" x2="771.5" y1="371" y2="371"/><!--MD5=[fbe2d16c0aa772d62a46dfb263ed682a]
reverse link SmartInstantiationAwareBeanPostProcessor to AbstractAutoProxyCreator--><path d="M514.5,75.024 C514.5,88.579 514.5,103.038 514.5,114.678 " fill="none" id="SmartInstantiationAwareBeanPostProcessor-backto-AbstractAutoProxyCreator" style="stroke: #A80036; stroke-width: 1.0; stroke-dasharray: 7.0,7.0;"/><polygon fill="none" points="507.5,75,514.5,55,521.5,75,507.5,75" style="stroke: #A80036; stroke-width: 1.0;"/><!--MD5=[a4efc3a773f20d8c34be712720533993]
reverse link AbstractAutoProxyCreator to AbstractAdvisorAutoProxyCreator--><path d="M473.786,176.573 C456.77,191.859 437.502,209.167 422.462,222.678 " fill="none" id="AbstractAutoProxyCreator-backto-AbstractAdvisorAutoProxyCreator" style="stroke: #A80036; stroke-width: 1.0;"/><polygon fill="none" points="469.339,171.158,488.896,163,478.695,181.573,469.339,171.158" style="stroke: #A80036; stroke-width: 1.0;"/><!--MD5=[1df97f99751a108052762b44c5a42ce5]
reverse link AbstractAutoProxyCreator to BeanNameAutoProxyCreator--><path d="M555.295,176.338 C572.52,191.681 592.072,209.098 607.318,222.678 " fill="none" id="AbstractAutoProxyCreator-backto-BeanNameAutoProxyCreator" style="stroke: #A80036; stroke-width: 1.0;"/><polygon fill="none" points="550.6,181.53,540.321,163,559.912,171.076,550.6,181.53" style="stroke: #A80036; stroke-width: 1.0;"/><!--MD5=[9f97c29907eae8e3b022d5b0b72010a2]
reverse link AspectJAwareAdvisorAutoProxyCreator to AnnotationAwareAspectJAutoProxyCreator--><path d="M137.5,399.0236 C137.5,412.5792 137.5,427.0381 137.5,438.6784 " fill="none" id="AspectJAwareAdvisorAutoProxyCreator-backto-AnnotationAwareAspectJAutoProxyCreator" style="stroke: #A80036; stroke-width: 1.0;"/><polygon fill="none" points="130.5,399.0005,137.5,379,144.5,399.0004,130.5,399.0005" style="stroke: #A80036; stroke-width: 1.0;"/><!--MD5=[1fe89b4154dc10e3a1b6457a241f23c2]
reverse link AbstractAdvisorAutoProxyCreator to AspectJAwareAdvisorAutoProxyCreator--><path d="M321.713,278.608 C281.015,295.264 231.484,315.536 194.036,330.862 " fill="none" id="AbstractAdvisorAutoProxyCreator-backto-AspectJAwareAdvisorAutoProxyCreator" style="stroke: #A80036; stroke-width: 1.0;"/><polygon fill="none" points="319.14,272.097,340.301,271,324.442,285.054,319.14,272.097" style="stroke: #A80036; stroke-width: 1.0;"/><!--MD5=[568d3435e894c4ff9bf161f4877965f2]
reverse link AbstractAdvisorAutoProxyCreator to DefaultAdvisorAutoProxyCreator--><path d="M396.5,291.024 C396.5,304.579 396.5,319.038 396.5,330.678 " fill="none" id="AbstractAdvisorAutoProxyCreator-backto-DefaultAdvisorAutoProxyCreator" style="stroke: #A80036; stroke-width: 1.0;"/><polygon fill="none" points="389.5,291,396.5,271,403.5,291,389.5,291" style="stroke: #A80036; stroke-width: 1.0;"/><!--MD5=[208deefbe01711397d4f66bb52b0dd20]
reverse link AbstractAdvisorAutoProxyCreator to InfrastructureAdvisorAutoProxyCreator--><path d="M470.984,278.721 C511.316,295.356 560.326,315.57 597.4,330.862 " fill="none" id="AbstractAdvisorAutoProxyCreator-backto-InfrastructureAdvisorAutoProxyCreator" style="stroke: #A80036; stroke-width: 1.0;"/><polygon fill="none" points="468.085,285.098,452.265,271,473.423,272.155,468.085,285.098" style="stroke: #A80036; stroke-width: 1.0;"/><!--MD5=[b63f81044732c55f1af9eaa8e018880c]
@startuml
abstract class AbstractAutoProxyCreator implements SmartInstantiationAwareBeanPostProcessor
abstract class AbstractAdvisorAutoProxyCreator extends AbstractAutoProxyCreator
class BeanNameAutoProxyCreator extends AbstractAutoProxyCreator
class AnnotationAwareAspectJAutoProxyCreator extends AspectJAwareAdvisorAutoProxyCreator
class AspectJAwareAdvisorAutoProxyCreator extends AbstractAdvisorAutoProxyCreator
class DefaultAdvisorAutoProxyCreator extends AbstractAdvisorAutoProxyCreator
class InfrastructureAdvisorAutoProxyCreator extends AbstractAdvisorAutoProxyCreator
@enduml

PlantUML version 1.2020.18(Thu Oct 01 03:40:44 CST 2020)
(GPL source distribution)
Java Runtime: Java(TM) SE Runtime Environment
JVM: Java HotSpot(TM) 64-Bit Server VM
Default Encoding: GBK
Language: zh
Country: CN
--></g></svg>