<?xml version="1.0" encoding="UTF-8" standalone="no"?><svg xmlns="http://www.w3.org/2000/svg" xmlns:xlink="http://www.w3.org/1999/xlink" contentScriptType="application/ecmascript" contentStyleType="text/css" height="190px" preserveAspectRatio="none" style="width:267px;height:190px;" version="1.1" viewBox="0 0 267 190" width="267px" zoomAndPan="magnify"><defs><filter height="300%" id="f5k40tkdti6tc" width="300%" x="-1" y="-1"><feGaussianBlur result="blurOut" stdDeviation="2.0"/><feColorMatrix in="blurOut" result="blurOut2" type="matrix" values="0 0 0 0 0 0 0 0 0 0 0 0 0 0 0 0 0 0 .4 0"/><feOffset dx="4.0" dy="4.0" in="blurOut2" result="blurOut3"/><feBlend in="SourceGraphic" in2="blurOut3" mode="normal"/></filter></defs><g><!--class Subject--><rect fill="#FEFECE" filter="url(#f5k40tkdti6tc)" height="48" id="Subject" style="stroke: #A80036; stroke-width: 1.5;" width="74" x="88.5" y="8"/><ellipse cx="103.5" cy="24" fill="#B4A7E5" rx="11" ry="11" style="stroke: #A80036; stroke-width: 1.0;"/><path d="M100.0938,18.2813 L100.0938,17.875 L106.4063,17.875 L106.4063,18.2813 L103.875,18.2813 Q103.875,18.2813 104.0234,18.4141 Q104.1719,18.5469 104.1719,18.8125 L104.1719,28.2969 Q104.1719,28.5625 104.3906,28.6953 Q104.6094,28.8281 104.6094,28.8281 L106.4063,28.8281 L106.4063,29.2344 L100.0938,29.2344 L100.0938,28.8281 L101.625,28.8281 Q101.9531,28.8281 102.0859,28.6953 Q102.2188,28.5625 102.2188,28.2969 L102.2188,18.8125 Q102.2188,18.5469 102.0859,18.4141 Q101.9531,18.2813 101.625,18.2813 L100.0938,18.2813 Z "/><text fill="#000000" font-family="sans-serif" font-size="12" font-style="italic" lengthAdjust="spacingAndGlyphs" textLength="42" x="117.5" y="29.5576">Subject</text><line style="stroke: #A80036; stroke-width: 1.5;" x1="89.5" x2="161.5" y1="40" y2="40"/><line style="stroke: #A80036; stroke-width: 1.5;" x1="89.5" x2="161.5" y1="48" y2="48"/><!--class SubjectImpl--><rect fill="#FEFECE" filter="url(#f5k40tkdti6tc)" height="48" id="SubjectImpl" style="stroke: #A80036; stroke-width: 1.5;" width="97" x="6" y="123.5"/><ellipse cx="21" cy="139.5" fill="#ADD1B2" rx="11" ry="11" style="stroke: #A80036; stroke-width: 1.0;"/><path d="M19.5781,144.8594 Q17.7188,144.8594 16.625,143.4688 Q15.5313,142.0781 15.5313,139.0938 Q15.5313,136.5625 16.6953,134.9063 Q17.8594,133.25 19.8438,133.25 Q21.3125,133.25 21.7813,133.375 Q22.25,133.5781 22.25,133.5781 Q22.25,133.5781 22.25,133.5078 Q22.25,133.4375 22.8594,132.5156 L23.9063,136.1719 L22.5781,136.5781 Q22.1094,135.0313 21.4453,134.3672 Q20.7813,133.7031 19.7188,133.7031 Q19.3281,133.7031 18.5625,135.2344 Q17.7969,136.7656 17.7969,139.0156 Q17.7969,141.4844 18.4609,142.875 Q19.125,144.2656 19.6563,144.2656 Q20.7188,144.2656 21.4766,143.5 Q22.2344,142.7344 22.5781,141.0781 L23.9063,141.6719 Q23.5781,143.0781 22.6797,143.9688 Q21.7813,144.8594 19.5781,144.8594 Z "/><text fill="#000000" font-family="sans-serif" font-size="12" lengthAdjust="spacingAndGlyphs" textLength="65" x="35" y="145.0576">SubjectImpl</text><line style="stroke: #A80036; stroke-width: 1.5;" x1="7" x2="102" y1="155.5" y2="155.5"/><line style="stroke: #A80036; stroke-width: 1.5;" x1="7" x2="102" y1="163.5" y2="163.5"/><!--class Proxy--><rect fill="#FEFECE" filter="url(#f5k40tkdti6tc)" height="63.0229" id="Proxy" style="stroke: #A80036; stroke-width: 1.5;" width="118" x="138.5" y="116"/><ellipse cx="179.15" cy="132" fill="#ADD1B2" rx="11" ry="11" style="stroke: #A80036; stroke-width: 1.0;"/><path d="M177.7281,137.3594 Q175.8688,137.3594 174.775,135.9688 Q173.6813,134.5781 173.6813,131.5938 Q173.6813,129.0625 174.8453,127.4063 Q176.0094,125.75 177.9938,125.75 Q179.4625,125.75 179.9313,125.875 Q180.4,126.0781 180.4,126.0781 Q180.4,126.0781 180.4,126.0078 Q180.4,125.9375 181.0094,125.0156 L182.0563,128.6719 L180.7281,129.0781 Q180.2594,127.5313 179.5953,126.8672 Q178.9313,126.2031 177.8688,126.2031 Q177.4781,126.2031 176.7125,127.7344 Q175.9469,129.2656 175.9469,131.5156 Q175.9469,133.9844 176.6109,135.375 Q177.275,136.7656 177.8063,136.7656 Q178.8688,136.7656 179.6266,136 Q180.3844,135.2344 180.7281,133.5781 L182.0563,134.1719 Q181.7281,135.5781 180.8297,136.4688 Q179.9313,137.3594 177.7281,137.3594 Z "/><text fill="#000000" font-family="sans-serif" font-size="12" lengthAdjust="spacingAndGlyphs" textLength="29" x="198.85" y="137.5576">Proxy</text><line style="stroke: #A80036; stroke-width: 1.5;" x1="139.5" x2="255.5" y1="148" y2="148"/><rect fill="none" height="6" style="stroke: #C82930; stroke-width: 1.0;" width="6" x="146.5" y="156"/><text fill="#000000" font-family="sans-serif" font-size="11" lengthAdjust="spacingAndGlyphs" textLength="92" x="158.5" y="164.606">SubjectImpl subject</text><line style="stroke: #A80036; stroke-width: 1.5;" x1="139.5" x2="255.5" y1="171.0229" y2="171.0229"/><!--reverse link Subject to SubjectImpl--><path d="M100.2934,73.295 C89.809,90.0553 78.0135,108.9115 69.0198,123.2888 " fill="none" id="Subject&lt;-SubjectImpl" style="stroke: #A80036; stroke-width: 1.0; stroke-dasharray: 7.0,7.0;"/><polygon fill="none" points="94.4195,69.486,110.961,56.242,106.289,76.91,94.4195,69.486" style="stroke: #A80036; stroke-width: 1.0;"/><!--reverse link Subject to Proxy--><path d="M151.181,73.483 C160.056,87.473 169.844,102.9037 178.128,115.9616 " fill="none" id="Subject&lt;-Proxy" style="stroke: #A80036; stroke-width: 1.0; stroke-dasharray: 7.0,7.0;"/><polygon fill="none" points="145.046,76.881,140.244,56.242,156.868,69.381,145.046,76.881" style="stroke: #A80036; stroke-width: 1.0;"/><!--link SubjectImpl to Proxy--><path d="M103.0977,147.5 C110.473,147.5 117.848,147.5 125.223,147.5 " fill="none" id="SubjectImpl-&gt;Proxy" style="stroke: #A80036; stroke-width: 1.0; stroke-dasharray: 7.0,7.0;"/><polygon fill="#FFFFFF" points="138.499,147.5,132.499,143.5,126.499,147.5,132.499,151.5,138.499,147.5" style="stroke: #A80036; stroke-width: 1.0;"/><!--
@startuml
interface Subject
class SubjectImpl implements Subject
class Proxy implements Subject {
    -SubjectImpl subject
}
SubjectImpl .left.o Proxy
@enduml

PlantUML version 1.2019.09(Tue Aug 27 00:19:51 CST 2019)
(GPL source distribution)
Java Runtime: Java(TM) SE Runtime Environment
JVM: Java HotSpot(TM) 64-Bit Server VM
Java Version: 1.8.0_231-b11
Operating System: Windows 10
OS Version: 10.0
Default Encoding: GBK
Language: zh
Country: CN
--></g></svg>