<?xml version="1.0" encoding="UTF-8" standalone="no"?><svg xmlns="http://www.w3.org/2000/svg" xmlns:xlink="http://www.w3.org/1999/xlink" contentScriptType="application/ecmascript" contentStyleType="text/css" height="360px" preserveAspectRatio="none" style="width:324px;height:360px;" version="1.1" viewBox="0 0 324 360" width="324px" zoomAndPan="magnify"><defs><filter height="300%" id="fu1ost8om0xd2" width="300%" x="-1" y="-1"><feGaussianBlur result="blurOut" stdDeviation="2.0"/><feColorMatrix in="blurOut" result="blurOut2" type="matrix" values="0 0 0 0 0 0 0 0 0 0 0 0 0 0 0 0 0 0 .4 0"/><feOffset dx="4.0" dy="4.0" in="blurOut2" result="blurOut3"/><feBlend in="SourceGraphic" in2="blurOut3" mode="normal"/></filter></defs><g><ellipse cx="62" cy="18" fill="#000000" filter="url(#fu1ost8om0xd2)" rx="10" ry="10" style="stroke: none; stroke-width: 1.0;"/><rect fill="#FEFECE" filter="url(#fu1ost8om0xd2)" height="50" rx="12.5" ry="12.5" style="stroke: #A80036; stroke-width: 1.5;" width="110" x="7" y="89"/><line style="stroke: #A80036; stroke-width: 1.5;" x1="7" x2="117" y1="118.1201" y2="118.1201"/><text fill="#000000" font-family="sans-serif" font-size="14" lengthAdjust="spacingAndGlyphs" textLength="90" x="17" y="110.0439">CONNECTING</text><rect fill="#FEFECE" filter="url(#fu1ost8om0xd2)" height="50" rx="12.5" ry="12.5" style="stroke: #A80036; stroke-width: 1.5;" width="106" x="206" y="89"/><line style="stroke: #A80036; stroke-width: 1.5;" x1="206" x2="312" y1="118.1201" y2="118.1201"/><text fill="#000000" font-family="sans-serif" font-size="14" lengthAdjust="spacingAndGlyphs" textLength="86" x="216" y="110.0439">CONNECTED</text><rect fill="#FEFECE" filter="url(#fu1ost8om0xd2)" height="50" rx="12.5" ry="12.5" style="stroke: #A80036; stroke-width: 1.5;" width="67" x="153.5" y="218"/><line style="stroke: #A80036; stroke-width: 1.5;" x1="153.5" x2="220.5" y1="247.1201" y2="247.1201"/><text fill="#000000" font-family="sans-serif" font-size="14" lengthAdjust="spacingAndGlyphs" textLength="47" x="163.5" y="239.0439">CLOSE</text><rect fill="#FEFECE" filter="url(#fu1ost8om0xd2)" height="50" rx="12.5" ry="12.5" style="stroke: #A80036; stroke-width: 1.5;" width="112" x="6" y="218"/><line style="stroke: #A80036; stroke-width: 1.5;" x1="6" x2="118" y1="247.1201" y2="247.1201"/><text fill="#000000" font-family="sans-serif" font-size="14" lengthAdjust="spacingAndGlyphs" textLength="92" x="16" y="239.0439">AUTH_FAILED</text><ellipse cx="135" cy="339" fill="none" filter="url(#fu1ost8om0xd2)" rx="10" ry="10" style="stroke: #000000; stroke-width: 1.0;"/><ellipse cx="135.5" cy="339.5" fill="#000000" rx="6" ry="6" style="stroke: none; stroke-width: 1.0;"/><!--link *start to CONNECTING--><path d="M62,28.013 C62,40.698 62,64.409 62,83.57 " fill="none" id="*start-&gt;CONNECTING" style="stroke: #A80036; stroke-width: 1.0;"/><polygon fill="#A80036" points="62,88.84,66,79.84,62,83.84,58,79.84,62,88.84" style="stroke: #A80036; stroke-width: 1.0;"/><!--link CONNECTING to CONNECTED--><path d="M117.033,132.526 C122.876,133.943 128.775,135.151 134.5,136 C158.24,139.523 164.774,139.616 188.5,136 C192.6,135.375 196.789,134.557 200.979,133.605 " fill="none" id="CONNECTING-&gt;CONNECTED" style="stroke: #A80036; stroke-width: 1.0;"/><polygon fill="#A80036" points="205.894,132.428,196.21,130.6335,201.0314,133.5922,198.0727,138.4136,205.894,132.428" style="stroke: #A80036; stroke-width: 1.0;"/><text fill="#000000" font-family="sans-serif" font-size="13" lengthAdjust="spacingAndGlyphs" textLength="52" x="135.5" y="132.8979">连接成功</text><!--reverse link CONNECTING to CONNECTED--><path d="M122.41,114 C149.078,114 180.149,114 205.914,114 " fill="none" id="CONNECTING&lt;-CONNECTED" style="stroke: #A80036; stroke-width: 1.0;"/><polygon fill="#A80036" points="117.137,114,126.137,118,122.137,114,126.137,110,117.137,114" style="stroke: #A80036; stroke-width: 1.0;"/><text fill="#000000" font-family="sans-serif" font-size="13" lengthAdjust="spacingAndGlyphs" textLength="52" x="135.5" y="107.8979">连接中断</text><!--link CONNECTED to CLOSE--><path d="M245.288,139.187 C233.277,160.372 215.809,191.183 203.13,213.548 " fill="none" id="CONNECTED-&gt;CLOSE" style="stroke: #A80036; stroke-width: 1.0;"/><polygon fill="#A80036" points="200.661,217.903,208.5798,212.047,203.1272,213.5535,201.6206,208.101,200.661,217.903" style="stroke: #A80036; stroke-width: 1.0;"/><text fill="#000000" font-family="sans-serif" font-size="13" lengthAdjust="spacingAndGlyphs" textLength="78" x="229" y="184.8979">请求主动关闭</text><!--link CONNECTING to CLOSE--><path d="M89.5253,139.208 C99.6211,148.341 111.016,158.955 121,169 C135.312,183.4 150.558,200.16 162.787,213.986 " fill="none" id="CONNECTING-&gt;CLOSE" style="stroke: #A80036; stroke-width: 1.0;"/><polygon fill="#A80036" points="166.153,217.804,163.2019,208.4077,162.8465,214.0534,157.2009,213.698,166.153,217.804" style="stroke: #A80036; stroke-width: 1.0;"/><text fill="#000000" font-family="sans-serif" font-size="13" lengthAdjust="spacingAndGlyphs" textLength="52" x="139" y="184.8979">连接超时</text><!--link CONNECTING to AUTH_FAILED--><path d="M62,139.187 C62,160.108 62,190.415 62,212.706 " fill="none" id="CONNECTING-&gt;AUTH_FAILED" style="stroke: #A80036; stroke-width: 1.0;"/><polygon fill="#A80036" points="62,217.903,66,208.903,62,212.903,58,208.903,62,217.903" style="stroke: #A80036; stroke-width: 1.0;"/><text fill="#000000" font-family="sans-serif" font-size="13" lengthAdjust="spacingAndGlyphs" textLength="52" x="63" y="184.8979">权限不够</text><!--link CLOSE to *end--><path d="M173.609,268.2073 C163.551,286.388 150.173,310.5724 142.094,325.1754 " fill="none" id="CLOSE-&gt;*end" style="stroke: #A80036; stroke-width: 1.0;"/><polygon fill="#A80036" points="139.57,329.7379,147.4273,323.7997,141.9908,325.363,140.4275,319.9264,139.57,329.7379" style="stroke: #A80036; stroke-width: 1.0;"/><!--link AUTH_FAILED to *end--><path d="M80.7993,268.2073 C95.3474,286.9405 114.846,312.0478 126.053,326.4797 " fill="none" id="AUTH_FAILED-&gt;*end" style="stroke: #A80036; stroke-width: 1.0;"/><polygon fill="#A80036" points="129.251,330.597,126.8894,321.0355,126.1839,326.6482,120.5712,325.9428,129.251,330.597" style="stroke: #A80036; stroke-width: 1.0;"/><!--
@startuml
[*] - -> CONNECTING
CONNECTING -right-> CONNECTED: 连接成功
CONNECTED -left-> CONNECTING: 连接中断
CONNECTED -down-> CLOSE: 请求主动关闭
CONNECTING - -> CLOSE: 连接超时
CONNECTING - -> AUTH_FAILED: 权限不够
CLOSE - -> [*]
AUTH_FAILED - -> [*]
@enduml

PlantUML version 1.2019.09(Tue Aug 27 00:19:51 CST 2019)
(GPL source distribution)
Java Runtime: Java(TM) SE Runtime Environment
JVM: Java HotSpot(TM) 64-Bit Server VM
Java Version: 1.8.0_231-b11
Operating System: Windows 10
OS Version: 10.0
Default Encoding: GBK
Language: zh
Country: CN
--></g></svg>