<?xml version="1.0" encoding="UTF-8" standalone="no"?><svg xmlns="http://www.w3.org/2000/svg" xmlns:xlink="http://www.w3.org/1999/xlink" contentScriptType="application/ecmascript" contentStyleType="text/css" height="205px" preserveAspectRatio="none" style="width:372px;height:205px;" version="1.1" viewBox="0 0 372 205" width="372px" zoomAndPan="magnify"><defs><filter height="300%" id="fn2j2f254mj5k" width="300%" x="-1" y="-1"><feGaussianBlur result="blurOut" stdDeviation="2.0"/><feColorMatrix in="blurOut" result="blurOut2" type="matrix" values="0 0 0 0 0 0 0 0 0 0 0 0 0 0 0 0 0 0 .4 0"/><feOffset dx="4.0" dy="4.0" in="blurOut2" result="blurOut3"/><feBlend in="SourceGraphic" in2="blurOut3" mode="normal"/></filter></defs><g><!--class State--><rect fill="#FEFECE" filter="url(#fn2j2f254mj5k)" height="63.0229" id="State" style="stroke: #A80036; stroke-width: 1.5;" width="183" x="178" y="15.5"/><ellipse cx="251.25" cy="31.5" fill="#B4A7E5" rx="11" ry="11" style="stroke: #A80036; stroke-width: 1.0;"/><path d="M247.8438,25.7813 L247.8438,25.375 L254.1563,25.375 L254.1563,25.7813 L251.625,25.7813 Q251.625,25.7813 251.7734,25.9141 Q251.9219,26.0469 251.9219,26.3125 L251.9219,35.7969 Q251.9219,36.0625 252.1406,36.1953 Q252.3594,36.3281 252.3594,36.3281 L254.1563,36.3281 L254.1563,36.7344 L247.8438,36.7344 L247.8438,36.3281 L249.375,36.3281 Q249.7031,36.3281 249.8359,36.1953 Q249.9688,36.0625 249.9688,35.7969 L249.9688,26.3125 Q249.9688,26.0469 249.8359,25.9141 Q249.7031,25.7813 249.375,25.7813 L247.8438,25.7813 Z "/><text fill="#000000" font-family="sans-serif" font-size="12" font-style="italic" lengthAdjust="spacingAndGlyphs" textLength="28" x="271.75" y="37.0576">State</text><line style="stroke: #A80036; stroke-width: 1.5;" x1="179" x2="360" y1="47.5" y2="47.5"/><line style="stroke: #A80036; stroke-width: 1.5;" x1="179" x2="360" y1="55.5" y2="55.5"/><text fill="#000000" font-family="sans-serif" font-size="11" lengthAdjust="spacingAndGlyphs" textLength="171" x="184" y="72.106">void handle(Context ctx, String arg)</text><!--class State1--><rect fill="#FEFECE" filter="url(#fn2j2f254mj5k)" height="48" id="State1" style="stroke: #A80036; stroke-width: 1.5;" width="67" x="185" y="146"/><ellipse cx="200" cy="162" fill="#ADD1B2" rx="11" ry="11" style="stroke: #A80036; stroke-width: 1.0;"/><path d="M198.5781,167.3594 Q196.7188,167.3594 195.625,165.9688 Q194.5313,164.5781 194.5313,161.5938 Q194.5313,159.0625 195.6953,157.4063 Q196.8594,155.75 198.8438,155.75 Q200.3125,155.75 200.7813,155.875 Q201.25,156.0781 201.25,156.0781 Q201.25,156.0781 201.25,156.0078 Q201.25,155.9375 201.8594,155.0156 L202.9063,158.6719 L201.5781,159.0781 Q201.1094,157.5313 200.4453,156.8672 Q199.7813,156.2031 198.7188,156.2031 Q198.3281,156.2031 197.5625,157.7344 Q196.7969,159.2656 196.7969,161.5156 Q196.7969,163.9844 197.4609,165.375 Q198.125,166.7656 198.6563,166.7656 Q199.7188,166.7656 200.4766,166 Q201.2344,165.2344 201.5781,163.5781 L202.9063,164.1719 Q202.5781,165.5781 201.6797,166.4688 Q200.7813,167.3594 198.5781,167.3594 Z "/><text fill="#000000" font-family="sans-serif" font-size="12" lengthAdjust="spacingAndGlyphs" textLength="35" x="214" y="167.5576">State1</text><line style="stroke: #A80036; stroke-width: 1.5;" x1="186" x2="251" y1="178" y2="178"/><line style="stroke: #A80036; stroke-width: 1.5;" x1="186" x2="251" y1="186" y2="186"/><!--class State2--><rect fill="#FEFECE" filter="url(#fn2j2f254mj5k)" height="48" id="State2" style="stroke: #A80036; stroke-width: 1.5;" width="67" x="287" y="146"/><ellipse cx="302" cy="162" fill="#ADD1B2" rx="11" ry="11" style="stroke: #A80036; stroke-width: 1.0;"/><path d="M300.5781,167.3594 Q298.7188,167.3594 297.625,165.9688 Q296.5313,164.5781 296.5313,161.5938 Q296.5313,159.0625 297.6953,157.4063 Q298.8594,155.75 300.8438,155.75 Q302.3125,155.75 302.7813,155.875 Q303.25,156.0781 303.25,156.0781 Q303.25,156.0781 303.25,156.0078 Q303.25,155.9375 303.8594,155.0156 L304.9063,158.6719 L303.5781,159.0781 Q303.1094,157.5313 302.4453,156.8672 Q301.7813,156.2031 300.7188,156.2031 Q300.3281,156.2031 299.5625,157.7344 Q298.7969,159.2656 298.7969,161.5156 Q298.7969,163.9844 299.4609,165.375 Q300.125,166.7656 300.6563,166.7656 Q301.7188,166.7656 302.4766,166 Q303.2344,165.2344 303.5781,163.5781 L304.9063,164.1719 Q304.5781,165.5781 303.6797,166.4688 Q302.7813,167.3594 300.5781,167.3594 Z "/><text fill="#000000" font-family="sans-serif" font-size="12" lengthAdjust="spacingAndGlyphs" textLength="35" x="316" y="167.5576">State2</text><line style="stroke: #A80036; stroke-width: 1.5;" x1="288" x2="353" y1="178" y2="178"/><line style="stroke: #A80036; stroke-width: 1.5;" x1="288" x2="353" y1="186" y2="186"/><!--class Context--><rect fill="#FEFECE" filter="url(#fn2j2f254mj5k)" height="78.0459" id="Context" style="stroke: #A80036; stroke-width: 1.5;" width="137" x="6" y="8"/><ellipse cx="49.8" cy="24" fill="#ADD1B2" rx="11" ry="11" style="stroke: #A80036; stroke-width: 1.0;"/><path d="M48.3781,29.3594 Q46.5188,29.3594 45.425,27.9688 Q44.3313,26.5781 44.3313,23.5938 Q44.3313,21.0625 45.4953,19.4063 Q46.6594,17.75 48.6438,17.75 Q50.1125,17.75 50.5813,17.875 Q51.05,18.0781 51.05,18.0781 Q51.05,18.0781 51.05,18.0078 Q51.05,17.9375 51.6594,17.0156 L52.7063,20.6719 L51.3781,21.0781 Q50.9094,19.5313 50.2453,18.8672 Q49.5813,18.2031 48.5188,18.2031 Q48.1281,18.2031 47.3625,19.7344 Q46.5969,21.2656 46.5969,23.5156 Q46.5969,25.9844 47.2609,27.375 Q47.925,28.7656 48.4563,28.7656 Q49.5188,28.7656 50.2766,28 Q51.0344,27.2344 51.3781,25.5781 L52.7063,26.1719 Q52.3781,27.5781 51.4797,28.4688 Q50.5813,29.3594 48.3781,29.3594 Z "/><text fill="#000000" font-family="sans-serif" font-size="12" lengthAdjust="spacingAndGlyphs" textLength="41" x="70.2" y="29.5576">Context</text><line style="stroke: #A80036; stroke-width: 1.5;" x1="7" x2="142" y1="40" y2="40"/><rect fill="none" height="6" style="stroke: #C82930; stroke-width: 1.0;" width="6" x="14" y="48"/><text fill="#000000" font-family="sans-serif" font-size="11" lengthAdjust="spacingAndGlyphs" textLength="52" x="26" y="56.606">State state</text><line style="stroke: #A80036; stroke-width: 1.5;" x1="7" x2="142" y1="63.0229" y2="63.0229"/><text fill="#000000" font-family="sans-serif" font-size="11" lengthAdjust="spacingAndGlyphs" textLength="125" x="12" y="79.6289">void transform(String arg)</text><!--reverse link State to State1--><path d="M248.826,97.0512 C241.735,113.8732 234.128,131.9209 228.307,145.7327 " fill="none" id="State&lt;-State1" style="stroke: #A80036; stroke-width: 1.0; stroke-dasharray: 7.0,7.0;"/><polygon fill="none" points="242.412,94.2445,256.631,78.533,255.313,99.6821,242.412,94.2445" style="stroke: #A80036; stroke-width: 1.0;"/><!--reverse link State to State2--><path d="M290.174,97.0512 C297.265,113.8732 304.872,131.9209 310.693,145.7327 " fill="none" id="State&lt;-State2" style="stroke: #A80036; stroke-width: 1.0; stroke-dasharray: 7.0,7.0;"/><polygon fill="none" points="283.687,99.6821,282.369,78.533,296.588,94.2445,283.687,99.6821" style="stroke: #A80036; stroke-width: 1.0;"/><!--link Context to State--><path d="M148.187,47 C156.314,47 164.442,47 172.569,47 " fill="none" id="Context-State" style="stroke: #A80036; stroke-width: 1.0; stroke-dasharray: 7.0,7.0;"/><polygon fill="#A80036" points="177.63,47,168.63,43,172.63,47,168.63,51,177.63,47" style="stroke: #A80036; stroke-width: 1.0;"/><polygon fill="#A80036" points="143.055,47,152.055,51,148.055,47,152.055,43,143.055,47" style="stroke: #A80036; stroke-width: 1.0;"/><!--
@startuml
interface State {
    void handle(Context ctx, String arg)
}
class State1 implements State
class State2 implements State
class Context {
    -State state
    void transform(String arg)
}
State <.left.> Context
@enduml

PlantUML version 1.2019.09(Tue Aug 27 00:19:51 CST 2019)
(GPL source distribution)
Java Runtime: Java(TM) SE Runtime Environment
JVM: Java HotSpot(TM) 64-Bit Server VM
Java Version: 1.8.0_231-b11
Operating System: Windows 10
OS Version: 10.0
Default Encoding: GBK
Language: zh
Country: CN
--></g></svg>