<?xml version="1.0" encoding="UTF-8" standalone="no"?><svg xmlns="http://www.w3.org/2000/svg" xmlns:xlink="http://www.w3.org/1999/xlink" contentScriptType="application/ecmascript" contentStyleType="text/css" height="190px" preserveAspectRatio="none" style="width:302px;height:190px;" version="1.1" viewBox="0 0 302 190" width="302px" zoomAndPan="magnify"><defs><filter height="300%" id="f1qf0v3hbvhmgj" width="300%" x="-1" y="-1"><feGaussianBlur result="blurOut" stdDeviation="2.0"/><feColorMatrix in="blurOut" result="blurOut2" type="matrix" values="0 0 0 0 0 0 0 0 0 0 0 0 0 0 0 0 0 0 .4 0"/><feOffset dx="4.0" dy="4.0" in="blurOut2" result="blurOut3"/><feBlend in="SourceGraphic" in2="blurOut3" mode="normal"/></filter></defs><g><!--class Strategy--><rect fill="#FEFECE" filter="url(#f1qf0v3hbvhmgj)" height="63.0229" id="Strategy" style="stroke: #A80036; stroke-width: 1.5;" width="80" x="66.5" y="8"/><ellipse cx="82.85" cy="24" fill="#B4A7E5" rx="11" ry="11" style="stroke: #A80036; stroke-width: 1.0;"/><path d="M79.4438,18.2813 L79.4438,17.875 L85.7563,17.875 L85.7563,18.2813 L83.225,18.2813 Q83.225,18.2813 83.3734,18.4141 Q83.5219,18.5469 83.5219,18.8125 L83.5219,28.2969 Q83.5219,28.5625 83.7406,28.6953 Q83.9594,28.8281 83.9594,28.8281 L85.7563,28.8281 L85.7563,29.2344 L79.4438,29.2344 L79.4438,28.8281 L80.975,28.8281 Q81.3031,28.8281 81.4359,28.6953 Q81.5688,28.5625 81.5688,28.2969 L81.5688,18.8125 Q81.5688,18.5469 81.4359,18.4141 Q81.3031,18.2813 80.975,18.2813 L79.4438,18.2813 Z "/><text fill="#000000" font-family="sans-serif" font-size="12" font-style="italic" lengthAdjust="spacingAndGlyphs" textLength="45" x="97.15" y="29.5576">Strategy</text><line style="stroke: #A80036; stroke-width: 1.5;" x1="67.5" x2="145.5" y1="40" y2="40"/><line style="stroke: #A80036; stroke-width: 1.5;" x1="67.5" x2="145.5" y1="48" y2="48"/><text fill="#000000" font-family="sans-serif" font-size="11" lengthAdjust="spacingAndGlyphs" textLength="68" x="72.5" y="64.606">void operate()</text><!--class Strategy1--><rect fill="#FEFECE" filter="url(#f1qf0v3hbvhmgj)" height="48" id="Strategy1" style="stroke: #A80036; stroke-width: 1.5;" width="83" x="6" y="131"/><ellipse cx="21" cy="147" fill="#ADD1B2" rx="11" ry="11" style="stroke: #A80036; stroke-width: 1.0;"/><path d="M19.5781,152.3594 Q17.7188,152.3594 16.625,150.9688 Q15.5313,149.5781 15.5313,146.5938 Q15.5313,144.0625 16.6953,142.4063 Q17.8594,140.75 19.8438,140.75 Q21.3125,140.75 21.7813,140.875 Q22.25,141.0781 22.25,141.0781 Q22.25,141.0781 22.25,141.0078 Q22.25,140.9375 22.8594,140.0156 L23.9063,143.6719 L22.5781,144.0781 Q22.1094,142.5313 21.4453,141.8672 Q20.7813,141.2031 19.7188,141.2031 Q19.3281,141.2031 18.5625,142.7344 Q17.7969,144.2656 17.7969,146.5156 Q17.7969,148.9844 18.4609,150.375 Q19.125,151.7656 19.6563,151.7656 Q20.7188,151.7656 21.4766,151 Q22.2344,150.2344 22.5781,148.5781 L23.9063,149.1719 Q23.5781,150.5781 22.6797,151.4688 Q21.7813,152.3594 19.5781,152.3594 Z "/><text fill="#000000" font-family="sans-serif" font-size="12" lengthAdjust="spacingAndGlyphs" textLength="51" x="35" y="152.5576">Strategy1</text><line style="stroke: #A80036; stroke-width: 1.5;" x1="7" x2="88" y1="163" y2="163"/><line style="stroke: #A80036; stroke-width: 1.5;" x1="7" x2="88" y1="171" y2="171"/><!--class Strategy2--><rect fill="#FEFECE" filter="url(#f1qf0v3hbvhmgj)" height="48" id="Strategy2" style="stroke: #A80036; stroke-width: 1.5;" width="83" x="124" y="131"/><ellipse cx="139" cy="147" fill="#ADD1B2" rx="11" ry="11" style="stroke: #A80036; stroke-width: 1.0;"/><path d="M137.5781,152.3594 Q135.7188,152.3594 134.625,150.9688 Q133.5313,149.5781 133.5313,146.5938 Q133.5313,144.0625 134.6953,142.4063 Q135.8594,140.75 137.8438,140.75 Q139.3125,140.75 139.7813,140.875 Q140.25,141.0781 140.25,141.0781 Q140.25,141.0781 140.25,141.0078 Q140.25,140.9375 140.8594,140.0156 L141.9063,143.6719 L140.5781,144.0781 Q140.1094,142.5313 139.4453,141.8672 Q138.7813,141.2031 137.7188,141.2031 Q137.3281,141.2031 136.5625,142.7344 Q135.7969,144.2656 135.7969,146.5156 Q135.7969,148.9844 136.4609,150.375 Q137.125,151.7656 137.6563,151.7656 Q138.7188,151.7656 139.4766,151 Q140.2344,150.2344 140.5781,148.5781 L141.9063,149.1719 Q141.5781,150.5781 140.6797,151.4688 Q139.7813,152.3594 137.5781,152.3594 Z "/><text fill="#000000" font-family="sans-serif" font-size="12" lengthAdjust="spacingAndGlyphs" textLength="51" x="153" y="152.5576">Strategy2</text><line style="stroke: #A80036; stroke-width: 1.5;" x1="125" x2="206" y1="163" y2="163"/><line style="stroke: #A80036; stroke-width: 1.5;" x1="125" x2="206" y1="171" y2="171"/><!--class Subject--><rect fill="#FEFECE" filter="url(#f1qf0v3hbvhmgj)" height="63.0229" id="Subject" style="stroke: #A80036; stroke-width: 1.5;" width="110" x="181.5" y="8"/><ellipse cx="213.15" cy="24" fill="#ADD1B2" rx="11" ry="11" style="stroke: #A80036; stroke-width: 1.0;"/><path d="M211.7281,29.3594 Q209.8688,29.3594 208.775,27.9688 Q207.6813,26.5781 207.6813,23.5938 Q207.6813,21.0625 208.8453,19.4063 Q210.0094,17.75 211.9938,17.75 Q213.4625,17.75 213.9313,17.875 Q214.4,18.0781 214.4,18.0781 Q214.4,18.0781 214.4,18.0078 Q214.4,17.9375 215.0094,17.0156 L216.0563,20.6719 L214.7281,21.0781 Q214.2594,19.5313 213.5953,18.8672 Q212.9313,18.2031 211.8688,18.2031 Q211.4781,18.2031 210.7125,19.7344 Q209.9469,21.2656 209.9469,23.5156 Q209.9469,25.9844 210.6109,27.375 Q211.275,28.7656 211.8063,28.7656 Q212.8688,28.7656 213.6266,28 Q214.3844,27.2344 214.7281,25.5781 L216.0563,26.1719 Q215.7281,27.5781 214.8297,28.4688 Q213.9313,29.3594 211.7281,29.3594 Z "/><text fill="#000000" font-family="sans-serif" font-size="12" lengthAdjust="spacingAndGlyphs" textLength="41" x="230.85" y="29.5576">Subject</text><line style="stroke: #A80036; stroke-width: 1.5;" x1="182.5" x2="290.5" y1="40" y2="40"/><rect fill="none" height="6" style="stroke: #C82930; stroke-width: 1.0;" width="6" x="189.5" y="48"/><text fill="#000000" font-family="sans-serif" font-size="11" lengthAdjust="spacingAndGlyphs" textLength="84" x="201.5" y="56.606">Strategy strategy</text><line style="stroke: #A80036; stroke-width: 1.5;" x1="182.5" x2="290.5" y1="63.0229" y2="63.0229"/><!--reverse link Strategy to Strategy1--><path d="M81.0752,89.4103 C73.5981,103.7944 65.7648,118.8635 59.5468,130.8252 " fill="none" id="Strategy&lt;-Strategy1" style="stroke: #A80036; stroke-width: 1.0;"/><polygon fill="none" points="75.0981,85.7317,90.5338,71.215,87.5201,92.189,75.0981,85.7317" style="stroke: #A80036; stroke-width: 1.0;"/><!--reverse link Strategy to Strategy2--><path d="M131.925,89.4103 C139.402,103.7944 147.235,118.8635 153.453,130.8252 " fill="none" id="Strategy&lt;-Strategy2" style="stroke: #A80036; stroke-width: 1.0;"/><polygon fill="none" points="125.48,92.189,122.466,71.215,137.902,85.7317,125.48,92.189" style="stroke: #A80036; stroke-width: 1.0;"/><!--link Strategy to Subject--><path d="M146.617,39.5 C153.859,39.5 161.1,39.5 168.342,39.5 " fill="none" id="Strategy-&gt;Subject" style="stroke: #A80036; stroke-width: 1.0; stroke-dasharray: 7.0,7.0;"/><polygon fill="#FFFFFF" points="181.377,39.5,175.377,35.5,169.377,39.5,175.377,43.5,181.377,39.5" style="stroke: #A80036; stroke-width: 1.0;"/><!--
@startuml
interface Strategy {
    void operate()
}
class Strategy1 extends Strategy
class Strategy2 extends Strategy
class Subject {
    -Strategy strategy
}
Strategy .left.o Subject
@enduml

PlantUML version 1.2019.09(Tue Aug 27 00:19:51 CST 2019)
(GPL source distribution)
Java Runtime: Java(TM) SE Runtime Environment
JVM: Java HotSpot(TM) 64-Bit Server VM
Java Version: 1.8.0_231-b11
Operating System: Windows 10
OS Version: 10.0
Default Encoding: GBK
Language: zh
Country: CN
--></g></svg>