<?xml version="1.0" encoding="UTF-8" standalone="no"?><svg xmlns="http://www.w3.org/2000/svg" xmlns:xlink="http://www.w3.org/1999/xlink" contentScriptType="application/ecmascript" contentStyleType="text/css" height="250px" preserveAspectRatio="none" style="width:220px;height:250px;" version="1.1" viewBox="0 0 220 250" width="220px" zoomAndPan="magnify"><defs><filter height="300%" id="flblfl7rnzd3a" width="300%" x="-1" y="-1"><feGaussianBlur result="blurOut" stdDeviation="2.0"/><feColorMatrix in="blurOut" result="blurOut2" type="matrix" values="0 0 0 0 0 0 0 0 0 0 0 0 0 0 0 0 0 0 .4 0"/><feOffset dx="4.0" dy="4.0" in="blurOut2" result="blurOut3"/><feBlend in="SourceGraphic" in2="blurOut3" mode="normal"/></filter></defs><g><!--class Subject--><rect fill="#FEFECE" filter="url(#flblfl7rnzd3a)" height="93.0688" id="Subject" style="stroke: #A80036; stroke-width: 1.5;" width="85" x="64.5" y="8"/><ellipse cx="84.45" cy="24" fill="#A9DCDF" rx="11" ry="11" style="stroke: #A80036; stroke-width: 1.0;"/><path d="M84.825,23.9844 L82.8406,23.9844 L82.2469,26.5 Q82.1844,26.8438 82.1844,27.0313 Q82.1844,27.2969 82.2781,27.5625 Q82.3719,27.8281 82.3719,27.8281 L83.0438,27.8281 L83.0438,28.2344 L79.5906,28.2344 L79.5906,27.8281 L79.7781,27.8281 Q80.0438,27.8281 80.2469,27.6641 Q80.45,27.5 80.5125,27.1094 L83.1063,16.9375 L84.9813,16.3281 L87.6219,27.1094 Q87.7625,27.5 87.9578,27.6641 Q88.1531,27.8281 88.1531,27.8281 L88.6219,27.8281 L88.6219,28.2344 L84.7625,28.2344 L84.7625,27.8281 L85.0281,27.8281 Q85.4344,27.8281 85.4969,27.6641 Q85.5594,27.5 85.5594,27.375 Q85.5594,27.1094 85.4969,26.9063 L84.825,23.9844 Z M83.4344,18.0781 L83.4344,18.0781 L82.9813,23.5781 L84.7625,23.5781 L83.4344,18.0781 Z "/><text fill="#000000" font-family="sans-serif" font-size="12" font-style="italic" lengthAdjust="spacingAndGlyphs" textLength="42" x="99.55" y="29.5576">Subject</text><line style="stroke: #A80036; stroke-width: 1.5;" x1="65.5" x2="148.5" y1="40" y2="40"/><line style="stroke: #A80036; stroke-width: 1.5;" x1="65.5" x2="148.5" y1="48" y2="48"/><text fill="#000000" font-family="sans-serif" font-size="11" lengthAdjust="spacingAndGlyphs" textLength="71" x="70.5" y="64.606">void template()</text><text fill="#000000" font-family="sans-serif" font-size="11" font-style="italic" lengthAdjust="spacingAndGlyphs" textLength="73" x="70.5" y="79.6289">void method1()</text><text fill="#000000" font-family="sans-serif" font-size="11" font-style="italic" lengthAdjust="spacingAndGlyphs" textLength="73" x="70.5" y="94.6519">void method2()</text><!--class Subject1--><rect fill="#FEFECE" filter="url(#flblfl7rnzd3a)" height="78.0459" id="Subject1" style="stroke: #A80036; stroke-width: 1.5;" width="84" x="6" y="161"/><ellipse cx="22.8" cy="177" fill="#ADD1B2" rx="11" ry="11" style="stroke: #A80036; stroke-width: 1.0;"/><path d="M21.3781,182.3594 Q19.5188,182.3594 18.425,180.9688 Q17.3313,179.5781 17.3313,176.5938 Q17.3313,174.0625 18.4953,172.4063 Q19.6594,170.75 21.6438,170.75 Q23.1125,170.75 23.5813,170.875 Q24.05,171.0781 24.05,171.0781 Q24.05,171.0781 24.05,171.0078 Q24.05,170.9375 24.6594,170.0156 L25.7063,173.6719 L24.3781,174.0781 Q23.9094,172.5313 23.2453,171.8672 Q22.5813,171.2031 21.5188,171.2031 Q21.1281,171.2031 20.3625,172.7344 Q19.5969,174.2656 19.5969,176.5156 Q19.5969,178.9844 20.2609,180.375 Q20.925,181.7656 21.4563,181.7656 Q22.5188,181.7656 23.2766,181 Q24.0344,180.2344 24.3781,178.5781 L25.7063,179.1719 Q25.3781,180.5781 24.4797,181.4688 Q23.5813,182.3594 21.3781,182.3594 Z "/><text fill="#000000" font-family="sans-serif" font-size="12" lengthAdjust="spacingAndGlyphs" textLength="48" x="37.2" y="182.5576">Subject1</text><line style="stroke: #A80036; stroke-width: 1.5;" x1="7" x2="89" y1="193" y2="193"/><line style="stroke: #A80036; stroke-width: 1.5;" x1="7" x2="89" y1="201" y2="201"/><text fill="#000000" font-family="sans-serif" font-size="11" lengthAdjust="spacingAndGlyphs" textLength="72" x="12" y="217.606">void method1()</text><text fill="#000000" font-family="sans-serif" font-size="11" lengthAdjust="spacingAndGlyphs" textLength="72" x="12" y="232.6289">void method2()</text><!--class Subject2--><rect fill="#FEFECE" filter="url(#flblfl7rnzd3a)" height="78.0459" id="Subject2" style="stroke: #A80036; stroke-width: 1.5;" width="84" x="125" y="161"/><ellipse cx="141.8" cy="177" fill="#ADD1B2" rx="11" ry="11" style="stroke: #A80036; stroke-width: 1.0;"/><path d="M140.3781,182.3594 Q138.5188,182.3594 137.425,180.9688 Q136.3313,179.5781 136.3313,176.5938 Q136.3313,174.0625 137.4953,172.4063 Q138.6594,170.75 140.6438,170.75 Q142.1125,170.75 142.5813,170.875 Q143.05,171.0781 143.05,171.0781 Q143.05,171.0781 143.05,171.0078 Q143.05,170.9375 143.6594,170.0156 L144.7063,173.6719 L143.3781,174.0781 Q142.9094,172.5313 142.2453,171.8672 Q141.5813,171.2031 140.5188,171.2031 Q140.1281,171.2031 139.3625,172.7344 Q138.5969,174.2656 138.5969,176.5156 Q138.5969,178.9844 139.2609,180.375 Q139.925,181.7656 140.4563,181.7656 Q141.5188,181.7656 142.2766,181 Q143.0344,180.2344 143.3781,178.5781 L144.7063,179.1719 Q144.3781,180.5781 143.4797,181.4688 Q142.5813,182.3594 140.3781,182.3594 Z "/><text fill="#000000" font-family="sans-serif" font-size="12" lengthAdjust="spacingAndGlyphs" textLength="48" x="156.2" y="182.5576">Subject2</text><line style="stroke: #A80036; stroke-width: 1.5;" x1="126" x2="208" y1="193" y2="193"/><line style="stroke: #A80036; stroke-width: 1.5;" x1="126" x2="208" y1="201" y2="201"/><text fill="#000000" font-family="sans-serif" font-size="11" lengthAdjust="spacingAndGlyphs" textLength="72" x="131" y="217.606">void method1()</text><text fill="#000000" font-family="sans-serif" font-size="11" lengthAdjust="spacingAndGlyphs" textLength="72" x="131" y="232.6289">void method2()</text><!--reverse link Subject to Subject1--><path d="M80.5098,119.93 C74.7615,133.911 68.8591,148.2663 63.6881,160.8435 " fill="none" id="Subject&lt;-Subject1" style="stroke: #A80036; stroke-width: 1.0;"/><polygon fill="none" points="74.0903,117.135,88.1698,101.299,87.0386,122.458,74.0903,117.135" style="stroke: #A80036; stroke-width: 1.0;"/><!--reverse link Subject to Subject2--><path d="M133.939,119.93 C139.785,133.911 145.787,148.2663 151.046,160.8435 " fill="none" id="Subject&lt;-Subject2" style="stroke: #A80036; stroke-width: 1.0;"/><polygon fill="none" points="127.406,122.451,126.149,101.299,140.323,117.051,127.406,122.451" style="stroke: #A80036; stroke-width: 1.0;"/><!--
@startuml
abstract class Subject {
    void template()
    {abstract} void method1()
    {abstract} void method2()
}
class Subject1 extends Subject {
    void method1()
    void method2()
}
class Subject2 extends Subject {
    void method1()
    void method2()
}
@enduml

PlantUML version 1.2019.09(Tue Aug 27 00:19:51 CST 2019)
(GPL source distribution)
Java Runtime: Java(TM) SE Runtime Environment
JVM: Java HotSpot(TM) 64-Bit Server VM
Java Version: 1.8.0_231-b11
Operating System: Windows 10
OS Version: 10.0
Default Encoding: GBK
Language: zh
Country: CN
--></g></svg>