<?xml version="1.0" encoding="UTF-8" standalone="no"?><svg xmlns="http://www.w3.org/2000/svg" xmlns:xlink="http://www.w3.org/1999/xlink" contentScriptType="application/ecmascript" contentStyleType="text/css" height="466px" preserveAspectRatio="none" style="width:284px;height:466px;" version="1.1" viewBox="0 0 284 466" width="284px" zoomAndPan="magnify"><defs><filter height="300%" id="f1nfvtvad40x9" width="300%" x="-1" y="-1"><feGaussianBlur result="blurOut" stdDeviation="2.0"/><feColorMatrix in="blurOut" result="blurOut2" type="matrix" values="0 0 0 0 0 0 0 0 0 0 0 0 0 0 0 0 0 0 .4 0"/><feOffset dx="4.0" dy="4.0" in="blurOut2" result="blurOut3"/><feBlend in="SourceGraphic" in2="blurOut3" mode="normal"/></filter></defs><g><!--class Element--><rect fill="#FEFECE" filter="url(#f1nfvtvad40x9)" height="63.0229" id="Element" style="stroke: #A80036; stroke-width: 1.5;" width="116" x="81" y="8"/><ellipse cx="113.1" cy="24" fill="#B4A7E5" rx="11" ry="11" style="stroke: #A80036; stroke-width: 1.0;"/><path d="M109.6938,18.2813 L109.6938,17.875 L116.0063,17.875 L116.0063,18.2813 L113.475,18.2813 Q113.475,18.2813 113.6234,18.4141 Q113.7719,18.5469 113.7719,18.8125 L113.7719,28.2969 Q113.7719,28.5625 113.9906,28.6953 Q114.2094,28.8281 114.2094,28.8281 L116.0063,28.8281 L116.0063,29.2344 L109.6938,29.2344 L109.6938,28.8281 L111.225,28.8281 Q111.5531,28.8281 111.6859,28.6953 Q111.8188,28.5625 111.8188,28.2969 L111.8188,18.8125 Q111.8188,18.5469 111.6859,18.4141 Q111.5531,18.2813 111.225,18.2813 L109.6938,18.2813 Z "/><text fill="#000000" font-family="sans-serif" font-size="12" font-style="italic" lengthAdjust="spacingAndGlyphs" textLength="46" x="130.9" y="29.5576">Element</text><line style="stroke: #A80036; stroke-width: 1.5;" x1="82" x2="196" y1="40" y2="40"/><line style="stroke: #A80036; stroke-width: 1.5;" x1="82" x2="196" y1="48" y2="48"/><text fill="#000000" font-family="sans-serif" font-size="11" lengthAdjust="spacingAndGlyphs" textLength="104" x="87" y="64.606">void accept(Visitor v)</text><!--class Element1--><rect fill="#FEFECE" filter="url(#f1nfvtvad40x9)" height="78.0459" id="Element1" style="stroke: #A80036; stroke-width: 1.5;" width="116" x="157" y="131"/><ellipse cx="185.95" cy="147" fill="#ADD1B2" rx="11" ry="11" style="stroke: #A80036; stroke-width: 1.0;"/><path d="M184.5281,152.3594 Q182.6688,152.3594 181.575,150.9688 Q180.4813,149.5781 180.4813,146.5938 Q180.4813,144.0625 181.6453,142.4063 Q182.8094,140.75 184.7938,140.75 Q186.2625,140.75 186.7313,140.875 Q187.2,141.0781 187.2,141.0781 Q187.2,141.0781 187.2,141.0078 Q187.2,140.9375 187.8094,140.0156 L188.8563,143.6719 L187.5281,144.0781 Q187.0594,142.5313 186.3953,141.8672 Q185.7313,141.2031 184.6688,141.2031 Q184.2781,141.2031 183.5125,142.7344 Q182.7469,144.2656 182.7469,146.5156 Q182.7469,148.9844 183.4109,150.375 Q184.075,151.7656 184.6063,151.7656 Q185.6688,151.7656 186.4266,151 Q187.1844,150.2344 187.5281,148.5781 L188.8563,149.1719 Q188.5281,150.5781 187.6297,151.4688 Q186.7313,152.3594 184.5281,152.3594 Z "/><text fill="#000000" font-family="sans-serif" font-size="12" lengthAdjust="spacingAndGlyphs" textLength="53" x="203.05" y="152.5576">Element1</text><line style="stroke: #A80036; stroke-width: 1.5;" x1="158" x2="272" y1="163" y2="163"/><line style="stroke: #A80036; stroke-width: 1.5;" x1="158" x2="272" y1="171" y2="171"/><text fill="#000000" font-family="sans-serif" font-size="11" lengthAdjust="spacingAndGlyphs" textLength="104" x="163" y="187.606">void accept(Visitor v)</text><text fill="#000000" font-family="sans-serif" font-size="11" lengthAdjust="spacingAndGlyphs" textLength="72" x="163" y="202.6289">void method1()</text><!--class Element2--><rect fill="#FEFECE" filter="url(#f1nfvtvad40x9)" height="78.0459" id="Element2" style="stroke: #A80036; stroke-width: 1.5;" width="116" x="6" y="131"/><ellipse cx="34.95" cy="147" fill="#ADD1B2" rx="11" ry="11" style="stroke: #A80036; stroke-width: 1.0;"/><path d="M33.5281,152.3594 Q31.6688,152.3594 30.575,150.9688 Q29.4813,149.5781 29.4813,146.5938 Q29.4813,144.0625 30.6453,142.4063 Q31.8094,140.75 33.7938,140.75 Q35.2625,140.75 35.7313,140.875 Q36.2,141.0781 36.2,141.0781 Q36.2,141.0781 36.2,141.0078 Q36.2,140.9375 36.8094,140.0156 L37.8563,143.6719 L36.5281,144.0781 Q36.0594,142.5313 35.3953,141.8672 Q34.7313,141.2031 33.6688,141.2031 Q33.2781,141.2031 32.5125,142.7344 Q31.7469,144.2656 31.7469,146.5156 Q31.7469,148.9844 32.4109,150.375 Q33.075,151.7656 33.6063,151.7656 Q34.6688,151.7656 35.4266,151 Q36.1844,150.2344 36.5281,148.5781 L37.8563,149.1719 Q37.5281,150.5781 36.6297,151.4688 Q35.7313,152.3594 33.5281,152.3594 Z "/><text fill="#000000" font-family="sans-serif" font-size="12" lengthAdjust="spacingAndGlyphs" textLength="53" x="52.05" y="152.5576">Element2</text><line style="stroke: #A80036; stroke-width: 1.5;" x1="7" x2="121" y1="163" y2="163"/><line style="stroke: #A80036; stroke-width: 1.5;" x1="7" x2="121" y1="171" y2="171"/><text fill="#000000" font-family="sans-serif" font-size="11" lengthAdjust="spacingAndGlyphs" textLength="104" x="12" y="187.606">void accept(Visitor v)</text><text fill="#000000" font-family="sans-serif" font-size="11" lengthAdjust="spacingAndGlyphs" textLength="72" x="12" y="202.6289">void method2()</text><!--class Visitor--><rect fill="#FEFECE" filter="url(#f1nfvtvad40x9)" height="78.0459" id="Visitor" style="stroke: #A80036; stroke-width: 1.5;" width="114" x="82" y="269"/><ellipse cx="118.6" cy="285" fill="#B4A7E5" rx="11" ry="11" style="stroke: #A80036; stroke-width: 1.0;"/><path d="M115.1938,279.2813 L115.1938,278.875 L121.5063,278.875 L121.5063,279.2813 L118.975,279.2813 Q118.975,279.2813 119.1234,279.4141 Q119.2719,279.5469 119.2719,279.8125 L119.2719,289.2969 Q119.2719,289.5625 119.4906,289.6953 Q119.7094,289.8281 119.7094,289.8281 L121.5063,289.8281 L121.5063,290.2344 L115.1938,290.2344 L115.1938,289.8281 L116.725,289.8281 Q117.0531,289.8281 117.1859,289.6953 Q117.3188,289.5625 117.3188,289.2969 L117.3188,279.8125 Q117.3188,279.5469 117.1859,279.4141 Q117.0531,279.2813 116.725,279.2813 L115.1938,279.2813 Z "/><text fill="#000000" font-family="sans-serif" font-size="12" font-style="italic" lengthAdjust="spacingAndGlyphs" textLength="34" x="137.4" y="290.5576">Visitor</text><line style="stroke: #A80036; stroke-width: 1.5;" x1="83" x2="195" y1="301" y2="301"/><line style="stroke: #A80036; stroke-width: 1.5;" x1="83" x2="195" y1="309" y2="309"/><text fill="#000000" font-family="sans-serif" font-size="11" lengthAdjust="spacingAndGlyphs" textLength="102" x="88" y="325.606">void visit(Element1 e)</text><text fill="#000000" font-family="sans-serif" font-size="11" lengthAdjust="spacingAndGlyphs" textLength="102" x="88" y="340.6289">void visit(Element2 e)</text><!--class Visitor1--><rect fill="#FEFECE" filter="url(#f1nfvtvad40x9)" height="48" id="Visitor1" style="stroke: #A80036; stroke-width: 1.5;" width="73" x="48.5" y="407"/><ellipse cx="63.5" cy="423" fill="#ADD1B2" rx="11" ry="11" style="stroke: #A80036; stroke-width: 1.0;"/><path d="M62.0781,428.3594 Q60.2188,428.3594 59.125,426.9688 Q58.0313,425.5781 58.0313,422.5938 Q58.0313,420.0625 59.1953,418.4063 Q60.3594,416.75 62.3438,416.75 Q63.8125,416.75 64.2813,416.875 Q64.75,417.0781 64.75,417.0781 Q64.75,417.0781 64.75,417.0078 Q64.75,416.9375 65.3594,416.0156 L66.4063,419.6719 L65.0781,420.0781 Q64.6094,418.5313 63.9453,417.8672 Q63.2813,417.2031 62.2188,417.2031 Q61.8281,417.2031 61.0625,418.7344 Q60.2969,420.2656 60.2969,422.5156 Q60.2969,424.9844 60.9609,426.375 Q61.625,427.7656 62.1563,427.7656 Q63.2188,427.7656 63.9766,427 Q64.7344,426.2344 65.0781,424.5781 L66.4063,425.1719 Q66.0781,426.5781 65.1797,427.4688 Q64.2813,428.3594 62.0781,428.3594 Z "/><text fill="#000000" font-family="sans-serif" font-size="12" lengthAdjust="spacingAndGlyphs" textLength="41" x="77.5" y="428.5576">Visitor1</text><line style="stroke: #A80036; stroke-width: 1.5;" x1="49.5" x2="120.5" y1="439" y2="439"/><line style="stroke: #A80036; stroke-width: 1.5;" x1="49.5" x2="120.5" y1="447" y2="447"/><!--class Visitor2--><rect fill="#FEFECE" filter="url(#f1nfvtvad40x9)" height="48" id="Visitor2" style="stroke: #A80036; stroke-width: 1.5;" width="73" x="156.5" y="407"/><ellipse cx="171.5" cy="423" fill="#ADD1B2" rx="11" ry="11" style="stroke: #A80036; stroke-width: 1.0;"/><path d="M170.0781,428.3594 Q168.2188,428.3594 167.125,426.9688 Q166.0313,425.5781 166.0313,422.5938 Q166.0313,420.0625 167.1953,418.4063 Q168.3594,416.75 170.3438,416.75 Q171.8125,416.75 172.2813,416.875 Q172.75,417.0781 172.75,417.0781 Q172.75,417.0781 172.75,417.0078 Q172.75,416.9375 173.3594,416.0156 L174.4063,419.6719 L173.0781,420.0781 Q172.6094,418.5313 171.9453,417.8672 Q171.2813,417.2031 170.2188,417.2031 Q169.8281,417.2031 169.0625,418.7344 Q168.2969,420.2656 168.2969,422.5156 Q168.2969,424.9844 168.9609,426.375 Q169.625,427.7656 170.1563,427.7656 Q171.2188,427.7656 171.9766,427 Q172.7344,426.2344 173.0781,424.5781 L174.4063,425.1719 Q174.0781,426.5781 173.1797,427.4688 Q172.2813,428.3594 170.0781,428.3594 Z "/><text fill="#000000" font-family="sans-serif" font-size="12" lengthAdjust="spacingAndGlyphs" textLength="41" x="185.5" y="428.5576">Visitor2</text><line style="stroke: #A80036; stroke-width: 1.5;" x1="157.5" x2="228.5" y1="439" y2="439"/><line style="stroke: #A80036; stroke-width: 1.5;" x1="157.5" x2="228.5" y1="447" y2="447"/><!--reverse link Element to Element1--><path d="M167.482,88.658 C175.685,102.526 184.519,117.464 192.32,130.652 " fill="none" id="Element&lt;-Element1" style="stroke: #A80036; stroke-width: 1.0; stroke-dasharray: 7.0,7.0;"/><polygon fill="none" points="161.36,92.057,157.204,71.279,173.41,84.93,161.36,92.057" style="stroke: #A80036; stroke-width: 1.0;"/><!--reverse link Element to Element2--><path d="M110.892,88.658 C102.798,102.526 94.0795,117.464 86.3818,130.652 " fill="none" id="Element&lt;-Element2" style="stroke: #A80036; stroke-width: 1.0; stroke-dasharray: 7.0,7.0;"/><polygon fill="none" points="104.9084,85.024,121.036,71.279,117,92.081,104.9084,85.024" style="stroke: #A80036; stroke-width: 1.0;"/><!--reverse link Visitor to Visitor1--><path d="M113.628,365.8511 C107.176,380.3085 100.5998,395.0449 95.3798,406.7416 " fill="none" id="Visitor&lt;-Visitor1" style="stroke: #A80036; stroke-width: 1.0; stroke-dasharray: 7.0,7.0;"/><polygon fill="none" points="107.371,362.6961,121.914,347.285,120.156,368.4017,107.371,362.6961" style="stroke: #A80036; stroke-width: 1.0;"/><!--reverse link Visitor to Visitor2--><path d="M164.372,365.8511 C170.824,380.3085 177.4,395.0449 182.62,406.7416 " fill="none" id="Visitor&lt;-Visitor2" style="stroke: #A80036; stroke-width: 1.0; stroke-dasharray: 7.0,7.0;"/><polygon fill="none" points="157.844,368.4017,156.086,347.285,170.629,362.6961,157.844,368.4017" style="stroke: #A80036; stroke-width: 1.0;"/><!--reverse link Element1 to Visitor--><path d="M191.163,213.655 C181.339,231.236 170.04,251.455 160.475,268.57 " fill="none" id="Element1&lt;-Visitor" style="stroke: #A80036; stroke-width: 1.0; stroke-dasharray: 7.0,7.0;"/><polygon fill="#A80036" points="193.628,209.246,185.7461,215.1516,191.1891,213.6108,192.7299,219.0538,193.628,209.246" style="stroke: #A80036; stroke-width: 1.0;"/><!--reverse link Element2 to Visitor--><path d="M87.523,213.655 C97.2185,231.236 108.369,251.455 117.807,268.57 " fill="none" id="Element2&lt;-Visitor" style="stroke: #A80036; stroke-width: 1.0; stroke-dasharray: 7.0,7.0;"/><polygon fill="#A80036" points="85.0913,209.246,85.9343,219.0587,87.5056,213.6245,92.9398,215.1958,85.0913,209.246" style="stroke: #A80036; stroke-width: 1.0;"/><!--
@startuml
interface Element {
    void accept(Visitor v)
}
class Element1 implements Element {
    void accept(Visitor v)
    void method1()
}
class Element2 implements Element {
    void accept(Visitor v)
    void method2()
}
interface Visitor {
    void visit(Element1 e)
    void visit(Element2 e)
}
class Visitor1 implements Visitor
class Visitor2 implements Visitor
Visitor .up.> Element1
Visitor .up.> Element2
@enduml

PlantUML version 1.2019.09(Tue Aug 27 00:19:51 CST 2019)
(GPL source distribution)
Java Runtime: Java(TM) SE Runtime Environment
JVM: Java HotSpot(TM) 64-Bit Server VM
Java Version: 1.8.0_231-b11
Operating System: Windows 10
OS Version: 10.0
Default Encoding: GBK
Language: zh
Country: CN
--></g></svg>